G04*
G04 #@! TF.GenerationSoftware,Altium Limited,Altium Designer,19.0.12 (326)*
G04*
G04 Layer_Physical_Order=1*
G04 Layer_Color=255*
%FSAX25Y25*%
%MOIN*%
G70*
G01*
G75*
%ADD14C,0.01000*%
%ADD17R,0.03543X0.03937*%
%ADD18R,0.03937X0.02362*%
%ADD19R,0.08268X0.11811*%
%ADD20R,0.03150X0.06299*%
%ADD21R,0.01181X0.04724*%
%ADD22R,0.04724X0.01181*%
%ADD23R,0.05787X0.04685*%
%ADD24R,0.03150X0.03150*%
%ADD25R,0.03150X0.03150*%
%ADD26R,0.03543X0.02362*%
%ADD27R,0.02362X0.03543*%
%ADD28R,0.02953X0.05512*%
%ADD29R,0.03543X0.03150*%
%ADD31R,0.05512X0.04724*%
%ADD33R,0.05512X0.01575*%
%ADD34R,0.04685X0.05787*%
%ADD58C,0.03110*%
%ADD59R,0.07480X0.06102*%
%ADD60C,0.00800*%
%ADD61C,0.01500*%
%ADD62R,0.05906X0.05906*%
%ADD63C,0.05906*%
%ADD64C,0.03543*%
%ADD65O,0.06299X0.03937*%
%ADD66C,0.01968*%
G36*
X0507344Y0420014D02*
X0507344Y0420014D01*
X0507344Y0420014D01*
X0509065Y0419878D01*
X0510834Y0419454D01*
X0512515Y0418758D01*
X0514066Y0417807D01*
X0515449Y0416626D01*
X0516630Y0415243D01*
X0517581Y0413692D01*
X0518277Y0412011D01*
X0518701Y0410243D01*
X0518837Y0408521D01*
X0518837Y0408521D01*
X0518837D01*
X0518841Y0408517D01*
X0518841Y0319418D01*
X0518341Y0319211D01*
X0513663Y0323889D01*
X0513639Y0323905D01*
X0513530Y0324451D01*
X0513054Y0325164D01*
X0512341Y0325640D01*
X0511500Y0325808D01*
X0510659Y0325640D01*
X0509946Y0325164D01*
X0509470Y0324451D01*
X0509303Y0323610D01*
X0509470Y0322769D01*
X0509946Y0322057D01*
X0510659Y0321580D01*
X0511500Y0321413D01*
X0512341Y0321580D01*
X0512789Y0321880D01*
X0514625Y0320044D01*
X0514378Y0319583D01*
X0514143Y0319630D01*
X0513411D01*
X0513054Y0320164D01*
X0512341Y0320640D01*
X0511500Y0320808D01*
X0510659Y0320640D01*
X0509946Y0320164D01*
X0509470Y0319451D01*
X0509303Y0318610D01*
X0509470Y0317769D01*
X0509946Y0317056D01*
X0510659Y0316580D01*
X0511500Y0316413D01*
X0512341Y0316580D01*
X0513054Y0317056D01*
X0513294Y0317415D01*
X0513855Y0317457D01*
X0515364Y0315948D01*
Y0310554D01*
X0514864Y0310384D01*
X0514825Y0310435D01*
X0514290Y0310845D01*
X0513668Y0311103D01*
X0513000Y0311191D01*
X0512489Y0311124D01*
X0512341Y0311580D01*
X0513054Y0312056D01*
X0513530Y0312769D01*
X0513697Y0313610D01*
X0513530Y0314451D01*
X0513054Y0315164D01*
X0512341Y0315640D01*
X0511500Y0315808D01*
X0510659Y0315640D01*
X0509946Y0315164D01*
X0509470Y0314451D01*
X0509424Y0314220D01*
X0508904Y0314169D01*
X0508732Y0314584D01*
X0508322Y0315118D01*
X0507789Y0315527D01*
X0507167Y0315785D01*
X0507000Y0315807D01*
Y0313295D01*
X0506500D01*
Y0312795D01*
X0503989D01*
X0504011Y0312628D01*
X0504268Y0312007D01*
X0504552Y0311636D01*
X0504397Y0311153D01*
X0504356Y0311106D01*
X0504332Y0311103D01*
X0503710Y0310845D01*
X0503175Y0310435D01*
X0502765Y0309901D01*
X0502507Y0309278D01*
X0502419Y0308610D01*
X0502507Y0307942D01*
X0502765Y0307320D01*
X0503175Y0306785D01*
X0503710Y0306375D01*
X0504332Y0306117D01*
X0505000Y0306030D01*
X0505668Y0306117D01*
X0506290Y0306375D01*
X0506825Y0306785D01*
X0507235Y0307320D01*
X0507493Y0307942D01*
X0507581Y0308610D01*
X0507493Y0309278D01*
X0507235Y0309901D01*
X0506949Y0310273D01*
X0507103Y0310754D01*
X0507146Y0310803D01*
X0507167Y0310806D01*
X0507789Y0311063D01*
X0507898Y0311147D01*
X0508398Y0310900D01*
Y0303966D01*
X0507200Y0302768D01*
X0507055Y0302796D01*
X0506437Y0302673D01*
X0505913Y0302323D01*
X0505563Y0301799D01*
X0505440Y0301181D01*
X0505563Y0300563D01*
X0505913Y0300039D01*
X0506225Y0299831D01*
X0506073Y0299331D01*
X0447291D01*
X0445212Y0301410D01*
X0445403Y0301872D01*
X0456957D01*
X0457484Y0301977D01*
X0457930Y0302275D01*
X0458776Y0303121D01*
X0459075Y0303568D01*
X0459180Y0304095D01*
Y0314656D01*
X0460372D01*
Y0315061D01*
X0463246D01*
Y0314262D01*
X0467596D01*
Y0316665D01*
X0468255Y0317324D01*
X0471716D01*
X0471890Y0317209D01*
X0472508Y0317086D01*
X0473126Y0317209D01*
X0473650Y0317559D01*
X0474000Y0318083D01*
X0474123Y0318701D01*
X0474000Y0319319D01*
X0473650Y0319843D01*
X0473126Y0320193D01*
X0472508Y0320316D01*
X0471890Y0320193D01*
X0471716Y0320077D01*
X0467996D01*
Y0321843D01*
X0465921D01*
Y0319768D01*
X0466098D01*
X0466305Y0319268D01*
X0465649Y0318612D01*
X0463246D01*
Y0317813D01*
X0460372D01*
Y0318218D01*
X0457832D01*
X0457558Y0318629D01*
X0454298Y0321889D01*
Y0327639D01*
X0454193Y0328165D01*
X0453895Y0328612D01*
X0453895Y0328612D01*
X0448069Y0334438D01*
X0447622Y0334736D01*
X0447095Y0334841D01*
X0440437D01*
Y0336329D01*
X0437862D01*
Y0337329D01*
X0440437D01*
Y0339404D01*
X0440623Y0339827D01*
X0454369D01*
X0476307Y0317889D01*
X0476637Y0317668D01*
X0477028Y0317591D01*
X0504589D01*
X0504946Y0317056D01*
X0505659Y0316580D01*
X0506500Y0316413D01*
X0507341Y0316580D01*
X0508054Y0317056D01*
X0508530Y0317769D01*
X0508697Y0318610D01*
X0508530Y0319451D01*
X0508054Y0320164D01*
X0507341Y0320640D01*
X0506500Y0320808D01*
X0505659Y0320640D01*
X0504946Y0320164D01*
X0504589Y0319630D01*
X0477450D01*
X0455512Y0341567D01*
X0455182Y0341788D01*
X0454791Y0341866D01*
X0431350D01*
X0431198Y0342366D01*
X0431229Y0342387D01*
X0431579Y0342911D01*
X0431620Y0343115D01*
X0455863Y0367359D01*
X0455863Y0367359D01*
X0456161Y0367805D01*
X0456266Y0368332D01*
X0456266Y0368332D01*
Y0377921D01*
X0457808Y0379463D01*
X0457884Y0379466D01*
X0458151Y0379398D01*
X0458325Y0379272D01*
Y0376683D01*
X0461887D01*
Y0381427D01*
X0460272D01*
X0459739Y0381960D01*
X0459708Y0382268D01*
X0459756Y0382573D01*
X0459770Y0382582D01*
X0460371Y0383184D01*
X0461887D01*
Y0387927D01*
X0458325D01*
Y0385257D01*
X0458299Y0385124D01*
Y0385004D01*
X0458226Y0384932D01*
X0456419D01*
X0455892Y0384827D01*
X0455445Y0384528D01*
X0455445Y0384528D01*
X0451416Y0380500D01*
X0451118Y0380053D01*
X0451013Y0379526D01*
Y0370216D01*
X0437413Y0356616D01*
X0436913Y0356823D01*
Y0371020D01*
X0437036Y0371102D01*
X0437386Y0371626D01*
X0437509Y0372244D01*
X0437386Y0372862D01*
X0437036Y0373386D01*
X0436512Y0373736D01*
X0435894Y0373859D01*
X0435276Y0373736D01*
X0434752Y0373386D01*
X0434559Y0373098D01*
X0434059Y0373250D01*
Y0376940D01*
X0437751Y0380632D01*
X0438213Y0380440D01*
Y0379024D01*
X0440984D01*
X0443756D01*
Y0381492D01*
X0444088Y0381854D01*
X0447508D01*
X0447898Y0381932D01*
X0448229Y0382153D01*
X0455509Y0389433D01*
X0483405D01*
X0483796Y0389511D01*
X0484127Y0389732D01*
X0488349Y0393955D01*
X0488557Y0394266D01*
X0491372D01*
Y0397828D01*
X0486628D01*
Y0395365D01*
X0486609Y0395266D01*
Y0395098D01*
X0482983Y0391472D01*
X0479509D01*
X0479383Y0391674D01*
X0479320Y0391972D01*
X0481349Y0394002D01*
X0481557Y0394313D01*
X0484372D01*
Y0397876D01*
X0479628D01*
Y0395412D01*
X0479609Y0395313D01*
Y0395145D01*
X0478101Y0393638D01*
X0440194D01*
X0439927Y0394138D01*
X0439945Y0394165D01*
X0440068Y0394783D01*
X0439945Y0395402D01*
X0439595Y0395926D01*
X0439071Y0396276D01*
X0438453Y0396399D01*
X0438308Y0396370D01*
X0436728Y0397950D01*
X0436919Y0398412D01*
X0452156D01*
X0452546Y0398489D01*
X0452877Y0398710D01*
X0458268Y0404102D01*
X0458489Y0404433D01*
X0458567Y0404823D01*
Y0406266D01*
X0459919D01*
Y0409828D01*
X0455176D01*
Y0406266D01*
X0456528D01*
Y0405245D01*
X0451734Y0400451D01*
X0431999D01*
X0431808Y0400913D01*
X0436849Y0405955D01*
X0437057Y0406266D01*
X0439872D01*
Y0409828D01*
X0435128D01*
Y0407365D01*
X0435109Y0407266D01*
Y0407098D01*
X0429862Y0401851D01*
X0412588D01*
X0412198Y0401774D01*
X0411867Y0401552D01*
X0401959Y0391645D01*
X0401738Y0391314D01*
X0401661Y0390924D01*
Y0381011D01*
X0398605Y0377956D01*
X0396372D01*
Y0380183D01*
X0396391Y0380281D01*
Y0380449D01*
X0396418Y0380476D01*
X0397170D01*
X0397252Y0380354D01*
X0397776Y0380004D01*
X0398394Y0379881D01*
X0399012Y0380004D01*
X0399536Y0380354D01*
X0399886Y0380878D01*
X0400009Y0381496D01*
X0399886Y0382114D01*
X0399536Y0382638D01*
X0399012Y0382988D01*
X0398394Y0383111D01*
X0397776Y0382988D01*
X0397252Y0382638D01*
X0397170Y0382516D01*
X0395996D01*
X0395606Y0382438D01*
X0395275Y0382217D01*
X0394651Y0381593D01*
X0394443Y0381281D01*
X0391628D01*
Y0377956D01*
X0389885D01*
Y0381281D01*
X0387071D01*
X0386863Y0381593D01*
X0385773Y0382682D01*
X0385618Y0382786D01*
X0385614Y0382803D01*
X0385400Y0383124D01*
X0385651Y0383624D01*
X0389885D01*
Y0387187D01*
X0387071D01*
X0386863Y0387498D01*
X0377390Y0396972D01*
Y0398250D01*
X0378545D01*
Y0405750D01*
X0374195D01*
Y0398250D01*
X0375350D01*
Y0396549D01*
X0375428Y0396159D01*
X0375649Y0395828D01*
X0385123Y0386355D01*
Y0386187D01*
X0385142Y0386088D01*
Y0384010D01*
X0384986Y0383881D01*
X0384642Y0383697D01*
X0384122Y0383800D01*
X0383899Y0383756D01*
X0383400Y0384163D01*
Y0387187D01*
X0380585D01*
X0380377Y0387498D01*
X0372468Y0395407D01*
Y0398250D01*
X0373624D01*
Y0405750D01*
X0369274D01*
Y0398250D01*
X0370429D01*
Y0394985D01*
X0370507Y0394594D01*
X0370728Y0394264D01*
X0378637Y0386355D01*
Y0386187D01*
X0378656Y0386088D01*
Y0383624D01*
X0382593D01*
X0382844Y0383124D01*
X0382630Y0382803D01*
X0382507Y0382185D01*
X0382587Y0381781D01*
X0382265Y0381281D01*
X0378656D01*
Y0378817D01*
X0378637Y0378719D01*
Y0378338D01*
X0376983Y0376685D01*
X0376839Y0376714D01*
X0376220Y0376591D01*
X0376061Y0376484D01*
X0375561Y0376752D01*
Y0377719D01*
X0376913D01*
Y0381281D01*
X0372170D01*
Y0377719D01*
X0373522D01*
Y0374799D01*
X0368342Y0369619D01*
X0368121Y0369288D01*
X0368043Y0368898D01*
Y0366121D01*
X0367728Y0365910D01*
X0367378Y0365386D01*
X0367255Y0364768D01*
X0367378Y0364150D01*
X0367728Y0363626D01*
X0368252Y0363275D01*
X0368870Y0363153D01*
X0369336Y0363245D01*
X0369836Y0362952D01*
Y0357874D01*
X0369845Y0357827D01*
X0369385Y0357581D01*
X0353499Y0373467D01*
X0353505Y0373482D01*
X0353794Y0373879D01*
X0354299Y0373778D01*
X0354917Y0373901D01*
X0355441Y0374252D01*
X0355957Y0374185D01*
X0356307Y0373661D01*
X0356831Y0373311D01*
X0357449Y0373188D01*
X0358067Y0373311D01*
X0358591Y0373661D01*
X0358941Y0374185D01*
X0359064Y0374803D01*
X0359035Y0374948D01*
X0361054Y0376966D01*
X0361275Y0377297D01*
X0361352Y0377687D01*
Y0377719D01*
X0363941D01*
Y0381281D01*
X0359198D01*
Y0377994D01*
X0357593Y0376390D01*
X0357449Y0376418D01*
X0356831Y0376295D01*
X0356545Y0376105D01*
X0356095Y0376405D01*
X0356103Y0376447D01*
Y0377719D01*
X0357455D01*
Y0381281D01*
X0352712D01*
Y0377719D01*
X0354064D01*
Y0376962D01*
X0353681Y0376886D01*
X0353157Y0376536D01*
X0352807Y0376012D01*
X0352684Y0375394D01*
X0352784Y0374888D01*
X0352387Y0374600D01*
X0352372Y0374593D01*
X0349747Y0377219D01*
X0349930Y0377719D01*
X0350969D01*
Y0381281D01*
X0346386D01*
X0346383Y0381296D01*
X0346162Y0381627D01*
X0344686Y0383103D01*
X0344588Y0383168D01*
X0344483Y0383624D01*
X0344483Y0383794D01*
Y0387187D01*
X0343131D01*
Y0398250D01*
X0344096D01*
Y0405750D01*
X0339746D01*
Y0398250D01*
X0341092D01*
Y0387187D01*
X0339740D01*
X0339740Y0383624D01*
X0339332Y0383401D01*
X0338405D01*
X0337997Y0383624D01*
X0337997Y0383902D01*
Y0386088D01*
X0338017Y0386187D01*
Y0386766D01*
X0338020Y0386780D01*
Y0398250D01*
X0339175D01*
Y0405750D01*
X0334825D01*
Y0398250D01*
X0335980D01*
Y0387187D01*
X0333254D01*
X0333254Y0383624D01*
X0332846Y0383401D01*
X0331919D01*
X0331511Y0383624D01*
Y0386088D01*
X0331531Y0386187D01*
Y0386355D01*
X0332800Y0387624D01*
X0333021Y0387955D01*
X0333098Y0388345D01*
Y0398250D01*
X0334254D01*
Y0405750D01*
X0329904D01*
Y0398250D01*
X0331059D01*
Y0388767D01*
X0329790Y0387498D01*
X0329582Y0387187D01*
X0327429D01*
Y0388739D01*
X0327878Y0389189D01*
X0328099Y0389519D01*
X0328177Y0389910D01*
Y0398250D01*
X0329332D01*
Y0405750D01*
X0327429D01*
Y0420018D01*
X0469525Y0420018D01*
X0469667Y0419754D01*
X0469705Y0419518D01*
X0467204Y0417017D01*
X0466905Y0416570D01*
X0466818Y0416128D01*
X0465872D01*
Y0415950D01*
X0463395D01*
X0463215Y0415985D01*
X0463095Y0416066D01*
X0462477Y0416189D01*
X0461859Y0416066D01*
X0461335Y0415716D01*
X0460985Y0415192D01*
X0460862Y0414573D01*
X0460985Y0413955D01*
X0461335Y0413431D01*
X0461859Y0413081D01*
X0462477Y0412958D01*
X0463095Y0413081D01*
X0463269Y0413197D01*
X0465872D01*
Y0411778D01*
X0466671D01*
Y0410222D01*
X0465872D01*
Y0405872D01*
X0470222D01*
Y0410222D01*
X0469424D01*
Y0411778D01*
X0470222D01*
Y0416127D01*
X0470222Y0416127D01*
X0470222D01*
X0470549Y0416469D01*
X0471306Y0417226D01*
X0476977D01*
X0479202Y0415001D01*
X0479648Y0414703D01*
X0479825Y0414668D01*
Y0412975D01*
X0484175D01*
Y0417324D01*
X0481308D01*
X0481175Y0417351D01*
X0480745D01*
X0478578Y0419518D01*
X0478616Y0419754D01*
X0478758Y0420018D01*
X0507340D01*
X0507344Y0420014D01*
D02*
G37*
G36*
X0454227Y0391396D02*
X0454290Y0391098D01*
X0447086Y0383894D01*
X0445602D01*
X0445122Y0383941D01*
Y0387394D01*
X0441169D01*
X0437217D01*
Y0383941D01*
X0437469D01*
X0437676Y0383441D01*
X0432575Y0378340D01*
X0432075Y0378547D01*
Y0384430D01*
X0432097Y0384432D01*
X0432961Y0384790D01*
X0433703Y0385360D01*
X0434273Y0386102D01*
X0434631Y0386966D01*
X0434753Y0387894D01*
X0434631Y0388821D01*
X0434273Y0389685D01*
X0433703Y0390428D01*
X0432961Y0390997D01*
X0432716Y0391098D01*
X0432815Y0391599D01*
X0437217D01*
Y0388394D01*
X0441169D01*
X0445122D01*
Y0391599D01*
X0454101D01*
X0454227Y0391396D01*
D02*
G37*
G36*
X0436866Y0394928D02*
X0436837Y0394783D01*
X0436960Y0394165D01*
X0436979Y0394138D01*
X0436712Y0393638D01*
X0428118D01*
X0427728Y0393560D01*
X0427397Y0393339D01*
X0425527Y0391469D01*
X0425306Y0391138D01*
X0425228Y0390748D01*
Y0388111D01*
X0424728Y0388078D01*
X0424713Y0388192D01*
X0424631Y0388821D01*
X0424273Y0389685D01*
X0423703Y0390428D01*
X0422961Y0390997D01*
X0422097Y0391355D01*
X0421169Y0391477D01*
X0420242Y0391355D01*
X0419378Y0390997D01*
X0418635Y0390428D01*
X0418066Y0389685D01*
X0417708Y0388821D01*
X0417586Y0387894D01*
X0417708Y0386966D01*
X0418066Y0386102D01*
X0418635Y0385360D01*
X0419378Y0384790D01*
X0420242Y0384432D01*
X0421169Y0384310D01*
X0422097Y0384432D01*
X0422961Y0384790D01*
X0423703Y0385360D01*
X0424273Y0386102D01*
X0424631Y0386966D01*
X0424713Y0387595D01*
X0424728Y0387709D01*
X0425228Y0387677D01*
Y0384252D01*
X0425306Y0383862D01*
X0425527Y0383531D01*
X0427278Y0381780D01*
X0427240Y0381113D01*
X0427214Y0381092D01*
X0427091Y0381092D01*
X0422471D01*
Y0375955D01*
X0427091D01*
X0427214Y0375955D01*
X0427591Y0375657D01*
Y0375091D01*
X0427214Y0374793D01*
X0422471D01*
Y0374531D01*
X0421977Y0374371D01*
X0421453Y0374721D01*
X0420835Y0374844D01*
X0420217Y0374721D01*
X0419693Y0374371D01*
X0419611Y0374248D01*
X0416194D01*
X0411675Y0378767D01*
Y0381675D01*
X0407325D01*
Y0378767D01*
X0402364Y0373806D01*
X0402017Y0373845D01*
X0401827Y0374335D01*
X0406201Y0378708D01*
X0406422Y0379039D01*
X0406500Y0379429D01*
Y0382650D01*
X0406925Y0382831D01*
X0407000Y0382831D01*
X0409000D01*
Y0385405D01*
Y0387980D01*
X0407000D01*
X0406925Y0387980D01*
X0406500Y0388161D01*
Y0389341D01*
X0414170Y0397012D01*
X0434782D01*
X0436866Y0394928D01*
D02*
G37*
G36*
X0339740Y0381281D02*
Y0377719D01*
X0341092D01*
Y0370081D01*
X0340592Y0369873D01*
X0336645Y0373820D01*
Y0377719D01*
X0337997D01*
Y0381281D01*
X0338464Y0381362D01*
X0339274D01*
X0339740Y0381281D01*
D02*
G37*
G36*
X0347578Y0376926D02*
X0347656Y0376536D01*
X0347877Y0376205D01*
X0355769Y0368312D01*
X0355578Y0367850D01*
X0354342D01*
X0354260Y0367973D01*
X0353736Y0368323D01*
X0353118Y0368446D01*
X0352500Y0368323D01*
X0351976Y0367973D01*
X0351713Y0367579D01*
X0351152Y0367433D01*
X0346461Y0372124D01*
Y0377719D01*
X0347578D01*
Y0376926D01*
D02*
G37*
G36*
X0415051Y0372507D02*
X0415381Y0372286D01*
X0415772Y0372209D01*
X0419611D01*
X0419693Y0372086D01*
X0420217Y0371736D01*
X0420835Y0371613D01*
X0421453Y0371736D01*
X0421977Y0372086D01*
X0422471Y0371926D01*
Y0369656D01*
X0427214D01*
X0427591Y0369358D01*
Y0365547D01*
X0427220Y0365234D01*
X0427091Y0365234D01*
X0425145D01*
Y0362660D01*
Y0360085D01*
X0427091D01*
X0427220Y0360085D01*
X0427591Y0359772D01*
Y0355259D01*
X0427297Y0355029D01*
X0426820Y0355241D01*
Y0358929D01*
X0422471D01*
Y0358019D01*
X0419930D01*
Y0360356D01*
X0415778D01*
Y0353644D01*
X0416834D01*
Y0352658D01*
X0414900Y0350724D01*
X0411854D01*
X0411799Y0351223D01*
X0412130Y0351444D01*
X0412599Y0351913D01*
X0412820Y0352244D01*
X0412897Y0352634D01*
Y0353644D01*
X0414222D01*
Y0360356D01*
X0410069D01*
Y0357773D01*
X0407820D01*
Y0358928D01*
X0403471D01*
Y0357764D01*
X0402972Y0357760D01*
X0402895Y0358150D01*
X0402674Y0358481D01*
X0400076Y0361078D01*
Y0364183D01*
X0398724D01*
Y0365935D01*
X0399880D01*
Y0370285D01*
X0395530D01*
Y0365935D01*
X0396685D01*
Y0364183D01*
X0395333D01*
Y0359833D01*
X0394933Y0359661D01*
Y0357587D01*
X0397705D01*
Y0357087D01*
X0398205D01*
Y0354512D01*
X0400476D01*
Y0354512D01*
X0400933Y0354408D01*
Y0347715D01*
X0400890Y0347682D01*
X0400433Y0347532D01*
X0397632Y0350334D01*
X0397301Y0350555D01*
X0396911Y0350632D01*
X0395746D01*
Y0353356D01*
X0392183D01*
Y0348657D01*
X0389840D01*
Y0353356D01*
X0389627D01*
X0389420Y0353856D01*
X0390476Y0354912D01*
X0393580D01*
X0393580Y0359192D01*
X0393980Y0359433D01*
X0393980Y0359503D01*
X0393980Y0359503D01*
Y0361508D01*
X0391209D01*
X0388437D01*
Y0359503D01*
X0388437Y0359503D01*
Y0359433D01*
X0388837Y0359192D01*
X0388837Y0358933D01*
Y0358106D01*
X0387478D01*
Y0359163D01*
X0383128D01*
X0382800Y0359527D01*
Y0359561D01*
X0382749Y0359819D01*
X0382967Y0360204D01*
X0383078Y0360319D01*
X0384803D01*
Y0362894D01*
Y0365469D01*
X0383160D01*
X0382690Y0365648D01*
X0382631Y0365928D01*
X0382563Y0366268D01*
X0382538Y0366306D01*
X0382839Y0366756D01*
X0383159Y0366692D01*
X0383777Y0366815D01*
X0384301Y0367165D01*
X0384651Y0367689D01*
X0384774Y0368307D01*
X0384651Y0368925D01*
X0384301Y0369449D01*
X0383777Y0369799D01*
X0383159Y0369922D01*
X0383057Y0369902D01*
X0382490Y0370296D01*
X0382473Y0370396D01*
X0383794Y0371717D01*
X0402736D01*
X0403126Y0371794D01*
X0403457Y0372015D01*
X0408767Y0377325D01*
X0410233D01*
X0415051Y0372507D01*
D02*
G37*
G36*
X0410069Y0353644D02*
X0410069D01*
X0409970Y0353185D01*
X0408728D01*
X0408338Y0353107D01*
X0408007Y0352886D01*
X0403472Y0348351D01*
X0402972Y0348558D01*
Y0354574D01*
X0403471Y0354579D01*
Y0354579D01*
X0407820D01*
Y0355734D01*
X0410069D01*
Y0353644D01*
D02*
G37*
G36*
X0344421Y0371702D02*
X0344499Y0371311D01*
X0344720Y0370981D01*
X0374609Y0341092D01*
X0374614Y0341085D01*
X0374551Y0340789D01*
X0374425Y0340586D01*
X0371730D01*
Y0340856D01*
X0369304D01*
X0369255Y0341356D01*
X0369583Y0341421D01*
X0370107Y0341771D01*
X0370457Y0342295D01*
X0370580Y0342913D01*
X0370457Y0343531D01*
X0370107Y0344056D01*
X0369583Y0344406D01*
X0368965Y0344529D01*
X0368820Y0344500D01*
X0343131Y0370189D01*
Y0377719D01*
X0344421D01*
Y0371702D01*
D02*
G37*
G36*
X0381028Y0341073D02*
X0380864Y0340531D01*
X0380551Y0340469D01*
X0380301Y0340302D01*
X0378150Y0342453D01*
X0377819Y0342674D01*
X0377429Y0342752D01*
X0375833D01*
X0353720Y0364864D01*
X0353866Y0365425D01*
X0354260Y0365688D01*
X0354342Y0365811D01*
X0356291D01*
X0381028Y0341073D01*
D02*
G37*
G36*
X0422471Y0354579D02*
X0426316D01*
X0426523Y0354079D01*
X0423657Y0351213D01*
X0423436Y0350882D01*
X0423358Y0350492D01*
Y0340503D01*
X0422858Y0340253D01*
X0422536Y0340469D01*
X0421917Y0340592D01*
X0421893Y0340587D01*
X0419454Y0343025D01*
X0419091Y0343268D01*
X0418661Y0343354D01*
X0418661Y0343354D01*
X0411017D01*
Y0345195D01*
X0406909D01*
Y0345755D01*
X0409840Y0348685D01*
X0415323D01*
X0415713Y0348763D01*
X0416044Y0348984D01*
X0418575Y0351515D01*
X0418796Y0351846D01*
X0418874Y0352236D01*
Y0353644D01*
X0419930D01*
Y0355980D01*
X0422471D01*
Y0354579D01*
D02*
G37*
G36*
X0328120Y0376636D02*
X0328198Y0376246D01*
X0328418Y0375915D01*
X0361374Y0342960D01*
X0361345Y0342815D01*
X0361468Y0342197D01*
X0361818Y0341673D01*
X0362145Y0341454D01*
X0361994Y0340954D01*
X0360983D01*
Y0339720D01*
X0359072D01*
Y0341643D01*
X0352085D01*
Y0335758D01*
X0359072D01*
Y0337681D01*
X0360983D01*
Y0336605D01*
X0365332D01*
Y0337662D01*
X0367380D01*
Y0336506D01*
X0371730D01*
Y0338547D01*
X0374827D01*
X0374909Y0338425D01*
X0375433Y0338075D01*
X0375734Y0338015D01*
X0375836Y0337783D01*
X0375867Y0337478D01*
X0375133Y0336745D01*
X0374912Y0336414D01*
X0374835Y0336024D01*
Y0334033D01*
X0372592Y0331790D01*
X0372130Y0331982D01*
Y0332276D01*
X0370055D01*
Y0330201D01*
X0370349D01*
X0370540Y0329739D01*
X0366275Y0325474D01*
X0366054Y0325143D01*
X0365996Y0324849D01*
X0365535Y0324602D01*
X0359218Y0330919D01*
X0359072Y0331016D01*
Y0334911D01*
X0352085D01*
Y0330234D01*
X0352063Y0330126D01*
X0352085Y0330018D01*
Y0329026D01*
X0353077D01*
X0353185Y0329004D01*
X0353185Y0329004D01*
X0357961D01*
X0364374Y0322591D01*
Y0306390D01*
X0361688Y0303704D01*
X0358217D01*
X0358217Y0303704D01*
X0357788Y0303619D01*
X0357424Y0303376D01*
X0357424Y0303376D01*
X0348463Y0294415D01*
X0348220Y0294051D01*
X0348134Y0293622D01*
X0348134Y0293622D01*
Y0291364D01*
X0348000Y0290887D01*
X0347382Y0290764D01*
X0346858Y0290414D01*
X0346508Y0289890D01*
X0346385Y0289272D01*
X0346508Y0288653D01*
X0346858Y0288129D01*
X0347382Y0287779D01*
X0348000Y0287656D01*
X0348618Y0287779D01*
X0349142Y0288129D01*
X0349236Y0288270D01*
X0349736Y0288119D01*
Y0285945D01*
X0349814Y0285554D01*
X0350035Y0285224D01*
X0350949Y0284310D01*
X0350757Y0283848D01*
X0327429D01*
Y0377719D01*
X0328120D01*
Y0376636D01*
D02*
G37*
G36*
X0420307Y0339001D02*
X0420302Y0338976D01*
X0420425Y0338358D01*
X0420747Y0337876D01*
X0420698Y0337716D01*
X0420503Y0337415D01*
X0420335Y0337448D01*
X0420335Y0337448D01*
X0418694D01*
Y0337517D01*
X0412770D01*
Y0335949D01*
X0412370D01*
Y0334858D01*
X0415732D01*
Y0333858D01*
X0412370D01*
Y0332768D01*
X0412770D01*
Y0331441D01*
X0395659D01*
X0391336Y0335763D01*
X0391006Y0335984D01*
X0390616Y0336062D01*
X0390272D01*
X0390191Y0336184D01*
X0389667Y0336534D01*
X0389049Y0336657D01*
X0388549Y0336558D01*
X0388050Y0336835D01*
Y0338494D01*
X0387995Y0338770D01*
X0388195Y0339135D01*
X0388315Y0339270D01*
X0393059D01*
Y0338570D01*
X0393019Y0338544D01*
X0392669Y0338020D01*
X0392546Y0337402D01*
X0392669Y0336783D01*
X0393019Y0336259D01*
X0393543Y0335909D01*
X0394161Y0335786D01*
X0394780Y0335909D01*
X0395304Y0336259D01*
X0395654Y0336783D01*
X0395777Y0337402D01*
X0395654Y0338020D01*
X0395304Y0338544D01*
X0395098Y0338681D01*
Y0339270D01*
X0411017D01*
Y0341111D01*
X0418197D01*
X0420307Y0339001D01*
D02*
G37*
G36*
X0451545Y0327068D02*
Y0322268D01*
X0451083Y0322076D01*
X0449545Y0323614D01*
Y0325698D01*
X0444408D01*
Y0323756D01*
X0438265D01*
Y0325108D01*
X0437166D01*
Y0325239D01*
X0437089Y0325629D01*
X0436868Y0325960D01*
X0435863Y0326964D01*
X0435745Y0327043D01*
X0435897Y0327543D01*
X0437461D01*
Y0330118D01*
X0437961D01*
Y0330618D01*
X0440535D01*
Y0332088D01*
X0446525D01*
X0451545Y0327068D01*
D02*
G37*
G36*
X0412770Y0325294D02*
Y0321598D01*
X0411010D01*
X0407448Y0325160D01*
X0407117Y0325381D01*
X0406727Y0325459D01*
X0399278D01*
X0395797Y0328940D01*
X0395989Y0329402D01*
X0412770D01*
Y0325294D01*
D02*
G37*
G36*
X0434703Y0325108D02*
Y0320365D01*
X0438265D01*
Y0321717D01*
X0444008D01*
Y0320677D01*
X0446976D01*
Y0319677D01*
X0444008D01*
Y0319130D01*
X0433410D01*
X0433019Y0319052D01*
X0432689Y0318831D01*
X0430599Y0316742D01*
X0429502D01*
X0429404Y0316761D01*
X0427070D01*
X0425866Y0317966D01*
X0425895Y0318110D01*
X0425772Y0318728D01*
X0425597Y0318990D01*
X0425865Y0319490D01*
X0428709D01*
X0429235Y0319595D01*
X0429682Y0319893D01*
X0430127Y0320338D01*
X0430148D01*
X0430281Y0320365D01*
X0432360D01*
Y0325108D01*
X0432812Y0325224D01*
X0434251D01*
X0434703Y0325108D01*
D02*
G37*
G36*
X0376398Y0328709D02*
X0376306Y0328248D01*
X0376429Y0327630D01*
X0376676Y0327260D01*
X0376787Y0326733D01*
X0376437Y0326209D01*
X0376314Y0325591D01*
X0376437Y0324972D01*
X0376787Y0324448D01*
X0376934Y0324350D01*
X0376931Y0323751D01*
X0376681Y0323583D01*
X0376330Y0323059D01*
X0376207Y0322441D01*
X0376330Y0321823D01*
X0376666Y0321321D01*
X0376733Y0321187D01*
Y0320841D01*
X0376666Y0320707D01*
X0376330Y0320205D01*
X0376207Y0319587D01*
X0376330Y0318969D01*
X0376681Y0318444D01*
X0377205Y0318094D01*
X0377823Y0317971D01*
X0378405Y0318087D01*
X0378456Y0318085D01*
X0378906Y0317803D01*
Y0317142D01*
X0382268D01*
X0385630D01*
Y0317159D01*
X0386130Y0317426D01*
X0386161Y0317405D01*
X0386779Y0317282D01*
X0387398Y0317405D01*
X0387922Y0317756D01*
X0388004Y0317878D01*
X0391698D01*
X0391728Y0317802D01*
X0391781Y0317378D01*
X0391346Y0317087D01*
X0390996Y0316563D01*
X0390873Y0315945D01*
X0390996Y0315327D01*
X0391346Y0314803D01*
X0391870Y0314453D01*
X0392488Y0314330D01*
X0392551Y0314342D01*
X0394663Y0312230D01*
X0394456Y0311730D01*
X0386983D01*
Y0309787D01*
X0379701D01*
X0379311Y0309710D01*
X0378980Y0309489D01*
X0366373Y0296882D01*
X0366153Y0296552D01*
X0366075Y0296161D01*
Y0293335D01*
X0365990Y0293323D01*
X0365126Y0292966D01*
X0364383Y0292396D01*
X0363814Y0291654D01*
X0363456Y0290790D01*
X0363334Y0289862D01*
X0363456Y0288935D01*
X0363814Y0288071D01*
X0364383Y0287328D01*
X0364510Y0287231D01*
X0364340Y0286731D01*
X0360470D01*
Y0291089D01*
X0360535Y0291413D01*
X0360535Y0291413D01*
Y0292149D01*
X0373399Y0305014D01*
X0373399Y0305014D01*
X0373642Y0305378D01*
X0373728Y0305807D01*
X0373728Y0305807D01*
Y0311014D01*
X0374781D01*
Y0313552D01*
X0379306D01*
Y0313483D01*
X0385230D01*
Y0315051D01*
X0385630D01*
Y0316142D01*
X0382268D01*
X0378906D01*
Y0315795D01*
X0374091D01*
X0373661Y0315709D01*
X0373298Y0315466D01*
X0373297Y0315466D01*
X0373195Y0315364D01*
X0370431D01*
Y0311014D01*
X0371485D01*
Y0306272D01*
X0369900Y0304687D01*
X0369416Y0304910D01*
Y0322434D01*
X0375937Y0328956D01*
X0376398Y0328709D01*
D02*
G37*
G36*
X0444408Y0316740D02*
Y0316354D01*
X0443637Y0315583D01*
X0443416Y0315252D01*
X0443339Y0314862D01*
Y0309776D01*
X0442839Y0309569D01*
X0438086Y0314322D01*
X0437872Y0314465D01*
Y0316742D01*
X0438227Y0317091D01*
X0444057D01*
X0444408Y0316740D01*
D02*
G37*
G36*
X0408358Y0305405D02*
X0409449D01*
Y0305405D01*
X0409949Y0305532D01*
X0410475Y0305005D01*
X0410284Y0304543D01*
X0409693D01*
Y0301969D01*
X0409193D01*
Y0301468D01*
X0406618D01*
Y0299732D01*
X0406118Y0299525D01*
X0401004Y0304639D01*
Y0305805D01*
X0406268D01*
Y0305405D01*
X0407358D01*
Y0308768D01*
X0408358D01*
Y0305405D01*
D02*
G37*
G36*
X0452787Y0317488D02*
Y0307425D01*
X0452665Y0307343D01*
X0452315Y0306819D01*
X0452192Y0306201D01*
X0452315Y0305583D01*
X0452621Y0305125D01*
X0452545Y0304852D01*
X0452414Y0304625D01*
X0446009D01*
X0445742Y0305125D01*
X0445851Y0305287D01*
X0445973Y0305906D01*
X0445851Y0306524D01*
X0445500Y0307048D01*
X0445378Y0307130D01*
Y0314440D01*
X0445594Y0314656D01*
X0449545D01*
Y0317996D01*
X0449945D01*
Y0319677D01*
X0450407Y0319869D01*
X0452787Y0317488D01*
D02*
G37*
G36*
X0428798Y0325108D02*
Y0322831D01*
X0428584Y0322688D01*
X0428138Y0322243D01*
X0421812D01*
X0421285Y0322138D01*
X0420838Y0321839D01*
X0419960Y0320961D01*
X0419661Y0320514D01*
X0419557Y0319988D01*
Y0314941D01*
X0419661Y0314414D01*
X0419960Y0313967D01*
X0424959Y0308968D01*
X0424959Y0308968D01*
X0425406Y0308669D01*
X0425933Y0308564D01*
X0431661D01*
X0432188Y0308669D01*
X0432635Y0308968D01*
X0435639Y0311972D01*
X0435659D01*
X0435792Y0311998D01*
X0436389D01*
X0436522Y0311972D01*
X0436522Y0311972D01*
X0436542D01*
X0440648Y0307867D01*
Y0304939D01*
X0440752Y0304412D01*
X0441051Y0303965D01*
X0442036Y0302980D01*
X0441845Y0302518D01*
X0438492D01*
X0433399Y0307611D01*
X0433069Y0307832D01*
X0432678Y0307909D01*
X0421060D01*
X0416752Y0312218D01*
Y0313483D01*
X0418694D01*
Y0315451D01*
Y0319388D01*
Y0323496D01*
X0424976D01*
X0425366Y0323574D01*
X0425697Y0323795D01*
X0427126Y0325224D01*
X0428346D01*
X0428798Y0325108D01*
D02*
G37*
G36*
X0437311Y0300815D02*
X0437295Y0300657D01*
X0437141Y0300315D01*
X0424978D01*
X0424827Y0300815D01*
X0425225Y0301081D01*
X0425575Y0301605D01*
X0425698Y0302223D01*
X0425575Y0302841D01*
X0425225Y0303365D01*
X0424701Y0303715D01*
X0424083Y0303838D01*
X0423464Y0303715D01*
X0423350Y0303639D01*
X0421581Y0305408D01*
X0421773Y0305870D01*
X0432256D01*
X0437311Y0300815D01*
D02*
G37*
G36*
X0511175Y0306785D02*
X0511710Y0306375D01*
X0512332Y0306117D01*
X0513000Y0306030D01*
X0513668Y0306117D01*
X0514290Y0306375D01*
X0514825Y0306785D01*
X0514864Y0306836D01*
X0515364Y0306666D01*
Y0304841D01*
X0509854Y0299331D01*
X0508037D01*
X0507886Y0299831D01*
X0508197Y0300039D01*
X0508547Y0300563D01*
X0508670Y0301181D01*
X0508642Y0301326D01*
X0510138Y0302822D01*
X0510359Y0303153D01*
X0510437Y0303543D01*
Y0306926D01*
X0510937Y0307096D01*
X0511175Y0306785D01*
D02*
G37*
G36*
X0444425Y0293373D02*
X0444756Y0293152D01*
X0445146Y0293075D01*
X0445943D01*
X0446103Y0292575D01*
X0445551Y0291856D01*
X0445153Y0290894D01*
X0445083Y0290362D01*
X0452925D01*
X0452855Y0290894D01*
X0452457Y0291856D01*
X0451905Y0292575D01*
X0452065Y0293075D01*
X0458076D01*
X0458181Y0292763D01*
X0458206Y0292575D01*
X0457579Y0291757D01*
X0457181Y0290796D01*
X0457111Y0290264D01*
X0461031D01*
Y0289764D01*
X0461531D01*
Y0285843D01*
X0462063Y0285913D01*
X0463025Y0286311D01*
X0463851Y0286945D01*
X0464211Y0287414D01*
X0464701Y0287254D01*
X0464746Y0286888D01*
X0463129Y0285272D01*
X0411351D01*
X0411160Y0285734D01*
X0413682Y0288255D01*
X0413903Y0288586D01*
X0413980Y0288976D01*
Y0290738D01*
X0414201Y0290885D01*
X0414551Y0291409D01*
X0414674Y0292028D01*
X0414551Y0292646D01*
X0414201Y0293170D01*
X0414060Y0293264D01*
X0414212Y0293764D01*
X0415096D01*
X0415451Y0293415D01*
X0415451Y0293264D01*
Y0286310D01*
X0422557D01*
Y0293264D01*
X0422557Y0293415D01*
X0422912Y0293764D01*
X0427833D01*
X0427933Y0293264D01*
X0427212Y0292966D01*
X0426470Y0292396D01*
X0425901Y0291654D01*
X0425543Y0290790D01*
X0425421Y0289862D01*
X0425543Y0288935D01*
X0425901Y0288071D01*
X0426470Y0287328D01*
X0427212Y0286759D01*
X0428077Y0286401D01*
X0429004Y0286279D01*
X0429931Y0286401D01*
X0430796Y0286759D01*
X0431538Y0287328D01*
X0432107Y0288071D01*
X0432465Y0288935D01*
X0432587Y0289862D01*
X0432465Y0290790D01*
X0432107Y0291654D01*
X0431538Y0292396D01*
X0430796Y0292966D01*
X0430075Y0293264D01*
X0430175Y0293764D01*
X0437833D01*
X0437932Y0293264D01*
X0437212Y0292966D01*
X0436470Y0292396D01*
X0435901Y0291654D01*
X0435543Y0290790D01*
X0435421Y0289862D01*
X0435543Y0288935D01*
X0435901Y0288071D01*
X0436470Y0287328D01*
X0437212Y0286759D01*
X0438076Y0286401D01*
X0439004Y0286279D01*
X0439931Y0286401D01*
X0440796Y0286759D01*
X0441538Y0287328D01*
X0442107Y0288071D01*
X0442465Y0288935D01*
X0442587Y0289862D01*
X0442465Y0290790D01*
X0442107Y0291654D01*
X0441538Y0292396D01*
X0440796Y0292966D01*
X0440742Y0292988D01*
X0440888Y0293468D01*
X0440913Y0293463D01*
X0441532Y0293586D01*
X0442056Y0293937D01*
X0442406Y0294461D01*
X0442443Y0294648D01*
X0442985Y0294813D01*
X0444425Y0293373D01*
D02*
G37*
G36*
X0403381Y0294062D02*
X0403712Y0293842D01*
X0404102Y0293764D01*
X0404719D01*
X0404837Y0293507D01*
X0404857Y0293264D01*
X0404098Y0292681D01*
X0403465Y0291856D01*
X0403066Y0290894D01*
X0402996Y0290362D01*
X0406917D01*
Y0289362D01*
X0402996D01*
X0403066Y0288830D01*
X0403465Y0287869D01*
X0403954Y0287231D01*
X0403715Y0286731D01*
X0399494D01*
X0399324Y0287231D01*
X0399451Y0287328D01*
X0400021Y0288071D01*
X0400379Y0288935D01*
X0400501Y0289862D01*
X0400379Y0290790D01*
X0400021Y0291654D01*
X0399451Y0292396D01*
X0398709Y0292966D01*
X0398020Y0293251D01*
Y0297654D01*
X0397942Y0298044D01*
X0397721Y0298375D01*
X0395098Y0300997D01*
Y0301639D01*
X0395598Y0301846D01*
X0403381Y0294062D01*
D02*
G37*
G36*
X0393059Y0303048D02*
Y0300575D01*
X0393137Y0300185D01*
X0393358Y0299854D01*
X0395980Y0297231D01*
Y0293320D01*
X0395126Y0292966D01*
X0394384Y0292396D01*
X0393814Y0291654D01*
X0393456Y0290790D01*
X0393334Y0289862D01*
X0393456Y0288935D01*
X0393814Y0288071D01*
X0394384Y0287328D01*
X0394510Y0287231D01*
X0394340Y0286731D01*
X0389494D01*
X0389324Y0287231D01*
X0389451Y0287328D01*
X0390021Y0288071D01*
X0390379Y0288935D01*
X0390501Y0289862D01*
X0390379Y0290790D01*
X0390021Y0291654D01*
X0389451Y0292396D01*
X0388709Y0292966D01*
X0388020Y0293251D01*
Y0298715D01*
X0392559Y0303255D01*
X0393059Y0303048D01*
D02*
G37*
G36*
X0388384Y0301963D02*
X0386279Y0299859D01*
X0386058Y0299528D01*
X0385980Y0299138D01*
Y0293320D01*
X0385126Y0292966D01*
X0384383Y0292396D01*
X0383814Y0291654D01*
X0383456Y0290790D01*
X0383334Y0289862D01*
X0383456Y0288935D01*
X0383814Y0288071D01*
X0384383Y0287328D01*
X0384510Y0287231D01*
X0384341Y0286731D01*
X0379494D01*
X0379324Y0287231D01*
X0379451Y0287328D01*
X0380021Y0288071D01*
X0380379Y0288935D01*
X0380501Y0289862D01*
X0380379Y0290790D01*
X0380021Y0291654D01*
X0379451Y0292396D01*
X0378709Y0292966D01*
X0378020Y0293251D01*
Y0296196D01*
X0384249Y0302425D01*
X0388192D01*
X0388384Y0301963D01*
D02*
G37*
G36*
X0386983Y0305805D02*
X0389122D01*
Y0304867D01*
X0388719Y0304465D01*
X0383827D01*
X0383437Y0304387D01*
X0383106Y0304166D01*
X0376279Y0297339D01*
X0376058Y0297008D01*
X0375980Y0296618D01*
Y0293320D01*
X0375126Y0292966D01*
X0374383Y0292396D01*
X0373814Y0291654D01*
X0373456Y0290790D01*
X0373334Y0289862D01*
X0373456Y0288935D01*
X0373814Y0288071D01*
X0374383Y0287328D01*
X0374510Y0287231D01*
X0374341Y0286731D01*
X0369494D01*
X0369324Y0287231D01*
X0369451Y0287328D01*
X0370021Y0288071D01*
X0370379Y0288935D01*
X0370501Y0289862D01*
X0370379Y0290790D01*
X0370021Y0291654D01*
X0369451Y0292396D01*
X0368709Y0292966D01*
X0368114Y0293212D01*
Y0295739D01*
X0380123Y0307748D01*
X0386983D01*
Y0305805D01*
D02*
G37*
G36*
X0477657Y0290901D02*
X0477570Y0290691D01*
X0477448Y0289764D01*
X0477570Y0288836D01*
X0477928Y0287972D01*
X0478498Y0287230D01*
X0479240Y0286661D01*
X0480104Y0286302D01*
X0481032Y0286180D01*
X0481959Y0286302D01*
X0482823Y0286661D01*
X0483565Y0287230D01*
X0484135Y0287972D01*
X0484374Y0288550D01*
X0484874Y0288450D01*
Y0286938D01*
X0483208Y0285272D01*
X0476572D01*
X0474020Y0287823D01*
X0474135Y0287972D01*
X0474493Y0288836D01*
X0474615Y0289764D01*
X0474493Y0290691D01*
X0474135Y0291556D01*
X0473565Y0292298D01*
X0473204Y0292575D01*
X0473374Y0293075D01*
X0475483D01*
X0477657Y0290901D01*
D02*
G37*
G36*
X0518841Y0302747D02*
Y0295349D01*
X0518837Y0295345D01*
X0518837Y0295345D01*
X0518837Y0295345D01*
X0518701Y0293624D01*
X0518277Y0291855D01*
X0517581Y0290174D01*
X0516630Y0288623D01*
X0515449Y0287240D01*
X0514066Y0286059D01*
X0512515Y0285108D01*
X0510834Y0284412D01*
X0509065Y0283988D01*
X0507344Y0283852D01*
X0507344Y0283852D01*
Y0283852D01*
X0507340Y0283848D01*
X0485321D01*
X0485130Y0284310D01*
X0486615Y0285795D01*
X0486836Y0286126D01*
X0486913Y0286516D01*
Y0293110D01*
X0486836Y0293500D01*
X0486615Y0293831D01*
X0485016Y0295429D01*
X0485208Y0295891D01*
X0510856D01*
X0511246Y0295969D01*
X0511577Y0296190D01*
X0518341Y0302954D01*
X0518841Y0302747D01*
D02*
G37*
%LPC*%
G36*
X0451937Y0417265D02*
X0451319Y0417142D01*
X0450795Y0416792D01*
X0450445Y0416268D01*
X0450349Y0415788D01*
X0449872Y0415734D01*
X0449872Y0415734D01*
X0449872Y0415734D01*
X0445128D01*
Y0414972D01*
X0439872D01*
Y0415734D01*
X0435128D01*
Y0412172D01*
X0439872D01*
Y0412933D01*
X0445128D01*
Y0412172D01*
X0449475D01*
X0449683Y0411672D01*
X0448151Y0410140D01*
X0447943Y0409828D01*
X0445128D01*
Y0406266D01*
X0445430D01*
X0445621Y0405804D01*
X0444503Y0404686D01*
X0444358Y0404715D01*
X0443740Y0404592D01*
X0443216Y0404242D01*
X0442866Y0403718D01*
X0442743Y0403100D01*
X0442866Y0402482D01*
X0443216Y0401958D01*
X0443740Y0401607D01*
X0444358Y0401484D01*
X0444976Y0401607D01*
X0445500Y0401958D01*
X0445851Y0402482D01*
X0445973Y0403100D01*
X0445945Y0403244D01*
X0448114Y0405414D01*
X0448335Y0405745D01*
X0448413Y0406135D01*
Y0406266D01*
X0449872D01*
Y0408730D01*
X0449891Y0408828D01*
Y0408997D01*
X0453828Y0412933D01*
X0455176D01*
Y0412172D01*
X0459919D01*
Y0415734D01*
X0455176D01*
Y0414972D01*
X0453927D01*
X0453517Y0415472D01*
X0453552Y0415650D01*
X0453429Y0416268D01*
X0453079Y0416792D01*
X0452555Y0417142D01*
X0451937Y0417265D01*
D02*
G37*
G36*
X0476528Y0416528D02*
X0474453D01*
Y0414453D01*
X0476528D01*
Y0416528D01*
D02*
G37*
G36*
X0473453D02*
X0471378D01*
Y0414453D01*
X0473453D01*
Y0416528D01*
D02*
G37*
G36*
X0491175Y0417324D02*
X0486825D01*
Y0412975D01*
X0491175D01*
Y0413387D01*
X0494354D01*
X0494527Y0413272D01*
X0495146Y0413148D01*
X0495764Y0413272D01*
X0496288Y0413622D01*
X0496638Y0414146D01*
X0496761Y0414764D01*
X0496638Y0415382D01*
X0496288Y0415906D01*
X0495764Y0416256D01*
X0495146Y0416379D01*
X0494527Y0416256D01*
X0494354Y0416140D01*
X0491175D01*
Y0417324D01*
D02*
G37*
G36*
X0511028Y0414075D02*
X0508953D01*
Y0412000D01*
X0511028D01*
Y0414075D01*
D02*
G37*
G36*
X0507953D02*
X0505878D01*
Y0412000D01*
X0507953D01*
Y0414075D01*
D02*
G37*
G36*
X0476528Y0413453D02*
X0474453D01*
Y0411378D01*
X0476528D01*
Y0413453D01*
D02*
G37*
G36*
X0473453D02*
X0471378D01*
Y0411378D01*
X0473453D01*
Y0413453D01*
D02*
G37*
G36*
X0511028Y0411000D02*
X0508953D01*
Y0408925D01*
X0511028D01*
Y0411000D01*
D02*
G37*
G36*
X0507953D02*
X0505878D01*
Y0408925D01*
X0507953D01*
Y0411000D01*
D02*
G37*
G36*
X0476528Y0410622D02*
X0474453D01*
Y0408547D01*
X0476528D01*
Y0410622D01*
D02*
G37*
G36*
X0473453D02*
X0471378D01*
Y0408547D01*
X0473453D01*
Y0410622D01*
D02*
G37*
G36*
X0391110Y0414607D02*
X0390492Y0414485D01*
X0389968Y0414134D01*
X0389618Y0413610D01*
X0389495Y0412992D01*
X0389618Y0412374D01*
X0389757Y0412165D01*
Y0406103D01*
X0389484Y0405830D01*
X0388955Y0405872D01*
X0388787Y0406150D01*
X0388718Y0406150D01*
X0388718Y0406150D01*
X0386713D01*
Y0402000D01*
Y0397850D01*
X0388718D01*
X0388718Y0397850D01*
X0388787D01*
X0389029Y0398250D01*
X0389287Y0398250D01*
X0393309D01*
Y0405750D01*
X0392510D01*
Y0412236D01*
X0392603Y0412374D01*
X0392725Y0412992D01*
X0392603Y0413610D01*
X0392252Y0414134D01*
X0391728Y0414485D01*
X0391110Y0414607D01*
D02*
G37*
G36*
X0510587Y0407772D02*
X0508906D01*
Y0405500D01*
X0510587D01*
Y0407772D01*
D02*
G37*
G36*
X0507905D02*
X0506224D01*
Y0405500D01*
X0507905D01*
Y0407772D01*
D02*
G37*
G36*
X0476528Y0407547D02*
X0474453D01*
Y0405472D01*
X0476528D01*
Y0407547D01*
D02*
G37*
G36*
X0473453D02*
X0471378D01*
Y0405472D01*
X0473453D01*
Y0407547D01*
D02*
G37*
G36*
X0405710Y0418348D02*
X0396242D01*
Y0405337D01*
X0405710D01*
Y0418348D01*
D02*
G37*
G36*
X0510587Y0404500D02*
X0508906D01*
Y0402228D01*
X0510587D01*
Y0404500D01*
D02*
G37*
G36*
X0507905D02*
X0506224D01*
Y0402228D01*
X0507905D01*
Y0404500D01*
D02*
G37*
G36*
X0484175Y0411025D02*
X0479825D01*
Y0406676D01*
X0480878D01*
Y0403781D01*
X0479628D01*
Y0400219D01*
X0484372D01*
Y0403781D01*
X0483122D01*
Y0406676D01*
X0484175D01*
Y0411025D01*
D02*
G37*
G36*
X0491175D02*
X0486825D01*
Y0406676D01*
X0487878D01*
Y0403734D01*
X0486628D01*
Y0400172D01*
X0491372D01*
Y0403734D01*
X0490122D01*
Y0406676D01*
X0491175D01*
Y0411025D01*
D02*
G37*
G36*
X0349017Y0405750D02*
X0344668D01*
Y0398250D01*
X0345823D01*
Y0387161D01*
X0345901Y0386770D01*
X0346122Y0386440D01*
X0346206Y0386355D01*
Y0386187D01*
X0346226Y0386088D01*
Y0383624D01*
X0350969D01*
Y0387187D01*
X0348155D01*
X0347947Y0387498D01*
X0347862Y0387583D01*
Y0398250D01*
X0349017D01*
Y0405750D01*
D02*
G37*
G36*
X0383638Y0406150D02*
X0383396Y0405750D01*
X0383138Y0405750D01*
X0379117D01*
Y0398250D01*
X0380272D01*
Y0398114D01*
X0380349Y0397724D01*
X0380570Y0397393D01*
X0391609Y0386355D01*
Y0386187D01*
X0391628Y0386088D01*
Y0383624D01*
X0396372D01*
Y0387187D01*
X0393557D01*
X0393349Y0387498D01*
X0383397Y0397450D01*
X0383424Y0397485D01*
X0383708Y0397850D01*
Y0397850D01*
X0385713D01*
Y0402000D01*
Y0406150D01*
X0383708D01*
X0383708Y0406150D01*
X0383638D01*
D02*
G37*
G36*
X0368702Y0405750D02*
X0364353D01*
Y0398250D01*
X0365508D01*
Y0393420D01*
X0365586Y0393029D01*
X0365807Y0392699D01*
X0372150Y0386355D01*
Y0386187D01*
X0372170Y0386088D01*
Y0383624D01*
X0376913D01*
Y0387187D01*
X0374099D01*
X0373891Y0387498D01*
X0367547Y0393842D01*
Y0398250D01*
X0368702D01*
Y0405750D01*
D02*
G37*
G36*
X0363781D02*
X0359432D01*
Y0398250D01*
X0360587D01*
Y0391855D01*
X0360664Y0391465D01*
X0360885Y0391134D01*
X0365665Y0386355D01*
Y0386187D01*
X0365684Y0386088D01*
Y0383624D01*
X0370427D01*
Y0387187D01*
X0367613D01*
X0367405Y0387498D01*
X0362626Y0392277D01*
Y0398250D01*
X0363781D01*
Y0405750D01*
D02*
G37*
G36*
X0358860D02*
X0354510D01*
Y0398250D01*
X0355665D01*
Y0390290D01*
X0355743Y0389900D01*
X0355964Y0389569D01*
X0359178Y0386355D01*
Y0386187D01*
X0359198Y0386088D01*
Y0383624D01*
X0363941D01*
Y0387187D01*
X0361127D01*
X0360919Y0387498D01*
X0357705Y0390712D01*
Y0398250D01*
X0358860D01*
Y0405750D01*
D02*
G37*
G36*
X0353939D02*
X0349589D01*
Y0398250D01*
X0350744D01*
Y0388725D01*
X0350822Y0388335D01*
X0351043Y0388004D01*
X0352692Y0386355D01*
Y0386187D01*
X0352712Y0386088D01*
Y0383624D01*
X0357455D01*
Y0387187D01*
X0354641D01*
X0354433Y0387498D01*
X0352783Y0389148D01*
Y0398250D01*
X0353939D01*
Y0405750D01*
D02*
G37*
G36*
X0467793Y0387927D02*
X0464231D01*
Y0383184D01*
X0465747D01*
X0466320Y0382611D01*
X0466388Y0382484D01*
Y0382127D01*
X0466320Y0382000D01*
X0465747Y0381427D01*
X0464231D01*
Y0376683D01*
X0467793D01*
Y0379353D01*
X0467819Y0379486D01*
X0468246Y0379679D01*
X0469080D01*
X0469189Y0379657D01*
X0471613D01*
X0473700Y0377570D01*
X0473700Y0377570D01*
X0473975Y0377386D01*
Y0376762D01*
X0479112D01*
Y0380002D01*
X0479112Y0380324D01*
X0479112D01*
Y0380407D01*
X0479342Y0380907D01*
X0480205D01*
X0480482Y0380631D01*
Y0376850D01*
X0479812Y0376180D01*
X0475559D01*
X0475559Y0376180D01*
X0475032Y0376075D01*
X0474586Y0375777D01*
X0471436Y0372627D01*
X0471138Y0372180D01*
X0471033Y0371654D01*
Y0364370D01*
X0471138Y0363843D01*
X0471436Y0363397D01*
X0473227Y0361606D01*
X0473227Y0361606D01*
X0473674Y0361308D01*
X0474200Y0361203D01*
X0474200Y0361203D01*
X0474825D01*
Y0359872D01*
X0475624D01*
Y0354175D01*
X0475372D01*
Y0349825D01*
X0476171D01*
Y0346280D01*
X0476203Y0346117D01*
X0475811Y0345617D01*
X0470878D01*
X0470351Y0345512D01*
X0469935Y0345234D01*
X0467128D01*
Y0341672D01*
X0471872D01*
Y0342864D01*
X0476194D01*
X0476618Y0342681D01*
Y0341000D01*
X0479587D01*
X0482555D01*
Y0342681D01*
X0482155D01*
Y0346021D01*
X0479752D01*
X0478924Y0346850D01*
Y0349825D01*
X0479722D01*
Y0354175D01*
X0478376D01*
Y0359872D01*
X0479175D01*
Y0360123D01*
X0481825D01*
Y0358006D01*
X0487710D01*
Y0364994D01*
X0481825D01*
Y0362877D01*
X0479175D01*
Y0364222D01*
X0474825D01*
Y0364222D01*
X0474378Y0364349D01*
X0473786Y0364940D01*
Y0371083D01*
X0476129Y0373427D01*
X0480382D01*
X0480909Y0373532D01*
X0481355Y0373830D01*
X0482831Y0375306D01*
X0482832Y0375306D01*
X0483130Y0375753D01*
X0483235Y0376279D01*
X0483235Y0376280D01*
Y0381201D01*
X0483130Y0381728D01*
X0482832Y0382174D01*
X0481749Y0383257D01*
X0481302Y0383555D01*
X0480776Y0383660D01*
X0479342D01*
X0479112Y0384065D01*
Y0384243D01*
X0479112D01*
X0479112Y0384565D01*
Y0387805D01*
X0473975D01*
Y0387246D01*
X0473601Y0386997D01*
X0471515Y0384910D01*
X0470312D01*
X0470203Y0384932D01*
X0468246D01*
X0467819Y0385124D01*
X0467793Y0385257D01*
Y0387927D01*
D02*
G37*
G36*
X0443756Y0378024D02*
X0441484D01*
Y0375555D01*
X0443756D01*
Y0378024D01*
D02*
G37*
G36*
X0440484D02*
X0438213D01*
Y0375555D01*
X0440484D01*
Y0378024D01*
D02*
G37*
G36*
X0370427Y0381281D02*
X0365684D01*
Y0377719D01*
X0367036D01*
Y0376865D01*
X0366838Y0376733D01*
X0366488Y0376209D01*
X0366365Y0375591D01*
X0366488Y0374972D01*
X0366838Y0374448D01*
X0367362Y0374098D01*
X0367980Y0373975D01*
X0368598Y0374098D01*
X0369123Y0374448D01*
X0369473Y0374972D01*
X0369596Y0375591D01*
X0369473Y0376209D01*
X0369123Y0376733D01*
X0369075Y0376764D01*
Y0377719D01*
X0370427D01*
Y0381281D01*
D02*
G37*
G36*
X0504722Y0413675D02*
X0500373D01*
Y0409325D01*
X0501124D01*
Y0407372D01*
X0500719D01*
Y0404600D01*
X0500192Y0404073D01*
X0499894Y0403626D01*
X0499789Y0403100D01*
Y0399096D01*
X0497810D01*
Y0393172D01*
X0500386D01*
X0500653Y0392672D01*
X0500383Y0392268D01*
X0500229Y0391496D01*
X0500340Y0390941D01*
X0500017Y0390441D01*
X0496524D01*
Y0389154D01*
X0500280D01*
X0504035D01*
Y0390441D01*
X0504035Y0390441D01*
X0504099Y0390709D01*
X0504109Y0390724D01*
X0504263Y0391496D01*
X0504109Y0392268D01*
X0503839Y0392672D01*
X0504107Y0393172D01*
X0504521D01*
Y0394757D01*
X0506952D01*
X0507027Y0394184D01*
X0507286Y0393559D01*
X0507698Y0393022D01*
X0508234Y0392611D01*
X0508859Y0392352D01*
X0509334Y0392289D01*
Y0391222D01*
X0507160D01*
Y0383920D01*
X0510123D01*
Y0383151D01*
X0507160D01*
Y0375849D01*
X0509334D01*
Y0374781D01*
X0508859Y0374719D01*
X0508234Y0374460D01*
X0507698Y0374048D01*
X0507286Y0373512D01*
X0507027Y0372887D01*
X0506952Y0372313D01*
X0504521D01*
Y0373899D01*
X0504122D01*
X0503855Y0374399D01*
X0504109Y0374779D01*
X0504263Y0375551D01*
X0504109Y0376323D01*
X0503672Y0376977D01*
X0503670Y0376979D01*
X0503635Y0377030D01*
Y0379589D01*
Y0382148D01*
Y0386866D01*
X0504035D01*
Y0388154D01*
X0500280D01*
X0496524D01*
Y0386866D01*
X0496924D01*
Y0384882D01*
X0494968D01*
X0494829Y0384910D01*
X0492293D01*
X0490206Y0386997D01*
X0489939Y0387175D01*
Y0387805D01*
X0484802D01*
Y0384465D01*
X0484402D01*
Y0382784D01*
X0487370D01*
Y0381784D01*
X0484402D01*
Y0380102D01*
X0484802D01*
Y0376762D01*
X0489939D01*
Y0377452D01*
X0490115Y0377570D01*
X0492202Y0379657D01*
X0493682D01*
X0493821Y0379629D01*
X0494759D01*
X0494966Y0379129D01*
X0491086Y0375250D01*
X0490788Y0374803D01*
X0490683Y0374276D01*
Y0371675D01*
X0489885D01*
Y0367325D01*
X0490683D01*
Y0364994D01*
X0488557D01*
Y0358006D01*
X0494443D01*
Y0364994D01*
X0493436D01*
Y0367325D01*
X0494235D01*
Y0371675D01*
X0493436D01*
Y0373706D01*
X0496522Y0376792D01*
X0496924Y0377030D01*
X0500254D01*
X0500521Y0376530D01*
X0500383Y0376323D01*
X0500229Y0375551D01*
X0500383Y0374779D01*
X0500637Y0374399D01*
X0500370Y0373899D01*
X0497810D01*
Y0367975D01*
X0504521D01*
Y0369561D01*
X0507591D01*
X0508117Y0369665D01*
X0508446Y0369885D01*
X0508859Y0369714D01*
X0509529Y0369626D01*
X0511892D01*
X0512562Y0369714D01*
X0513187Y0369973D01*
X0513724Y0370385D01*
X0514135Y0370921D01*
X0514394Y0371546D01*
X0514482Y0372217D01*
X0514394Y0372887D01*
X0514135Y0373512D01*
X0513724Y0374048D01*
X0513187Y0374460D01*
X0512562Y0374719D01*
X0512087Y0374781D01*
Y0375849D01*
X0515840D01*
Y0383151D01*
X0512877D01*
Y0383920D01*
X0515840D01*
Y0391222D01*
X0512087D01*
Y0392289D01*
X0512562Y0392352D01*
X0513187Y0392611D01*
X0513724Y0393022D01*
X0514135Y0393559D01*
X0514394Y0394184D01*
X0514482Y0394854D01*
X0514394Y0395525D01*
X0514135Y0396150D01*
X0513724Y0396686D01*
X0513187Y0397098D01*
X0512562Y0397357D01*
X0511892Y0397445D01*
X0509529D01*
X0508859Y0397357D01*
X0508446Y0397186D01*
X0508117Y0397406D01*
X0507591Y0397510D01*
X0504521D01*
Y0399096D01*
X0502542D01*
Y0402529D01*
X0502641Y0402628D01*
X0504281D01*
Y0407372D01*
X0503876D01*
Y0409325D01*
X0504722D01*
Y0413675D01*
D02*
G37*
G36*
X0488729Y0372075D02*
X0486654D01*
Y0370000D01*
X0488729D01*
Y0372075D01*
D02*
G37*
G36*
X0485654D02*
X0483579D01*
Y0370000D01*
X0485654D01*
Y0372075D01*
D02*
G37*
G36*
X0443356Y0374793D02*
X0438613D01*
Y0369656D01*
X0443356D01*
Y0374793D01*
D02*
G37*
G36*
X0479575Y0370528D02*
X0477500D01*
Y0368453D01*
X0479575D01*
Y0370528D01*
D02*
G37*
G36*
X0476500D02*
X0474425D01*
Y0368453D01*
X0476500D01*
Y0370528D01*
D02*
G37*
G36*
X0488729Y0369000D02*
X0486654D01*
Y0366925D01*
X0488729D01*
Y0369000D01*
D02*
G37*
G36*
X0485654D02*
X0483579D01*
Y0366925D01*
X0485654D01*
Y0369000D01*
D02*
G37*
G36*
X0479575Y0367453D02*
X0477500D01*
Y0365378D01*
X0479575D01*
Y0367453D01*
D02*
G37*
G36*
X0476500D02*
X0474425D01*
Y0365378D01*
X0476500D01*
Y0367453D01*
D02*
G37*
G36*
X0486027Y0354575D02*
X0483953D01*
Y0352500D01*
X0486027D01*
Y0354575D01*
D02*
G37*
G36*
X0482953D02*
X0480878D01*
Y0352500D01*
X0482953D01*
Y0354575D01*
D02*
G37*
G36*
X0486027Y0351500D02*
X0483953D01*
Y0349425D01*
X0486027D01*
Y0351500D01*
D02*
G37*
G36*
X0482953D02*
X0480878D01*
Y0349425D01*
X0482953D01*
Y0351500D01*
D02*
G37*
G36*
X0505480Y0346399D02*
X0504862Y0346276D01*
X0504689Y0346160D01*
X0501704D01*
X0501674Y0346154D01*
X0500825D01*
X0500825Y0346154D01*
X0500692Y0346128D01*
X0497825D01*
Y0345617D01*
X0492982D01*
Y0346021D01*
X0487845D01*
Y0342459D01*
X0492982D01*
Y0342864D01*
X0497825D01*
Y0341778D01*
X0502175D01*
Y0343407D01*
X0504104D01*
Y0332460D01*
X0501498Y0329854D01*
X0501200Y0329408D01*
X0501122Y0329015D01*
X0498572D01*
X0498045Y0328910D01*
X0497598Y0328612D01*
X0492862Y0323875D01*
X0492657Y0323835D01*
X0492484Y0323719D01*
X0478516D01*
X0478342Y0323835D01*
X0477724Y0323958D01*
X0477106Y0323835D01*
X0476582Y0323485D01*
X0476232Y0322961D01*
X0476109Y0322342D01*
X0476232Y0321724D01*
X0476582Y0321200D01*
X0477106Y0320850D01*
X0477724Y0320727D01*
X0478342Y0320850D01*
X0478516Y0320966D01*
X0492484D01*
X0492657Y0320850D01*
X0493276Y0320727D01*
X0493894Y0320850D01*
X0494418Y0321200D01*
X0494768Y0321724D01*
X0494809Y0321929D01*
X0499142Y0326262D01*
X0501902D01*
X0504344Y0323819D01*
X0504303Y0323610D01*
X0504470Y0322769D01*
X0504946Y0322057D01*
X0505659Y0321580D01*
X0506500Y0321413D01*
X0507341Y0321580D01*
X0508054Y0322057D01*
X0508530Y0322769D01*
X0508697Y0323610D01*
X0508530Y0324451D01*
X0508054Y0325164D01*
X0507341Y0325640D01*
X0506500Y0325808D01*
X0506291Y0325766D01*
X0503848Y0328209D01*
Y0328311D01*
X0506454Y0330917D01*
X0506752Y0331363D01*
X0506857Y0331890D01*
Y0343992D01*
X0506973Y0344165D01*
X0507096Y0344783D01*
X0506973Y0345402D01*
X0506623Y0345926D01*
X0506098Y0346276D01*
X0505480Y0346399D01*
D02*
G37*
G36*
X0502575Y0340622D02*
X0500500D01*
Y0338547D01*
X0502575D01*
Y0340622D01*
D02*
G37*
G36*
X0499500D02*
X0497425D01*
Y0338547D01*
X0499500D01*
Y0340622D01*
D02*
G37*
G36*
X0482555Y0340000D02*
X0479587D01*
X0476618D01*
Y0338319D01*
X0476194Y0338136D01*
X0471947D01*
X0471872Y0338187D01*
Y0339328D01*
X0467128D01*
Y0335766D01*
X0469798D01*
X0469931Y0335740D01*
X0469931Y0335740D01*
X0470497D01*
X0470874Y0335488D01*
X0471400Y0335383D01*
X0477018D01*
Y0334979D01*
X0482155D01*
Y0338319D01*
X0482555D01*
Y0340000D01*
D02*
G37*
G36*
X0502575Y0337547D02*
X0500500D01*
Y0335472D01*
X0502575D01*
Y0337547D01*
D02*
G37*
G36*
X0499500D02*
X0497425D01*
Y0335472D01*
X0499500D01*
Y0337547D01*
D02*
G37*
G36*
X0486622Y0332575D02*
X0484547D01*
Y0330500D01*
X0486622D01*
Y0332575D01*
D02*
G37*
G36*
X0483547D02*
X0481472D01*
Y0330500D01*
X0483547D01*
Y0332575D01*
D02*
G37*
G36*
X0492982Y0338541D02*
X0487845D01*
Y0334979D01*
X0489037D01*
Y0332175D01*
X0487778D01*
Y0327825D01*
X0492128D01*
Y0332175D01*
X0491790D01*
Y0334979D01*
X0492982D01*
Y0338541D01*
D02*
G37*
G36*
X0486622Y0329500D02*
X0484547D01*
Y0327425D01*
X0486622D01*
Y0329500D01*
D02*
G37*
G36*
X0483547D02*
X0481472D01*
Y0327425D01*
X0483547D01*
Y0329500D01*
D02*
G37*
G36*
X0509000Y0331191D02*
X0508332Y0331103D01*
X0507710Y0330845D01*
X0507175Y0330435D01*
X0506765Y0329901D01*
X0506507Y0329278D01*
X0506419Y0328610D01*
X0506507Y0327942D01*
X0506765Y0327320D01*
X0507175Y0326785D01*
X0507710Y0326375D01*
X0508332Y0326117D01*
X0509000Y0326029D01*
X0509668Y0326117D01*
X0510290Y0326375D01*
X0510825Y0326785D01*
X0511235Y0327320D01*
X0511493Y0327942D01*
X0511581Y0328610D01*
X0511493Y0329278D01*
X0511235Y0329901D01*
X0510825Y0330435D01*
X0510290Y0330845D01*
X0509668Y0331103D01*
X0509000Y0331191D01*
D02*
G37*
G36*
X0467996Y0324917D02*
X0465921D01*
Y0322843D01*
X0467996D01*
Y0324917D01*
D02*
G37*
G36*
X0464921D02*
X0462847D01*
Y0322843D01*
X0464921D01*
Y0324917D01*
D02*
G37*
G36*
X0460372Y0325698D02*
X0455235D01*
Y0322136D01*
X0460372D01*
Y0325698D01*
D02*
G37*
G36*
X0464921Y0321843D02*
X0462847D01*
Y0319768D01*
X0464921D01*
Y0321843D01*
D02*
G37*
G36*
X0506000Y0315807D02*
X0505833Y0315785D01*
X0505211Y0315527D01*
X0504678Y0315118D01*
X0504268Y0314584D01*
X0504011Y0313962D01*
X0503989Y0313795D01*
X0506000D01*
Y0315807D01*
D02*
G37*
G36*
X0410000Y0387980D02*
Y0385906D01*
X0412075D01*
Y0387980D01*
X0410000D01*
D02*
G37*
G36*
X0412075Y0384906D02*
X0410000D01*
Y0382831D01*
X0412075D01*
Y0384906D01*
D02*
G37*
G36*
X0394374Y0370685D02*
X0392299D01*
Y0368610D01*
X0394374D01*
Y0370685D01*
D02*
G37*
G36*
X0391299D02*
X0389224D01*
Y0368610D01*
X0391299D01*
Y0370685D01*
D02*
G37*
G36*
X0394374Y0367610D02*
X0392299D01*
Y0365535D01*
X0394374D01*
Y0367610D01*
D02*
G37*
G36*
X0391299D02*
X0389224D01*
Y0365535D01*
X0391299D01*
Y0367610D01*
D02*
G37*
G36*
X0387878Y0365469D02*
X0385803D01*
Y0363394D01*
X0387878D01*
Y0365469D01*
D02*
G37*
G36*
X0424145Y0365234D02*
X0422071D01*
Y0363159D01*
X0424145D01*
Y0365234D01*
D02*
G37*
G36*
X0408220Y0365234D02*
X0406145D01*
Y0363159D01*
X0408220D01*
Y0365234D01*
D02*
G37*
G36*
X0405145D02*
X0403071D01*
Y0363159D01*
X0405145D01*
Y0365234D01*
D02*
G37*
G36*
X0405645Y0362659D02*
D01*
D01*
D01*
D02*
G37*
G36*
X0393980Y0364583D02*
X0391709D01*
Y0362508D01*
X0393980D01*
Y0364583D01*
D02*
G37*
G36*
X0390709D02*
X0388437D01*
Y0362508D01*
X0390709D01*
Y0364583D01*
D02*
G37*
G36*
X0387878Y0362394D02*
X0385803D01*
Y0360319D01*
X0387878D01*
Y0362394D01*
D02*
G37*
G36*
X0424145Y0362159D02*
X0422071D01*
Y0360085D01*
X0424145D01*
Y0362159D01*
D02*
G37*
G36*
X0408220Y0362159D02*
X0406145D01*
Y0360084D01*
X0408220D01*
Y0362159D01*
D02*
G37*
G36*
X0405145D02*
X0403071D01*
Y0360084D01*
X0405145D01*
Y0362159D01*
D02*
G37*
G36*
X0397205Y0356587D02*
X0394933D01*
Y0354512D01*
X0397205D01*
Y0356587D01*
D02*
G37*
G36*
X0365732Y0335449D02*
X0363657D01*
Y0333374D01*
X0365732D01*
Y0335449D01*
D02*
G37*
G36*
X0362657D02*
X0360583D01*
Y0333374D01*
X0362657D01*
Y0335449D01*
D02*
G37*
G36*
X0372130Y0335350D02*
X0370055D01*
Y0333276D01*
X0372130D01*
Y0335350D01*
D02*
G37*
G36*
X0369055D02*
X0366980D01*
Y0333276D01*
X0369055D01*
Y0335350D01*
D02*
G37*
G36*
X0365732Y0332374D02*
X0363657D01*
Y0330299D01*
X0365732D01*
Y0332374D01*
D02*
G37*
G36*
X0362657D02*
X0360583D01*
Y0330299D01*
X0362657D01*
Y0332374D01*
D02*
G37*
G36*
X0369055Y0332276D02*
X0366980D01*
Y0330201D01*
X0369055D01*
Y0332276D01*
D02*
G37*
G36*
X0440535Y0329618D02*
X0438461D01*
Y0327543D01*
X0440535D01*
Y0329618D01*
D02*
G37*
G36*
X0375181Y0321669D02*
X0373106D01*
Y0319595D01*
X0375181D01*
Y0321669D01*
D02*
G37*
G36*
X0372106D02*
X0370031D01*
Y0319595D01*
X0372106D01*
Y0321669D01*
D02*
G37*
G36*
X0375181Y0318595D02*
X0373106D01*
Y0316520D01*
X0375181D01*
Y0318595D01*
D02*
G37*
G36*
X0372106D02*
X0370031D01*
Y0316520D01*
X0372106D01*
Y0318595D01*
D02*
G37*
G36*
X0408693Y0304543D02*
X0406618D01*
Y0302468D01*
X0408693D01*
Y0304543D01*
D02*
G37*
G36*
X0452925Y0289362D02*
X0449504D01*
Y0285941D01*
X0450036Y0286011D01*
X0450997Y0286409D01*
X0451823Y0287043D01*
X0452457Y0287869D01*
X0452855Y0288830D01*
X0452925Y0289362D01*
D02*
G37*
G36*
X0448504D02*
X0445083D01*
X0445153Y0288830D01*
X0445551Y0287869D01*
X0446185Y0287043D01*
X0447011Y0286409D01*
X0447972Y0286011D01*
X0448504Y0285941D01*
Y0289362D01*
D02*
G37*
G36*
X0460532Y0289264D02*
X0457111D01*
X0457181Y0288732D01*
X0457579Y0287770D01*
X0458212Y0286945D01*
X0459038Y0286311D01*
X0460000Y0285913D01*
X0460532Y0285843D01*
Y0289264D01*
D02*
G37*
G36*
X0494584Y0293317D02*
X0487479D01*
Y0286211D01*
X0494584D01*
Y0293317D01*
D02*
G37*
%LPD*%
D14*
X0358217Y0302583D02*
X0362153D01*
X0349256Y0290528D02*
Y0293622D01*
X0358217Y0302583D01*
X0353185Y0330126D02*
X0358425D01*
X0489000Y0401953D02*
Y0408850D01*
X0482000Y0402000D02*
Y0408850D01*
X0409917Y0307149D02*
Y0308677D01*
X0358425Y0330126D02*
X0365496Y0323055D01*
Y0305926D02*
Y0323055D01*
X0362153Y0302583D02*
X0365496Y0305926D01*
X0348000Y0289272D02*
X0349256Y0290528D01*
X0353185Y0330126D02*
X0355028Y0331968D01*
X0355579D01*
X0359413Y0291413D02*
Y0292614D01*
X0357000Y0289000D02*
X0359413Y0291413D01*
Y0292614D02*
X0372606Y0305807D01*
Y0313189D01*
X0374091Y0314673D01*
X0382268D01*
X0417587Y0301276D02*
X0419000Y0299863D01*
X0415791Y0301276D02*
X0417587D01*
X0415098Y0301969D02*
X0415791Y0301276D01*
X0409917Y0307149D02*
X0415098Y0301969D01*
X0409827Y0308768D02*
X0409917Y0308677D01*
X0409827Y0342232D02*
X0418661D01*
X0421917Y0338976D01*
X0431760Y0329823D02*
X0432055Y0330118D01*
X0427724Y0329823D02*
X0431760D01*
X0420335Y0336327D02*
X0421524Y0335138D01*
X0415732Y0336327D02*
X0420335D01*
D17*
X0424843Y0378524D02*
D03*
X0440984D02*
D03*
Y0372224D02*
D03*
X0424843D02*
D03*
D18*
X0476543Y0386024D02*
D03*
X0479587Y0344240D02*
D03*
Y0340500D02*
D03*
Y0336760D02*
D03*
X0490413D02*
D03*
Y0344240D02*
D03*
X0446976Y0323917D02*
D03*
X0446976Y0320177D02*
D03*
X0446976Y0316437D02*
D03*
X0457803D02*
D03*
Y0323917D02*
D03*
X0476543Y0378543D02*
D03*
Y0382283D02*
D03*
X0487370Y0386024D02*
D03*
Y0382283D02*
D03*
Y0378543D02*
D03*
D19*
X0400976Y0411842D02*
D03*
X0317118D02*
D03*
D20*
X0391134Y0402000D02*
D03*
X0386213D02*
D03*
X0381291D02*
D03*
X0376370D02*
D03*
X0371449D02*
D03*
X0366528D02*
D03*
X0361606D02*
D03*
X0356685D02*
D03*
X0351764D02*
D03*
X0346843D02*
D03*
X0341921D02*
D03*
X0337000D02*
D03*
X0332079D02*
D03*
X0327157D02*
D03*
D21*
X0409827Y0342232D02*
D03*
X0407858D02*
D03*
X0405890D02*
D03*
X0403921D02*
D03*
X0401953D02*
D03*
X0399984D02*
D03*
X0398016D02*
D03*
X0396047D02*
D03*
X0394079D02*
D03*
X0392110D02*
D03*
X0390142D02*
D03*
X0388173D02*
D03*
Y0308768D02*
D03*
X0390142D02*
D03*
X0392110D02*
D03*
X0394079D02*
D03*
X0396047D02*
D03*
X0398016D02*
D03*
X0399984D02*
D03*
X0401953D02*
D03*
X0403921D02*
D03*
X0405890D02*
D03*
X0407858D02*
D03*
X0409827D02*
D03*
D22*
X0382268Y0336327D02*
D03*
Y0334358D02*
D03*
Y0332390D02*
D03*
Y0330421D02*
D03*
Y0328453D02*
D03*
Y0326484D02*
D03*
Y0324516D02*
D03*
Y0322547D02*
D03*
Y0320579D02*
D03*
Y0318610D02*
D03*
Y0316642D02*
D03*
Y0314673D02*
D03*
X0415732D02*
D03*
Y0316642D02*
D03*
Y0318610D02*
D03*
Y0320579D02*
D03*
Y0322547D02*
D03*
Y0324516D02*
D03*
Y0326484D02*
D03*
Y0328453D02*
D03*
Y0330421D02*
D03*
Y0332390D02*
D03*
Y0334358D02*
D03*
Y0336327D02*
D03*
D23*
X0355579Y0331968D02*
D03*
Y0338701D02*
D03*
D24*
X0468047Y0413953D02*
D03*
X0473953D02*
D03*
X0468047Y0408047D02*
D03*
X0473953D02*
D03*
X0415098Y0301969D02*
D03*
X0409193D02*
D03*
X0431957Y0336829D02*
D03*
X0437862D02*
D03*
X0432055Y0330118D02*
D03*
X0437961D02*
D03*
X0397705Y0368110D02*
D03*
X0391799D02*
D03*
X0508453Y0411500D02*
D03*
X0502547D02*
D03*
X0477547Y0352000D02*
D03*
X0483453D02*
D03*
X0492060Y0369500D02*
D03*
X0486154D02*
D03*
X0489953Y0330000D02*
D03*
X0484047D02*
D03*
D25*
X0363158Y0338780D02*
D03*
Y0332874D02*
D03*
X0372606Y0313189D02*
D03*
Y0319094D02*
D03*
X0369555Y0338681D02*
D03*
Y0332776D02*
D03*
X0465421Y0316437D02*
D03*
Y0322342D02*
D03*
X0405645Y0356753D02*
D03*
Y0362659D02*
D03*
X0424645Y0356754D02*
D03*
Y0362660D02*
D03*
X0409500Y0379500D02*
D03*
Y0385405D02*
D03*
X0482000Y0408850D02*
D03*
X0482000Y0415150D02*
D03*
X0489000Y0408850D02*
D03*
X0489000Y0415150D02*
D03*
X0385303Y0356988D02*
D03*
Y0362894D02*
D03*
X0500000Y0343953D02*
D03*
Y0338047D02*
D03*
X0477000Y0362047D02*
D03*
Y0367953D02*
D03*
D26*
X0457547Y0413953D02*
D03*
Y0408047D02*
D03*
X0447500D02*
D03*
Y0413953D02*
D03*
X0437500Y0413953D02*
D03*
Y0408047D02*
D03*
X0482000Y0396094D02*
D03*
Y0402000D02*
D03*
X0489000Y0396047D02*
D03*
Y0401953D02*
D03*
X0394000Y0379500D02*
D03*
Y0385405D02*
D03*
X0387514Y0379500D02*
D03*
Y0385405D02*
D03*
X0381028Y0379500D02*
D03*
Y0385405D02*
D03*
X0374542Y0379500D02*
D03*
Y0385405D02*
D03*
X0368056Y0379500D02*
D03*
Y0385405D02*
D03*
X0361570Y0379500D02*
D03*
Y0385405D02*
D03*
X0355084Y0379500D02*
D03*
Y0385405D02*
D03*
X0348598Y0379500D02*
D03*
Y0385405D02*
D03*
X0342112Y0379500D02*
D03*
Y0385405D02*
D03*
X0335626Y0379500D02*
D03*
Y0385405D02*
D03*
X0329139Y0379500D02*
D03*
Y0385405D02*
D03*
X0322654Y0379500D02*
D03*
Y0385405D02*
D03*
X0469500Y0343453D02*
D03*
Y0337547D02*
D03*
D27*
X0436091Y0314370D02*
D03*
X0430185D02*
D03*
X0430579Y0322736D02*
D03*
X0436484D02*
D03*
X0388059Y0350984D02*
D03*
X0393965D02*
D03*
X0502500Y0405000D02*
D03*
X0508405D02*
D03*
X0460106Y0379055D02*
D03*
X0466012D02*
D03*
X0460106Y0385555D02*
D03*
X0466012D02*
D03*
D28*
X0412145Y0357000D02*
D03*
X0417854D02*
D03*
D29*
X0397705Y0362008D02*
D03*
X0391209D02*
D03*
Y0357087D02*
D03*
X0397705D02*
D03*
D31*
X0501165Y0370937D02*
D03*
Y0396134D02*
D03*
D33*
X0500280Y0378417D02*
D03*
Y0386094D02*
D03*
Y0388653D02*
D03*
Y0383535D02*
D03*
Y0380976D02*
D03*
D34*
X0484768Y0361500D02*
D03*
X0491500D02*
D03*
D58*
X0511500Y0313610D02*
D03*
X0506500Y0313295D02*
D03*
X0511500Y0318610D02*
D03*
X0506500D02*
D03*
X0511500Y0323610D02*
D03*
X0506500Y0323610D02*
D03*
D59*
X0511500Y0379500D02*
D03*
Y0387571D02*
D03*
D60*
X0463551Y0284252D02*
X0465815Y0286516D01*
X0352448Y0284252D02*
X0463551D01*
X0350756Y0285945D02*
X0352448Y0284252D01*
X0368396Y0322857D02*
X0377929Y0332390D01*
X0350756Y0285945D02*
Y0293000D01*
X0358838Y0301083D02*
X0362774D01*
X0352217Y0292481D02*
X0359418Y0299683D01*
X0352217Y0286463D02*
Y0292481D01*
X0350756Y0293000D02*
X0358838Y0301083D01*
X0352217Y0286463D02*
X0352969Y0285712D01*
X0409696D01*
X0412961Y0288976D01*
X0367094Y0289591D02*
Y0296161D01*
X0387000Y0289000D02*
Y0299138D01*
X0392110Y0304248D01*
X0397705Y0368110D02*
X0397705Y0368110D01*
X0397705Y0362008D02*
Y0368110D01*
X0444358Y0403100D02*
X0447393Y0406135D01*
Y0407941D01*
X0447500Y0408047D01*
X0420835Y0373228D02*
X0423839D01*
X0415772D02*
X0420835D01*
X0516383Y0304418D02*
Y0316370D01*
X0510276Y0298311D02*
X0516383Y0304418D01*
X0446869Y0298311D02*
X0510276D01*
X0445933Y0316437D02*
X0446976D01*
X0444358Y0314862D02*
X0445933Y0316437D01*
X0444358Y0305906D02*
Y0314862D01*
X0430966Y0315742D02*
X0431041D01*
X0512500Y0323235D02*
Y0323610D01*
X0438364Y0299295D02*
X0438932Y0299863D01*
X0443337D01*
X0439512Y0298463D02*
X0442757D01*
X0438927Y0297879D02*
X0439512Y0298463D01*
X0406322Y0297879D02*
X0438927D01*
X0393177Y0321260D02*
X0399984Y0314453D01*
Y0308768D02*
Y0314453D01*
X0398016Y0308768D02*
Y0314441D01*
X0393560Y0318898D02*
X0398016Y0314441D01*
X0386779Y0318898D02*
X0393560D01*
X0388354Y0321260D02*
X0393177D01*
X0396757Y0320239D02*
X0404431D01*
X0391680Y0325317D02*
X0396757Y0320239D01*
X0404431D02*
X0408433Y0316237D01*
X0388432Y0325317D02*
X0391680D01*
X0397402Y0321639D02*
X0405199D01*
X0389908Y0329134D02*
X0397402Y0321639D01*
X0388093Y0329134D02*
X0389908D01*
X0408433Y0315354D02*
Y0316237D01*
X0405199Y0321639D02*
X0412370Y0314469D01*
X0353309Y0366482D02*
X0353658Y0366831D01*
X0410394Y0318610D02*
X0415732D01*
X0405965Y0323039D02*
X0410394Y0318610D01*
X0398189Y0323039D02*
X0405965D01*
X0410588Y0320579D02*
X0415732D01*
X0406727Y0324439D02*
X0410588Y0320579D01*
X0390110Y0331118D02*
X0398189Y0323039D01*
X0388186Y0331118D02*
X0390110D01*
X0398856Y0324439D02*
X0406727D01*
X0390777Y0332518D02*
X0398856Y0324439D01*
X0388766Y0332518D02*
X0390777D01*
X0395236Y0330421D02*
X0415732D01*
X0390616Y0335042D02*
X0395236Y0330421D01*
X0389049Y0335042D02*
X0390616D01*
X0366996Y0305304D02*
Y0324753D01*
X0362774Y0301083D02*
X0366996Y0305304D01*
X0363354Y0299683D02*
X0368396Y0304724D01*
X0359418Y0299683D02*
X0363354D01*
X0379987Y0336517D02*
X0382077D01*
X0379675Y0336829D02*
X0379987Y0336517D01*
X0376660Y0336829D02*
X0379675D01*
X0366996Y0324753D02*
X0375854Y0333611D01*
Y0336024D01*
X0376660Y0336829D01*
X0422705Y0329035D02*
X0426210Y0332541D01*
X0421375Y0329035D02*
X0422705D01*
X0420792Y0328453D02*
X0421375Y0329035D01*
X0435894Y0356249D02*
Y0372244D01*
X0433861Y0354217D02*
X0435894Y0356249D01*
X0432827Y0354217D02*
X0433861D01*
X0427610Y0349000D02*
X0432827Y0354217D01*
X0427610Y0342413D02*
Y0349000D01*
X0431055Y0355189D02*
Y0387779D01*
X0426210Y0350344D02*
X0431055Y0355189D01*
X0426210Y0332541D02*
Y0350344D01*
X0428610Y0354724D02*
Y0381890D01*
X0424378Y0350492D02*
X0428610Y0354724D01*
X0424378Y0333169D02*
Y0350492D01*
X0457547Y0404823D02*
Y0408047D01*
X0452156Y0399431D02*
X0457547Y0404823D01*
X0413168Y0399431D02*
X0452156D01*
X0379087Y0362884D02*
X0379671Y0362300D01*
X0356713Y0366831D02*
X0385630Y0337914D01*
X0353658Y0366831D02*
X0356713D01*
X0385630Y0333674D02*
Y0337914D01*
X0387030Y0334254D02*
Y0338494D01*
X0380185Y0338976D02*
X0381169D01*
X0377429Y0341732D02*
X0380185Y0338976D01*
X0375410Y0341732D02*
X0377429D01*
X0345441Y0371702D02*
X0375410Y0341732D01*
X0329139Y0376636D02*
X0362961Y0342815D01*
X0329139Y0376636D02*
Y0379500D01*
X0335626Y0373398D02*
X0366110Y0342913D01*
X0335626Y0373398D02*
Y0379500D01*
X0423839Y0373228D02*
X0424843Y0372224D01*
X0409500Y0379500D02*
X0415772Y0373228D01*
X0438551Y0382874D02*
X0447508D01*
X0433039Y0377362D02*
X0438551Y0382874D01*
X0433039Y0356201D02*
Y0377362D01*
X0368396Y0304724D02*
Y0322857D01*
X0399984Y0304217D02*
X0406322Y0297879D01*
X0442757Y0298463D02*
X0445709Y0295511D01*
X0422917Y0299295D02*
X0438364D01*
X0423325Y0302223D02*
X0424083D01*
X0426648Y0315742D02*
X0429404D01*
X0424279Y0318110D02*
X0426648Y0315742D01*
X0443681Y0301498D02*
X0446869Y0298311D01*
X0438070Y0301498D02*
X0443681D01*
X0443337Y0299863D02*
X0446289Y0296911D01*
X0442177Y0297063D02*
X0445146Y0294094D01*
X0440092Y0297063D02*
X0442177D01*
X0440618Y0294783D02*
X0440913Y0295079D01*
X0446289Y0296911D02*
X0510856D01*
X0445709Y0295511D02*
X0483493D01*
X0445146Y0294094D02*
X0475906D01*
X0404102Y0294783D02*
X0440618D01*
X0453807Y0306201D02*
Y0317910D01*
Y0305610D02*
Y0306201D01*
X0448581Y0323136D02*
X0453807Y0317910D01*
X0403921Y0312332D02*
X0404145Y0312556D01*
X0423598Y0332390D02*
X0424378Y0333169D01*
X0415732Y0332390D02*
X0423598D01*
X0415732Y0328453D02*
X0420792D01*
X0395996Y0381496D02*
X0398394D01*
X0395372Y0380872D02*
X0395996Y0381496D01*
X0395372Y0380281D02*
Y0380872D01*
X0394590Y0379500D02*
X0395372Y0380281D01*
X0394000Y0379500D02*
X0394590D01*
X0370856Y0357874D02*
X0374476Y0354253D01*
X0372256Y0359046D02*
X0376461Y0354841D01*
X0373656Y0359626D02*
X0377861Y0355421D01*
X0375056Y0360206D02*
X0379261Y0356001D01*
X0379087Y0366472D02*
X0380922Y0368307D01*
X0377040Y0364768D02*
X0377429Y0364379D01*
X0378568Y0367933D02*
X0383371Y0372736D01*
X0377399Y0367933D02*
X0378568D01*
X0375056Y0365590D02*
X0377399Y0367933D01*
X0375056Y0360206D02*
Y0365590D01*
X0377988Y0369333D02*
X0382791Y0374136D01*
X0376819Y0369333D02*
X0377988D01*
X0373656Y0366170D02*
X0376819Y0369333D01*
X0373656Y0359626D02*
Y0366170D01*
X0377408Y0370733D02*
X0382212Y0375536D01*
X0376239Y0370733D02*
X0377408D01*
X0372256Y0366749D02*
X0376239Y0370733D01*
X0372256Y0359046D02*
Y0366749D01*
X0369063Y0364960D02*
Y0368898D01*
X0368870Y0364768D02*
X0369063Y0364960D01*
X0376767Y0372133D02*
X0381570Y0376936D01*
X0375659Y0372133D02*
X0376767D01*
X0370856Y0367329D02*
X0375659Y0372133D01*
X0370856Y0357874D02*
Y0367329D01*
X0379087Y0362884D02*
Y0366472D01*
X0377429Y0360728D02*
Y0364379D01*
X0379671Y0358397D02*
Y0362300D01*
Y0358397D02*
X0379796Y0358271D01*
X0381071Y0360270D02*
Y0365650D01*
X0382212Y0375536D02*
X0399607D01*
X0382791Y0374136D02*
X0400187D01*
X0383371Y0372736D02*
X0402736D01*
X0380922Y0368307D02*
X0383159D01*
X0381071Y0360270D02*
X0381780Y0359561D01*
X0386806Y0330421D02*
X0388093Y0329134D01*
X0385630Y0333674D02*
X0388186Y0331118D01*
X0387030Y0334254D02*
X0388766Y0332518D01*
X0369063Y0368898D02*
X0374542Y0374376D01*
X0384122Y0382185D02*
X0384346Y0381961D01*
X0385052D01*
X0386142Y0380872D01*
Y0380281D02*
Y0380872D01*
Y0380281D02*
X0386923Y0379500D01*
X0387514D01*
X0381570Y0376936D02*
X0399028D01*
X0374542Y0374376D02*
Y0379500D01*
X0385295Y0328453D02*
X0388432Y0325317D01*
X0381780Y0356832D02*
Y0359561D01*
X0381273Y0356324D02*
X0381780Y0356832D01*
X0376461Y0352881D02*
X0386851Y0342490D01*
X0377861Y0353593D02*
X0385215Y0346238D01*
X0379261Y0354172D02*
X0385795Y0347638D01*
X0376461Y0352881D02*
Y0354841D01*
X0377861Y0353593D02*
Y0355421D01*
X0379261Y0354172D02*
Y0356001D01*
X0381273Y0356008D02*
Y0356324D01*
X0374476Y0353937D02*
Y0354253D01*
X0382268Y0328453D02*
X0385295D01*
X0376839Y0375098D02*
X0379656Y0377916D01*
Y0378719D01*
X0380437Y0379500D01*
X0381028D01*
X0392488Y0315846D02*
Y0315945D01*
Y0315846D02*
X0396047Y0312287D01*
Y0308768D02*
Y0312287D01*
X0367094Y0296161D02*
X0379701Y0308768D01*
X0366961Y0289492D02*
X0367055Y0289587D01*
X0379701Y0308768D02*
X0388173D01*
X0367094Y0288996D02*
Y0289492D01*
X0378123Y0334845D02*
X0378439D01*
X0378735Y0334549D01*
X0382077D01*
X0382268Y0334358D01*
X0382077Y0336517D02*
X0382268Y0336327D01*
X0348598Y0376926D02*
X0387030Y0338494D01*
X0385215Y0346238D02*
X0389262D01*
X0388173Y0342232D02*
Y0342299D01*
X0387983Y0342490D02*
X0388173Y0342299D01*
X0385795Y0347638D02*
X0395342D01*
X0386851Y0342490D02*
X0387983D01*
X0348598Y0376926D02*
Y0379500D01*
X0382268Y0330421D02*
X0386806D01*
X0357449Y0374803D02*
X0360333Y0377687D01*
Y0378719D01*
X0361114Y0379500D01*
X0361570D01*
X0354299Y0375662D02*
X0355084Y0376447D01*
X0354299Y0375394D02*
Y0375662D01*
X0355084Y0376447D02*
Y0379500D01*
X0369555Y0338681D02*
X0370441Y0339567D01*
X0376051D01*
X0507055Y0301181D02*
X0509417Y0303543D01*
Y0311527D01*
X0511500Y0313610D01*
X0427610Y0342413D02*
X0429177Y0340846D01*
X0431055Y0387779D02*
X0431169Y0387894D01*
X0429177Y0340846D02*
X0454791D01*
X0477028Y0318610D01*
X0506500D01*
X0381291Y0398114D02*
Y0402000D01*
Y0398114D02*
X0392628Y0386777D01*
Y0386187D02*
Y0386777D01*
Y0386187D02*
X0393409Y0385405D01*
X0394000D01*
X0376370Y0396549D02*
X0386142Y0386777D01*
Y0386187D02*
Y0386777D01*
Y0386187D02*
X0386923Y0385405D01*
X0387514D01*
X0376370Y0396549D02*
Y0402000D01*
X0371449Y0394985D02*
X0379656Y0386777D01*
Y0386187D02*
Y0386777D01*
Y0386187D02*
X0380437Y0385405D01*
X0381028D01*
X0371449Y0394985D02*
Y0402000D01*
X0366528Y0393420D02*
X0373170Y0386777D01*
Y0386187D02*
Y0386777D01*
Y0386187D02*
X0373951Y0385405D01*
X0374542D01*
X0366528Y0393420D02*
Y0402000D01*
X0361606Y0391855D02*
X0366684Y0386777D01*
Y0386187D02*
Y0386777D01*
Y0386187D02*
X0367465Y0385405D01*
X0368056D01*
X0361606Y0391855D02*
Y0402000D01*
X0356685Y0390290D02*
X0360198Y0386777D01*
Y0386187D02*
Y0386777D01*
Y0386187D02*
X0360979Y0385405D01*
X0361570D01*
X0356685Y0390290D02*
Y0402000D01*
X0351764Y0388725D02*
X0353712Y0386777D01*
Y0386187D02*
Y0386777D01*
Y0386187D02*
X0354493Y0385405D01*
X0355084D01*
X0351764Y0388725D02*
Y0402000D01*
X0346843Y0387161D02*
X0347226Y0386777D01*
Y0386187D02*
Y0386777D01*
Y0386187D02*
X0348007Y0385405D01*
X0348598D01*
X0346843Y0387161D02*
Y0402000D01*
X0341921D02*
X0342112Y0401810D01*
Y0385405D02*
Y0401810D01*
X0336997Y0386777D02*
X0337000Y0386780D01*
X0336997Y0386187D02*
Y0386777D01*
X0336216Y0385405D02*
X0336997Y0386187D01*
X0335626Y0385405D02*
X0336216D01*
X0337000Y0386780D02*
Y0402000D01*
X0330511Y0386777D02*
X0332079Y0388345D01*
X0330511Y0386187D02*
Y0386777D01*
X0329730Y0385405D02*
X0330511Y0386187D01*
X0329139Y0385405D02*
X0329730D01*
X0332079Y0388345D02*
Y0402000D01*
X0324025Y0386777D02*
X0327157Y0389910D01*
X0324025Y0386187D02*
Y0386777D01*
X0323244Y0385405D02*
X0324025Y0386187D01*
X0322654Y0385405D02*
X0323244D01*
X0327157Y0389910D02*
Y0402000D01*
X0455087Y0390453D02*
X0483405D01*
X0487628Y0394676D01*
Y0395266D01*
X0488409Y0396047D01*
X0489000D01*
X0447508Y0382874D02*
X0455087Y0390453D01*
X0377823Y0319587D02*
X0378815Y0320579D01*
X0382268D01*
X0377823Y0322441D02*
X0382161D01*
X0382268Y0322547D01*
X0377921Y0328248D02*
X0378078D01*
X0379651Y0326675D01*
X0382077D01*
X0377929Y0325591D02*
X0379004Y0324516D01*
X0382268D01*
X0342112Y0369766D02*
X0368965Y0342913D01*
X0342112Y0369766D02*
Y0379500D01*
X0322654Y0379500D02*
X0322923D01*
X0345441Y0371702D02*
Y0380906D01*
X0343965Y0382382D02*
X0345441Y0380906D01*
X0325461Y0382382D02*
X0343965D01*
X0325398Y0382444D02*
X0325461Y0382382D01*
X0324736Y0382444D02*
X0325398D01*
X0323704Y0381413D02*
X0324736Y0382444D01*
X0323704Y0380281D02*
Y0381413D01*
X0322923Y0379500D02*
X0323704Y0380281D01*
X0382077Y0326675D02*
X0382268Y0326484D01*
X0412203Y0310009D02*
X0422917Y0299295D01*
X0412370Y0313178D02*
X0423325Y0302223D01*
X0412370Y0313178D02*
Y0314469D01*
X0401953Y0314484D02*
X0404102Y0316634D01*
X0412203Y0310009D02*
Y0311092D01*
X0410500Y0312795D02*
X0412203Y0311092D01*
X0407350Y0312795D02*
X0410500D01*
X0432678Y0306890D02*
X0438070Y0301498D01*
X0420638Y0306890D02*
X0432678D01*
X0415732Y0311795D02*
X0420638Y0306890D01*
X0412961Y0291929D02*
X0413059Y0292028D01*
X0412961Y0288976D02*
Y0291929D01*
X0377929Y0332390D02*
X0382268D01*
X0412588Y0400832D02*
X0430284D01*
X0436128Y0406676D01*
Y0407266D01*
X0436909Y0408047D01*
X0437500D01*
X0402680Y0390924D02*
X0412588Y0400832D01*
X0402680Y0380589D02*
Y0390924D01*
X0399028Y0376936D02*
X0402680Y0380589D01*
X0465815Y0286516D02*
Y0291437D01*
X0451839Y0415650D02*
X0451937D01*
X0450142Y0413953D02*
X0451839Y0415650D01*
X0447500Y0413953D02*
X0450142D01*
X0437500Y0413953D02*
X0437500Y0413953D01*
X0447500D01*
X0453406D02*
X0457547D01*
X0448872Y0409419D02*
X0453406Y0413953D01*
X0448872Y0408828D02*
Y0409419D01*
X0448091Y0408047D02*
X0448872Y0408828D01*
X0447500Y0408047D02*
X0448091D01*
X0404080Y0390344D02*
X0413168Y0399431D01*
X0404080Y0380009D02*
Y0390344D01*
X0399607Y0375536D02*
X0404080Y0380009D01*
X0405480Y0379429D02*
Y0389764D01*
X0400187Y0374136D02*
X0405480Y0379429D01*
Y0389764D02*
X0413748Y0398031D01*
X0435205D02*
X0438453Y0394783D01*
X0413748Y0398031D02*
X0435205D01*
X0389262Y0346238D02*
X0390142Y0345358D01*
Y0342232D02*
Y0345358D01*
X0395342Y0347638D02*
X0397857Y0345123D01*
X0355579Y0338701D02*
X0363079D01*
X0363158Y0338780D01*
X0363256Y0338681D01*
X0369555D01*
X0394079Y0337484D02*
X0394161Y0337402D01*
X0394079Y0337484D02*
Y0342232D01*
X0402736Y0372736D02*
X0409500Y0379500D01*
X0397857Y0342391D02*
Y0345123D01*
Y0342391D02*
X0398016Y0342232D01*
X0396911Y0349613D02*
X0399828Y0346696D01*
Y0342389D02*
Y0346696D01*
X0394746Y0349613D02*
X0396911D01*
X0391012Y0357087D02*
X0391209D01*
X0385402D02*
X0391012D01*
X0385303Y0356988D02*
X0385402Y0357087D01*
X0389837Y0355912D02*
X0391012Y0357087D01*
X0389837Y0355715D02*
Y0355912D01*
X0388059Y0353937D02*
X0389837Y0355715D01*
X0388059Y0350984D02*
Y0353937D01*
X0393965Y0350394D02*
X0394746Y0349613D01*
X0393965Y0350394D02*
Y0350984D01*
X0399828Y0342389D02*
X0399984Y0342232D01*
X0401953D02*
Y0357760D01*
X0399076Y0360636D02*
X0401953Y0357760D01*
X0399076Y0360636D02*
Y0360833D01*
X0397902Y0362008D02*
X0399076Y0360833D01*
X0397705Y0362008D02*
X0397902D01*
X0424400Y0357000D02*
X0424645Y0356754D01*
X0417854Y0357000D02*
X0424400D01*
X0411878Y0356732D02*
X0411899Y0356753D01*
X0405645D02*
X0411899D01*
X0412145Y0357000D01*
X0411409Y0352165D02*
X0411878Y0352634D01*
Y0356732D01*
X0408728Y0352165D02*
X0411409D01*
X0403921Y0347358D02*
X0408728Y0352165D01*
X0403921Y0342232D02*
Y0347358D01*
X0415323Y0349705D02*
X0417854Y0352236D01*
Y0357000D01*
X0409417Y0349705D02*
X0415323D01*
X0405890Y0346177D02*
X0409417Y0349705D01*
X0405890Y0342232D02*
Y0346177D01*
X0428118Y0392618D02*
X0478524D01*
X0480628Y0394723D01*
Y0395313D01*
X0481409Y0396094D01*
X0482000D01*
X0426248Y0390748D02*
X0428118Y0392618D01*
X0426248Y0384252D02*
Y0390748D01*
Y0384252D02*
X0428610Y0381890D01*
X0510856Y0296911D02*
X0517783Y0303839D01*
X0483493Y0295511D02*
X0485894Y0293110D01*
X0433410Y0318110D02*
X0444480D01*
X0445372Y0317218D01*
X0446195D01*
X0446976Y0316437D01*
X0431041Y0315742D02*
X0433410Y0318110D01*
X0430185Y0314961D02*
X0430966Y0315742D01*
X0430185Y0314370D02*
Y0314961D01*
X0429404Y0315742D02*
X0430185Y0314961D01*
X0421630Y0326484D02*
X0422016Y0326870D01*
X0415732Y0326484D02*
X0421630D01*
X0424976Y0324516D02*
X0426704Y0326243D01*
X0475906Y0294094D02*
X0481000Y0289000D01*
X0447757Y0323136D02*
X0448581D01*
X0446976Y0323917D02*
X0447757Y0323136D01*
X0446189Y0323917D02*
X0446976D01*
X0445008Y0322736D02*
X0446189Y0323917D01*
X0436484Y0322736D02*
X0445008D01*
X0426704Y0326243D02*
X0435142D01*
X0436147Y0325239D01*
Y0323074D02*
Y0325239D01*
Y0323074D02*
X0436484Y0322736D01*
X0415732Y0324516D02*
X0424976D01*
X0367980Y0375591D02*
X0368056Y0375666D01*
Y0379500D01*
X0514143Y0318610D02*
X0516383Y0316370D01*
X0512942Y0323168D02*
X0517783Y0318327D01*
Y0303839D02*
Y0318327D01*
X0512500Y0318610D02*
X0514143D01*
X0415732Y0311795D02*
Y0314673D01*
X0512567Y0323168D02*
X0512942D01*
X0512500Y0323235D02*
X0512567Y0323168D01*
X0406080Y0311525D02*
X0407350Y0312795D01*
X0406080Y0308958D02*
Y0311525D01*
X0405890Y0308768D02*
X0406080Y0308958D01*
X0399984Y0304217D02*
Y0308768D01*
X0405360Y0296183D02*
X0439212D01*
X0396047Y0302839D02*
X0404102Y0294783D01*
X0439212Y0296183D02*
X0440092Y0297063D01*
X0398016Y0303528D02*
X0405360Y0296183D01*
X0485894Y0286516D02*
Y0293110D01*
X0483630Y0284252D02*
X0485894Y0286516D01*
X0476150Y0284252D02*
X0483630D01*
X0471402Y0289000D02*
X0476150Y0284252D01*
X0471000Y0289000D02*
X0471402D01*
X0398016Y0303528D02*
Y0308768D01*
X0394079Y0300575D02*
Y0308768D01*
Y0300575D02*
X0397000Y0297654D01*
X0396047Y0302839D02*
Y0308768D01*
X0397000Y0289000D02*
Y0297654D01*
X0392110Y0304248D02*
Y0308768D01*
X0377000Y0296618D02*
X0383827Y0303445D01*
X0390142Y0304445D02*
Y0308768D01*
X0389142Y0303445D02*
X0390142Y0304445D01*
X0377000Y0289000D02*
Y0296618D01*
X0383827Y0303445D02*
X0389142D01*
X0404102Y0312598D02*
X0404145Y0312556D01*
X0401953Y0308768D02*
Y0314484D01*
X0403921Y0308768D02*
Y0312332D01*
D61*
X0462944Y0414663D02*
X0463034Y0414573D01*
X0462567Y0414663D02*
X0462944D01*
X0462477Y0414573D02*
X0462567Y0414663D01*
X0463034Y0414573D02*
X0467427D01*
X0468047Y0413953D01*
X0456957Y0303248D02*
X0457803Y0304095D01*
X0443714Y0303248D02*
X0456957D01*
X0420933Y0319988D02*
X0421812Y0320866D01*
X0428709D01*
X0429557Y0321715D01*
X0430148D01*
X0430579Y0322146D01*
Y0322736D01*
X0420933Y0314941D02*
Y0319988D01*
Y0314941D02*
X0425933Y0309941D01*
X0431661D01*
X0435069Y0313348D01*
X0435659D01*
X0436091Y0313779D01*
X0442024Y0304939D02*
X0443714Y0303248D01*
X0442024Y0304939D02*
Y0308437D01*
X0437112Y0313348D02*
X0442024Y0308437D01*
X0436522Y0313348D02*
X0437112D01*
X0436091Y0313779D02*
X0436522Y0313348D01*
X0436091Y0313779D02*
Y0314370D01*
X0457803Y0304095D02*
Y0316437D01*
X0429575Y0346831D02*
X0429654Y0346752D01*
X0428217Y0335630D02*
X0429021Y0336434D01*
X0431561D01*
X0431957Y0336829D01*
X0435321Y0333465D02*
X0435402D01*
X0431957Y0336829D02*
X0435321Y0333465D01*
X0432055Y0330118D02*
X0435402Y0333465D01*
X0447095D01*
X0452921Y0327639D01*
Y0321319D02*
Y0327639D01*
Y0321319D02*
X0456585Y0317655D01*
Y0316868D02*
Y0317655D01*
Y0316868D02*
X0457016Y0316437D01*
X0457803D01*
X0457803Y0316437D01*
X0465421D01*
X0477724Y0322342D02*
X0493276D01*
X0467685Y0318701D02*
X0472508D01*
X0465421Y0316437D02*
X0467685Y0318701D01*
X0493276Y0322342D02*
X0498572Y0327639D01*
X0502472D01*
Y0328881D01*
Y0327639D02*
X0506500Y0323610D01*
X0502472Y0328881D02*
X0505480Y0331890D01*
Y0344783D01*
X0501704D02*
X0505480D01*
X0501698Y0344778D02*
X0501704Y0344783D01*
X0500825Y0344778D02*
X0501698D01*
X0500000Y0343953D02*
X0500825Y0344778D01*
X0468047Y0408047D02*
Y0413953D01*
X0468047Y0413953D01*
X0468177Y0414083D02*
Y0416043D01*
X0468047Y0413953D02*
X0468177Y0414083D01*
Y0416043D02*
X0470736Y0418602D01*
X0477547D01*
X0480175Y0415974D01*
X0481175D01*
X0482000Y0415150D01*
X0489386Y0414764D02*
X0495146D01*
X0489000Y0415150D02*
X0489386Y0414764D01*
X0391110Y0412992D02*
X0391134Y0412968D01*
Y0402000D02*
Y0412968D01*
X0452390Y0369646D02*
Y0379526D01*
X0429595Y0346752D02*
X0429654D01*
X0430087Y0343529D02*
X0454890Y0368332D01*
X0501165Y0370937D02*
X0507591D01*
X0508870Y0372217D01*
X0510711D01*
Y0378711D01*
X0511500Y0379500D01*
Y0387571D01*
X0510711Y0388360D02*
X0511500Y0387571D01*
X0510711Y0388360D02*
Y0394854D01*
X0508870D02*
X0510711D01*
X0507591Y0396134D02*
X0508870Y0394854D01*
X0501165Y0396134D02*
X0507591D01*
X0502500Y0411453D02*
X0502547Y0411500D01*
X0502500Y0405000D02*
Y0411453D01*
Y0404409D02*
Y0405000D01*
X0502069Y0403978D02*
X0502500Y0404409D01*
X0502044Y0403978D02*
X0502069D01*
X0501165Y0403100D02*
X0502044Y0403978D01*
X0501165Y0396134D02*
Y0403100D01*
X0472409Y0364370D02*
X0474200Y0362579D01*
X0476468D01*
X0477000Y0362047D01*
X0472409Y0364370D02*
Y0371654D01*
X0475559Y0374803D01*
X0480382D01*
X0481858Y0376279D01*
Y0381201D01*
X0480776Y0382283D02*
X0481858Y0381201D01*
X0476543Y0382283D02*
X0480776D01*
X0489953Y0330000D02*
X0490413Y0330461D01*
Y0336760D01*
X0499713Y0344240D02*
X0500000Y0343953D01*
X0490413Y0344240D02*
X0499713D01*
X0471400Y0336760D02*
X0479587D01*
X0471044Y0337116D02*
X0471400Y0336760D01*
X0469931Y0337116D02*
X0471044D01*
X0469500Y0337547D02*
X0469931Y0337116D01*
X0469500Y0343453D02*
X0470091D01*
X0470878Y0344240D01*
X0479587D01*
X0477547Y0346280D02*
X0479587Y0344240D01*
X0477547Y0346280D02*
Y0352000D01*
X0477000Y0352547D02*
X0477547Y0352000D01*
X0477000Y0352547D02*
Y0362047D01*
X0477547Y0361500D01*
X0484768D01*
X0491500D02*
X0492060Y0362060D01*
Y0369500D01*
Y0374276D01*
X0496201Y0378417D01*
X0500280D01*
X0474575Y0386024D02*
X0476543D01*
X0472085Y0383534D02*
X0474575Y0386024D01*
X0470225Y0383534D02*
X0472085D01*
X0474673Y0378543D02*
X0476543D01*
X0472183Y0381033D02*
X0474673Y0378543D01*
X0469189Y0381033D02*
X0472183D01*
X0454890Y0368332D02*
Y0378491D01*
X0429575Y0346831D02*
X0452390Y0369646D01*
X0459675Y0385124D02*
X0460106Y0385555D01*
X0459675Y0384434D02*
Y0385124D01*
X0458797Y0383555D02*
X0459675Y0384434D01*
X0456419Y0383555D02*
X0458797D01*
X0452390Y0379526D02*
X0456419Y0383555D01*
X0458697Y0381055D02*
X0459675Y0380077D01*
Y0379486D02*
Y0380077D01*
X0457454Y0381055D02*
X0458697D01*
X0459675Y0379486D02*
X0460106Y0379055D01*
X0454890Y0378491D02*
X0457454Y0381055D01*
X0466012Y0385555D02*
X0466443Y0385124D01*
Y0384434D02*
Y0385124D01*
Y0384434D02*
X0467322Y0383555D01*
X0470203D01*
X0470225Y0383534D01*
X0466012Y0379055D02*
X0466443Y0379486D01*
Y0380176D01*
X0467322Y0381055D01*
X0469168D01*
X0469189Y0381033D01*
X0491632Y0381033D02*
X0493793D01*
X0489142Y0378543D02*
X0491632Y0381033D01*
X0487370Y0378543D02*
X0489142D01*
X0491722Y0383534D02*
X0494829D01*
X0489232Y0386024D02*
X0491722Y0383534D01*
X0487370Y0386024D02*
X0489232D01*
X0500250Y0381006D02*
X0500280Y0380976D01*
X0493821Y0381006D02*
X0500250D01*
X0493793Y0381033D02*
X0493821Y0381006D01*
X0500250Y0383506D02*
X0500280Y0383535D01*
X0494857Y0383506D02*
X0500250D01*
X0494829Y0383534D02*
X0494857Y0383506D01*
D62*
X0441169Y0387894D02*
D03*
X0356917Y0289862D02*
D03*
X0419004D02*
D03*
X0491032Y0289764D02*
D03*
D63*
X0431169Y0387894D02*
D03*
X0421169D02*
D03*
X0366917Y0289862D02*
D03*
X0376917D02*
D03*
X0386917D02*
D03*
X0396917D02*
D03*
X0406917D02*
D03*
X0449004D02*
D03*
X0439004D02*
D03*
X0429004D02*
D03*
X0461031Y0289764D02*
D03*
X0471032D02*
D03*
X0481032D02*
D03*
D64*
X0505000Y0308610D02*
D03*
X0513000Y0308610D02*
D03*
X0509000Y0328610D02*
D03*
D65*
X0510711Y0372217D02*
D03*
Y0394854D02*
D03*
D66*
X0462477Y0414573D02*
D03*
X0367980Y0329331D02*
D03*
X0373197Y0324114D02*
D03*
X0444358Y0403100D02*
D03*
X0399534Y0295571D02*
D03*
X0403638Y0304248D02*
D03*
X0429004Y0318083D02*
D03*
X0441534Y0320640D02*
D03*
X0513779Y0407480D02*
D03*
X0516732Y0401575D02*
D03*
Y0366142D02*
D03*
X0513779Y0360236D02*
D03*
X0516732Y0354331D02*
D03*
X0513779Y0348425D02*
D03*
X0516732Y0342520D02*
D03*
X0513779Y0336614D02*
D03*
X0516732Y0330709D02*
D03*
Y0295275D02*
D03*
X0513779Y0289370D02*
D03*
X0510827Y0366142D02*
D03*
X0507874Y0360236D02*
D03*
X0510827Y0354331D02*
D03*
X0507874Y0348425D02*
D03*
X0510827Y0342520D02*
D03*
X0507874Y0336614D02*
D03*
X0504921Y0401575D02*
D03*
Y0377953D02*
D03*
Y0366142D02*
D03*
X0501968Y0360236D02*
D03*
X0504921Y0354331D02*
D03*
X0501968Y0312992D02*
D03*
Y0301181D02*
D03*
X0499016Y0413386D02*
D03*
Y0366142D02*
D03*
X0496063Y0348425D02*
D03*
Y0336614D02*
D03*
X0499016Y0330709D02*
D03*
X0496063Y0301181D02*
D03*
X0490157Y0348425D02*
D03*
Y0324803D02*
D03*
X0487205Y0389764D02*
D03*
Y0354331D02*
D03*
X0484252Y0336614D02*
D03*
Y0324803D02*
D03*
X0478346Y0372047D02*
D03*
X0481299Y0366142D02*
D03*
X0472441Y0360236D02*
D03*
Y0348425D02*
D03*
X0475393Y0330709D02*
D03*
X0469488Y0377953D02*
D03*
X0466535Y0372047D02*
D03*
X0469488Y0366142D02*
D03*
X0466535Y0360236D02*
D03*
X0469488Y0354331D02*
D03*
X0466535Y0348425D02*
D03*
X0469488Y0330709D02*
D03*
X0460630Y0372047D02*
D03*
X0463583Y0366142D02*
D03*
X0460630Y0360236D02*
D03*
X0463583Y0354331D02*
D03*
X0460630Y0348425D02*
D03*
X0463583Y0342520D02*
D03*
X0457677Y0366142D02*
D03*
X0454724Y0360236D02*
D03*
X0457677Y0354331D02*
D03*
X0454724Y0348425D02*
D03*
X0457677Y0342520D02*
D03*
X0454724Y0336614D02*
D03*
X0457677Y0330709D02*
D03*
X0454724Y0289370D02*
D03*
X0448819Y0372047D02*
D03*
X0451771Y0354331D02*
D03*
X0448819Y0348425D02*
D03*
Y0336614D02*
D03*
X0445866Y0377953D02*
D03*
Y0354331D02*
D03*
X0442913Y0348425D02*
D03*
Y0336614D02*
D03*
X0445866Y0330709D02*
D03*
X0442913Y0324803D02*
D03*
X0439960Y0366142D02*
D03*
X0419291Y0348425D02*
D03*
X0413386Y0407480D02*
D03*
Y0383858D02*
D03*
X0416338Y0377953D02*
D03*
X0413386Y0372047D02*
D03*
X0416338Y0366142D02*
D03*
X0407480Y0372047D02*
D03*
X0410433Y0366142D02*
D03*
X0404527Y0401575D02*
D03*
X0401575Y0395669D02*
D03*
Y0336614D02*
D03*
X0398622Y0401575D02*
D03*
X0395669Y0395669D02*
D03*
X0398622Y0389764D02*
D03*
X0392716D02*
D03*
Y0295275D02*
D03*
X0386811Y0413386D02*
D03*
X0380905D02*
D03*
Y0295275D02*
D03*
X0375000Y0413386D02*
D03*
X0372047Y0289370D02*
D03*
X0369094Y0413386D02*
D03*
X0363189D02*
D03*
X0360236Y0407480D02*
D03*
Y0372047D02*
D03*
X0363189Y0366142D02*
D03*
X0360236Y0360236D02*
D03*
Y0324803D02*
D03*
X0363189Y0318898D02*
D03*
X0360236Y0312992D02*
D03*
X0363189Y0307086D02*
D03*
X0357283Y0413386D02*
D03*
X0354331Y0407480D02*
D03*
Y0395669D02*
D03*
Y0324803D02*
D03*
X0357283Y0318898D02*
D03*
X0354331Y0312992D02*
D03*
X0357283Y0307086D02*
D03*
X0351378Y0413386D02*
D03*
X0348425Y0407480D02*
D03*
X0351378Y0342520D02*
D03*
X0345472Y0413386D02*
D03*
X0342520Y0407480D02*
D03*
Y0360236D02*
D03*
X0345472Y0354331D02*
D03*
X0342520Y0301181D02*
D03*
X0345472Y0295275D02*
D03*
X0342520Y0289370D02*
D03*
X0339567Y0413386D02*
D03*
X0336614Y0407480D02*
D03*
X0339567Y0389764D02*
D03*
X0336614Y0360236D02*
D03*
X0339567Y0354331D02*
D03*
X0336614Y0348425D02*
D03*
Y0336614D02*
D03*
X0339567Y0330709D02*
D03*
X0336614Y0324803D02*
D03*
X0339567Y0318898D02*
D03*
X0336614Y0312992D02*
D03*
X0339567Y0307086D02*
D03*
X0336614Y0301181D02*
D03*
X0339567Y0295275D02*
D03*
X0336614Y0289370D02*
D03*
X0333661Y0413386D02*
D03*
X0330709Y0407480D02*
D03*
Y0372047D02*
D03*
X0333661Y0366142D02*
D03*
Y0354331D02*
D03*
X0330709Y0348425D02*
D03*
Y0336614D02*
D03*
X0333661Y0330709D02*
D03*
X0330709Y0324803D02*
D03*
X0333661Y0318898D02*
D03*
X0330709Y0312992D02*
D03*
X0333661Y0307086D02*
D03*
X0330709Y0301181D02*
D03*
X0333661Y0295275D02*
D03*
X0330709Y0289370D02*
D03*
X0342905Y0347956D02*
D03*
X0344166Y0336503D02*
D03*
Y0333535D02*
D03*
Y0330566D02*
D03*
Y0327598D02*
D03*
Y0324629D02*
D03*
Y0321661D02*
D03*
Y0318692D02*
D03*
Y0315724D02*
D03*
Y0312755D02*
D03*
Y0309787D02*
D03*
X0344304Y0306821D02*
D03*
X0345105Y0303963D02*
D03*
X0346527Y0301357D02*
D03*
X0348547Y0299182D02*
D03*
X0371594Y0296166D02*
D03*
X0374466Y0295418D02*
D03*
X0352217Y0302500D02*
D03*
X0350197Y0304676D02*
D03*
X0349173Y0307462D02*
D03*
X0349078Y0310429D02*
D03*
Y0313398D02*
D03*
Y0316366D02*
D03*
Y0319335D02*
D03*
Y0322303D02*
D03*
Y0325272D02*
D03*
Y0328240D02*
D03*
Y0331208D02*
D03*
Y0334177D02*
D03*
Y0337145D02*
D03*
Y0340114D02*
D03*
X0348827Y0343072D02*
D03*
X0347299Y0345617D02*
D03*
X0345290Y0347802D02*
D03*
X0420835Y0373228D02*
D03*
X0381169Y0338976D02*
D03*
X0348000Y0289272D02*
D03*
X0419000Y0299863D02*
D03*
X0493276Y0322342D02*
D03*
X0424279Y0318110D02*
D03*
X0444358Y0305906D02*
D03*
X0440913Y0295079D02*
D03*
X0453807Y0306201D02*
D03*
X0421917Y0338976D02*
D03*
X0427724Y0329823D02*
D03*
X0421524Y0335138D02*
D03*
X0428217Y0335630D02*
D03*
X0472508Y0318701D02*
D03*
X0477724Y0322342D02*
D03*
X0505480Y0344783D02*
D03*
X0495146Y0414764D02*
D03*
X0391110Y0412992D02*
D03*
X0424083Y0302223D02*
D03*
X0398394Y0381496D02*
D03*
X0377040Y0364768D02*
D03*
X0368870D02*
D03*
X0377429Y0360728D02*
D03*
X0381071Y0365650D02*
D03*
X0388093Y0329134D02*
D03*
X0384122Y0382185D02*
D03*
X0383159Y0368307D02*
D03*
X0379796Y0358271D02*
D03*
X0381273Y0356008D02*
D03*
X0388432Y0325317D02*
D03*
X0376839Y0375098D02*
D03*
X0392488Y0315945D02*
D03*
X0376154Y0331105D02*
D03*
X0378123Y0334845D02*
D03*
X0388354Y0321260D02*
D03*
X0357449Y0374803D02*
D03*
X0354299Y0375394D02*
D03*
X0386779Y0318898D02*
D03*
X0376051Y0339567D02*
D03*
X0507055Y0301181D02*
D03*
X0435894Y0372244D02*
D03*
X0429595Y0346752D02*
D03*
X0430087Y0343529D02*
D03*
X0433039Y0356201D02*
D03*
X0377823Y0319587D02*
D03*
Y0322441D02*
D03*
X0362961Y0342815D02*
D03*
X0366110Y0342913D02*
D03*
X0377929Y0325591D02*
D03*
X0368965Y0342913D02*
D03*
X0377921Y0328248D02*
D03*
X0408433Y0315354D02*
D03*
X0404102Y0316634D02*
D03*
X0413059Y0292028D02*
D03*
X0374476Y0353937D02*
D03*
X0465815Y0291437D02*
D03*
X0451937Y0415650D02*
D03*
X0438453Y0394783D02*
D03*
X0394161Y0337402D02*
D03*
X0389049Y0335042D02*
D03*
X0422016Y0326870D02*
D03*
X0353118Y0366831D02*
D03*
X0367980Y0375591D02*
D03*
X0404102Y0312598D02*
D03*
M02*
