G04*
G04 #@! TF.GenerationSoftware,Altium Limited,Altium Designer,19.0.14 (431)*
G04*
G04 Layer_Color=16711935*
%FSAX25Y25*%
%MOIN*%
G70*
G01*
G75*
%ADD11C,0.00709*%
%ADD12C,0.01181*%
%ADD13C,0.01968*%
%ADD15C,0.00787*%
%ADD16C,0.00394*%
%ADD17C,0.01000*%
%ADD93C,0.03150*%
%ADD94C,0.00472*%
D11*
X0419875Y0381024D02*
X0422499D01*
X0423024Y0381548D01*
Y0382598D01*
X0422499Y0383123D01*
X0419875D01*
Y0386271D02*
X0420400Y0385222D01*
X0421449Y0384172D01*
X0422499D01*
X0423024Y0384697D01*
Y0385747D01*
X0422499Y0386271D01*
X0421974D01*
X0421449Y0385747D01*
Y0384172D01*
D12*
X0399299Y0300886D02*
G03*
X0399299Y0300886I-0002008J0000000D01*
G01*
X0396809Y0402394D02*
G03*
X0396809Y0402394I-0000557J0000000D01*
G01*
X0500165Y0335827D02*
G03*
X0500165Y0335827I-0000394J0000000D01*
G01*
X0484516Y0321457D02*
G03*
X0484516Y0321457I-0000394J0000000D01*
G01*
X0338551Y0447736D02*
Y0455608D01*
X0342487Y0459543D01*
X0346423Y0455608D01*
Y0447736D01*
Y0453640D01*
X0338551D01*
X0350358Y0447736D02*
X0356262D01*
X0358230Y0449704D01*
X0356262Y0451672D01*
X0352326D01*
X0350358Y0453640D01*
X0352326Y0455608D01*
X0358230D01*
X0362166Y0447736D02*
X0368069D01*
X0370037Y0449704D01*
X0368069Y0451672D01*
X0364133D01*
X0362166Y0453640D01*
X0364133Y0455608D01*
X0370037D01*
X0379876Y0447736D02*
X0375941D01*
X0373973Y0449704D01*
Y0453640D01*
X0375941Y0455608D01*
X0379876D01*
X0381844Y0453640D01*
Y0451672D01*
X0373973D01*
X0385780Y0447736D02*
Y0455608D01*
X0387748D01*
X0389716Y0453640D01*
Y0447736D01*
Y0453640D01*
X0391684Y0455608D01*
X0393651Y0453640D01*
Y0447736D01*
X0397587Y0459543D02*
Y0447736D01*
X0403491D01*
X0405459Y0449704D01*
Y0451672D01*
Y0453640D01*
X0403491Y0455608D01*
X0397587D01*
X0409394Y0447736D02*
X0413330D01*
X0411362D01*
Y0459543D01*
X0409394D01*
X0419234Y0455608D02*
Y0449704D01*
X0421202Y0447736D01*
X0427105D01*
Y0445768D01*
X0425137Y0443800D01*
X0423169D01*
X0427105Y0447736D02*
Y0455608D01*
X0442848Y0459543D02*
X0450720D01*
X0446784D01*
Y0447736D01*
X0460559Y0459543D02*
X0456623D01*
X0454655Y0457576D01*
Y0449704D01*
X0456623Y0447736D01*
X0460559D01*
X0462527Y0449704D01*
Y0457576D01*
X0460559Y0459543D01*
X0466463Y0447736D02*
Y0459543D01*
X0472366D01*
X0474334Y0457576D01*
Y0453640D01*
X0472366Y0451672D01*
X0466463D01*
D13*
X0487858Y0369173D02*
G03*
X0487858Y0369173I-0000500J0000000D01*
G01*
D15*
X0521425Y0362008D02*
Y0391929D01*
X0499968Y0362008D02*
Y0391929D01*
Y0362008D02*
X0521425D01*
X0499968Y0391929D02*
X0521425D01*
X0365795Y0341238D02*
Y0336319D01*
X0366779Y0335335D01*
X0368747D01*
X0369731Y0336319D01*
Y0341238D01*
X0375635Y0335335D02*
X0371699D01*
X0375635Y0339270D01*
Y0340254D01*
X0374651Y0341238D01*
X0372683D01*
X0371699Y0340254D01*
D16*
X0418465Y0382024D02*
G03*
X0418465Y0382024I-0000941J0000000D01*
G01*
X0462189Y0335441D02*
G03*
X0462189Y0335441I-0001969J0000000D01*
G01*
X0485303Y0370669D02*
Y0382677D01*
X0478413Y0370669D02*
Y0382677D01*
Y0370669D02*
X0485303D01*
X0478413Y0382677D02*
X0485303D01*
X0336976Y0308268D02*
X0344457D01*
X0336976Y0304331D02*
X0344457D01*
X0336976D02*
Y0308268D01*
X0344457Y0304331D02*
Y0308268D01*
X0456465Y0382480D02*
Y0388386D01*
X0445441D02*
X0456465D01*
X0445441Y0382480D02*
Y0388386D01*
Y0382480D02*
X0456465D01*
X0415421Y0392126D02*
X0427626D01*
Y0379921D02*
Y0392126D01*
X0415421Y0379921D02*
Y0392126D01*
Y0379921D02*
X0427626D01*
X0456465Y0388535D02*
Y0394441D01*
X0445441D02*
X0456465D01*
X0445441Y0388535D02*
Y0394441D01*
Y0388535D02*
X0456465D01*
X0442825Y0384553D02*
Y0390053D01*
X0431325D02*
X0442825D01*
X0431325Y0384553D02*
Y0390053D01*
Y0384553D02*
X0442825D01*
X0431465Y0390059D02*
Y0395965D01*
Y0390059D02*
X0442488D01*
Y0395965D01*
X0431465D02*
X0442488D01*
X0407258Y0393939D02*
X0412758D01*
X0407258Y0382439D02*
Y0393939D01*
Y0382439D02*
X0412758D01*
Y0393939D01*
X0430683Y0372400D02*
X0436183D01*
Y0383900D01*
X0430683D02*
X0436183D01*
X0430683Y0372400D02*
Y0383900D01*
X0328217Y0305709D02*
X0332154D01*
X0328217Y0313189D02*
X0332154D01*
X0328217Y0305709D02*
Y0313189D01*
X0332154Y0305709D02*
Y0313189D01*
X0332744Y0314476D02*
X0336878D01*
X0332744Y0322153D02*
X0336878D01*
X0332744Y0314476D02*
Y0322153D01*
X0336878Y0314476D02*
Y0322153D01*
X0340638Y0309941D02*
Y0313878D01*
X0333157Y0309941D02*
Y0313878D01*
Y0309941D02*
X0340638D01*
X0333157Y0313878D02*
X0340638D01*
X0331957Y0314665D02*
Y0322146D01*
X0328020Y0314665D02*
Y0322146D01*
X0331957D01*
X0328020Y0314665D02*
X0331957D01*
X0327134Y0307677D02*
Y0354921D01*
X0283827D02*
X0327134D01*
X0283827Y0307677D02*
Y0354921D01*
Y0307677D02*
X0327134D01*
X0350441Y0376083D02*
X0405559D01*
Y0297342D02*
Y0376083D01*
X0350441Y0297342D02*
X0405559D01*
X0350441Y0376083D02*
X0350441Y0297342D01*
X0314362Y0399638D02*
X0403732D01*
X0314362D02*
Y0420504D01*
X0403732D01*
Y0399638D02*
Y0420504D01*
X0347213Y0393504D02*
X0353118D01*
X0347213Y0382480D02*
Y0393504D01*
Y0382480D02*
X0353118D01*
Y0393504D01*
X0501051Y0326181D02*
Y0334055D01*
X0486878D02*
X0501051D01*
X0486878Y0326181D02*
Y0334055D01*
Y0326181D02*
X0501051D01*
X0432842Y0397342D02*
Y0403248D01*
X0421819D02*
X0432842D01*
X0421819Y0397342D02*
Y0403248D01*
Y0397342D02*
X0432842D01*
X0400362Y0382382D02*
X0406268D01*
Y0393406D01*
X0400362D02*
X0406268D01*
X0400362Y0382382D02*
Y0393406D01*
X0394358D02*
X0400264D01*
X0394358Y0382382D02*
Y0393406D01*
Y0382382D02*
X0400264D01*
Y0393406D01*
X0388256Y0382382D02*
X0394161D01*
Y0393406D01*
X0388256D02*
X0394161D01*
X0388256Y0382382D02*
Y0393406D01*
X0464732Y0405118D02*
X0470638D01*
X0464732Y0394094D02*
Y0405118D01*
Y0394094D02*
X0470638D01*
Y0405118D01*
X0471425D02*
X0477331D01*
X0471425Y0394094D02*
Y0405118D01*
Y0394094D02*
X0477331D01*
Y0405118D01*
X0473591Y0309941D02*
X0479496D01*
X0473591Y0298917D02*
Y0309941D01*
Y0298917D02*
X0479496D01*
Y0309941D01*
X0473886Y0311024D02*
X0479791D01*
Y0322047D01*
X0473886D02*
X0479791D01*
X0473886Y0311024D02*
Y0322047D01*
X0503512Y0350394D02*
X0509417D01*
X0503512Y0339370D02*
Y0350394D01*
Y0339370D02*
X0509417D01*
Y0350394D01*
X0447508Y0347736D02*
Y0353642D01*
X0436484D02*
X0447508D01*
X0436484Y0347736D02*
Y0353642D01*
Y0347736D02*
X0447508D01*
X0379890Y0393504D02*
X0385795D01*
X0379890Y0382480D02*
Y0393504D01*
Y0382480D02*
X0385795D01*
Y0393504D01*
X0373886D02*
X0379791D01*
X0373886Y0382480D02*
Y0393504D01*
Y0382480D02*
X0379791D01*
Y0393504D01*
X0367882D02*
X0373787D01*
X0367882Y0382480D02*
Y0393504D01*
Y0382480D02*
X0373787D01*
Y0393504D01*
X0361878D02*
X0367783D01*
X0361878Y0382480D02*
Y0393504D01*
Y0382480D02*
X0367783D01*
Y0393504D01*
X0341209D02*
X0347114D01*
X0341209Y0382480D02*
Y0393504D01*
Y0382480D02*
X0347114D01*
Y0393504D01*
X0335205D02*
X0341110D01*
X0335205Y0382480D02*
Y0393504D01*
Y0382480D02*
X0341110D01*
Y0393504D01*
X0487468Y0400098D02*
X0493374D01*
X0487468Y0389075D02*
Y0400098D01*
Y0389075D02*
X0493374D01*
Y0400098D01*
X0329126Y0393504D02*
X0335032D01*
X0329126Y0382480D02*
Y0393504D01*
Y0382480D02*
X0335032D01*
Y0393504D01*
X0468472Y0370492D02*
Y0376398D01*
X0457449D02*
X0468472D01*
X0457449Y0370492D02*
Y0376398D01*
Y0370492D02*
X0468472D01*
Y0376992D02*
Y0382898D01*
X0457449D02*
X0468472D01*
X0457449Y0376992D02*
Y0382898D01*
Y0376992D02*
X0468472D01*
X0424673Y0342520D02*
Y0355906D01*
X0416799Y0342520D02*
Y0355906D01*
X0424673D01*
X0416799Y0342520D02*
X0424673D01*
X0489240Y0352165D02*
X0502626D01*
X0489240Y0360039D02*
X0502626D01*
Y0352165D02*
Y0360039D01*
X0489240Y0352165D02*
Y0360039D01*
X0418923Y0369203D02*
X0424423D01*
X0418923Y0357703D02*
Y0369203D01*
Y0357703D02*
X0424423D01*
Y0369203D01*
X0413018D02*
X0418518D01*
X0413018Y0357703D02*
Y0369203D01*
Y0357703D02*
X0418518D01*
Y0369203D01*
X0418282Y0329880D02*
X0423781D01*
Y0341380D01*
X0418282D02*
X0423781D01*
X0418282Y0329880D02*
Y0341380D01*
X0485541Y0327270D02*
Y0332770D01*
X0474041D02*
X0485541D01*
X0474041Y0327270D02*
Y0332770D01*
Y0327270D02*
X0485541D01*
X0485443Y0333981D02*
Y0339481D01*
X0473943D02*
X0485443D01*
X0473943Y0333981D02*
Y0339481D01*
Y0333981D02*
X0485443D01*
X0417644Y0310341D02*
Y0315841D01*
Y0310341D02*
X0429144D01*
Y0315841D01*
X0417644D02*
X0429144D01*
X0412770Y0329978D02*
X0418270D01*
Y0341478D01*
X0412770D02*
X0418270D01*
X0412770Y0329978D02*
Y0341478D01*
X0457380Y0298923D02*
Y0304423D01*
Y0298923D02*
X0468880D01*
Y0304423D01*
X0457380D02*
X0468880D01*
X0484573Y0301089D02*
Y0306589D01*
Y0301089D02*
X0496073D01*
Y0306589D01*
X0484573D02*
X0496073D01*
X0472880Y0365161D02*
X0478380D01*
X0472880Y0353661D02*
Y0365161D01*
Y0353661D02*
X0478380D01*
Y0365161D01*
X0453880Y0365161D02*
X0459380D01*
X0453880Y0353661D02*
Y0365161D01*
Y0353661D02*
X0459380D01*
Y0365161D01*
X0450699Y0397545D02*
Y0403045D01*
X0439199D02*
X0450699D01*
X0439199Y0397545D02*
Y0403045D01*
Y0397545D02*
X0450699D01*
X0439986Y0365065D02*
Y0370565D01*
Y0365065D02*
X0451486D01*
Y0370565D01*
X0439986D02*
X0451486D01*
X0433537Y0365396D02*
X0439037D01*
X0433537Y0353896D02*
Y0365396D01*
Y0353896D02*
X0439037D01*
Y0365396D01*
X0481222Y0388738D02*
X0486722D01*
Y0400238D01*
X0481222D02*
X0486722D01*
X0481222Y0388738D02*
Y0400238D01*
X0483687Y0361030D02*
Y0366529D01*
Y0361030D02*
X0495187D01*
Y0366529D01*
X0483687D02*
X0495187D01*
X0515758Y0353352D02*
Y0358852D01*
X0504258D02*
X0515758D01*
X0504258Y0353352D02*
Y0358852D01*
Y0353352D02*
X0515758D01*
X0511884Y0335687D02*
X0517384D01*
Y0347187D01*
X0511884D02*
X0517384D01*
X0511884Y0335687D02*
Y0347187D01*
X0500165Y0337008D02*
Y0348819D01*
X0488354D02*
X0500165D01*
X0488354Y0337008D02*
Y0348819D01*
Y0337008D02*
X0500165D01*
X0483728Y0308465D02*
Y0320276D01*
Y0308465D02*
X0495539D01*
Y0320276D01*
X0483728D02*
X0495539D01*
X0438216Y0404724D02*
Y0417323D01*
Y0404724D02*
X0460264D01*
Y0417323D01*
X0438216Y0417323D02*
X0460264Y0417323D01*
X0436205Y0338984D02*
X0463764D01*
X0436205Y0311425D02*
X0463764D01*
X0436205D02*
Y0338984D01*
X0463764Y0311425D02*
Y0338984D01*
X0464535Y0406890D02*
X0470835D01*
X0464535Y0405709D02*
X0470835D01*
Y0418701D01*
X0464535D02*
X0470835D01*
X0464535Y0405709D02*
Y0418701D01*
X0471130Y0406890D02*
X0477429D01*
X0471130Y0405709D02*
X0477429D01*
Y0418701D01*
X0471130D02*
X0477429D01*
X0471130Y0405709D02*
Y0418701D01*
X0439535Y0354528D02*
X0451346D01*
X0439535D02*
Y0363976D01*
X0451346D01*
Y0354528D02*
Y0363976D01*
X0455283Y0387008D02*
Y0384646D01*
X0454103D01*
X0453709Y0385040D01*
Y0385827D01*
X0454103Y0386221D01*
X0455283D01*
X0454496D02*
X0453709Y0387008D01*
X0452922D02*
X0452135D01*
X0452528D01*
Y0384646D01*
X0452922Y0385040D01*
X0450954D02*
X0450561Y0384646D01*
X0449773D01*
X0449380Y0385040D01*
Y0386614D01*
X0449773Y0387008D01*
X0450561D01*
X0450954Y0386614D01*
Y0385040D01*
X0455283Y0393063D02*
Y0390702D01*
X0454103D01*
X0453709Y0391095D01*
Y0391882D01*
X0454103Y0392276D01*
X0455283D01*
X0454496D02*
X0453709Y0393063D01*
X0451348D02*
X0452922D01*
X0451348Y0391489D01*
Y0391095D01*
X0451741Y0390702D01*
X0452528D01*
X0452922Y0391095D01*
X0450561Y0393063D02*
X0449773D01*
X0450167D01*
Y0390702D01*
X0450561Y0391095D01*
X0439251Y0386335D02*
X0439644Y0385942D01*
X0440431D01*
X0440825Y0386335D01*
Y0387910D01*
X0440431Y0388303D01*
X0439644D01*
X0439251Y0387910D01*
X0436889Y0388303D02*
X0438463D01*
X0436889Y0386729D01*
Y0386335D01*
X0437283Y0385942D01*
X0438070D01*
X0438463Y0386335D01*
X0436102Y0388303D02*
X0435315D01*
X0435708D01*
Y0385942D01*
X0436102Y0386335D01*
X0432646Y0391437D02*
Y0393798D01*
X0433826D01*
X0434220Y0393405D01*
Y0392618D01*
X0433826Y0392224D01*
X0432646D01*
X0433433D02*
X0434220Y0391437D01*
X0436581D02*
X0435007D01*
X0436581Y0393011D01*
Y0393405D01*
X0436188Y0393798D01*
X0435401D01*
X0435007Y0393405D01*
X0438943Y0391437D02*
X0437368D01*
X0438943Y0393011D01*
Y0393405D01*
X0438549Y0393798D01*
X0437762D01*
X0437368Y0393405D01*
X0410976Y0390365D02*
X0411369Y0390758D01*
Y0391545D01*
X0410976Y0391939D01*
X0409401D01*
X0409008Y0391545D01*
Y0390758D01*
X0409401Y0390365D01*
X0409008Y0388003D02*
Y0389578D01*
X0410582Y0388003D01*
X0410976D01*
X0411369Y0388397D01*
Y0389184D01*
X0410976Y0389578D01*
Y0387216D02*
X0411369Y0386823D01*
Y0386035D01*
X0410976Y0385642D01*
X0410582D01*
X0410189Y0386035D01*
Y0386429D01*
Y0386035D01*
X0409795Y0385642D01*
X0409401D01*
X0409008Y0386035D01*
Y0386823D01*
X0409401Y0387216D01*
X0432465Y0375974D02*
X0432072Y0375580D01*
Y0374793D01*
X0432465Y0374400D01*
X0434039D01*
X0434433Y0374793D01*
Y0375580D01*
X0434039Y0375974D01*
X0434433Y0378335D02*
Y0376761D01*
X0432859Y0378335D01*
X0432465D01*
X0432072Y0377942D01*
Y0377155D01*
X0432465Y0376761D01*
X0434433Y0380697D02*
Y0379122D01*
X0432859Y0380697D01*
X0432465D01*
X0432072Y0380303D01*
Y0379516D01*
X0432465Y0379122D01*
X0348590Y0392323D02*
X0350952D01*
Y0391142D01*
X0350558Y0390749D01*
X0349771D01*
X0349378Y0391142D01*
Y0392323D01*
Y0391536D02*
X0348590Y0390749D01*
Y0389961D02*
Y0389174D01*
Y0389568D01*
X0350952D01*
X0350558Y0389961D01*
X0348590Y0386419D02*
Y0387994D01*
X0350165Y0386419D01*
X0350558D01*
X0350952Y0386813D01*
Y0387600D01*
X0350558Y0387994D01*
X0496365Y0328994D02*
X0496890Y0328469D01*
X0497940D01*
X0498465Y0328994D01*
Y0331093D01*
X0497940Y0331618D01*
X0496890D01*
X0496365Y0331093D01*
X0495316Y0331618D02*
X0494266D01*
X0494791D01*
Y0328469D01*
X0495316Y0328994D01*
X0492692Y0331093D02*
X0492167Y0331618D01*
X0491118D01*
X0490593Y0331093D01*
Y0328994D01*
X0491118Y0328469D01*
X0492167D01*
X0492692Y0328994D01*
Y0329519D01*
X0492167Y0330044D01*
X0490593D01*
X0431661Y0401870D02*
Y0399509D01*
X0430481D01*
X0430087Y0399902D01*
Y0400689D01*
X0430481Y0401083D01*
X0431661D01*
X0430874D02*
X0430087Y0401870D01*
X0429300D02*
X0428513D01*
X0428906D01*
Y0399509D01*
X0429300Y0399902D01*
X0427332Y0401870D02*
X0426545D01*
X0426938D01*
Y0399509D01*
X0427332Y0399902D01*
X0404693Y0386441D02*
X0402331D01*
Y0387622D01*
X0402725Y0388015D01*
X0403512D01*
X0403906Y0387622D01*
Y0386441D01*
Y0387228D02*
X0404693Y0388015D01*
Y0388802D02*
Y0389590D01*
Y0389196D01*
X0402331D01*
X0402725Y0388802D01*
X0398598Y0386047D02*
X0396237D01*
Y0387228D01*
X0396631Y0387621D01*
X0397418D01*
X0397811Y0387228D01*
Y0386047D01*
Y0386834D02*
X0398598Y0387621D01*
Y0389983D02*
Y0388409D01*
X0397024Y0389983D01*
X0396631D01*
X0396237Y0389589D01*
Y0388802D01*
X0396631Y0388409D01*
X0392260Y0386047D02*
X0389898D01*
Y0387228D01*
X0390292Y0387621D01*
X0391079D01*
X0391473Y0387228D01*
Y0386047D01*
Y0386834D02*
X0392260Y0387621D01*
X0390292Y0388409D02*
X0389898Y0388802D01*
Y0389589D01*
X0390292Y0389983D01*
X0390686D01*
X0391079Y0389589D01*
Y0389196D01*
Y0389589D01*
X0391473Y0389983D01*
X0391866D01*
X0392260Y0389589D01*
Y0388802D01*
X0391866Y0388409D01*
X0468823Y0397705D02*
X0466461D01*
Y0398885D01*
X0466855Y0399279D01*
X0467642D01*
X0468036Y0398885D01*
Y0397705D01*
Y0398492D02*
X0468823Y0399279D01*
Y0401247D02*
X0466461D01*
X0467642Y0400066D01*
Y0401641D01*
X0475504Y0397850D02*
X0473142D01*
Y0399031D01*
X0473536Y0399425D01*
X0474323D01*
X0474717Y0399031D01*
Y0397850D01*
Y0398638D02*
X0475504Y0399425D01*
X0473142Y0401786D02*
Y0400212D01*
X0474323D01*
X0473930Y0400999D01*
Y0401393D01*
X0474323Y0401786D01*
X0475110D01*
X0475504Y0401393D01*
Y0400605D01*
X0475110Y0400212D01*
X0477921Y0302461D02*
X0475560D01*
Y0303641D01*
X0475953Y0304035D01*
X0476741D01*
X0477134Y0303641D01*
Y0302461D01*
Y0303248D02*
X0477921Y0304035D01*
X0475560Y0306396D02*
X0475953Y0305609D01*
X0476741Y0304822D01*
X0477528D01*
X0477921Y0305216D01*
Y0306003D01*
X0477528Y0306396D01*
X0477134D01*
X0476741Y0306003D01*
Y0304822D01*
X0477626Y0314665D02*
X0475265D01*
Y0315846D01*
X0475658Y0316240D01*
X0476445D01*
X0476839Y0315846D01*
Y0314665D01*
Y0315453D02*
X0477626Y0316240D01*
X0475265Y0317027D02*
Y0318601D01*
X0475658D01*
X0477232Y0317027D01*
X0477626D01*
X0505130Y0347094D02*
X0507491D01*
Y0345914D01*
X0507098Y0345520D01*
X0506311D01*
X0505917Y0345914D01*
Y0347094D01*
Y0346307D02*
X0505130Y0345520D01*
X0507098Y0344733D02*
X0507491Y0344339D01*
Y0343552D01*
X0507098Y0343159D01*
X0506704D01*
X0506311Y0343552D01*
X0505917Y0343159D01*
X0505523D01*
X0505130Y0343552D01*
Y0344339D01*
X0505523Y0344733D01*
X0505917D01*
X0506311Y0344339D01*
X0506704Y0344733D01*
X0507098D01*
X0506311Y0344339D02*
Y0343552D01*
X0439437Y0349606D02*
Y0351968D01*
X0440618D01*
X0441011Y0351574D01*
Y0350787D01*
X0440618Y0350394D01*
X0439437D01*
X0440224D02*
X0441011Y0349606D01*
X0441798Y0350000D02*
X0442192Y0349606D01*
X0442979D01*
X0443373Y0350000D01*
Y0351574D01*
X0442979Y0351968D01*
X0442192D01*
X0441798Y0351574D01*
Y0351181D01*
X0442192Y0350787D01*
X0443373D01*
X0383988Y0385165D02*
X0381627D01*
Y0386346D01*
X0382020Y0386740D01*
X0382807D01*
X0383201Y0386346D01*
Y0385165D01*
Y0385952D02*
X0383988Y0386740D01*
Y0387527D02*
Y0388314D01*
Y0387920D01*
X0381627D01*
X0382020Y0387527D01*
Y0389495D02*
X0381627Y0389888D01*
Y0390675D01*
X0382020Y0391069D01*
X0382414D01*
X0382807Y0390675D01*
Y0390282D01*
Y0390675D01*
X0383201Y0391069D01*
X0383595D01*
X0383988Y0390675D01*
Y0389888D01*
X0383595Y0389495D01*
X0377876Y0385165D02*
X0375514D01*
Y0386346D01*
X0375908Y0386740D01*
X0376695D01*
X0377089Y0386346D01*
Y0385165D01*
Y0385952D02*
X0377876Y0386740D01*
Y0387527D02*
Y0388314D01*
Y0387920D01*
X0375514D01*
X0375908Y0387527D01*
X0377876Y0390675D02*
X0375514D01*
X0376695Y0389495D01*
Y0391069D01*
X0372059Y0385165D02*
X0369697D01*
Y0386346D01*
X0370091Y0386740D01*
X0370878D01*
X0371272Y0386346D01*
Y0385165D01*
Y0385952D02*
X0372059Y0386740D01*
Y0387527D02*
Y0388314D01*
Y0387920D01*
X0369697D01*
X0370091Y0387527D01*
X0369697Y0391069D02*
Y0389495D01*
X0370878D01*
X0370484Y0390282D01*
Y0390675D01*
X0370878Y0391069D01*
X0371665D01*
X0372059Y0390675D01*
Y0389888D01*
X0371665Y0389495D01*
X0366143Y0385165D02*
X0363782D01*
Y0386346D01*
X0364175Y0386740D01*
X0364963D01*
X0365356Y0386346D01*
Y0385165D01*
Y0385952D02*
X0366143Y0386740D01*
Y0387527D02*
Y0388314D01*
Y0387920D01*
X0363782D01*
X0364175Y0387527D01*
X0363782Y0391069D02*
X0364175Y0390282D01*
X0364963Y0389495D01*
X0365750D01*
X0366143Y0389888D01*
Y0390675D01*
X0365750Y0391069D01*
X0365356D01*
X0364963Y0390675D01*
Y0389495D01*
X0345356Y0385362D02*
X0342994D01*
Y0386543D01*
X0343388Y0386936D01*
X0344175D01*
X0344568Y0386543D01*
Y0385362D01*
Y0386149D02*
X0345356Y0386936D01*
Y0387724D02*
Y0388511D01*
Y0388117D01*
X0342994D01*
X0343388Y0387724D01*
X0342994Y0389691D02*
Y0391266D01*
X0343388D01*
X0344962Y0389691D01*
X0345356D01*
X0339440Y0385264D02*
X0337078D01*
Y0386444D01*
X0337472Y0386838D01*
X0338259D01*
X0338653Y0386444D01*
Y0385264D01*
Y0386051D02*
X0339440Y0386838D01*
Y0387625D02*
Y0388412D01*
Y0388019D01*
X0337078D01*
X0337472Y0387625D01*
Y0389593D02*
X0337078Y0389987D01*
Y0390774D01*
X0337472Y0391167D01*
X0337866D01*
X0338259Y0390774D01*
X0338653Y0391167D01*
X0339046D01*
X0339440Y0390774D01*
Y0389987D01*
X0339046Y0389593D01*
X0338653D01*
X0338259Y0389987D01*
X0337866Y0389593D01*
X0337472D01*
X0338259Y0389987D02*
Y0390774D01*
X0491681Y0391760D02*
X0489320D01*
Y0392940D01*
X0489713Y0393334D01*
X0490500D01*
X0490894Y0392940D01*
Y0391760D01*
Y0392547D02*
X0491681Y0393334D01*
Y0394121D02*
Y0394908D01*
Y0394515D01*
X0489320D01*
X0489713Y0394121D01*
X0491288Y0396089D02*
X0491681Y0396483D01*
Y0397270D01*
X0491288Y0397663D01*
X0489713D01*
X0489320Y0397270D01*
Y0396483D01*
X0489713Y0396089D01*
X0490107D01*
X0490500Y0396483D01*
Y0397663D01*
X0333046Y0385362D02*
X0330684D01*
Y0386543D01*
X0331078Y0386936D01*
X0331865D01*
X0332259Y0386543D01*
Y0385362D01*
Y0386149D02*
X0333046Y0386936D01*
Y0389298D02*
Y0387724D01*
X0331472Y0389298D01*
X0331078D01*
X0330684Y0388904D01*
Y0388117D01*
X0331078Y0387724D01*
Y0390085D02*
X0330684Y0390479D01*
Y0391266D01*
X0331078Y0391659D01*
X0332652D01*
X0333046Y0391266D01*
Y0390479D01*
X0332652Y0390085D01*
X0331078D01*
X0459713Y0372441D02*
Y0374802D01*
X0460893D01*
X0461287Y0374409D01*
Y0373622D01*
X0460893Y0373228D01*
X0459713D01*
X0460500D02*
X0461287Y0372441D01*
X0463648D02*
X0462074D01*
X0463648Y0374015D01*
Y0374409D01*
X0463255Y0374802D01*
X0462468D01*
X0462074Y0374409D01*
X0465616Y0372441D02*
Y0374802D01*
X0464435Y0373622D01*
X0466010D01*
X0459713Y0378642D02*
Y0381003D01*
X0460893D01*
X0461287Y0380610D01*
Y0379822D01*
X0460893Y0379429D01*
X0459713D01*
X0460500D02*
X0461287Y0378642D01*
X0463648D02*
X0462074D01*
X0463648Y0380216D01*
Y0380610D01*
X0463255Y0381003D01*
X0462468D01*
X0462074Y0380610D01*
X0466010Y0381003D02*
X0464435D01*
Y0379822D01*
X0465223Y0380216D01*
X0465616D01*
X0466010Y0379822D01*
Y0379035D01*
X0465616Y0378642D01*
X0464829D01*
X0464435Y0379035D01*
X0420764Y0363090D02*
X0420371Y0362697D01*
Y0361909D01*
X0420764Y0361516D01*
X0422339D01*
X0422732Y0361909D01*
Y0362697D01*
X0422339Y0363090D01*
X0422732Y0365452D02*
Y0363877D01*
X0421158Y0365452D01*
X0420764D01*
X0420371Y0365058D01*
Y0364271D01*
X0420764Y0363877D01*
X0416924Y0363583D02*
X0417318Y0363977D01*
Y0364764D01*
X0416924Y0365158D01*
X0415350D01*
X0414957Y0364764D01*
Y0363977D01*
X0415350Y0363583D01*
X0416924Y0362796D02*
X0417318Y0362403D01*
Y0361615D01*
X0416924Y0361222D01*
X0416531D01*
X0416137Y0361615D01*
Y0362009D01*
Y0361615D01*
X0415744Y0361222D01*
X0415350D01*
X0414957Y0361615D01*
Y0362403D01*
X0415350Y0362796D01*
X0420245Y0335039D02*
X0419851Y0334645D01*
Y0333858D01*
X0420245Y0333465D01*
X0421819D01*
X0422213Y0333858D01*
Y0334645D01*
X0421819Y0335039D01*
X0422213Y0337007D02*
X0419851D01*
X0421032Y0335826D01*
Y0337400D01*
X0479003Y0330869D02*
X0478610Y0331263D01*
X0477823D01*
X0477429Y0330869D01*
Y0329295D01*
X0477823Y0328902D01*
X0478610D01*
X0479003Y0329295D01*
X0481365Y0331263D02*
X0479790D01*
Y0330082D01*
X0480578Y0330476D01*
X0480971D01*
X0481365Y0330082D01*
Y0329295D01*
X0480971Y0328902D01*
X0480184D01*
X0479790Y0329295D01*
X0479003Y0337696D02*
X0478610Y0338090D01*
X0477823D01*
X0477429Y0337696D01*
Y0336122D01*
X0477823Y0335728D01*
X0478610D01*
X0479003Y0336122D01*
X0481365Y0338090D02*
X0480578Y0337696D01*
X0479790Y0336909D01*
Y0336122D01*
X0480184Y0335728D01*
X0480971D01*
X0481365Y0336122D01*
Y0336515D01*
X0480971Y0336909D01*
X0479790D01*
X0422902Y0312205D02*
X0423296Y0311812D01*
X0424083D01*
X0424476Y0312205D01*
Y0313780D01*
X0424083Y0314173D01*
X0423296D01*
X0422902Y0313780D01*
X0422115Y0311812D02*
X0420541D01*
Y0312205D01*
X0422115Y0313780D01*
Y0314173D01*
X0414536Y0335826D02*
X0414143Y0335433D01*
Y0334646D01*
X0414536Y0334252D01*
X0416110D01*
X0416504Y0334646D01*
Y0335433D01*
X0416110Y0335826D01*
X0414536Y0336613D02*
X0414143Y0337007D01*
Y0337794D01*
X0414536Y0338188D01*
X0414930D01*
X0415323Y0337794D01*
X0415717Y0338188D01*
X0416110D01*
X0416504Y0337794D01*
Y0337007D01*
X0416110Y0336613D01*
X0415717D01*
X0415323Y0337007D01*
X0414930Y0336613D01*
X0414536D01*
X0415323Y0337007D02*
Y0337794D01*
X0462271Y0302460D02*
X0461878Y0302854D01*
X0461090D01*
X0460697Y0302460D01*
Y0300886D01*
X0461090Y0300492D01*
X0461878D01*
X0462271Y0300886D01*
X0463058D02*
X0463452Y0300492D01*
X0464239D01*
X0464633Y0300886D01*
Y0302460D01*
X0464239Y0302854D01*
X0463452D01*
X0463058Y0302460D01*
Y0302066D01*
X0463452Y0301673D01*
X0464633D01*
X0488147Y0304806D02*
X0487753Y0305200D01*
X0486966D01*
X0486573Y0304806D01*
Y0303232D01*
X0486966Y0302839D01*
X0487753D01*
X0488147Y0303232D01*
X0488934Y0302839D02*
X0489721D01*
X0489328D01*
Y0305200D01*
X0488934Y0304806D01*
X0490902D02*
X0491296Y0305200D01*
X0492083D01*
X0492476Y0304806D01*
Y0303232D01*
X0492083Y0302839D01*
X0491296D01*
X0490902Y0303232D01*
Y0304806D01*
X0474969Y0359448D02*
X0474576Y0359055D01*
Y0358268D01*
X0474969Y0357874D01*
X0476543D01*
X0476937Y0358268D01*
Y0359055D01*
X0476543Y0359448D01*
X0476937Y0360236D02*
Y0361023D01*
Y0360629D01*
X0474576D01*
X0474969Y0360236D01*
X0476937Y0362203D02*
Y0362990D01*
Y0362597D01*
X0474576D01*
X0474969Y0362203D01*
X0455973Y0357874D02*
X0455580Y0357480D01*
Y0356693D01*
X0455973Y0356299D01*
X0457547D01*
X0457941Y0356693D01*
Y0357480D01*
X0457547Y0357874D01*
X0457941Y0358661D02*
Y0359448D01*
Y0359054D01*
X0455580D01*
X0455973Y0358661D01*
X0457941Y0362203D02*
Y0360629D01*
X0456367Y0362203D01*
X0455973D01*
X0455580Y0361809D01*
Y0361022D01*
X0455973Y0360629D01*
X0443696Y0400558D02*
X0443303Y0400952D01*
X0442516D01*
X0442122Y0400558D01*
Y0398984D01*
X0442516Y0398591D01*
X0443303D01*
X0443696Y0398984D01*
X0444484Y0398591D02*
X0445271D01*
X0444877D01*
Y0400952D01*
X0444484Y0400558D01*
X0446451D02*
X0446845Y0400952D01*
X0447632D01*
X0448026Y0400558D01*
Y0400165D01*
X0447632Y0399771D01*
X0447238D01*
X0447632D01*
X0448026Y0399378D01*
Y0398984D01*
X0447632Y0398591D01*
X0446845D01*
X0446451Y0398984D01*
X0443561Y0368783D02*
X0443167Y0369176D01*
X0442380D01*
X0441986Y0368783D01*
Y0367209D01*
X0442380Y0366815D01*
X0443167D01*
X0443561Y0367209D01*
X0444348Y0366815D02*
X0445135D01*
X0444741D01*
Y0369176D01*
X0444348Y0368783D01*
X0447496Y0366815D02*
Y0369176D01*
X0446315Y0367996D01*
X0447890D01*
X0435698Y0358267D02*
X0435304Y0357874D01*
Y0357086D01*
X0435698Y0356693D01*
X0437272D01*
X0437665Y0357086D01*
Y0357874D01*
X0437272Y0358267D01*
X0437665Y0359054D02*
Y0359841D01*
Y0359448D01*
X0435304D01*
X0435698Y0359054D01*
X0435304Y0362597D02*
Y0361022D01*
X0436485D01*
X0436091Y0361809D01*
Y0362203D01*
X0436485Y0362597D01*
X0437272D01*
X0437665Y0362203D01*
Y0361416D01*
X0437272Y0361022D01*
X0483564Y0392992D02*
X0483170Y0392598D01*
Y0391811D01*
X0483564Y0391417D01*
X0485138D01*
X0485532Y0391811D01*
Y0392598D01*
X0485138Y0392992D01*
X0485532Y0393779D02*
Y0394566D01*
Y0394172D01*
X0483170D01*
X0483564Y0393779D01*
X0483170Y0397321D02*
X0483564Y0396534D01*
X0484351Y0395747D01*
X0485138D01*
X0485532Y0396140D01*
Y0396927D01*
X0485138Y0397321D01*
X0484744D01*
X0484351Y0396927D01*
Y0395747D01*
X0487261Y0364747D02*
X0486868Y0365141D01*
X0486081D01*
X0485687Y0364747D01*
Y0363173D01*
X0486081Y0362779D01*
X0486868D01*
X0487261Y0363173D01*
X0488048Y0362779D02*
X0488836D01*
X0488442D01*
Y0365141D01*
X0488048Y0364747D01*
X0490016Y0365141D02*
X0491591D01*
Y0364747D01*
X0490016Y0363173D01*
Y0362779D01*
X0508492Y0356558D02*
X0508098Y0356952D01*
X0507311D01*
X0506917Y0356558D01*
Y0354984D01*
X0507311Y0354591D01*
X0508098D01*
X0508492Y0354984D01*
X0509279Y0354591D02*
X0510066D01*
X0509672D01*
Y0356952D01*
X0509279Y0356558D01*
X0511247D02*
X0511640Y0356952D01*
X0512427D01*
X0512821Y0356558D01*
Y0356165D01*
X0512427Y0355771D01*
X0512821Y0355378D01*
Y0354984D01*
X0512427Y0354591D01*
X0511640D01*
X0511247Y0354984D01*
Y0355378D01*
X0511640Y0355771D01*
X0511247Y0356165D01*
Y0356558D01*
X0511640Y0355771D02*
X0512427D01*
X0513666Y0339261D02*
X0513272Y0338868D01*
Y0338081D01*
X0513666Y0337687D01*
X0515240D01*
X0515634Y0338081D01*
Y0338868D01*
X0515240Y0339261D01*
X0515634Y0341623D02*
Y0340049D01*
X0514060Y0341623D01*
X0513666D01*
X0513272Y0341229D01*
Y0340442D01*
X0513666Y0340049D01*
Y0342410D02*
X0513272Y0342804D01*
Y0343591D01*
X0513666Y0343984D01*
X0515240D01*
X0515634Y0343591D01*
Y0342804D01*
X0515240Y0342410D01*
X0513666D01*
X0450132Y0412532D02*
X0449476Y0413188D01*
X0448164D01*
X0447508Y0412532D01*
Y0411876D01*
X0448164Y0411220D01*
X0449476D01*
X0450132Y0410564D01*
Y0409908D01*
X0449476Y0409252D01*
X0448164D01*
X0447508Y0409908D01*
X0451444Y0409252D02*
X0452755D01*
X0452100D01*
Y0413188D01*
X0451444Y0412532D01*
X0466461Y0410835D02*
X0468823D01*
Y0412015D01*
X0468429Y0412409D01*
X0466855D01*
X0466461Y0412015D01*
Y0410835D01*
X0468823Y0413196D02*
Y0413983D01*
Y0413590D01*
X0466461D01*
X0466855Y0413196D01*
X0472749Y0410638D02*
X0475110D01*
Y0411819D01*
X0474717Y0412212D01*
X0473142D01*
X0472749Y0411819D01*
Y0410638D01*
X0475110Y0414573D02*
Y0412999D01*
X0473536Y0414573D01*
X0473142D01*
X0472749Y0414180D01*
Y0413393D01*
X0473142Y0412999D01*
D17*
X0509226Y0370660D02*
X0508226Y0369660D01*
Y0367661D01*
X0509226Y0366661D01*
X0513225D01*
X0514224Y0367661D01*
Y0369660D01*
X0513225Y0370660D01*
X0508226Y0375658D02*
Y0373659D01*
X0509226Y0372659D01*
X0513225D01*
X0514224Y0373659D01*
Y0375658D01*
X0513225Y0376658D01*
X0509226D01*
X0508226Y0375658D01*
X0514224Y0378658D02*
X0508226D01*
X0514224Y0382656D01*
X0508226D01*
X0514224Y0388654D02*
Y0384656D01*
X0510226Y0388654D01*
X0509226D01*
X0508226Y0387655D01*
Y0385655D01*
X0509226Y0384656D01*
D93*
X0316174Y0311614D02*
G03*
X0316174Y0311614I-0001245J0000000D01*
G01*
D94*
X0482645Y0381004D02*
X0480677D01*
X0480283Y0380610D01*
Y0379823D01*
X0480677Y0379430D01*
X0482645D01*
X0480283Y0377462D02*
X0482645D01*
X0481464Y0378643D01*
Y0377068D01*
X0343669Y0307677D02*
Y0305316D01*
X0342489D01*
X0342095Y0305709D01*
Y0306497D01*
X0342489Y0306890D01*
X0343669D01*
X0342882D02*
X0342095Y0307677D01*
X0339734D02*
X0341308D01*
X0339734Y0306103D01*
Y0305709D01*
X0340127Y0305316D01*
X0340914D01*
X0341308Y0305709D01*
X0338946D02*
X0338553Y0305316D01*
X0337766D01*
X0337372Y0305709D01*
Y0306103D01*
X0337766Y0306497D01*
X0338159D01*
X0337766D01*
X0337372Y0306890D01*
Y0307284D01*
X0337766Y0307677D01*
X0338553D01*
X0338946Y0307284D01*
X0329005Y0306693D02*
X0331366D01*
Y0308267D01*
X0329398Y0309054D02*
X0329005Y0309448D01*
Y0310235D01*
X0329398Y0310629D01*
X0329792D01*
X0330185Y0310235D01*
Y0309841D01*
Y0310235D01*
X0330579Y0310629D01*
X0330973D01*
X0331366Y0310235D01*
Y0309448D01*
X0330973Y0309054D01*
X0334123Y0317133D02*
X0333729Y0316740D01*
Y0315953D01*
X0334123Y0315559D01*
X0335697D01*
X0336090Y0315953D01*
Y0316740D01*
X0335697Y0317133D01*
X0336090Y0317920D02*
Y0318708D01*
Y0318314D01*
X0333729D01*
X0334123Y0317920D01*
X0335567Y0313208D02*
Y0310846D01*
X0337141D01*
X0337928D02*
X0338716D01*
X0338322D01*
Y0313208D01*
X0337928Y0312814D01*
X0331180Y0320130D02*
X0328819D01*
Y0318556D01*
Y0316194D02*
Y0317769D01*
X0330393Y0316194D01*
X0330787D01*
X0331180Y0316588D01*
Y0317375D01*
X0330787Y0317769D01*
X0306957Y0330610D02*
Y0329036D01*
X0306170Y0328249D01*
X0305382Y0329036D01*
Y0330610D01*
Y0329430D01*
X0306957D01*
X0304595Y0330610D02*
X0303808D01*
X0304202D01*
Y0328249D01*
X0304595Y0328642D01*
X0354200Y0412007D02*
X0353807Y0412401D01*
X0353019D01*
X0352626Y0412007D01*
Y0410433D01*
X0353019Y0410039D01*
X0353807D01*
X0354200Y0410433D01*
X0356168Y0412401D02*
X0355381D01*
X0354987Y0412007D01*
Y0410433D01*
X0355381Y0410039D01*
X0356168D01*
X0356562Y0410433D01*
Y0412007D01*
X0356168Y0412401D01*
X0357349Y0410039D02*
Y0412401D01*
X0358923Y0410039D01*
Y0412401D01*
X0359710Y0410039D02*
X0360497D01*
X0360104D01*
Y0412401D01*
X0359710Y0412007D01*
X0422015Y0350099D02*
Y0351673D01*
X0420834D01*
Y0350886D01*
Y0351673D01*
X0419654D01*
X0422015Y0349312D02*
X0419654D01*
Y0348131D01*
X0420047Y0347738D01*
X0420441D01*
X0420834Y0348131D01*
Y0349312D01*
Y0348131D01*
X0421228Y0347738D01*
X0421621D01*
X0422015Y0348131D01*
Y0349312D01*
X0419654Y0346950D02*
Y0346163D01*
Y0346557D01*
X0422015D01*
X0421621Y0346950D01*
X0497343Y0354906D02*
X0498917D01*
Y0356087D01*
X0498130D01*
X0498917D01*
Y0357268D01*
X0496556Y0354906D02*
Y0357268D01*
X0495375D01*
X0494982Y0356874D01*
Y0356481D01*
X0495375Y0356087D01*
X0496556D01*
X0495375D01*
X0494982Y0355693D01*
Y0355300D01*
X0495375Y0354906D01*
X0496556D01*
X0492620Y0357268D02*
X0494194D01*
X0492620Y0355693D01*
Y0355300D01*
X0493014Y0354906D01*
X0493801D01*
X0494194Y0355300D01*
X0496130Y0342028D02*
Y0343996D01*
X0495736Y0344390D01*
X0494949D01*
X0494556Y0343996D01*
Y0342028D01*
X0492194D02*
X0493769D01*
Y0343209D01*
X0492981Y0342815D01*
X0492588D01*
X0492194Y0343209D01*
Y0343996D01*
X0492588Y0344390D01*
X0493375D01*
X0493769Y0343996D01*
X0487764Y0315255D02*
Y0313287D01*
X0488157Y0312894D01*
X0488944D01*
X0489338Y0313287D01*
Y0315255D01*
X0490125Y0314862D02*
X0490519Y0315255D01*
X0491306D01*
X0491700Y0314862D01*
Y0314468D01*
X0491306Y0314074D01*
X0490912D01*
X0491306D01*
X0491700Y0313681D01*
Y0313287D01*
X0491306Y0312894D01*
X0490519D01*
X0490125Y0313287D01*
X0448787Y0326869D02*
Y0324902D01*
X0449181Y0324508D01*
X0449968D01*
X0450362Y0324902D01*
Y0326869D01*
X0451149Y0324508D02*
X0451936D01*
X0451542D01*
Y0326869D01*
X0451149Y0326476D01*
X0443866Y0360432D02*
Y0360039D01*
X0444653Y0359252D01*
X0445440Y0360039D01*
Y0360432D01*
X0444653Y0359252D02*
Y0358071D01*
X0446228D02*
X0447015D01*
X0446621D01*
Y0360432D01*
X0446228Y0360039D01*
M02*
