G04*
G04 #@! TF.GenerationSoftware,Altium Limited,Altium Designer,19.0.14 (431)*
G04*
G04 Layer_Physical_Order=1*
G04 Layer_Color=255*
%FSAX25Y25*%
%MOIN*%
G70*
G01*
G75*
%ADD12C,0.01181*%
%ADD15C,0.00787*%
%ADD20R,0.03937X0.02362*%
%ADD21R,0.01968X0.02362*%
%ADD22R,0.02362X0.03543*%
%ADD23R,0.00787X0.01968*%
%ADD24R,0.01968X0.00787*%
%ADD26R,0.03150X0.03150*%
%ADD27R,0.03150X0.03150*%
%ADD28R,0.02441X0.02244*%
%ADD29R,0.02520X0.02362*%
%ADD30R,0.02244X0.02441*%
%ADD31R,0.07087X0.05118*%
%ADD32R,0.08661X0.03543*%
%ADD33R,0.08268X0.11811*%
%ADD34R,0.03150X0.06299*%
%ADD35R,0.03543X0.02362*%
%ADD36R,0.03543X0.05118*%
%ADD37R,0.05787X0.04685*%
%ADD38R,0.04685X0.05787*%
%ADD39R,0.03543X0.03937*%
%ADD40R,0.01181X0.04724*%
%ADD41R,0.04724X0.01181*%
%ADD42R,0.02953X0.05512*%
%ADD43R,0.03543X0.03150*%
%ADD45R,0.05512X0.04724*%
%ADD47R,0.05512X0.01575*%
%ADD82C,0.00800*%
%ADD83R,0.06063X0.06693*%
%ADD84C,0.03110*%
%ADD85R,0.07480X0.06102*%
%ADD86C,0.00700*%
%ADD87C,0.01500*%
%ADD88R,0.05906X0.05906*%
%ADD89C,0.05906*%
%ADD90C,0.03543*%
%ADD91O,0.06299X0.03937*%
%ADD92C,0.01968*%
G36*
X0454453Y0414752D02*
X0457224D01*
X0459996D01*
Y0415949D01*
X0460458Y0416140D01*
X0461610Y0414988D01*
X0461610Y0414988D01*
X0462004Y0414725D01*
X0462468Y0414633D01*
X0462468Y0414633D01*
X0465510D01*
Y0413770D01*
X0469860D01*
Y0414633D01*
X0472105D01*
Y0413770D01*
X0476454D01*
Y0414633D01*
X0478698D01*
X0493110Y0400220D01*
X0492903Y0399721D01*
X0492830Y0399721D01*
X0492830Y0399721D01*
X0492813Y0399721D01*
X0490921D01*
Y0398039D01*
X0493193D01*
X0493193Y0399341D01*
Y0399357D01*
Y0399357D01*
X0493193Y0399430D01*
X0493318Y0399482D01*
X0493693Y0399638D01*
X0499504Y0393827D01*
X0499504Y0393827D01*
X0499898Y0393564D01*
X0500362Y0393471D01*
X0500362Y0393471D01*
X0511966D01*
X0516382Y0389055D01*
Y0385087D01*
X0516218Y0384655D01*
X0512465D01*
Y0385722D01*
X0512940Y0385785D01*
X0513565Y0386044D01*
X0514102Y0386455D01*
X0514513Y0386992D01*
X0514772Y0387617D01*
X0514860Y0388287D01*
X0514772Y0388958D01*
X0514513Y0389583D01*
X0514102Y0390119D01*
X0513565Y0390531D01*
X0512940Y0390790D01*
X0512270Y0390878D01*
X0509907D01*
X0509237Y0390790D01*
X0508824Y0390619D01*
X0508495Y0390839D01*
X0507969Y0390943D01*
X0504899D01*
Y0392529D01*
X0500134D01*
X0500056Y0392607D01*
X0499609Y0392905D01*
X0499083Y0393010D01*
X0492793D01*
Y0393415D01*
X0488050D01*
Y0393010D01*
X0486147D01*
Y0393710D01*
X0481798D01*
Y0389361D01*
X0486147D01*
Y0390257D01*
X0488050D01*
Y0389853D01*
X0492793D01*
Y0390257D01*
X0498187D01*
Y0386605D01*
X0500763D01*
X0501031Y0386105D01*
X0500761Y0385701D01*
X0500607Y0384929D01*
X0500718Y0384374D01*
X0500395Y0383874D01*
X0496902D01*
Y0382587D01*
X0500658D01*
X0504413D01*
Y0383874D01*
X0504413Y0383874D01*
X0504477Y0384142D01*
X0504487Y0384157D01*
X0504641Y0384929D01*
X0504487Y0385701D01*
X0504217Y0386105D01*
X0504485Y0386605D01*
X0504899D01*
Y0388191D01*
X0507330D01*
X0507405Y0387617D01*
X0507664Y0386992D01*
X0508076Y0386455D01*
X0508612Y0386044D01*
X0509237Y0385785D01*
X0509712Y0385722D01*
Y0384655D01*
X0507538D01*
Y0377353D01*
X0510501D01*
Y0376584D01*
X0507538D01*
Y0369282D01*
X0509712D01*
Y0368215D01*
X0509237Y0368152D01*
X0508612Y0367893D01*
X0508076Y0367481D01*
X0507664Y0366945D01*
X0507405Y0366320D01*
X0507330Y0365746D01*
X0504899D01*
Y0367332D01*
X0504500D01*
X0504233Y0367832D01*
X0504487Y0368213D01*
X0504641Y0368984D01*
X0504487Y0369756D01*
X0504050Y0370410D01*
X0504048Y0370412D01*
X0504013Y0370463D01*
Y0373022D01*
Y0375581D01*
Y0380299D01*
X0504413D01*
Y0381587D01*
X0500658D01*
X0496902D01*
Y0380299D01*
X0497302D01*
Y0378315D01*
X0494043D01*
X0493462Y0378896D01*
X0493015Y0379195D01*
X0492488Y0379300D01*
X0491651D01*
X0489840Y0381110D01*
Y0382194D01*
X0485592D01*
X0485384Y0382695D01*
X0486024Y0383334D01*
X0486245Y0383665D01*
X0486323Y0384055D01*
X0486245Y0384445D01*
X0486024Y0384776D01*
X0485693Y0384997D01*
X0485303Y0385075D01*
X0484913Y0384997D01*
X0484582Y0384776D01*
X0483718Y0383912D01*
X0483232Y0384133D01*
X0483188Y0384353D01*
X0482978Y0384667D01*
X0479080Y0388565D01*
X0478766Y0388775D01*
X0478396Y0388848D01*
X0468492D01*
X0467906Y0389435D01*
X0468070Y0389977D01*
X0468402Y0390043D01*
X0468926Y0390393D01*
X0469276Y0390917D01*
X0469399Y0391535D01*
X0469276Y0392154D01*
X0468926Y0392678D01*
X0468752Y0392794D01*
Y0394872D01*
X0470057D01*
Y0398435D01*
X0465313D01*
Y0394872D01*
X0466815D01*
Y0392794D01*
X0466641Y0392678D01*
X0466291Y0392154D01*
X0466225Y0391822D01*
X0465683Y0391657D01*
X0459510Y0397831D01*
X0459195Y0398041D01*
X0458825Y0398114D01*
X0450476D01*
Y0399795D01*
X0447902D01*
Y0400295D01*
D01*
Y0399795D01*
X0445327D01*
Y0398791D01*
X0444865Y0398600D01*
X0444171Y0399293D01*
Y0402470D01*
X0442051D01*
Y0405384D01*
X0443454D01*
Y0410521D01*
X0438711D01*
Y0405384D01*
X0440114D01*
Y0402470D01*
X0439821D01*
Y0398120D01*
X0439446Y0397819D01*
X0434129D01*
X0432340Y0399608D01*
X0432064Y0399793D01*
Y0402667D01*
X0431252D01*
Y0408750D01*
X0432911D01*
Y0415856D01*
X0425806D01*
Y0408750D01*
X0429315D01*
Y0402667D01*
X0428502D01*
Y0397924D01*
X0431285D01*
X0433043Y0396165D01*
X0433358Y0395955D01*
X0433728Y0395882D01*
X0433724Y0395384D01*
X0432242D01*
Y0393980D01*
X0431760D01*
X0431389Y0393907D01*
X0431075Y0393697D01*
X0430284Y0392906D01*
X0429742Y0393071D01*
X0429709Y0393236D01*
X0429359Y0393760D01*
X0428835Y0394110D01*
X0428217Y0394233D01*
X0427598Y0394110D01*
X0427074Y0393760D01*
X0426937Y0393555D01*
X0426775Y0393541D01*
X0426404Y0393657D01*
X0426397Y0393695D01*
X0426177Y0394023D01*
X0424504Y0395697D01*
X0424175Y0395916D01*
X0423787Y0395993D01*
X0415126D01*
X0414738Y0395916D01*
X0414410Y0395697D01*
X0412429Y0393717D01*
X0410508D01*
Y0391142D01*
X0409508D01*
Y0393717D01*
X0408560D01*
Y0400624D01*
X0409055D01*
X0409582Y0400728D01*
X0410028Y0401027D01*
X0418016Y0409014D01*
X0418431Y0408842D01*
X0419358Y0408720D01*
X0420286Y0408842D01*
X0421150Y0409200D01*
X0421892Y0409769D01*
X0422462Y0410511D01*
X0422820Y0411376D01*
X0422942Y0412303D01*
X0422820Y0413231D01*
X0422580Y0413808D01*
X0425668Y0416896D01*
X0438242D01*
X0438711Y0416820D01*
X0438711Y0416396D01*
Y0411684D01*
X0443454D01*
X0443454Y0416820D01*
X0443923Y0416896D01*
X0454453D01*
Y0414752D01*
D02*
G37*
G36*
X0507344Y0420014D02*
X0507344Y0420014D01*
X0507344Y0420014D01*
X0509065Y0419878D01*
X0510834Y0419454D01*
X0512515Y0418758D01*
X0514066Y0417807D01*
X0515449Y0416626D01*
X0516630Y0415243D01*
X0517581Y0413692D01*
X0518277Y0412011D01*
X0518701Y0410243D01*
X0518837Y0408521D01*
X0518837Y0408521D01*
X0518837D01*
X0518841Y0408517D01*
Y0390713D01*
X0518788Y0390672D01*
X0518341Y0390529D01*
X0513327Y0395543D01*
X0512933Y0395807D01*
X0512468Y0395899D01*
X0512468Y0395899D01*
X0500865D01*
X0480059Y0416705D01*
X0479665Y0416968D01*
X0479201Y0417060D01*
X0479201Y0417060D01*
X0476454D01*
Y0418120D01*
X0472105D01*
Y0417060D01*
X0469860D01*
Y0418120D01*
X0465510D01*
Y0417060D01*
X0462971D01*
X0461063Y0418969D01*
X0460669Y0419232D01*
X0460205Y0419324D01*
X0460205Y0419324D01*
X0425165D01*
X0425165Y0419324D01*
X0424701Y0419232D01*
X0424307Y0418969D01*
X0424307Y0418968D01*
X0420863Y0415525D01*
X0420286Y0415765D01*
X0419358Y0415887D01*
X0418431Y0415765D01*
X0417567Y0415407D01*
X0416824Y0414837D01*
X0416255Y0414095D01*
X0415897Y0413231D01*
X0415775Y0412303D01*
X0415897Y0411376D01*
X0416069Y0410960D01*
X0408485Y0403376D01*
X0393309D01*
Y0405750D01*
X0389029Y0405750D01*
X0388787Y0406150D01*
X0388718Y0406150D01*
X0388718Y0406150D01*
X0386713D01*
Y0402000D01*
Y0397850D01*
X0388718D01*
X0388718Y0397850D01*
X0388787D01*
X0389029Y0398250D01*
X0389287Y0398250D01*
X0393309D01*
Y0400624D01*
X0406534D01*
Y0394035D01*
X0406034Y0393828D01*
X0405476Y0394386D01*
X0405162Y0394596D01*
X0404791Y0394669D01*
X0388174D01*
X0387803Y0394596D01*
X0387489Y0394386D01*
X0387079Y0393976D01*
X0386869Y0393661D01*
X0386795Y0393291D01*
Y0391444D01*
X0385676Y0390325D01*
X0385214Y0390517D01*
Y0392726D01*
X0382389D01*
Y0397897D01*
X0382743Y0398250D01*
X0383396Y0398250D01*
X0383638Y0397850D01*
X0383708Y0397850D01*
X0383708Y0397850D01*
X0385713D01*
Y0402000D01*
Y0406150D01*
X0383708D01*
X0383708Y0406150D01*
X0383638D01*
X0383396Y0405750D01*
X0383138Y0405750D01*
X0379117D01*
Y0398250D01*
X0380452D01*
Y0391776D01*
X0380471Y0391682D01*
Y0389769D01*
X0379210D01*
Y0392726D01*
X0377339D01*
Y0398250D01*
X0378545D01*
Y0405750D01*
X0374195D01*
Y0398250D01*
X0375401D01*
Y0392726D01*
X0374467D01*
Y0389769D01*
X0373206D01*
Y0392726D01*
X0372417D01*
Y0398250D01*
X0373624D01*
Y0405750D01*
X0369274D01*
Y0398250D01*
X0370480D01*
Y0392726D01*
X0368463D01*
Y0389769D01*
X0367202D01*
Y0391682D01*
X0367221Y0391776D01*
Y0398250D01*
X0368702D01*
Y0405750D01*
X0364353D01*
Y0398250D01*
X0365284D01*
Y0392726D01*
X0362459D01*
Y0389769D01*
X0359241D01*
X0358870Y0389695D01*
X0358556Y0389485D01*
X0355079Y0386008D01*
X0352537D01*
Y0386821D01*
X0347794D01*
Y0383556D01*
X0347294Y0383349D01*
X0346553Y0384090D01*
Y0384258D01*
X0346533Y0384357D01*
Y0386821D01*
X0341790D01*
Y0383556D01*
X0341290Y0383349D01*
X0340529Y0384110D01*
Y0386821D01*
X0335786D01*
Y0383258D01*
X0338206D01*
X0338304Y0383187D01*
X0338342Y0383114D01*
X0338039Y0382614D01*
X0333098D01*
Y0383258D01*
X0334450D01*
Y0386821D01*
X0329707D01*
Y0383258D01*
X0331059D01*
Y0382614D01*
X0329299D01*
X0328909Y0382537D01*
X0328578Y0382315D01*
X0327929Y0381666D01*
X0327700Y0381702D01*
X0327429Y0381846D01*
Y0396867D01*
X0327929Y0397074D01*
X0329732Y0395271D01*
X0329775Y0395051D01*
X0330125Y0394527D01*
X0330650Y0394177D01*
X0330870Y0394133D01*
X0331059Y0393944D01*
Y0392726D01*
X0329707D01*
Y0389164D01*
X0334450D01*
Y0392726D01*
X0333098D01*
Y0394366D01*
X0333021Y0394756D01*
X0332800Y0395087D01*
X0332773Y0395114D01*
X0332883Y0395669D01*
X0332760Y0396287D01*
X0332410Y0396812D01*
X0331886Y0397162D01*
X0331268Y0397285D01*
X0330713Y0397174D01*
X0330136Y0397750D01*
X0330344Y0398250D01*
X0332114D01*
Y0398233D01*
X0332191Y0397843D01*
X0332412Y0397512D01*
X0334110Y0395814D01*
X0334082Y0395669D01*
X0334205Y0395051D01*
X0334555Y0394527D01*
X0335079Y0394177D01*
X0335697Y0394054D01*
X0335841Y0394083D01*
X0336698Y0393226D01*
X0336491Y0392726D01*
X0335786D01*
Y0389164D01*
X0340529D01*
Y0392726D01*
X0339177D01*
Y0393209D01*
X0339099Y0393599D01*
X0338878Y0393930D01*
X0337283Y0395525D01*
X0337312Y0395669D01*
X0337189Y0396287D01*
X0336839Y0396812D01*
X0336315Y0397162D01*
X0335697Y0397285D01*
X0335552Y0397256D01*
X0335058Y0397750D01*
X0335265Y0398250D01*
X0337340D01*
X0337454Y0398081D01*
X0339560Y0395974D01*
X0339532Y0395830D01*
X0339655Y0395211D01*
X0340005Y0394687D01*
X0340529Y0394337D01*
X0341147Y0394214D01*
X0341291Y0394243D01*
X0342347Y0393188D01*
X0342155Y0392726D01*
X0341790D01*
Y0389164D01*
X0346533D01*
Y0392428D01*
X0347033Y0392635D01*
X0347774Y0391894D01*
Y0391726D01*
X0347794Y0391627D01*
Y0389164D01*
X0352537D01*
Y0392726D01*
X0349723D01*
X0349515Y0393038D01*
X0346929Y0395623D01*
X0346958Y0395768D01*
X0346835Y0396386D01*
X0346485Y0396910D01*
X0345961Y0397260D01*
X0345342Y0397383D01*
X0345257Y0397366D01*
X0344873Y0397750D01*
X0345080Y0398250D01*
X0349017D01*
Y0405750D01*
X0347811D01*
Y0407559D01*
X0347831Y0407563D01*
X0348355Y0407913D01*
X0348705Y0408437D01*
X0348828Y0409055D01*
X0348705Y0409673D01*
X0348355Y0410197D01*
X0347831Y0410547D01*
X0347213Y0410670D01*
X0346595Y0410547D01*
X0346070Y0410197D01*
X0345720Y0409673D01*
X0345597Y0409055D01*
X0345720Y0408437D01*
X0345874Y0408207D01*
Y0405750D01*
X0344668D01*
Y0399186D01*
X0344168Y0398919D01*
X0344096Y0398967D01*
Y0405750D01*
X0339746D01*
Y0399870D01*
X0339247Y0399603D01*
X0339194Y0399638D01*
Y0400825D01*
X0339175Y0400924D01*
Y0405750D01*
X0334825D01*
Y0399214D01*
X0334325Y0398946D01*
X0334254Y0398994D01*
Y0405750D01*
X0329904D01*
Y0399214D01*
X0329404Y0398946D01*
X0329332Y0398994D01*
Y0405750D01*
X0327429D01*
Y0420018D01*
X0507340Y0420018D01*
X0507344Y0420014D01*
D02*
G37*
G36*
X0385721Y0387822D02*
X0386092Y0387506D01*
X0386106Y0387477D01*
Y0376343D01*
X0386180Y0375972D01*
X0386390Y0375658D01*
X0392168Y0369880D01*
Y0359821D01*
X0391995Y0359705D01*
X0391644Y0359181D01*
X0391521Y0358563D01*
X0391644Y0357945D01*
X0391995Y0357421D01*
X0391836Y0356925D01*
X0383680D01*
X0383290Y0356848D01*
X0382959Y0356627D01*
X0378307Y0351975D01*
X0377807Y0352182D01*
Y0383258D01*
X0379210D01*
Y0386531D01*
X0380471D01*
Y0383258D01*
X0385214D01*
Y0386821D01*
X0383270D01*
Y0386860D01*
X0383196Y0387231D01*
X0383129Y0387331D01*
X0383389Y0387831D01*
X0385521D01*
X0385627Y0387853D01*
X0385721Y0387822D01*
D02*
G37*
G36*
X0361460Y0387369D02*
X0361257Y0387166D01*
X0361047Y0386852D01*
X0360974Y0386481D01*
Y0364717D01*
X0360624Y0364530D01*
X0360473Y0364495D01*
X0359909Y0364607D01*
X0359291Y0364485D01*
X0358767Y0364134D01*
X0358685Y0364012D01*
X0355372D01*
Y0365437D01*
X0355772D01*
Y0367709D01*
X0345110D01*
Y0365437D01*
X0345510D01*
Y0361868D01*
X0345048Y0361677D01*
X0343637Y0363088D01*
Y0380579D01*
X0343560Y0380969D01*
X0343339Y0381300D01*
X0341880Y0382758D01*
X0342088Y0383258D01*
X0344604D01*
X0344812Y0382947D01*
X0349641Y0378118D01*
X0349972Y0377897D01*
X0350362Y0377819D01*
X0357504D01*
X0357586Y0377696D01*
X0358110Y0377346D01*
X0358728Y0377223D01*
X0359347Y0377346D01*
X0359871Y0377696D01*
X0360221Y0378220D01*
X0360344Y0378839D01*
X0360221Y0379457D01*
X0359871Y0379981D01*
X0359347Y0380331D01*
X0358728Y0380454D01*
X0358110Y0380331D01*
X0357586Y0379981D01*
X0357504Y0379858D01*
X0350784D01*
X0347884Y0382758D01*
X0348092Y0383258D01*
X0352537D01*
Y0384071D01*
X0355480D01*
X0355851Y0384144D01*
X0356165Y0384354D01*
X0359642Y0387831D01*
X0361269D01*
X0361460Y0387369D01*
D02*
G37*
G36*
X0443725Y0395161D02*
X0444040Y0394951D01*
X0444410Y0394877D01*
X0457723D01*
X0466705Y0385895D01*
X0467019Y0385685D01*
X0467390Y0385611D01*
X0477456D01*
X0480024Y0383043D01*
Y0375995D01*
X0479562Y0375803D01*
X0479013Y0376352D01*
Y0378454D01*
X0479013Y0378454D01*
Y0378632D01*
X0479013D01*
X0479013Y0378954D01*
Y0382194D01*
X0473876D01*
Y0381110D01*
X0472066Y0379300D01*
X0470058D01*
X0469949Y0379321D01*
X0468148D01*
X0467721Y0379514D01*
X0467695Y0379647D01*
Y0382316D01*
X0464132D01*
Y0377573D01*
X0465648D01*
X0466221Y0377000D01*
X0466290Y0376873D01*
Y0376516D01*
X0466221Y0376389D01*
X0465648Y0375816D01*
X0464132D01*
Y0371073D01*
X0467695D01*
Y0373743D01*
X0467721Y0373876D01*
X0468148Y0374068D01*
X0468826D01*
X0468935Y0374047D01*
X0472066D01*
X0473876Y0372236D01*
Y0371152D01*
X0477134D01*
X0477286Y0370652D01*
X0477253Y0370630D01*
X0476903Y0370106D01*
X0476780Y0369488D01*
X0476880Y0368988D01*
X0476603Y0368488D01*
X0453929D01*
X0453129Y0369288D01*
X0453282Y0369842D01*
X0453694Y0370118D01*
X0453979D01*
X0454503Y0369767D01*
X0455121Y0369645D01*
X0455739Y0369767D01*
X0456263Y0370118D01*
X0456613Y0370642D01*
X0456736Y0371260D01*
X0456613Y0371878D01*
X0456497Y0372051D01*
Y0372640D01*
X0457710Y0373852D01*
X0457786Y0373856D01*
X0458053Y0373788D01*
X0458227Y0373662D01*
Y0371073D01*
X0461789D01*
Y0375816D01*
X0460173D01*
X0459640Y0376349D01*
X0459610Y0376658D01*
X0459657Y0376962D01*
X0459671Y0376972D01*
X0460273Y0377573D01*
X0461789D01*
Y0382316D01*
X0458227D01*
Y0379647D01*
X0458200Y0379514D01*
Y0379394D01*
X0458128Y0379321D01*
X0456320D01*
X0456320Y0379321D01*
X0455794Y0379217D01*
X0455347Y0378918D01*
X0455347Y0378918D01*
X0453023Y0376594D01*
X0452562Y0376840D01*
X0452568Y0376870D01*
X0452445Y0377488D01*
X0452095Y0378012D01*
X0451571Y0378362D01*
X0450953Y0378485D01*
X0450335Y0378362D01*
X0449811Y0378012D01*
X0449460Y0377488D01*
X0449337Y0376870D01*
X0449460Y0376252D01*
X0449649Y0375969D01*
Y0370459D01*
X0449233Y0369990D01*
X0446514D01*
Y0365640D01*
X0447669D01*
Y0363887D01*
X0446317D01*
Y0359538D01*
X0445917Y0359366D01*
Y0357291D01*
X0448689D01*
Y0356791D01*
X0449189D01*
Y0354217D01*
X0451461D01*
Y0354217D01*
X0451917Y0354112D01*
Y0347667D01*
X0451417Y0347460D01*
X0447504Y0351374D01*
X0447190Y0351584D01*
X0446819Y0351658D01*
X0446730D01*
Y0353061D01*
X0443168D01*
Y0348317D01*
X0446730D01*
Y0348755D01*
X0447192Y0348946D01*
X0450000Y0346138D01*
Y0344899D01*
X0448622D01*
Y0345299D01*
X0447532D01*
Y0341937D01*
Y0338575D01*
X0448096D01*
X0448105Y0338531D01*
X0448315Y0338216D01*
X0449717Y0336815D01*
X0450031Y0336605D01*
X0450401Y0336531D01*
X0450772Y0336605D01*
X0450813Y0336632D01*
X0458857D01*
X0458973Y0336459D01*
X0459368Y0336195D01*
X0459514Y0335634D01*
X0458845Y0334965D01*
X0458635Y0334651D01*
X0458561Y0334280D01*
Y0327376D01*
X0458635Y0327006D01*
X0458845Y0326692D01*
X0459796Y0325740D01*
X0459589Y0325240D01*
X0450764D01*
X0450374Y0325162D01*
X0450043Y0324941D01*
X0448538Y0323437D01*
X0448394Y0323466D01*
X0447862Y0323360D01*
X0447362Y0323622D01*
Y0327308D01*
X0447285Y0327698D01*
X0447063Y0328029D01*
X0440902Y0334190D01*
X0440999Y0334800D01*
X0441161Y0334908D01*
X0442209D01*
X0442209Y0334908D01*
X0442673Y0335001D01*
X0443067Y0335264D01*
X0445921Y0338118D01*
X0445921Y0338118D01*
X0446184Y0338512D01*
X0446197Y0338575D01*
X0446531D01*
Y0341937D01*
Y0345299D01*
X0445441D01*
Y0344899D01*
X0444017D01*
X0443989Y0345040D01*
X0443779Y0345354D01*
X0443150Y0345984D01*
X0442835Y0346194D01*
X0442464Y0346268D01*
X0435567D01*
X0434598Y0347236D01*
Y0347725D01*
X0434969Y0347972D01*
X0435319Y0348496D01*
X0435442Y0349114D01*
X0435319Y0349732D01*
X0434969Y0350256D01*
X0434445Y0350606D01*
X0433827Y0350729D01*
X0433362Y0350637D01*
X0432862Y0350931D01*
Y0368913D01*
X0432785Y0369304D01*
X0432563Y0369634D01*
X0426746Y0375452D01*
X0426937Y0375914D01*
X0429257D01*
X0429645Y0375991D01*
X0429974Y0376210D01*
X0430396Y0376633D01*
X0430858Y0376441D01*
Y0375697D01*
X0432933D01*
Y0377772D01*
X0432189D01*
X0431997Y0378234D01*
X0432691Y0378928D01*
X0435608D01*
Y0381172D01*
X0450658D01*
X0451045Y0381249D01*
X0451374Y0381469D01*
X0452947Y0383042D01*
X0453118D01*
X0453216Y0383061D01*
X0455687D01*
Y0387805D01*
X0452124D01*
Y0384981D01*
X0451811Y0384771D01*
X0450281Y0383242D01*
X0449781Y0383303D01*
Y0387805D01*
X0448969D01*
Y0389117D01*
X0449781D01*
Y0393860D01*
X0446219D01*
Y0389117D01*
X0447031D01*
Y0387805D01*
X0446219D01*
Y0385417D01*
X0442602D01*
Y0386803D01*
X0440028D01*
Y0387803D01*
X0442602D01*
Y0389878D01*
X0442443D01*
X0442110Y0390240D01*
X0442110Y0390378D01*
Y0392512D01*
X0439929D01*
Y0393512D01*
X0442110D01*
X0442110Y0395783D01*
X0442569Y0395882D01*
X0443004D01*
X0443725Y0395161D01*
D02*
G37*
G36*
X0394939Y0383160D02*
X0399683D01*
Y0385678D01*
X0399701Y0385772D01*
Y0385863D01*
X0400443Y0386605D01*
X0400943Y0386398D01*
Y0383160D01*
X0403667D01*
Y0378835D01*
X0403745Y0378445D01*
X0403966Y0378115D01*
X0405065Y0377015D01*
X0404874Y0376553D01*
X0399714D01*
X0399324Y0376475D01*
X0398993Y0376254D01*
X0397554Y0374815D01*
X0397409Y0374844D01*
X0396791Y0374721D01*
X0396267Y0374371D01*
X0396004Y0373977D01*
X0395443Y0373831D01*
X0393600Y0375674D01*
Y0384160D01*
X0393580Y0384258D01*
Y0386630D01*
X0394939D01*
Y0383160D01*
D02*
G37*
G36*
X0406108Y0372012D02*
X0406439Y0371791D01*
X0406829Y0371713D01*
X0423270D01*
X0428023Y0366960D01*
Y0361479D01*
X0427523Y0361327D01*
X0427489Y0361378D01*
X0426965Y0361729D01*
X0426346Y0361852D01*
X0425728Y0361729D01*
X0425555Y0361613D01*
X0423848D01*
Y0362675D01*
X0419498D01*
Y0361877D01*
X0417942D01*
Y0362675D01*
X0413593D01*
Y0360272D01*
X0412965Y0359644D01*
X0410490D01*
Y0360437D01*
X0410890D01*
Y0362709D01*
X0400228D01*
Y0360437D01*
X0400628D01*
Y0357488D01*
X0400128Y0357077D01*
X0399922Y0357118D01*
X0399456Y0357026D01*
X0398956Y0357319D01*
Y0368258D01*
X0398883Y0368629D01*
X0398673Y0368943D01*
X0397853Y0369763D01*
X0398045Y0370224D01*
X0398231D01*
X0398622Y0370302D01*
X0398952Y0370523D01*
X0400115Y0371686D01*
X0400336Y0372016D01*
X0400413Y0372406D01*
Y0372723D01*
X0405397D01*
X0406108Y0372012D01*
D02*
G37*
G36*
X0428023Y0358994D02*
Y0354143D01*
X0427523Y0353876D01*
X0427260Y0354051D01*
X0426642Y0354174D01*
X0426024Y0354051D01*
X0425880Y0353955D01*
X0424230D01*
Y0355521D01*
X0417242D01*
Y0349636D01*
X0424230D01*
Y0351202D01*
X0425821D01*
X0426024Y0351067D01*
X0426642Y0350944D01*
X0427260Y0351067D01*
X0427523Y0351242D01*
X0428023Y0350975D01*
Y0344608D01*
X0428100Y0344218D01*
X0428322Y0343887D01*
X0430820Y0341388D01*
X0430574Y0340928D01*
X0430283Y0340985D01*
X0429665Y0340862D01*
X0429141Y0340512D01*
X0428791Y0339988D01*
X0428785Y0339959D01*
X0423206D01*
Y0340757D01*
X0418857D01*
Y0340058D01*
X0417695D01*
Y0340856D01*
X0417695Y0340856D01*
X0417695D01*
X0418029Y0341193D01*
X0419566Y0342729D01*
X0419566Y0342729D01*
X0419682Y0342904D01*
X0424230D01*
Y0348789D01*
X0417242D01*
Y0344387D01*
X0417221Y0344278D01*
X0415238Y0342295D01*
X0414939Y0341848D01*
X0414835Y0341321D01*
Y0340856D01*
X0413345D01*
Y0336506D01*
X0417695D01*
Y0337305D01*
X0418857D01*
Y0336408D01*
X0423206D01*
Y0337206D01*
X0428008D01*
X0428157Y0336899D01*
X0428183Y0336706D01*
X0424068Y0332592D01*
X0423606Y0332783D01*
Y0335252D01*
X0421531D01*
Y0332677D01*
X0420532D01*
Y0335252D01*
X0418554D01*
X0418094Y0335350D01*
X0417998Y0335350D01*
X0416020D01*
Y0332776D01*
X0415520D01*
Y0332276D01*
X0412945D01*
Y0330260D01*
X0412945Y0330201D01*
X0412803Y0329760D01*
X0400194D01*
X0395580Y0334374D01*
Y0344065D01*
X0396080Y0344273D01*
X0397865Y0342488D01*
X0398196Y0342267D01*
X0398586Y0342189D01*
X0400628D01*
Y0340980D01*
X0400268D01*
Y0338709D01*
X0410929D01*
Y0340980D01*
X0410490D01*
Y0345580D01*
X0410490D01*
Y0345837D01*
X0410490D01*
Y0350580D01*
X0410490D01*
Y0350837D01*
X0410490D01*
Y0355337D01*
X0410490Y0355580D01*
X0410490D01*
Y0355837D01*
X0410490D01*
Y0356891D01*
X0413535D01*
X0414062Y0356996D01*
X0414509Y0357294D01*
X0415540Y0358325D01*
X0417942D01*
Y0359124D01*
X0419498D01*
Y0358325D01*
X0423848D01*
Y0358860D01*
X0425555D01*
X0425728Y0358744D01*
X0426346Y0358621D01*
X0426965Y0358744D01*
X0427489Y0359094D01*
X0427523Y0359145D01*
X0428023Y0358994D01*
D02*
G37*
G36*
X0358767Y0361850D02*
X0359291Y0361500D01*
X0359909Y0361377D01*
X0360473Y0361489D01*
X0360624Y0361454D01*
X0360974Y0361267D01*
Y0350438D01*
X0360473Y0350145D01*
X0360008Y0350237D01*
X0359390Y0350114D01*
X0358866Y0349764D01*
X0358516Y0349240D01*
X0358503Y0349177D01*
X0355372D01*
Y0350580D01*
X0355372D01*
Y0350837D01*
X0355372D01*
Y0355337D01*
X0355372Y0355580D01*
X0355372D01*
Y0355837D01*
X0355372D01*
Y0357240D01*
X0356405D01*
X0356612Y0357199D01*
X0356700Y0357066D01*
X0357224Y0356716D01*
X0357842Y0356593D01*
X0358461Y0356716D01*
X0358985Y0357066D01*
X0359335Y0357591D01*
X0359458Y0358209D01*
X0359335Y0358827D01*
X0358985Y0359351D01*
X0358461Y0359701D01*
X0357842Y0359824D01*
X0357224Y0359701D01*
X0356700Y0359351D01*
X0356612Y0359218D01*
X0356405Y0359177D01*
X0355372D01*
Y0360337D01*
X0355372Y0360580D01*
X0355372D01*
Y0360837D01*
X0355372D01*
Y0361972D01*
X0358685D01*
X0358767Y0361850D01*
D02*
G37*
G36*
X0452843Y0366835D02*
X0453157Y0366625D01*
X0453527Y0366551D01*
X0477520D01*
X0478724Y0365347D01*
Y0354039D01*
X0464526Y0339841D01*
X0463422D01*
X0463052Y0339767D01*
X0462737Y0339557D01*
X0462502Y0339321D01*
X0462002Y0339528D01*
Y0344163D01*
X0462513Y0344675D01*
X0462665Y0344645D01*
X0463283Y0344767D01*
X0463807Y0345118D01*
X0464158Y0345642D01*
X0464281Y0346260D01*
X0464158Y0346878D01*
X0463807Y0347402D01*
X0463283Y0347752D01*
X0462665Y0347875D01*
X0462047Y0347752D01*
X0461523Y0347402D01*
X0461173Y0346878D01*
X0461050Y0346260D01*
X0461080Y0346108D01*
X0460095Y0345122D01*
X0459946Y0344899D01*
X0457894D01*
Y0345842D01*
X0460977Y0348925D01*
X0462079D01*
X0462469Y0349003D01*
X0462800Y0349224D01*
X0466924Y0353349D01*
X0470915D01*
Y0355685D01*
X0473455D01*
Y0354284D01*
X0477804D01*
Y0358634D01*
X0473455D01*
Y0357724D01*
X0470915D01*
Y0360061D01*
X0466762D01*
Y0355559D01*
X0466674D01*
X0466283Y0355482D01*
X0465953Y0355261D01*
X0465668Y0354976D01*
X0465206Y0355168D01*
Y0360061D01*
X0461053D01*
Y0357724D01*
X0458804D01*
Y0358633D01*
X0454455D01*
Y0357469D01*
X0453957Y0357465D01*
X0453879Y0357855D01*
X0453658Y0358186D01*
X0451061Y0360783D01*
Y0363887D01*
X0449709D01*
Y0365640D01*
X0450864D01*
Y0368160D01*
X0451326Y0368352D01*
X0452843Y0366835D01*
D02*
G37*
G36*
X0483851Y0376191D02*
X0484182Y0375971D01*
X0484303Y0375946D01*
Y0374492D01*
X0484703D01*
Y0371152D01*
X0489840D01*
Y0372236D01*
X0491005Y0373402D01*
X0491464Y0373466D01*
X0491910Y0373167D01*
X0492437Y0373062D01*
X0492437Y0373062D01*
X0494567D01*
X0494774Y0372563D01*
X0492582Y0370370D01*
X0492283Y0369924D01*
X0492179Y0369397D01*
Y0365954D01*
X0490215D01*
Y0361605D01*
X0491309D01*
Y0359596D01*
X0489624D01*
Y0352609D01*
X0495509D01*
Y0359596D01*
X0494062D01*
Y0361605D01*
X0494565D01*
Y0362986D01*
X0494827Y0363379D01*
X0494932Y0363906D01*
Y0368827D01*
X0496579Y0370474D01*
X0497302D01*
Y0370463D01*
X0500632D01*
X0500899Y0369963D01*
X0500761Y0369756D01*
X0500607Y0368984D01*
X0500761Y0368213D01*
X0501015Y0367832D01*
X0500748Y0367332D01*
X0498187D01*
Y0361408D01*
X0504899D01*
Y0362994D01*
X0507969D01*
X0508495Y0363098D01*
X0508824Y0363318D01*
X0509237Y0363147D01*
X0509907Y0363059D01*
X0512270D01*
X0512940Y0363147D01*
X0513565Y0363406D01*
X0514102Y0363818D01*
X0514513Y0364354D01*
X0514772Y0364979D01*
X0514860Y0365650D01*
X0514772Y0366320D01*
X0514513Y0366945D01*
X0514102Y0367481D01*
X0513565Y0367893D01*
X0512940Y0368152D01*
X0512465Y0368215D01*
Y0369282D01*
X0516218D01*
X0516382Y0368850D01*
Y0347744D01*
X0515882Y0347592D01*
X0515804Y0347709D01*
X0510486Y0353028D01*
X0510693Y0353528D01*
X0510732Y0353528D01*
X0510732Y0353528D01*
X0510758Y0353528D01*
X0512461D01*
Y0355602D01*
X0510386D01*
X0510386Y0353900D01*
Y0353874D01*
D01*
X0510386Y0353835D01*
X0510307Y0353802D01*
X0509886Y0353628D01*
X0509230Y0354284D01*
Y0358277D01*
X0504880D01*
Y0357479D01*
X0502242D01*
Y0359596D01*
X0496357D01*
Y0352609D01*
X0498955D01*
Y0352016D01*
X0498826Y0351930D01*
X0498476Y0351406D01*
X0498353Y0350787D01*
X0498476Y0350169D01*
X0498826Y0349645D01*
X0499350Y0349295D01*
X0499968Y0349172D01*
X0500587Y0349295D01*
X0501111Y0349645D01*
X0501461Y0350169D01*
X0501584Y0350787D01*
X0501461Y0351406D01*
X0501111Y0351930D01*
X0500982Y0352016D01*
Y0352609D01*
X0502242D01*
Y0354726D01*
X0504880D01*
Y0353928D01*
X0505822D01*
X0506082Y0353538D01*
X0512634Y0346987D01*
X0512459Y0346565D01*
X0512459D01*
Y0344162D01*
X0511603Y0343306D01*
X0508836D01*
Y0343710D01*
X0504093D01*
Y0341631D01*
X0504066Y0341498D01*
Y0341478D01*
X0503138Y0340550D01*
X0503066D01*
X0502642Y0340732D01*
Y0342413D01*
X0499673D01*
X0496705D01*
Y0340732D01*
X0497105D01*
Y0337392D01*
X0502242D01*
Y0337797D01*
X0503709D01*
X0504235Y0337902D01*
X0504682Y0338200D01*
X0506416Y0339934D01*
X0506416Y0339934D01*
X0506559Y0340148D01*
X0508836D01*
Y0340553D01*
X0512059D01*
Y0338984D01*
X0514634D01*
Y0337984D01*
X0512059D01*
Y0336155D01*
X0495047D01*
X0494583Y0336062D01*
X0494189Y0335799D01*
X0494189Y0335799D01*
X0491690Y0333300D01*
X0491405D01*
X0491288Y0333277D01*
X0490060D01*
Y0337392D01*
X0491415D01*
Y0340954D01*
X0486278D01*
Y0337392D01*
X0487633D01*
Y0332779D01*
X0487633Y0332779D01*
X0487725Y0332314D01*
X0487829Y0332158D01*
Y0331299D01*
X0487829Y0331299D01*
X0487853Y0331182D01*
Y0329283D01*
X0487791Y0329271D01*
X0487397Y0329008D01*
X0487397Y0329008D01*
X0486277Y0327887D01*
X0485319D01*
Y0329520D01*
X0482744D01*
X0480169D01*
Y0328619D01*
X0479669Y0328235D01*
X0479398Y0328289D01*
X0479033Y0328672D01*
Y0328839D01*
X0479013Y0328937D01*
Y0332194D01*
X0477753D01*
Y0334556D01*
X0478915D01*
Y0338906D01*
X0477753D01*
Y0339609D01*
X0478036Y0340032D01*
X0478159Y0340650D01*
X0478036Y0341268D01*
X0477685Y0341792D01*
X0477161Y0342142D01*
X0476543Y0342265D01*
X0475925Y0342142D01*
X0475401Y0341792D01*
X0475051Y0341268D01*
X0474928Y0340650D01*
X0475051Y0340032D01*
X0475401Y0339507D01*
X0475553Y0339406D01*
X0475402Y0338906D01*
X0474565D01*
Y0337045D01*
X0472806D01*
X0472539Y0337545D01*
X0472622Y0337669D01*
X0472745Y0338287D01*
X0472622Y0338906D01*
X0472272Y0339430D01*
X0472098Y0339546D01*
Y0340997D01*
X0482978Y0351876D01*
X0483188Y0352190D01*
X0483261Y0352561D01*
Y0376128D01*
X0483723Y0376319D01*
X0483851Y0376191D01*
D02*
G37*
G36*
X0374467Y0383258D02*
X0375870D01*
Y0352271D01*
X0373697Y0350098D01*
X0373492Y0350139D01*
X0372874Y0350016D01*
X0372350Y0349666D01*
X0372303Y0349596D01*
X0371803Y0349748D01*
Y0383258D01*
X0373206D01*
Y0386531D01*
X0374467D01*
Y0383258D01*
D02*
G37*
G36*
X0461048Y0355642D02*
Y0353860D01*
X0454457Y0347269D01*
X0453957Y0347476D01*
Y0354279D01*
X0454455Y0354283D01*
Y0354283D01*
X0458804D01*
Y0355685D01*
X0460568D01*
X0461048Y0355642D01*
D02*
G37*
G36*
X0345510Y0353508D02*
Y0350837D01*
X0345510D01*
Y0350580D01*
X0345510D01*
Y0347954D01*
X0345477D01*
X0345107Y0347880D01*
X0344792Y0347670D01*
X0343972Y0346850D01*
X0343768Y0346891D01*
X0343150Y0346768D01*
X0342625Y0346418D01*
X0342275Y0345894D01*
X0342152Y0345276D01*
X0342275Y0344657D01*
X0342625Y0344133D01*
X0343150Y0343783D01*
X0343238Y0343766D01*
X0343383Y0343287D01*
X0341298Y0341203D01*
X0340836Y0341394D01*
Y0357529D01*
X0341298Y0357720D01*
X0345510Y0353508D01*
D02*
G37*
G36*
X0368463Y0383258D02*
X0369866D01*
Y0347153D01*
X0367496Y0344783D01*
X0367291Y0344824D01*
X0366673Y0344701D01*
X0366149Y0344351D01*
X0366112Y0344295D01*
X0365612Y0344446D01*
Y0376211D01*
X0365913Y0376633D01*
X0366531Y0376756D01*
X0367056Y0377106D01*
X0367406Y0377630D01*
X0367529Y0378248D01*
X0367406Y0378866D01*
X0367056Y0379390D01*
X0366531Y0379740D01*
X0365913Y0379863D01*
X0365295Y0379740D01*
X0364771Y0379390D01*
X0364711Y0379300D01*
X0364211Y0379451D01*
Y0383070D01*
X0364399Y0383258D01*
X0367202D01*
Y0386531D01*
X0368463D01*
Y0383258D01*
D02*
G37*
G36*
X0393216Y0354386D02*
X0393068Y0354165D01*
X0392945Y0353547D01*
X0393068Y0352929D01*
X0393418Y0352405D01*
X0393541Y0352323D01*
Y0333951D01*
X0393619Y0333561D01*
X0393840Y0333230D01*
X0398249Y0328821D01*
X0398058Y0328359D01*
X0356661D01*
X0354644Y0330375D01*
X0354836Y0330837D01*
X0355372D01*
Y0332240D01*
X0362661D01*
X0363032Y0332314D01*
X0363346Y0332524D01*
X0363927Y0333105D01*
X0364137Y0333419D01*
X0364211Y0333790D01*
Y0339879D01*
X0364711Y0340228D01*
X0364829Y0340205D01*
X0368999D01*
X0369389Y0340282D01*
X0369720Y0340504D01*
X0384103Y0354886D01*
X0392949D01*
X0393216Y0354386D01*
D02*
G37*
G36*
X0518788Y0334918D02*
X0518841Y0334877D01*
Y0295349D01*
X0518837Y0295345D01*
X0518837Y0295345D01*
X0518837Y0295345D01*
X0518701Y0293624D01*
X0518277Y0291855D01*
X0517581Y0290174D01*
X0516630Y0288623D01*
X0515449Y0287240D01*
X0514066Y0286059D01*
X0512515Y0285108D01*
X0510834Y0284412D01*
X0509065Y0283988D01*
X0507344Y0283852D01*
X0507344Y0283852D01*
Y0283852D01*
X0507340Y0283848D01*
X0492112D01*
X0491921Y0284310D01*
X0493328Y0285717D01*
X0493472Y0285688D01*
X0494091Y0285811D01*
X0494615Y0286161D01*
X0494965Y0286685D01*
X0495088Y0287303D01*
X0494965Y0287921D01*
X0494615Y0288445D01*
X0494091Y0288795D01*
X0493903Y0288833D01*
X0493739Y0289375D01*
X0494193Y0289830D01*
X0494414Y0290161D01*
X0494492Y0290551D01*
Y0291296D01*
X0494615Y0291377D01*
X0494965Y0291901D01*
X0495088Y0292520D01*
X0494965Y0293138D01*
X0494615Y0293662D01*
X0494091Y0294012D01*
X0493472Y0294135D01*
X0492854Y0294012D01*
X0492330Y0293662D01*
X0491980Y0293138D01*
X0491857Y0292520D01*
X0491980Y0291901D01*
X0492330Y0291377D01*
X0492329Y0290849D01*
X0491470Y0289991D01*
X0490942Y0290170D01*
X0490847Y0290894D01*
X0490449Y0291856D01*
X0489815Y0292681D01*
X0488989Y0293315D01*
X0488028Y0293713D01*
X0487496Y0293783D01*
Y0289862D01*
X0486996D01*
Y0289362D01*
X0483075D01*
X0483145Y0288830D01*
X0483543Y0287869D01*
X0484093Y0287152D01*
X0483931Y0286652D01*
X0479470D01*
X0479300Y0287152D01*
X0479530Y0287328D01*
X0480099Y0288071D01*
X0480457Y0288935D01*
X0480580Y0289862D01*
X0480457Y0290790D01*
X0480137Y0291562D01*
X0484351Y0295775D01*
X0484572Y0296106D01*
X0484650Y0296496D01*
Y0300824D01*
X0484795Y0301264D01*
X0485149Y0301264D01*
X0486870D01*
Y0303839D01*
Y0306413D01*
X0484795Y0306413D01*
X0484650Y0306853D01*
Y0308849D01*
X0486789D01*
Y0309610D01*
X0487468D01*
X0487859Y0309688D01*
X0488190Y0309909D01*
X0489075Y0310795D01*
X0489296Y0311126D01*
X0489374Y0311516D01*
Y0313898D01*
X0489488Y0313979D01*
X0489874Y0314087D01*
X0492455Y0311505D01*
Y0311221D01*
X0492455Y0311221D01*
X0492479Y0311103D01*
Y0308849D01*
X0493046D01*
Y0306013D01*
X0491101D01*
Y0301664D01*
X0492062D01*
Y0300604D01*
X0490408Y0298950D01*
X0490177D01*
X0489760Y0299229D01*
X0489142Y0299352D01*
X0488524Y0299229D01*
X0487999Y0298878D01*
X0487649Y0298354D01*
X0487526Y0297736D01*
X0487649Y0297118D01*
X0487999Y0296594D01*
X0488524Y0296244D01*
X0489142Y0296121D01*
X0489760Y0296244D01*
X0490177Y0296522D01*
X0490910D01*
X0490910Y0296522D01*
X0491375Y0296615D01*
X0491769Y0296878D01*
X0494134Y0299243D01*
X0494397Y0299637D01*
X0494489Y0300101D01*
X0494489Y0300101D01*
Y0301664D01*
X0495450D01*
Y0304706D01*
X0495474Y0304823D01*
X0495474Y0304823D01*
Y0308849D01*
X0497616D01*
Y0312411D01*
X0494803D01*
X0494791Y0312472D01*
X0494528Y0312866D01*
X0494528Y0312866D01*
X0491848Y0315546D01*
Y0322802D01*
X0497972D01*
X0498382Y0322302D01*
X0498353Y0322158D01*
X0498476Y0321539D01*
X0498826Y0321015D01*
X0499350Y0320665D01*
X0499968Y0320542D01*
X0500215Y0320591D01*
X0500377Y0320483D01*
X0500748Y0320409D01*
X0504555D01*
X0504946Y0319824D01*
X0505659Y0319348D01*
X0506500Y0319181D01*
X0507341Y0319348D01*
X0508054Y0319824D01*
X0508530Y0320537D01*
X0508697Y0321378D01*
X0508530Y0322219D01*
X0508054Y0322932D01*
X0507341Y0323408D01*
X0506500Y0323575D01*
X0505659Y0323408D01*
X0504946Y0322932D01*
X0504555Y0322347D01*
X0501546D01*
X0501461Y0322776D01*
X0501111Y0323300D01*
X0500720Y0323561D01*
X0500575Y0324123D01*
X0501616Y0325164D01*
X0504719D01*
X0504946Y0324824D01*
X0505659Y0324348D01*
X0506500Y0324181D01*
X0507341Y0324348D01*
X0508054Y0324824D01*
X0508530Y0325537D01*
X0508697Y0326378D01*
X0508530Y0327219D01*
X0508054Y0327932D01*
X0507341Y0328408D01*
X0506500Y0328575D01*
X0505659Y0328408D01*
X0504946Y0327932D01*
X0504719Y0327592D01*
X0501113D01*
X0501113Y0327592D01*
X0500976Y0327565D01*
X0500476Y0327940D01*
Y0329618D01*
X0497705D01*
Y0330618D01*
X0500476D01*
Y0333677D01*
X0500956Y0333727D01*
X0507037D01*
X0507207Y0333227D01*
X0507175Y0333203D01*
X0506765Y0332668D01*
X0506507Y0332046D01*
X0506419Y0331378D01*
X0506507Y0330710D01*
X0506765Y0330088D01*
X0507175Y0329553D01*
X0507710Y0329143D01*
X0508332Y0328885D01*
X0509000Y0328797D01*
X0509668Y0328885D01*
X0510290Y0329143D01*
X0510825Y0329553D01*
X0511235Y0330088D01*
X0511493Y0330710D01*
X0511581Y0331378D01*
X0511493Y0332046D01*
X0511235Y0332668D01*
X0510825Y0333203D01*
X0510793Y0333227D01*
X0510963Y0333727D01*
X0516504D01*
X0516504Y0333727D01*
X0516968Y0333820D01*
X0517362Y0334083D01*
X0518341Y0335061D01*
X0518788Y0334918D01*
D02*
G37*
G36*
X0437175Y0335033D02*
X0437200Y0334910D01*
X0437421Y0334579D01*
X0438583Y0333417D01*
X0438914Y0333196D01*
X0439037Y0333171D01*
X0444224Y0327984D01*
X0444060Y0327442D01*
X0443740Y0327378D01*
X0443216Y0327028D01*
X0442866Y0326504D01*
X0442743Y0325886D01*
X0442784Y0325681D01*
X0438355Y0321252D01*
X0436214D01*
Y0323030D01*
Y0326967D01*
Y0330904D01*
Y0335341D01*
X0436676Y0335532D01*
X0437175Y0335033D01*
D02*
G37*
G36*
X0473071Y0321441D02*
X0473562Y0321343D01*
X0474444Y0320462D01*
Y0320079D01*
X0474444Y0320079D01*
X0474467Y0319961D01*
Y0317707D01*
X0474467D01*
X0474340Y0317260D01*
X0473856D01*
X0473466Y0317182D01*
X0473135Y0316961D01*
X0472082Y0315908D01*
X0471861Y0315578D01*
X0471784Y0315187D01*
Y0311460D01*
X0471284Y0311253D01*
X0469815Y0312721D01*
X0469679Y0313187D01*
X0469679D01*
X0469679Y0313187D01*
Y0317124D01*
Y0320411D01*
X0470179Y0320679D01*
X0470217Y0320653D01*
X0470835Y0320530D01*
X0471453Y0320653D01*
X0471977Y0321004D01*
X0472260Y0321427D01*
X0472340Y0321529D01*
X0472849Y0321589D01*
X0473071Y0321441D01*
D02*
G37*
G36*
X0460869Y0322701D02*
X0460779Y0322567D01*
X0460656Y0321949D01*
X0460779Y0321331D01*
X0460917Y0321125D01*
X0460796Y0320474D01*
X0460736Y0320433D01*
X0460473Y0320040D01*
X0459911Y0319894D01*
X0458612Y0321193D01*
X0458281Y0321414D01*
X0457891Y0321492D01*
X0452928D01*
X0452537Y0321414D01*
X0452207Y0321193D01*
X0449334Y0318320D01*
X0449189Y0318349D01*
X0448650Y0318242D01*
X0448149Y0318475D01*
Y0320035D01*
X0448394Y0320235D01*
X0449012Y0320358D01*
X0449536Y0320708D01*
X0449886Y0321232D01*
X0450009Y0321850D01*
X0449980Y0321995D01*
X0451186Y0323201D01*
X0460602D01*
X0460869Y0322701D01*
D02*
G37*
G36*
X0333498Y0370934D02*
Y0327172D01*
X0333576Y0326782D01*
X0333797Y0326452D01*
X0344265Y0315983D01*
X0344596Y0315762D01*
X0344986Y0315684D01*
X0396929D01*
X0397197Y0315184D01*
X0397000Y0314890D01*
X0396877Y0314272D01*
X0396907Y0314120D01*
X0396034Y0313246D01*
X0379288D01*
X0378900Y0313169D01*
X0378572Y0312949D01*
X0359037Y0293415D01*
X0353364D01*
Y0286310D01*
X0360470D01*
Y0291982D01*
X0379708Y0311220D01*
X0396453D01*
X0396841Y0311297D01*
X0397170Y0311517D01*
X0398340Y0312687D01*
X0398492Y0312656D01*
X0399110Y0312779D01*
X0399634Y0313129D01*
X0399728Y0313270D01*
X0400228Y0313119D01*
Y0311779D01*
X0410890D01*
Y0312563D01*
X0411352Y0312754D01*
X0415990Y0308115D01*
X0416321Y0307894D01*
X0416711Y0307817D01*
X0421438D01*
X0421629Y0307355D01*
X0413522Y0299248D01*
X0410890D01*
Y0300780D01*
X0400228D01*
Y0299248D01*
X0370835D01*
X0370444Y0299170D01*
X0370114Y0298949D01*
X0366196Y0295032D01*
X0365975Y0294701D01*
X0365898Y0294311D01*
Y0293285D01*
X0365126Y0292966D01*
X0364383Y0292396D01*
X0363814Y0291654D01*
X0363456Y0290790D01*
X0363334Y0289862D01*
X0363456Y0288935D01*
X0363814Y0288071D01*
X0364383Y0287328D01*
X0365126Y0286759D01*
X0365990Y0286401D01*
X0366917Y0286279D01*
X0367845Y0286401D01*
X0368709Y0286759D01*
X0369451Y0287328D01*
X0370021Y0288071D01*
X0370379Y0288935D01*
X0370501Y0289862D01*
X0370379Y0290790D01*
X0370021Y0291654D01*
X0369451Y0292396D01*
X0368709Y0292966D01*
X0367937Y0293285D01*
Y0293889D01*
X0371257Y0297209D01*
X0378064D01*
X0378255Y0296747D01*
X0376201Y0294693D01*
X0375981Y0294364D01*
X0375904Y0293976D01*
Y0293288D01*
X0375126Y0292966D01*
X0374383Y0292396D01*
X0373814Y0291654D01*
X0373456Y0290790D01*
X0373334Y0289862D01*
X0373456Y0288935D01*
X0373814Y0288071D01*
X0374383Y0287328D01*
X0375126Y0286759D01*
X0375990Y0286401D01*
X0376917Y0286279D01*
X0377845Y0286401D01*
X0378709Y0286759D01*
X0379451Y0287328D01*
X0380021Y0288071D01*
X0380379Y0288935D01*
X0380501Y0289862D01*
X0380379Y0290790D01*
X0380021Y0291654D01*
X0379451Y0292396D01*
X0378709Y0292966D01*
X0378210Y0293172D01*
X0378123Y0293749D01*
X0380195Y0295821D01*
X0390790D01*
X0390982Y0295359D01*
X0388623Y0293001D01*
X0387845Y0293323D01*
X0386917Y0293446D01*
X0385990Y0293323D01*
X0385126Y0292966D01*
X0384383Y0292396D01*
X0383814Y0291654D01*
X0383456Y0290790D01*
X0383334Y0289862D01*
X0383456Y0288935D01*
X0383814Y0288071D01*
X0384383Y0287328D01*
X0385126Y0286759D01*
X0385990Y0286401D01*
X0386917Y0286279D01*
X0387845Y0286401D01*
X0388709Y0286759D01*
X0389451Y0287328D01*
X0390021Y0288071D01*
X0390379Y0288935D01*
X0390501Y0289862D01*
X0390379Y0290790D01*
X0390056Y0291568D01*
X0392922Y0294434D01*
X0399403D01*
X0399594Y0293972D01*
X0398623Y0293001D01*
X0397845Y0293323D01*
X0396917Y0293446D01*
X0395990Y0293323D01*
X0395126Y0292966D01*
X0394384Y0292396D01*
X0393814Y0291654D01*
X0393456Y0290790D01*
X0393334Y0289862D01*
X0393456Y0288935D01*
X0393814Y0288071D01*
X0394384Y0287328D01*
X0395126Y0286759D01*
X0395990Y0286401D01*
X0396917Y0286279D01*
X0397845Y0286401D01*
X0398709Y0286759D01*
X0399451Y0287328D01*
X0400021Y0288071D01*
X0400379Y0288935D01*
X0400501Y0289862D01*
X0400379Y0290790D01*
X0400056Y0291568D01*
X0401535Y0293047D01*
X0403807D01*
X0403995Y0292547D01*
X0403465Y0291856D01*
X0403066Y0290894D01*
X0402996Y0290362D01*
X0410838D01*
X0410768Y0290894D01*
X0410370Y0291856D01*
X0409840Y0292547D01*
X0410028Y0293047D01*
X0413424D01*
Y0286310D01*
X0420529D01*
Y0293415D01*
X0417113D01*
X0416921Y0293877D01*
X0424079Y0301035D01*
X0430503D01*
X0430694Y0300573D01*
X0426255Y0296134D01*
X0426034Y0295804D01*
X0425957Y0295413D01*
Y0293285D01*
X0425185Y0292966D01*
X0424442Y0292396D01*
X0423873Y0291654D01*
X0423515Y0290790D01*
X0423393Y0289862D01*
X0423515Y0288935D01*
X0423873Y0288071D01*
X0424442Y0287328D01*
X0425185Y0286759D01*
X0426029Y0286409D01*
X0426034Y0286384D01*
X0426255Y0286053D01*
X0427961Y0284348D01*
X0427753Y0283848D01*
X0327429D01*
Y0310398D01*
X0328365D01*
Y0309720D01*
X0327965D01*
Y0308099D01*
X0330185D01*
X0332405D01*
Y0309720D01*
X0332006D01*
Y0313021D01*
X0328365D01*
Y0312437D01*
X0327429D01*
Y0314073D01*
X0327768Y0314433D01*
X0329488D01*
Y0316555D01*
X0329988D01*
Y0317055D01*
X0332209D01*
Y0318677D01*
X0331809D01*
Y0319236D01*
X0332598D01*
X0332951Y0318883D01*
X0332951Y0318424D01*
X0332951Y0317924D01*
Y0314644D01*
X0334028D01*
Y0313730D01*
X0333325D01*
Y0310089D01*
X0333543D01*
X0334007Y0310000D01*
X0334168Y0308773D01*
X0334642Y0307629D01*
X0335395Y0306647D01*
X0336377Y0305894D01*
X0337164Y0305568D01*
Y0304518D01*
X0340332D01*
Y0308080D01*
X0337164D01*
X0337164Y0308080D01*
X0336739Y0308263D01*
X0336433Y0308663D01*
X0336241Y0309127D01*
X0336462Y0309665D01*
X0336626Y0309689D01*
Y0309689D01*
X0338248D01*
Y0311909D01*
Y0314130D01*
X0336626D01*
Y0313730D01*
X0336067D01*
Y0314644D01*
X0336671D01*
Y0317924D01*
X0336671Y0318206D01*
X0336671Y0318706D01*
Y0321986D01*
X0332951D01*
Y0321275D01*
X0331809D01*
Y0321978D01*
X0328168D01*
Y0321394D01*
X0327429D01*
Y0376324D01*
X0327700Y0376467D01*
X0327929Y0376503D01*
X0333498Y0370934D01*
D02*
G37*
G36*
X0474467Y0314257D02*
Y0311802D01*
X0477281D01*
X0477489Y0311490D01*
X0479070Y0309909D01*
X0479401Y0309688D01*
X0479791Y0309610D01*
X0481652D01*
Y0308849D01*
X0482610D01*
Y0296918D01*
X0478696Y0293004D01*
X0477923Y0293323D01*
X0476996Y0293446D01*
X0476574Y0293390D01*
X0476393Y0293871D01*
X0476406Y0293879D01*
X0476756Y0294403D01*
X0476879Y0295021D01*
X0476775Y0295544D01*
X0476971Y0295839D01*
X0477127Y0295984D01*
X0477429Y0295924D01*
X0478047Y0296047D01*
X0478571Y0296397D01*
X0478922Y0296921D01*
X0479044Y0297539D01*
X0478922Y0298158D01*
X0478571Y0298682D01*
X0478047Y0299032D01*
X0477757Y0299089D01*
Y0299695D01*
X0478915D01*
Y0303257D01*
X0474172Y0303257D01*
X0474020Y0303695D01*
Y0305164D01*
X0474172Y0305601D01*
X0478915D01*
Y0309163D01*
X0476101D01*
X0475893Y0309474D01*
X0473823Y0311544D01*
Y0314428D01*
X0473967Y0314524D01*
X0474467Y0314257D01*
D02*
G37*
G36*
X0469104Y0305013D02*
Y0295373D01*
X0469182Y0294983D01*
X0469403Y0294652D01*
X0470580Y0293475D01*
Y0291879D01*
X0470132Y0291675D01*
X0470080Y0291679D01*
X0469530Y0292396D01*
X0468788Y0292966D01*
X0467923Y0293323D01*
X0466996Y0293446D01*
X0466069Y0293323D01*
X0465204Y0292966D01*
X0464462Y0292396D01*
X0463893Y0291654D01*
X0463535Y0290790D01*
X0463413Y0289862D01*
X0463535Y0288935D01*
X0463893Y0288071D01*
X0464462Y0287328D01*
X0465204Y0286759D01*
X0466069Y0286401D01*
X0466996Y0286279D01*
X0467923Y0286401D01*
X0468788Y0286759D01*
X0469530Y0287328D01*
X0470080Y0288046D01*
X0470132Y0288049D01*
X0470580Y0287845D01*
Y0286046D01*
X0470658Y0285655D01*
X0470879Y0285325D01*
X0471894Y0284310D01*
X0471703Y0283848D01*
X0434449D01*
X0434170Y0284348D01*
X0434268Y0284843D01*
X0434145Y0285461D01*
X0433795Y0285985D01*
X0433271Y0286335D01*
X0432653Y0286458D01*
X0432035Y0286335D01*
X0431511Y0285985D01*
X0431429Y0285862D01*
X0429330D01*
X0428881Y0286311D01*
X0428979Y0286921D01*
X0429510Y0287328D01*
X0430080Y0288071D01*
X0430438Y0288935D01*
X0430560Y0289862D01*
X0430438Y0290790D01*
X0430080Y0291654D01*
X0429510Y0292396D01*
X0428768Y0292966D01*
X0427996Y0293285D01*
Y0294991D01*
X0432640Y0299635D01*
X0440028D01*
X0440219Y0299173D01*
X0436788Y0295742D01*
X0436567Y0295411D01*
X0436490Y0295021D01*
Y0293382D01*
X0436049Y0293323D01*
X0435185Y0292966D01*
X0434443Y0292396D01*
X0433873Y0291654D01*
X0433515Y0290790D01*
X0433393Y0289862D01*
X0433515Y0288935D01*
X0433873Y0288071D01*
X0434443Y0287328D01*
X0435185Y0286759D01*
X0436049Y0286401D01*
X0436976Y0286279D01*
X0437904Y0286401D01*
X0438768Y0286759D01*
X0439510Y0287328D01*
X0440080Y0288071D01*
X0440438Y0288935D01*
X0440560Y0289862D01*
X0440438Y0290790D01*
X0440080Y0291654D01*
X0439510Y0292396D01*
X0438768Y0292966D01*
X0438529Y0293065D01*
Y0294599D01*
X0442165Y0298235D01*
X0446675D01*
X0447065Y0298312D01*
X0447396Y0298533D01*
X0451689Y0302827D01*
X0451910Y0303157D01*
X0451988Y0303548D01*
Y0305510D01*
X0457252D01*
Y0305110D01*
X0458343D01*
Y0308472D01*
X0459342D01*
Y0305110D01*
X0460433D01*
Y0305110D01*
X0460932Y0305107D01*
X0461329Y0304710D01*
X0461138Y0304248D01*
X0460677D01*
Y0302173D01*
X0462752D01*
Y0302634D01*
X0463214Y0302825D01*
X0463908Y0302131D01*
Y0299498D01*
X0464868D01*
Y0298830D01*
X0464842Y0298803D01*
X0464508Y0298736D01*
X0463984Y0298386D01*
X0463898Y0298257D01*
X0462857D01*
X0462470Y0298180D01*
X0462141Y0297960D01*
X0458126Y0293946D01*
X0457906Y0293617D01*
X0457866Y0293415D01*
X0453443D01*
Y0286310D01*
X0460549D01*
Y0293415D01*
X0460549Y0293415D01*
X0460549D01*
X0460830Y0293784D01*
X0463277Y0296231D01*
X0463898D01*
X0463984Y0296102D01*
X0464508Y0295752D01*
X0465126Y0295629D01*
X0465744Y0295752D01*
X0466268Y0296102D01*
X0466618Y0296626D01*
X0466741Y0297244D01*
X0466737Y0297265D01*
X0466941Y0297468D01*
X0466941Y0297468D01*
X0467204Y0297862D01*
X0467296Y0298327D01*
Y0299498D01*
X0468257D01*
Y0303848D01*
X0465624D01*
X0462025Y0307447D01*
Y0308472D01*
X0462002Y0308590D01*
Y0311408D01*
X0462374Y0311743D01*
X0469104Y0305013D01*
D02*
G37*
%LPC*%
G36*
X0459996Y0413752D02*
X0457724D01*
Y0411283D01*
X0459996D01*
Y0413752D01*
D02*
G37*
G36*
X0456724D02*
X0454453D01*
Y0411283D01*
X0456724D01*
Y0413752D01*
D02*
G37*
G36*
X0459596Y0410521D02*
X0454853D01*
Y0405384D01*
X0459596D01*
Y0410521D01*
D02*
G37*
G36*
X0450476Y0402870D02*
X0448402D01*
Y0400795D01*
X0450476D01*
Y0402870D01*
D02*
G37*
G36*
X0426559Y0403067D02*
X0424878D01*
Y0400795D01*
X0426559D01*
Y0403067D01*
D02*
G37*
G36*
X0423878D02*
X0422197D01*
Y0400795D01*
X0423878D01*
Y0403067D01*
D02*
G37*
G36*
X0447402Y0402870D02*
X0445327D01*
Y0400795D01*
X0447402D01*
Y0402870D01*
D02*
G37*
G36*
X0476454Y0411821D02*
X0472105D01*
Y0407471D01*
X0473409D01*
Y0404340D01*
X0472006D01*
Y0400778D01*
X0476750D01*
Y0404340D01*
X0475347D01*
Y0407471D01*
X0476454D01*
Y0411821D01*
D02*
G37*
G36*
X0469860D02*
X0465510D01*
Y0407471D01*
X0466716D01*
Y0404340D01*
X0465313D01*
Y0400778D01*
X0470057D01*
Y0404340D01*
X0468654D01*
Y0407471D01*
X0469860D01*
Y0411821D01*
D02*
G37*
G36*
X0489921Y0399721D02*
X0487650D01*
Y0398039D01*
X0489921D01*
Y0399721D01*
D02*
G37*
G36*
X0486547Y0400016D02*
X0484473D01*
Y0397941D01*
X0486547D01*
Y0400016D01*
D02*
G37*
G36*
X0483472D02*
X0481398D01*
Y0397941D01*
X0483472D01*
Y0400016D01*
D02*
G37*
G36*
X0490421Y0397539D02*
D01*
D01*
D01*
D02*
G37*
G36*
X0426559Y0399795D02*
X0424878D01*
Y0397524D01*
X0426559D01*
Y0399795D01*
D02*
G37*
G36*
X0423878D02*
X0422197D01*
Y0397524D01*
X0423878D01*
Y0399795D01*
D02*
G37*
G36*
X0493193Y0397039D02*
X0490921D01*
Y0395358D01*
X0493193D01*
Y0397039D01*
D02*
G37*
G36*
X0489921D02*
X0487650D01*
Y0395358D01*
X0489921D01*
Y0397039D01*
D02*
G37*
G36*
X0486547Y0396941D02*
X0484473D01*
Y0394866D01*
X0486547D01*
Y0396941D01*
D02*
G37*
G36*
X0483472D02*
X0481398D01*
Y0394866D01*
X0483472D01*
Y0396941D01*
D02*
G37*
G36*
X0476750Y0398435D02*
X0472006D01*
Y0394872D01*
X0473409D01*
Y0392938D01*
X0473082Y0392449D01*
X0472960Y0391831D01*
X0473082Y0391213D01*
X0473433Y0390688D01*
X0473957Y0390338D01*
X0474575Y0390215D01*
X0475193Y0390338D01*
X0475717Y0390688D01*
X0476067Y0391213D01*
X0476190Y0391831D01*
X0476067Y0392449D01*
X0475717Y0392973D01*
X0475347Y0393220D01*
Y0394872D01*
X0476750D01*
Y0398435D01*
D02*
G37*
G36*
X0507752Y0413972D02*
Y0409161D01*
X0512563D01*
X0512445Y0410053D01*
X0511908Y0411350D01*
X0511054Y0412463D01*
X0509940Y0413318D01*
X0508643Y0413855D01*
X0507752Y0413972D01*
D02*
G37*
G36*
X0506752D02*
X0505860Y0413855D01*
X0504564Y0413318D01*
X0503450Y0412463D01*
X0502596Y0411350D01*
X0502059Y0410053D01*
X0501941Y0409161D01*
X0506752D01*
Y0413972D01*
D02*
G37*
G36*
X0405710Y0418348D02*
X0396242D01*
Y0405337D01*
X0405710D01*
Y0418348D01*
D02*
G37*
G36*
X0512563Y0408161D02*
X0507752D01*
Y0403350D01*
X0508643Y0403468D01*
X0509940Y0404005D01*
X0511054Y0404859D01*
X0511908Y0405973D01*
X0512445Y0407270D01*
X0512563Y0408161D01*
D02*
G37*
G36*
X0506752D02*
X0501941D01*
X0502059Y0407270D01*
X0502596Y0405973D01*
X0503450Y0404859D01*
X0504564Y0404005D01*
X0505860Y0403468D01*
X0506752Y0403350D01*
Y0408161D01*
D02*
G37*
G36*
X0361583Y0410769D02*
X0360964Y0410646D01*
X0360440Y0410296D01*
X0360090Y0409772D01*
X0359967Y0409154D01*
X0360090Y0408535D01*
X0360440Y0408011D01*
X0360614Y0407895D01*
Y0405750D01*
X0359432D01*
Y0398250D01*
X0363781D01*
Y0405750D01*
X0362551D01*
Y0407895D01*
X0362725Y0408011D01*
X0363075Y0408535D01*
X0363198Y0409154D01*
X0363075Y0409772D01*
X0362725Y0410296D01*
X0362201Y0410646D01*
X0361583Y0410769D01*
D02*
G37*
G36*
X0358860Y0405750D02*
X0354510D01*
Y0398250D01*
X0355326D01*
X0355402Y0397750D01*
X0355322Y0397697D01*
X0354972Y0397173D01*
X0354849Y0396555D01*
X0354972Y0395937D01*
X0355322Y0395413D01*
X0355846Y0395063D01*
X0356465Y0394940D01*
X0357083Y0395063D01*
X0357607Y0395413D01*
X0357957Y0395937D01*
X0358080Y0396555D01*
X0357957Y0397173D01*
X0357607Y0397697D01*
X0357527Y0397750D01*
X0357604Y0398250D01*
X0358860D01*
Y0405750D01*
D02*
G37*
G36*
X0353939D02*
X0349589D01*
Y0398250D01*
X0350427D01*
X0350579Y0397750D01*
X0350500Y0397697D01*
X0350149Y0397173D01*
X0350026Y0396555D01*
X0350149Y0395937D01*
X0350500Y0395413D01*
X0351024Y0395063D01*
X0351642Y0394940D01*
X0352260Y0395063D01*
X0352784Y0395413D01*
X0353134Y0395937D01*
X0353257Y0396555D01*
X0353134Y0397173D01*
X0352784Y0397697D01*
X0352732Y0397732D01*
Y0398250D01*
X0353939D01*
Y0405750D01*
D02*
G37*
G36*
X0355772Y0370980D02*
X0350941D01*
Y0368709D01*
X0355772D01*
Y0370980D01*
D02*
G37*
G36*
X0349941D02*
X0345110D01*
Y0368709D01*
X0349941D01*
Y0370980D01*
D02*
G37*
G36*
X0456087Y0394260D02*
X0454405D01*
Y0391988D01*
X0456087D01*
Y0394260D01*
D02*
G37*
G36*
X0453406D02*
X0451724D01*
Y0391988D01*
X0453406D01*
Y0394260D01*
D02*
G37*
G36*
X0456087Y0390988D02*
X0454405D01*
Y0388717D01*
X0456087D01*
Y0390988D01*
D02*
G37*
G36*
X0453406D02*
X0451724D01*
Y0388717D01*
X0453406D01*
Y0390988D01*
D02*
G37*
G36*
X0436008Y0377772D02*
X0433933D01*
Y0375697D01*
X0436008D01*
Y0377772D01*
D02*
G37*
G36*
Y0374697D02*
X0433933D01*
Y0372622D01*
X0436008D01*
Y0374697D01*
D02*
G37*
G36*
X0432933D02*
X0430858D01*
Y0372622D01*
X0432933D01*
Y0374697D01*
D02*
G37*
G36*
X0445358Y0370390D02*
X0443284D01*
Y0368315D01*
X0445358D01*
Y0370390D01*
D02*
G37*
G36*
X0442283D02*
X0440209D01*
Y0368315D01*
X0442283D01*
Y0370390D01*
D02*
G37*
G36*
X0445358Y0367315D02*
X0443284D01*
Y0365240D01*
X0445358D01*
Y0367315D01*
D02*
G37*
G36*
X0442283D02*
X0440209D01*
Y0365240D01*
X0442283D01*
Y0367315D01*
D02*
G37*
G36*
X0438862Y0365173D02*
X0436787D01*
Y0363099D01*
X0438862D01*
Y0365173D01*
D02*
G37*
G36*
X0435787D02*
X0433713D01*
Y0363099D01*
X0435787D01*
Y0365173D01*
D02*
G37*
G36*
X0444965Y0364287D02*
X0442693D01*
Y0362213D01*
X0444965D01*
Y0364287D01*
D02*
G37*
G36*
X0441693D02*
X0439421D01*
Y0362213D01*
X0441693D01*
Y0364287D01*
D02*
G37*
G36*
X0438862Y0362099D02*
X0436787D01*
Y0360024D01*
X0438862D01*
Y0362099D01*
D02*
G37*
G36*
X0435787D02*
X0433713D01*
Y0360024D01*
X0435787D01*
Y0362099D01*
D02*
G37*
G36*
X0444965Y0361213D02*
X0442193D01*
X0439421D01*
Y0359208D01*
X0439421Y0359208D01*
Y0359138D01*
X0439821Y0358896D01*
X0439821Y0358638D01*
Y0357811D01*
X0438462D01*
Y0358868D01*
X0434113D01*
Y0354518D01*
X0437825D01*
X0438101Y0354033D01*
X0438099Y0354018D01*
X0438024Y0353642D01*
Y0353061D01*
X0437262D01*
Y0348317D01*
X0440824D01*
Y0353061D01*
X0440611D01*
X0440404Y0353561D01*
X0441460Y0354617D01*
X0444564D01*
X0444565Y0358896D01*
X0444965Y0359138D01*
X0444965Y0359208D01*
X0444965Y0359208D01*
Y0361213D01*
D02*
G37*
G36*
X0448189Y0356291D02*
X0445917D01*
Y0354217D01*
X0448189D01*
Y0356291D01*
D02*
G37*
G36*
X0410890Y0370980D02*
X0406059D01*
Y0368709D01*
X0410890D01*
Y0370980D01*
D02*
G37*
G36*
X0405059D02*
X0400228D01*
Y0368709D01*
X0405059D01*
Y0370980D01*
D02*
G37*
G36*
X0424248Y0368980D02*
X0422173D01*
Y0366905D01*
X0424248D01*
Y0368980D01*
D02*
G37*
G36*
X0421173D02*
X0419098D01*
Y0366905D01*
X0421173D01*
Y0368980D01*
D02*
G37*
G36*
X0418342D02*
X0416268D01*
Y0366905D01*
X0418342D01*
Y0368980D01*
D02*
G37*
G36*
X0415268D02*
X0413193D01*
Y0366905D01*
X0415268D01*
Y0368980D01*
D02*
G37*
G36*
X0424248Y0365905D02*
X0422173D01*
Y0363831D01*
X0424248D01*
Y0365905D01*
D02*
G37*
G36*
X0421173D02*
X0419098D01*
Y0363831D01*
X0421173D01*
Y0365905D01*
D02*
G37*
G36*
X0418342Y0365905D02*
X0416268D01*
Y0363831D01*
X0418342D01*
Y0365905D01*
D02*
G37*
G36*
X0415268D02*
X0413193D01*
Y0363831D01*
X0415268D01*
Y0365905D01*
D02*
G37*
G36*
X0410890Y0367709D02*
X0400228D01*
Y0365437D01*
Y0363709D01*
X0410890D01*
Y0365437D01*
Y0367709D01*
D02*
G37*
G36*
X0410929Y0337709D02*
X0400268D01*
Y0335980D01*
X0400228D01*
Y0333709D01*
X0410890D01*
Y0335437D01*
X0410929D01*
Y0337709D01*
D02*
G37*
G36*
X0415020Y0335350D02*
X0412945D01*
Y0333276D01*
X0415020D01*
Y0335350D01*
D02*
G37*
G36*
X0410890Y0332709D02*
X0406059D01*
Y0330437D01*
X0410890D01*
Y0332709D01*
D02*
G37*
G36*
X0405059D02*
X0400228D01*
Y0330437D01*
X0405059D01*
Y0332709D01*
D02*
G37*
G36*
X0478204Y0364939D02*
X0476130D01*
Y0362864D01*
X0478204D01*
Y0364939D01*
D02*
G37*
G36*
X0475130D02*
X0473055D01*
Y0362864D01*
X0475130D01*
Y0364939D01*
D02*
G37*
G36*
X0459204Y0364939D02*
X0457130D01*
Y0362864D01*
X0459204D01*
Y0364939D01*
D02*
G37*
G36*
X0456130D02*
X0454055D01*
Y0362864D01*
X0456130D01*
Y0364939D01*
D02*
G37*
G36*
X0478204Y0361864D02*
X0476130D01*
Y0359789D01*
X0478204D01*
Y0361864D01*
D02*
G37*
G36*
X0475130D02*
X0473055D01*
Y0359789D01*
X0475130D01*
Y0361864D01*
D02*
G37*
G36*
X0459204Y0361864D02*
X0457130D01*
Y0359789D01*
X0459204D01*
Y0361864D01*
D02*
G37*
G36*
X0456130D02*
X0454055D01*
Y0359789D01*
X0456130D01*
Y0361864D01*
D02*
G37*
G36*
X0489059Y0366354D02*
X0486984D01*
Y0364280D01*
X0489059D01*
Y0366354D01*
D02*
G37*
G36*
X0485984D02*
X0483910D01*
Y0364280D01*
X0485984D01*
Y0366354D01*
D02*
G37*
G36*
X0489059Y0363280D02*
X0486984D01*
Y0361205D01*
X0489059D01*
Y0363280D01*
D02*
G37*
G36*
X0485984D02*
X0483910D01*
Y0361205D01*
X0485984D01*
Y0363280D01*
D02*
G37*
G36*
X0515535Y0358677D02*
X0513461D01*
Y0356602D01*
X0515535D01*
Y0358677D01*
D02*
G37*
G36*
X0512461D02*
X0510386D01*
Y0356602D01*
X0512461D01*
Y0358677D01*
D02*
G37*
G36*
X0515535Y0355602D02*
X0513461D01*
Y0353528D01*
X0515535D01*
Y0355602D01*
D02*
G37*
G36*
X0508836Y0349616D02*
X0504093D01*
Y0348030D01*
X0502242D01*
Y0348435D01*
X0497105D01*
Y0345094D01*
X0496705D01*
Y0343413D01*
X0499673D01*
X0502642D01*
Y0345094D01*
X0503066Y0345277D01*
X0504693D01*
X0505220Y0345382D01*
X0505666Y0345680D01*
X0506039Y0346054D01*
X0508836D01*
Y0349616D01*
D02*
G37*
G36*
X0491815Y0348835D02*
X0489347D01*
Y0347153D01*
X0491815D01*
Y0348835D01*
D02*
G37*
G36*
X0488346D02*
X0485878D01*
Y0347153D01*
X0488346D01*
Y0348835D01*
D02*
G37*
G36*
X0491815Y0346153D02*
X0489347D01*
Y0344472D01*
X0491815D01*
Y0346153D01*
D02*
G37*
G36*
X0488346D02*
X0485878D01*
Y0344472D01*
X0488346D01*
Y0346153D01*
D02*
G37*
G36*
X0485220Y0339306D02*
X0483146D01*
Y0337231D01*
X0485220D01*
Y0339306D01*
D02*
G37*
G36*
X0482146D02*
X0480071D01*
Y0337231D01*
X0482146D01*
Y0339306D01*
D02*
G37*
G36*
X0485220Y0336231D02*
X0483146D01*
Y0334156D01*
X0485220D01*
Y0336231D01*
D02*
G37*
G36*
X0482146D02*
X0480071D01*
Y0334156D01*
X0482146D01*
Y0336231D01*
D02*
G37*
G36*
X0485319Y0332594D02*
X0483244D01*
Y0330520D01*
X0485319D01*
Y0332594D01*
D02*
G37*
G36*
X0482244D02*
X0480169D01*
Y0330520D01*
X0482244D01*
Y0332594D01*
D02*
G37*
G36*
X0511500Y0328575D02*
X0510659Y0328408D01*
X0509946Y0327932D01*
X0509470Y0327219D01*
X0509303Y0326378D01*
X0509470Y0325537D01*
X0509946Y0324824D01*
X0510659Y0324348D01*
X0511500Y0324181D01*
X0512341Y0324348D01*
X0513054Y0324824D01*
X0513411Y0325358D01*
X0514197D01*
X0514279Y0325236D01*
X0514803Y0324886D01*
X0515421Y0324763D01*
X0516039Y0324886D01*
X0516563Y0325236D01*
X0516914Y0325760D01*
X0517036Y0326378D01*
X0516914Y0326996D01*
X0516563Y0327520D01*
X0516039Y0327870D01*
X0515421Y0327993D01*
X0514803Y0327870D01*
X0514279Y0327520D01*
X0514197Y0327398D01*
X0513411D01*
X0513054Y0327932D01*
X0512341Y0328408D01*
X0511500Y0328575D01*
D02*
G37*
G36*
X0511500Y0323575D02*
X0510659Y0323408D01*
X0509946Y0322932D01*
X0509470Y0322219D01*
X0509303Y0321378D01*
X0509470Y0320537D01*
X0509946Y0319824D01*
X0510659Y0319348D01*
X0511500Y0319181D01*
X0512341Y0319348D01*
X0513054Y0319824D01*
X0513197Y0320038D01*
X0514099D01*
X0514181Y0319916D01*
X0514705Y0319566D01*
X0515323Y0319443D01*
X0515941Y0319566D01*
X0516465Y0319916D01*
X0516815Y0320440D01*
X0516938Y0321058D01*
X0516815Y0321676D01*
X0516465Y0322200D01*
X0515941Y0322550D01*
X0515323Y0322673D01*
X0514705Y0322550D01*
X0514181Y0322200D01*
X0514099Y0322077D01*
X0513558D01*
X0513530Y0322219D01*
X0513054Y0322932D01*
X0512341Y0323408D01*
X0511500Y0323575D01*
D02*
G37*
G36*
X0511500Y0318575D02*
X0510659Y0318408D01*
X0509946Y0317932D01*
X0509470Y0317219D01*
X0509424Y0316987D01*
X0508904Y0316936D01*
X0508732Y0317352D01*
X0508322Y0317885D01*
X0507789Y0318295D01*
X0507167Y0318552D01*
X0507000Y0318574D01*
Y0316063D01*
X0506500D01*
Y0315563D01*
X0503989D01*
X0504011Y0315396D01*
X0504268Y0314774D01*
X0504552Y0314404D01*
X0504397Y0313920D01*
X0504356Y0313874D01*
X0504332Y0313871D01*
X0503710Y0313613D01*
X0503175Y0313203D01*
X0502765Y0312668D01*
X0502507Y0312046D01*
X0502419Y0311378D01*
X0502507Y0310710D01*
X0502765Y0310088D01*
X0503175Y0309553D01*
X0503710Y0309143D01*
X0504332Y0308885D01*
X0505000Y0308797D01*
X0505668Y0308885D01*
X0506290Y0309143D01*
X0506825Y0309553D01*
X0507235Y0310088D01*
X0507493Y0310710D01*
X0507581Y0311378D01*
X0507493Y0312046D01*
X0507235Y0312668D01*
X0506949Y0313041D01*
X0507103Y0313522D01*
X0507146Y0313571D01*
X0507167Y0313574D01*
X0507789Y0313831D01*
X0508322Y0314241D01*
X0508732Y0314774D01*
X0508989Y0315396D01*
X0508992Y0315420D01*
X0509298Y0315495D01*
X0509505Y0315484D01*
X0509946Y0314824D01*
X0510659Y0314348D01*
X0511500Y0314181D01*
X0511870Y0314254D01*
X0512026Y0314285D01*
X0512172Y0313805D01*
X0512013Y0313739D01*
X0511710Y0313613D01*
X0511175Y0313203D01*
X0510765Y0312668D01*
X0510507Y0312046D01*
X0510419Y0311378D01*
X0510507Y0310710D01*
X0510765Y0310088D01*
X0511175Y0309553D01*
X0511710Y0309143D01*
X0512332Y0308885D01*
X0513000Y0308797D01*
X0513668Y0308885D01*
X0514290Y0309143D01*
X0514825Y0309553D01*
X0515235Y0310088D01*
X0515493Y0310710D01*
X0515581Y0311378D01*
X0515493Y0312046D01*
X0515235Y0312668D01*
X0514825Y0313203D01*
X0514290Y0313613D01*
X0513668Y0313871D01*
X0513000Y0313959D01*
X0512647Y0313912D01*
X0512489Y0313892D01*
X0512341Y0314348D01*
X0512491Y0314448D01*
X0513054Y0314824D01*
X0513340Y0315253D01*
X0513798Y0315407D01*
X0514322Y0315056D01*
X0514940Y0314933D01*
X0515559Y0315056D01*
X0516083Y0315407D01*
X0516433Y0315931D01*
X0516556Y0316549D01*
X0516433Y0317167D01*
X0516083Y0317691D01*
X0515559Y0318041D01*
X0514940Y0318164D01*
X0514322Y0318041D01*
X0513798Y0317691D01*
X0513787Y0317674D01*
X0513226D01*
X0513054Y0317932D01*
X0512341Y0318408D01*
X0511500Y0318575D01*
D02*
G37*
G36*
X0506000Y0318574D02*
X0505833Y0318552D01*
X0505211Y0318295D01*
X0504678Y0317885D01*
X0504268Y0317352D01*
X0504011Y0316730D01*
X0503989Y0316563D01*
X0506000D01*
Y0318574D01*
D02*
G37*
G36*
X0497616Y0319891D02*
X0492479D01*
Y0316329D01*
X0497616D01*
Y0319891D01*
D02*
G37*
G36*
X0487870Y0306413D02*
Y0304339D01*
X0489945D01*
Y0306413D01*
X0487870D01*
D02*
G37*
G36*
X0489945Y0303339D02*
X0487870D01*
Y0301264D01*
X0489945D01*
Y0303339D01*
D02*
G37*
G36*
X0507752Y0300748D02*
Y0295937D01*
X0512563D01*
X0512445Y0296829D01*
X0511908Y0298125D01*
X0511054Y0299239D01*
X0509940Y0300093D01*
X0508644Y0300630D01*
X0507752Y0300748D01*
D02*
G37*
G36*
X0506752D02*
X0505860Y0300630D01*
X0504564Y0300093D01*
X0503450Y0299239D01*
X0502596Y0298125D01*
X0502059Y0296829D01*
X0501941Y0295937D01*
X0506752D01*
Y0300748D01*
D02*
G37*
G36*
X0486496Y0293783D02*
X0485964Y0293713D01*
X0485003Y0293315D01*
X0484177Y0292681D01*
X0483543Y0291856D01*
X0483145Y0290894D01*
X0483075Y0290362D01*
X0486496D01*
Y0293783D01*
D02*
G37*
G36*
X0512563Y0294937D02*
X0507752D01*
Y0290126D01*
X0508644Y0290244D01*
X0509940Y0290781D01*
X0511054Y0291635D01*
X0511908Y0292749D01*
X0512445Y0294045D01*
X0512563Y0294937D01*
D02*
G37*
G36*
X0506752D02*
X0501941D01*
X0502059Y0294045D01*
X0502596Y0292749D01*
X0503450Y0291635D01*
X0504564Y0290781D01*
X0505860Y0290244D01*
X0506752Y0290126D01*
Y0294937D01*
D02*
G37*
G36*
X0332209Y0316055D02*
X0330488D01*
Y0314433D01*
X0332209D01*
Y0316055D01*
D02*
G37*
G36*
X0340870Y0314130D02*
X0339248D01*
Y0312409D01*
X0340870D01*
Y0314130D01*
D02*
G37*
G36*
X0355772Y0314051D02*
X0350941D01*
Y0311779D01*
X0355772D01*
Y0314051D01*
D02*
G37*
G36*
X0349941D02*
X0345110D01*
Y0311779D01*
X0349941D01*
Y0314051D01*
D02*
G37*
G36*
X0340870Y0311409D02*
X0339248D01*
Y0309689D01*
X0340870D01*
Y0311409D01*
D02*
G37*
G36*
X0355772Y0310780D02*
X0345110D01*
Y0308508D01*
X0345510D01*
Y0307319D01*
X0344269D01*
Y0308080D01*
X0341101D01*
Y0304518D01*
X0344269D01*
Y0305280D01*
X0345510D01*
Y0304051D01*
X0345110D01*
Y0301780D01*
X0355772D01*
Y0304051D01*
X0355372D01*
Y0308508D01*
X0355772D01*
Y0310780D01*
D02*
G37*
G36*
X0410890D02*
X0400228D01*
Y0308508D01*
Y0306780D01*
X0410890D01*
Y0308508D01*
Y0310780D01*
D02*
G37*
G36*
X0332405Y0307099D02*
X0330685D01*
Y0305476D01*
X0332405D01*
Y0307099D01*
D02*
G37*
G36*
X0329685D02*
X0327965D01*
Y0305476D01*
X0329685D01*
Y0307099D01*
D02*
G37*
G36*
X0410890Y0305780D02*
X0400228D01*
Y0303508D01*
Y0301780D01*
X0410890D01*
Y0303508D01*
Y0305780D01*
D02*
G37*
G36*
X0355772Y0300780D02*
X0350941D01*
Y0298508D01*
X0355772D01*
Y0300780D01*
D02*
G37*
G36*
X0349941D02*
X0345110D01*
Y0298508D01*
X0349941D01*
Y0300780D01*
D02*
G37*
G36*
X0410838Y0289362D02*
X0407417D01*
Y0285941D01*
X0407949Y0286011D01*
X0408911Y0286409D01*
X0409736Y0287043D01*
X0410370Y0287869D01*
X0410768Y0288830D01*
X0410838Y0289362D01*
D02*
G37*
G36*
X0406417D02*
X0402996D01*
X0403066Y0288830D01*
X0403465Y0287869D01*
X0404098Y0287043D01*
X0404924Y0286409D01*
X0405885Y0286011D01*
X0406417Y0285941D01*
Y0289362D01*
D02*
G37*
G36*
X0459677Y0304248D02*
X0457602D01*
Y0302173D01*
X0459677D01*
Y0304248D01*
D02*
G37*
G36*
X0462752Y0301173D02*
X0460677D01*
Y0299098D01*
X0462752D01*
Y0301173D01*
D02*
G37*
G36*
X0459677D02*
X0457602D01*
Y0299098D01*
X0459677D01*
Y0301173D01*
D02*
G37*
G36*
X0447476Y0293783D02*
Y0290362D01*
X0450897D01*
X0450827Y0290894D01*
X0450429Y0291856D01*
X0449795Y0292681D01*
X0448970Y0293315D01*
X0448008Y0293713D01*
X0447476Y0293783D01*
D02*
G37*
G36*
X0446476D02*
X0445944Y0293713D01*
X0444983Y0293315D01*
X0444157Y0292681D01*
X0443524Y0291856D01*
X0443125Y0290894D01*
X0443055Y0290362D01*
X0446476D01*
Y0293783D01*
D02*
G37*
G36*
X0450897Y0289362D02*
X0447476D01*
Y0285941D01*
X0448008Y0286011D01*
X0448970Y0286409D01*
X0449795Y0287043D01*
X0450429Y0287869D01*
X0450827Y0288830D01*
X0450897Y0289362D01*
D02*
G37*
G36*
X0446476D02*
X0443055D01*
X0443125Y0288830D01*
X0443524Y0287869D01*
X0444157Y0287043D01*
X0444983Y0286409D01*
X0445944Y0286011D01*
X0446476Y0285941D01*
Y0289362D01*
D02*
G37*
%LPD*%
D12*
X0462468Y0415846D02*
X0479201D01*
X0494260Y0304823D02*
Y0310630D01*
X0460811Y0306701D02*
X0461055D01*
X0489043Y0331299D02*
X0490224Y0330118D01*
X0490634Y0324016D02*
X0498751D01*
X0490634D02*
Y0328921D01*
X0498751Y0324016D02*
X0501113Y0326378D01*
X0442209Y0336122D02*
X0445063Y0338976D01*
X0440126Y0336122D02*
X0442209D01*
X0516504Y0334941D02*
X0517596Y0336033D01*
X0495047Y0334941D02*
X0516504D01*
X0493276Y0303839D02*
X0494260Y0304823D01*
X0490634Y0315043D02*
Y0324016D01*
Y0315043D02*
X0493669Y0312008D01*
X0490224Y0329331D02*
X0490634Y0328921D01*
X0479201Y0415846D02*
X0500362Y0394685D01*
X0460205Y0418110D02*
X0462468Y0415846D01*
X0517596Y0336033D02*
Y0389558D01*
X0512468Y0394685D02*
X0517596Y0389558D01*
X0500362Y0394685D02*
X0512468D01*
X0425165Y0418110D02*
X0460205D01*
X0501113Y0326378D02*
X0506500D01*
X0490910Y0297736D02*
X0493276Y0300101D01*
X0489142Y0297736D02*
X0490910D01*
X0445063Y0338976D02*
Y0341937D01*
X0473689Y0322933D02*
X0475658Y0320965D01*
Y0320079D02*
Y0320965D01*
Y0320079D02*
X0476248Y0319488D01*
X0476839D01*
X0427634Y0314378D02*
X0433252D01*
X0426346Y0313091D02*
X0427634Y0314378D01*
X0421917Y0317520D02*
X0426346Y0313091D01*
X0417882Y0317520D02*
X0421917D01*
X0460811Y0306701D02*
Y0308472D01*
X0461055Y0306701D02*
X0466082Y0301673D01*
X0465126Y0297370D02*
X0466082Y0298327D01*
X0465126Y0297244D02*
Y0297370D01*
X0466082Y0298327D02*
Y0301673D01*
X0476543Y0298524D02*
X0477429Y0297638D01*
Y0297539D02*
Y0297638D01*
X0476543Y0298524D02*
Y0301476D01*
X0493276Y0300101D02*
Y0303839D01*
X0490224Y0329331D02*
Y0330118D01*
X0494260Y0310630D02*
X0495047D01*
X0493669Y0311221D02*
X0494260Y0310630D01*
X0493669Y0311221D02*
Y0312008D01*
X0479398Y0326673D02*
X0486779D01*
X0488256Y0328150D01*
X0489043D01*
X0490224Y0329331D01*
X0488846Y0332779D02*
X0489043Y0332582D01*
Y0331299D02*
Y0332582D01*
X0488846Y0332779D02*
Y0339173D01*
X0492193Y0332087D02*
X0495047Y0334941D01*
X0491405Y0332087D02*
X0492193D01*
X0490224Y0330906D02*
X0491405Y0332087D01*
X0490224Y0330118D02*
Y0330906D01*
X0419358Y0412303D02*
X0425165Y0418110D01*
X0418718Y0411663D02*
X0419358Y0412303D01*
X0453127Y0312394D02*
Y0316318D01*
X0452965Y0316481D02*
X0453127Y0316318D01*
X0452965Y0312232D02*
X0453127Y0312394D01*
X0452965Y0311394D02*
Y0312232D01*
X0455305Y0311766D02*
Y0315137D01*
X0454934Y0311394D02*
X0455305Y0311766D01*
X0454906Y0308472D02*
X0454934Y0308500D01*
D15*
X0460811Y0344406D02*
X0462665Y0346260D01*
X0460811Y0341937D02*
Y0344406D01*
X0415671Y0294060D02*
X0423660Y0302048D01*
X0401115Y0294060D02*
X0415671D01*
X0423660Y0302048D02*
X0442272D01*
X0414522Y0296835D02*
X0422510Y0304823D01*
X0379776Y0296835D02*
X0414522D01*
X0376917Y0293976D02*
X0379776Y0296835D01*
X0433433Y0381102D02*
X0434516Y0382185D01*
X0450658D01*
X0452528Y0384055D01*
X0453118D01*
X0453905Y0384842D01*
Y0385433D01*
X0417594Y0376927D02*
X0429257D01*
X0409764D02*
X0417594D01*
X0417587Y0376934D02*
X0417594Y0376927D01*
X0417587Y0376934D02*
Y0380118D01*
X0407350Y0382579D02*
X0410008Y0385236D01*
X0407350Y0379340D02*
Y0382579D01*
Y0379340D02*
X0409764Y0376927D01*
X0407547Y0393344D02*
Y0402000D01*
X0407439Y0393236D02*
X0407547Y0393344D01*
X0407439Y0389155D02*
Y0393236D01*
Y0389155D02*
X0407547Y0389047D01*
Y0387697D02*
Y0389047D01*
Y0387697D02*
X0410008Y0385236D01*
X0429257Y0376927D02*
X0433433Y0381102D01*
X0427429Y0391566D02*
X0428217Y0392354D01*
Y0392618D01*
X0427429Y0389961D02*
Y0391566D01*
X0470728Y0322252D02*
X0470835Y0322146D01*
X0466716Y0322252D02*
X0470728D01*
X0415126Y0394980D02*
X0423787D01*
X0425461Y0393307D01*
Y0391929D02*
Y0393307D01*
X0412862Y0385236D02*
X0414797D01*
X0410008D02*
X0412862D01*
Y0392717D02*
X0415126Y0394980D01*
X0412862Y0385236D02*
Y0392717D01*
X0414797Y0385236D02*
X0414797Y0385236D01*
X0415618D01*
X0431430Y0383105D02*
X0433433Y0381102D01*
X0431006Y0383105D02*
X0431430D01*
X0430450Y0383661D02*
X0431006Y0383105D01*
X0427429Y0383661D02*
X0430450D01*
X0443094Y0305232D02*
Y0308472D01*
X0441298Y0303435D02*
X0443094Y0305232D01*
X0423085Y0303435D02*
X0441298D01*
X0445047Y0304823D02*
Y0308457D01*
X0442272Y0302048D02*
X0445047Y0304823D01*
X0441126Y0305398D02*
Y0308472D01*
X0440551Y0304823D02*
X0441126Y0305398D01*
X0458843Y0291709D02*
Y0293229D01*
X0456996Y0289862D02*
X0458843Y0291709D01*
Y0293229D02*
X0462857Y0297244D01*
X0465126D01*
X0499299Y0356102D02*
X0499968Y0355433D01*
Y0350787D02*
Y0355433D01*
X0478396Y0369488D02*
X0479595Y0370687D01*
Y0374338D01*
X0478047Y0375886D02*
X0479595Y0374338D01*
X0477232Y0375886D02*
X0478047D01*
X0476445Y0376673D02*
X0477232Y0375886D01*
X0396453Y0312233D02*
X0398492Y0314272D01*
X0379288Y0312233D02*
X0396453D01*
X0356917Y0289862D02*
X0379288Y0312233D01*
X0476543Y0340650D02*
X0476740Y0340453D01*
Y0336731D02*
Y0340453D01*
X0466716Y0336032D02*
X0476041D01*
X0476740Y0336731D01*
X0422510Y0304823D02*
X0440551D01*
X0415097Y0295447D02*
X0423085Y0303435D01*
X0445047Y0308457D02*
X0445063Y0308472D01*
X0396917Y0289862D02*
X0401115Y0294060D01*
X0386917Y0289862D02*
X0392502Y0295447D01*
X0415097D01*
X0376917Y0289862D02*
Y0293976D01*
X0478020Y0328051D02*
X0479398Y0326673D01*
X0478020Y0328051D02*
Y0328839D01*
X0476839Y0330020D02*
X0478020Y0328839D01*
X0476740Y0330118D02*
X0476839Y0330020D01*
X0476740Y0330118D02*
Y0336731D01*
X0454934Y0308500D02*
Y0311394D01*
X0452965Y0308500D02*
Y0311394D01*
X0452937Y0308472D02*
X0452965Y0308500D01*
D20*
X0487272Y0372933D02*
D03*
Y0376673D02*
D03*
Y0380413D02*
D03*
X0476445D02*
D03*
Y0376673D02*
D03*
Y0372933D02*
D03*
X0499673Y0339173D02*
D03*
Y0342913D02*
D03*
Y0346654D02*
D03*
X0488846D02*
D03*
Y0339173D02*
D03*
X0484221Y0318110D02*
D03*
Y0314370D02*
D03*
Y0310630D02*
D03*
X0495047D02*
D03*
Y0318110D02*
D03*
D21*
X0338748Y0306299D02*
D03*
X0342685D02*
D03*
D22*
X0448000Y0385433D02*
D03*
X0453905D02*
D03*
X0448000Y0391488D02*
D03*
X0453905D02*
D03*
X0439929Y0393012D02*
D03*
X0434024D02*
D03*
X0424378Y0400295D02*
D03*
X0430283D02*
D03*
X0439043Y0350689D02*
D03*
X0444949D02*
D03*
X0460008Y0373445D02*
D03*
X0465913D02*
D03*
X0460008Y0379945D02*
D03*
X0465913D02*
D03*
D23*
X0417587Y0380118D02*
D03*
X0419161D02*
D03*
X0420736D02*
D03*
X0422311D02*
D03*
X0423886D02*
D03*
X0425461D02*
D03*
Y0391929D02*
D03*
X0423886D02*
D03*
X0422311D02*
D03*
X0420736D02*
D03*
X0419161D02*
D03*
X0417587D02*
D03*
D24*
X0427429Y0382087D02*
D03*
Y0383661D02*
D03*
Y0385236D02*
D03*
Y0386811D02*
D03*
Y0388386D02*
D03*
Y0389961D02*
D03*
X0415618D02*
D03*
Y0388386D02*
D03*
Y0386811D02*
D03*
Y0385236D02*
D03*
Y0383661D02*
D03*
Y0382087D02*
D03*
D26*
X0434122Y0387303D02*
D03*
X0440028D02*
D03*
X0476839Y0330020D02*
D03*
X0482744D02*
D03*
X0476740Y0336731D02*
D03*
X0482646D02*
D03*
X0426346Y0313091D02*
D03*
X0420441D02*
D03*
X0466082Y0301673D02*
D03*
X0460177D02*
D03*
X0493276Y0303839D02*
D03*
X0487370D02*
D03*
X0441996Y0400295D02*
D03*
X0447902D02*
D03*
X0448689Y0367815D02*
D03*
X0442783D02*
D03*
X0492390Y0363779D02*
D03*
X0486484D02*
D03*
X0507055Y0356102D02*
D03*
X0512961D02*
D03*
D27*
X0410008Y0385236D02*
D03*
Y0391142D02*
D03*
X0433433Y0381102D02*
D03*
Y0375197D02*
D03*
X0421673Y0360500D02*
D03*
Y0366406D02*
D03*
X0415768Y0360500D02*
D03*
Y0366406D02*
D03*
X0421032Y0338583D02*
D03*
Y0332677D02*
D03*
X0415520Y0338681D02*
D03*
Y0332776D02*
D03*
X0475630Y0356459D02*
D03*
Y0362364D02*
D03*
X0456630Y0356458D02*
D03*
Y0362364D02*
D03*
X0436287Y0356693D02*
D03*
Y0362598D02*
D03*
X0483972Y0397441D02*
D03*
Y0391535D02*
D03*
X0514634Y0344390D02*
D03*
Y0338484D02*
D03*
X0467685Y0409646D02*
D03*
X0467685Y0415945D02*
D03*
X0474279Y0409646D02*
D03*
X0474279Y0415945D02*
D03*
D28*
X0330185Y0307598D02*
D03*
Y0311299D02*
D03*
X0329988Y0320256D02*
D03*
Y0316555D02*
D03*
D29*
X0334811Y0316425D02*
D03*
Y0320205D02*
D03*
D30*
X0338748Y0311910D02*
D03*
X0335047D02*
D03*
D31*
X0322409Y0311417D02*
D03*
Y0320866D02*
D03*
Y0338189D02*
D03*
Y0351181D02*
D03*
X0288551Y0311417D02*
D03*
Y0351181D02*
D03*
Y0338189D02*
D03*
D32*
X0350441Y0301279D02*
D03*
Y0306279D02*
D03*
Y0311280D02*
D03*
Y0333209D02*
D03*
Y0338209D02*
D03*
Y0343209D02*
D03*
Y0348209D02*
D03*
Y0353209D02*
D03*
Y0358209D02*
D03*
Y0363209D02*
D03*
Y0368209D02*
D03*
X0405559D02*
D03*
Y0363209D02*
D03*
Y0358209D02*
D03*
Y0353209D02*
D03*
Y0348209D02*
D03*
Y0343209D02*
D03*
X0405598Y0338209D02*
D03*
X0405559Y0333209D02*
D03*
Y0311280D02*
D03*
Y0306279D02*
D03*
Y0301279D02*
D03*
D33*
X0400976Y0411842D02*
D03*
X0317118D02*
D03*
D34*
X0391134Y0402000D02*
D03*
X0386213D02*
D03*
X0381291D02*
D03*
X0376370D02*
D03*
X0371449D02*
D03*
X0366528D02*
D03*
X0361606D02*
D03*
X0356685D02*
D03*
X0351764D02*
D03*
X0346843D02*
D03*
X0341921D02*
D03*
X0337000D02*
D03*
X0332079D02*
D03*
X0327157D02*
D03*
D35*
X0350165Y0385039D02*
D03*
Y0390945D02*
D03*
X0403315Y0390846D02*
D03*
Y0384941D02*
D03*
X0397311Y0384941D02*
D03*
Y0390846D02*
D03*
X0391209Y0390846D02*
D03*
Y0384941D02*
D03*
X0467685Y0396654D02*
D03*
Y0402559D02*
D03*
X0474378Y0396654D02*
D03*
Y0402559D02*
D03*
X0476543Y0301476D02*
D03*
Y0307382D02*
D03*
X0476839Y0319488D02*
D03*
Y0313583D02*
D03*
X0506465Y0341929D02*
D03*
Y0347835D02*
D03*
X0382842Y0385039D02*
D03*
Y0390945D02*
D03*
X0376839Y0385039D02*
D03*
Y0390945D02*
D03*
X0370835Y0385039D02*
D03*
Y0390945D02*
D03*
X0364831Y0385039D02*
D03*
Y0390945D02*
D03*
X0344161Y0385039D02*
D03*
Y0390945D02*
D03*
X0338158Y0385039D02*
D03*
Y0390945D02*
D03*
X0490421Y0391634D02*
D03*
Y0397539D02*
D03*
X0332079Y0385039D02*
D03*
Y0390945D02*
D03*
D36*
X0490224Y0330118D02*
D03*
X0497705D02*
D03*
D37*
X0420736Y0352579D02*
D03*
Y0345847D02*
D03*
D38*
X0499299Y0356102D02*
D03*
X0492567D02*
D03*
D39*
X0441083Y0414252D02*
D03*
X0457224D02*
D03*
Y0407953D02*
D03*
X0441083D02*
D03*
D40*
X0460811Y0341937D02*
D03*
X0458843D02*
D03*
X0456874D02*
D03*
X0454906D02*
D03*
X0452937D02*
D03*
X0450969D02*
D03*
X0449000D02*
D03*
X0447031D02*
D03*
X0445063D02*
D03*
X0443094D02*
D03*
X0441126D02*
D03*
X0439157D02*
D03*
Y0308472D02*
D03*
X0441126D02*
D03*
X0443094D02*
D03*
X0445063D02*
D03*
X0447031D02*
D03*
X0449000D02*
D03*
X0450969D02*
D03*
X0452937D02*
D03*
X0454906D02*
D03*
X0456874D02*
D03*
X0458843D02*
D03*
X0460811D02*
D03*
D41*
X0433252Y0336032D02*
D03*
Y0334063D02*
D03*
Y0332095D02*
D03*
Y0330126D02*
D03*
Y0328157D02*
D03*
Y0326189D02*
D03*
Y0324220D02*
D03*
Y0322252D02*
D03*
Y0320284D02*
D03*
Y0318315D02*
D03*
Y0316347D02*
D03*
Y0314378D02*
D03*
X0466716D02*
D03*
Y0316347D02*
D03*
Y0318315D02*
D03*
Y0320284D02*
D03*
Y0322252D02*
D03*
Y0324220D02*
D03*
Y0326189D02*
D03*
Y0328157D02*
D03*
Y0330126D02*
D03*
Y0332095D02*
D03*
Y0334063D02*
D03*
Y0336032D02*
D03*
D42*
X0463130Y0356705D02*
D03*
X0468838D02*
D03*
D43*
X0448689Y0361713D02*
D03*
X0442193D02*
D03*
Y0356791D02*
D03*
X0448689D02*
D03*
D45*
X0501543Y0364370D02*
D03*
Y0389567D02*
D03*
D47*
X0500658Y0371850D02*
D03*
Y0379528D02*
D03*
Y0382087D02*
D03*
Y0376969D02*
D03*
Y0374409D02*
D03*
D82*
X0335047Y0310000D02*
G03*
X0338748Y0306299I0003701J0000000D01*
G01*
X0330185Y0311299D02*
G03*
X0330067Y0311417I-0000118J0000000D01*
G01*
X0329988Y0320256D02*
G03*
X0329378Y0320866I-0000610J0000000D01*
G01*
X0335047Y0316189D02*
G03*
X0334811Y0316425I-0000236J0000000D01*
G01*
X0338175Y0398802D02*
X0344119Y0392857D01*
X0328594Y0380890D02*
X0329299Y0381594D01*
X0328594Y0377279D02*
X0334518Y0371356D01*
X0328594Y0377279D02*
Y0380890D01*
X0370835Y0298228D02*
X0413945D01*
X0366917Y0294311D02*
X0370835Y0298228D01*
X0413945D02*
X0423153Y0307436D01*
X0438967D01*
X0439157Y0307627D01*
X0366917Y0289862D02*
Y0294311D01*
X0395835Y0367618D02*
X0396638Y0366815D01*
X0392580Y0375251D02*
X0396587Y0371244D01*
X0399904Y0373743D02*
X0405819D01*
X0399394Y0373233D02*
X0399904Y0373743D01*
X0399394Y0372406D02*
Y0373233D01*
X0398231Y0371244D02*
X0399394Y0372406D01*
X0396587Y0371244D02*
X0398231D01*
X0423692Y0372733D02*
X0429042Y0367383D01*
X0406829Y0372733D02*
X0423692D01*
X0405819Y0373743D02*
X0406829Y0372733D01*
X0424272Y0374133D02*
X0430442Y0367963D01*
X0407409Y0374133D02*
X0424272D01*
X0406009Y0375533D02*
X0407409Y0374133D01*
X0399714Y0375533D02*
X0406009D01*
X0397409Y0373228D02*
X0399714Y0375533D01*
X0407989D02*
X0425223D01*
X0404687Y0378835D02*
X0407989Y0375533D01*
X0425223D02*
X0431843Y0368913D01*
X0401337Y0361837D02*
X0404187D01*
X0405559Y0363209D01*
X0428183Y0317421D02*
X0429257Y0316347D01*
X0433252D01*
X0471758Y0334063D02*
X0472258Y0333563D01*
X0472213D02*
X0472258D01*
X0472260Y0333561D01*
X0466716Y0334063D02*
X0471758D01*
X0419161Y0388386D02*
X0419774Y0387774D01*
Y0388089D01*
X0418892Y0388970D02*
X0419774Y0388089D01*
X0418577Y0388970D02*
X0418892D01*
X0417602Y0389945D02*
X0418577Y0388970D01*
X0417602Y0389945D02*
Y0391101D01*
X0417593Y0391111D02*
X0417602Y0391101D01*
X0417593Y0391111D02*
Y0391923D01*
X0417587Y0391929D02*
X0417593Y0391923D01*
X0415618Y0388386D02*
X0419161D01*
X0480677Y0313681D02*
X0480942D01*
X0481521Y0314260D01*
X0484110D01*
X0484221Y0314370D01*
X0413748Y0317520D02*
X0418135Y0313133D01*
X0413650Y0317421D02*
Y0317421D01*
X0413748Y0317520D01*
X0418135Y0313133D02*
X0420399D01*
X0420441Y0313091D01*
X0335047Y0311910D02*
Y0316189D01*
Y0310000D02*
Y0311910D01*
X0342685Y0306299D02*
X0350441D01*
Y0306279D02*
Y0306299D01*
X0322409Y0311417D02*
X0330067D01*
X0322311Y0320374D02*
X0329279D01*
X0329988Y0320256D02*
X0334811D01*
Y0320205D02*
Y0320256D01*
X0404687Y0378835D02*
Y0384160D01*
X0439513Y0334138D02*
X0446343Y0327308D01*
X0439304Y0334138D02*
X0439513D01*
X0438142Y0335300D02*
X0439304Y0334138D01*
X0438142Y0335300D02*
Y0335509D01*
X0429042Y0344608D02*
X0438142Y0335509D01*
X0410408Y0379729D02*
Y0379817D01*
X0410303Y0379921D02*
X0410408Y0379817D01*
X0410303Y0379921D02*
Y0381421D01*
X0410772Y0381890D01*
X0411280D01*
X0413051Y0383661D01*
X0415618D01*
X0413164Y0381207D02*
X0414043Y0382087D01*
X0415618D01*
X0413164Y0379928D02*
Y0381207D01*
X0413059Y0379823D02*
X0413164Y0379928D01*
X0462764Y0332874D02*
X0463543Y0332095D01*
X0466716D01*
X0462854Y0330020D02*
X0462961Y0330126D01*
X0466716D01*
X0430442Y0345188D02*
X0437441Y0338189D01*
X0431843Y0345980D02*
X0435886Y0341937D01*
X0431843Y0345980D02*
Y0368913D01*
X0430442Y0345188D02*
Y0367963D01*
X0429042Y0344608D02*
Y0367383D01*
X0392580Y0375251D02*
Y0384160D01*
X0391799Y0384941D02*
X0392580Y0384160D01*
X0391209Y0384941D02*
X0391799D01*
X0403905D02*
X0404687Y0384160D01*
X0450061Y0360341D02*
X0452937Y0357465D01*
Y0341937D02*
Y0357465D01*
X0435886Y0341937D02*
X0439157D01*
X0440323Y0338189D02*
X0441126Y0338992D01*
X0437441Y0338189D02*
X0440323D01*
X0441126Y0338992D02*
Y0341937D01*
X0442952Y0316634D02*
X0445146D01*
X0435154Y0308836D02*
X0442952Y0316634D01*
X0446675Y0299254D02*
X0450969Y0303548D01*
X0441743Y0299254D02*
X0446675D01*
X0450969Y0303548D02*
Y0308472D01*
X0449000Y0303756D02*
Y0308472D01*
X0445898Y0300654D02*
X0449000Y0303756D01*
X0432217Y0300654D02*
X0445898D01*
X0462567Y0312992D02*
X0470124Y0305435D01*
Y0295373D02*
Y0305435D01*
Y0295373D02*
X0471600Y0293897D01*
X0468039Y0313056D02*
X0471524Y0309571D01*
Y0295953D02*
Y0309571D01*
Y0295953D02*
X0473000Y0294477D01*
Y0305906D02*
X0474040Y0306946D01*
X0473000Y0297285D02*
Y0305906D01*
Y0297285D02*
X0475264Y0295021D01*
X0483630Y0296496D02*
Y0310039D01*
X0477550Y0290416D02*
X0483630Y0296496D01*
X0477140Y0290852D02*
X0477550Y0290442D01*
Y0290416D02*
Y0290442D01*
X0471600Y0286046D02*
Y0293897D01*
Y0286046D02*
X0473413Y0284232D01*
X0473993Y0285632D02*
X0488553D01*
X0473000Y0286626D02*
Y0294477D01*
Y0286626D02*
X0473993Y0285632D01*
X0473413Y0284232D02*
X0490402D01*
X0484319Y0323917D02*
X0488354Y0319882D01*
Y0311516D02*
Y0319882D01*
X0487468Y0310630D02*
X0488354Y0311516D01*
X0342962Y0398219D02*
X0345342Y0395839D01*
Y0395768D02*
Y0395839D01*
X0335697Y0395669D02*
X0338158Y0393209D01*
X0333133Y0398233D02*
X0335697Y0395669D01*
X0338158Y0385039D02*
X0342618Y0380579D01*
Y0362666D02*
Y0380579D01*
Y0362666D02*
X0347075Y0358209D01*
X0338570Y0381594D02*
X0341218Y0378946D01*
Y0359243D02*
Y0378946D01*
Y0359243D02*
X0347252Y0353209D01*
X0364829Y0341224D02*
X0368999D01*
X0364592Y0341461D02*
X0364829Y0341224D01*
X0364592Y0341461D02*
Y0376927D01*
X0365913Y0378248D01*
X0332079Y0381594D02*
Y0385039D01*
X0329299Y0381594D02*
X0332079D01*
X0345342Y0395768D02*
X0348794Y0392317D01*
X0448431Y0321850D02*
Y0321888D01*
X0328212Y0398233D02*
X0332079Y0394366D01*
X0332563Y0376165D02*
X0335918Y0372811D01*
X0334518Y0327172D02*
Y0371356D01*
X0483925Y0377559D02*
Y0382677D01*
X0485303Y0384055D01*
X0483925Y0377559D02*
X0484572Y0376912D01*
X0487032D01*
X0487272Y0376673D01*
X0334518Y0327172D02*
X0344986Y0316704D01*
X0335918Y0327752D02*
Y0372811D01*
Y0327752D02*
X0345566Y0318104D01*
X0344986Y0316704D02*
X0408844D01*
X0416711Y0308836D01*
X0345566Y0318104D02*
X0409424D01*
X0332079Y0381594D02*
X0338570D01*
X0330579Y0378150D02*
X0331350Y0377378D01*
Y0377328D02*
Y0377378D01*
Y0377328D02*
X0332513Y0376165D01*
X0332563D01*
X0347252Y0353209D02*
X0350441D01*
X0347075Y0358209D02*
X0350441D01*
X0342962Y0398219D02*
Y0400959D01*
X0341921Y0402000D02*
X0342962Y0400959D01*
X0490402Y0284232D02*
X0493472Y0287303D01*
Y0290551D02*
Y0292520D01*
X0488553Y0285632D02*
X0493472Y0290551D01*
X0511820Y0321058D02*
X0515323D01*
X0514855Y0316463D02*
X0514940Y0316549D01*
X0511585Y0316463D02*
X0514855D01*
X0511500Y0316378D02*
X0511585Y0316463D01*
X0511500Y0326378D02*
X0515421D01*
X0428908Y0284843D02*
X0432653D01*
X0426976Y0286774D02*
X0428908Y0284843D01*
X0426976Y0286774D02*
Y0289862D01*
X0437509Y0295021D02*
X0441743Y0299254D01*
X0426976Y0295413D02*
X0432217Y0300654D01*
X0437509Y0290637D02*
Y0295021D01*
X0426976Y0289862D02*
Y0295413D01*
X0428950Y0336032D02*
X0433252D01*
X0421658Y0328740D02*
X0428950Y0336032D01*
X0396638Y0355906D02*
Y0366815D01*
Y0345157D02*
Y0355906D01*
X0345533Y0383668D02*
X0350362Y0378839D01*
X0345533Y0383668D02*
Y0384258D01*
X0344752Y0385039D02*
X0345533Y0384258D01*
X0344161Y0385039D02*
X0344752D01*
X0350362Y0378839D02*
X0358728D01*
X0368999Y0341224D02*
X0383680Y0355906D01*
X0396638D01*
X0394561Y0333951D02*
X0399772Y0328740D01*
X0394561Y0333951D02*
Y0353547D01*
X0396638Y0345157D02*
X0398586Y0343209D01*
X0446343Y0321095D02*
Y0327308D01*
Y0321095D02*
X0447130Y0320308D01*
X0462017Y0316347D02*
X0466716D01*
X0457891Y0320472D02*
X0462017Y0316347D01*
X0452928Y0320472D02*
X0457891D01*
X0449189Y0316734D02*
X0452928Y0320472D01*
X0447130Y0315812D02*
Y0320308D01*
X0446319Y0315001D02*
X0447130Y0315812D01*
X0446319Y0311975D02*
Y0315001D01*
Y0311975D02*
X0446841Y0311453D01*
Y0308663D02*
Y0311453D01*
Y0308663D02*
X0447031Y0308472D01*
X0350658Y0362992D02*
X0359909D01*
X0350441Y0363209D02*
X0350658Y0362992D01*
X0399772Y0328740D02*
X0421658D01*
X0356661Y0358209D02*
X0357842D01*
X0416711Y0308836D02*
X0435154D01*
X0439157Y0307627D02*
Y0308472D01*
X0417291Y0310236D02*
X0434358D01*
X0409424Y0318104D02*
X0417291Y0310236D01*
X0434358D02*
X0443929Y0319807D01*
Y0321224D01*
X0443965Y0321260D01*
X0448394Y0321850D02*
X0448431D01*
Y0321888D02*
X0450764Y0324220D01*
X0466716D01*
X0398586Y0343209D02*
X0405559D01*
X0511500Y0321378D02*
X0511820Y0321058D01*
X0468039Y0313056D02*
Y0314187D01*
X0467848Y0314378D02*
X0468039Y0314187D01*
X0466716Y0314378D02*
X0467848D01*
X0474040Y0306946D02*
X0476107D01*
X0476543Y0307382D01*
X0481564Y0317520D02*
X0483631D01*
X0480283Y0316240D02*
X0481564Y0317520D01*
X0473856Y0316240D02*
X0480283D01*
X0472803Y0315187D02*
X0473856Y0316240D01*
X0483631Y0317520D02*
X0484221Y0318110D01*
X0458630Y0312992D02*
X0462567D01*
X0457017Y0311379D02*
X0458630Y0312992D01*
X0457017Y0308615D02*
Y0311379D01*
X0456874Y0308472D02*
X0457017Y0308615D01*
X0483630Y0310039D02*
X0484221Y0310630D01*
X0472803Y0311122D02*
Y0315187D01*
Y0311122D02*
X0475172Y0308753D01*
Y0308163D02*
Y0308753D01*
Y0308163D02*
X0475953Y0307382D01*
X0476543D01*
X0479791Y0310630D02*
X0484221D01*
X0478210Y0312211D02*
X0479791Y0310630D01*
X0478210Y0312211D02*
Y0312802D01*
X0477429Y0313583D02*
X0478210Y0312802D01*
X0476839Y0313583D02*
X0477429D01*
X0484221Y0310630D02*
X0487468D01*
X0478126Y0323917D02*
X0484319D01*
X0469949Y0332095D02*
X0478126Y0323917D01*
X0466716Y0332095D02*
X0469949D01*
X0477528Y0322342D02*
X0479988D01*
X0482652Y0319679D01*
Y0318891D02*
Y0319679D01*
Y0318891D02*
X0483433Y0318110D01*
X0484221D01*
X0469755Y0330115D02*
X0477528Y0322342D01*
X0466728Y0330115D02*
X0469755D01*
X0466716Y0330126D02*
X0466728Y0330115D01*
X0475384Y0356705D02*
X0475630Y0356459D01*
X0468838Y0356705D02*
X0475384D01*
X0456630Y0356458D02*
X0456876Y0356705D01*
X0463130D01*
X0460555Y0349945D02*
X0462079D01*
X0466674Y0354540D01*
X0467762D01*
X0468838Y0355616D01*
Y0356705D01*
X0456874Y0346264D02*
X0460555Y0349945D01*
X0456874Y0341937D02*
Y0346264D01*
X0454906Y0346276D02*
X0462067Y0353437D01*
Y0355642D01*
X0463130Y0356705D01*
X0454906Y0341937D02*
Y0346276D01*
X0448689Y0367815D02*
X0448689Y0367815D01*
X0448689Y0361713D02*
Y0367815D01*
X0450061Y0360341D02*
Y0360538D01*
X0448886Y0361713D02*
X0450061Y0360538D01*
X0448689Y0361713D02*
X0448886D01*
X0441996Y0356791D02*
X0442193D01*
X0436386D02*
X0441996D01*
X0436287Y0356693D02*
X0436386Y0356791D01*
X0440821Y0355616D02*
X0441996Y0356791D01*
X0440821Y0355420D02*
Y0355616D01*
X0439043Y0353642D02*
X0440821Y0355420D01*
X0439043Y0350689D02*
Y0353642D01*
X0348794Y0391726D02*
Y0392317D01*
Y0391726D02*
X0349575Y0390945D01*
X0350165D01*
X0344119Y0390987D02*
Y0392857D01*
Y0390987D02*
X0344161Y0390945D01*
X0338175Y0398802D02*
Y0400825D01*
X0337000Y0402000D02*
X0338175Y0400825D01*
X0338158Y0390945D02*
Y0393209D01*
X0333133Y0398233D02*
Y0400946D01*
X0332079Y0402000D02*
X0333133Y0400946D01*
X0332079Y0390945D02*
Y0394366D01*
X0328212Y0398233D02*
Y0400946D01*
X0327157Y0402000D02*
X0328212Y0400946D01*
D83*
X0421524Y0386024D02*
D03*
D84*
X0511500Y0316378D02*
D03*
X0506500Y0316063D02*
D03*
X0511500Y0321378D02*
D03*
X0506500D02*
D03*
X0511500Y0326378D02*
D03*
X0506500Y0326378D02*
D03*
D85*
X0511878Y0372933D02*
D03*
Y0381004D02*
D03*
D86*
X0396694Y0369552D02*
X0397988Y0368258D01*
Y0350800D02*
Y0368258D01*
X0396164Y0369552D02*
X0396694D01*
X0387075Y0376343D02*
X0393137Y0370281D01*
Y0358563D02*
Y0370281D01*
X0450502Y0337601D02*
X0460115D01*
X0462049Y0337499D02*
X0463422Y0338872D01*
X0462049Y0336800D02*
Y0337499D01*
X0459529Y0334280D02*
X0462049Y0336800D01*
X0463349Y0336960D02*
X0463961Y0337572D01*
X0463349Y0336261D02*
Y0336960D01*
X0460829Y0333742D02*
X0463349Y0336261D01*
X0459529Y0327376D02*
X0460717Y0326189D01*
X0460829Y0329309D02*
X0462053Y0328085D01*
X0460829Y0329309D02*
Y0333742D01*
X0459529Y0327376D02*
Y0334280D01*
X0462053Y0328085D02*
X0466644D01*
X0466716Y0328157D01*
X0460717Y0326189D02*
X0466716D01*
X0450401Y0337500D02*
X0450502Y0337601D01*
X0463961Y0337572D02*
X0465465D01*
X0449000Y0338901D02*
X0450401Y0337500D01*
X0448000Y0385433D02*
Y0391488D01*
X0431563Y0384449D02*
X0447169D01*
X0448000Y0385280D01*
Y0385433D01*
X0430776Y0385236D02*
X0431563Y0384449D01*
X0427429Y0385236D02*
X0430776D01*
X0433630Y0386811D02*
X0434122Y0387303D01*
X0427429Y0386811D02*
X0433630D01*
X0430442Y0391694D02*
X0431760Y0393012D01*
X0434024D01*
X0430442Y0389272D02*
Y0391694D01*
X0429557Y0388386D02*
X0430442Y0389272D01*
X0427429Y0388386D02*
X0429557D01*
X0433630Y0348917D02*
X0433827Y0349114D01*
X0433630Y0346835D02*
Y0348917D01*
X0359241Y0388800D02*
X0385521D01*
X0404737Y0385969D02*
X0406071Y0387303D01*
X0404737Y0385772D02*
Y0385969D01*
X0403905Y0384941D02*
X0404737Y0385772D01*
X0406071Y0387303D02*
Y0392421D01*
X0404791Y0393701D02*
X0406071Y0392421D01*
X0388174Y0393701D02*
X0404791D01*
X0387764Y0393291D02*
X0388174Y0393701D01*
X0387764Y0391043D02*
Y0393291D01*
X0385521Y0388800D02*
X0387764Y0391043D01*
X0389393Y0390015D02*
X0390378D01*
X0387075Y0376343D02*
Y0387697D01*
X0389393Y0390015D01*
X0390378D02*
X0391209Y0390846D01*
X0402724D02*
X0403315D01*
X0401893Y0390015D02*
X0402724Y0390846D01*
X0401893Y0389425D02*
Y0390015D01*
X0398733Y0386264D02*
X0401893Y0389425D01*
X0398733Y0385772D02*
Y0386264D01*
X0397902Y0384941D02*
X0398733Y0385772D01*
X0397311Y0384941D02*
X0397902D01*
X0395917Y0387598D02*
X0396327Y0387188D01*
Y0385772D02*
Y0387188D01*
Y0385772D02*
X0397158Y0384941D01*
X0397311D01*
X0389339Y0387598D02*
X0395917D01*
X0388453Y0386713D02*
X0389339Y0387598D01*
X0388453Y0377264D02*
Y0386713D01*
Y0377264D02*
X0396164Y0369552D01*
X0397988Y0350800D02*
X0400579Y0348209D01*
X0450618Y0376535D02*
X0450953Y0376870D01*
X0450618Y0370459D02*
Y0376535D01*
X0431655Y0398924D02*
X0433728Y0396850D01*
X0467390Y0386580D02*
X0477857D01*
X0433728Y0396850D02*
X0443406D01*
X0444410Y0395846D01*
X0458124D01*
X0467390Y0386580D01*
X0441898Y0400197D02*
X0444949Y0397146D01*
X0468090Y0387880D02*
X0478396D01*
X0444949Y0397146D02*
X0458825D01*
X0468090Y0387880D01*
X0433630Y0346835D02*
X0435165Y0345299D01*
X0442464D02*
X0443094Y0344669D01*
Y0341937D02*
Y0344669D01*
X0435165Y0345299D02*
X0442464D01*
X0450969Y0370079D02*
X0453527Y0367520D01*
X0438756Y0320284D02*
X0444358Y0325886D01*
X0433252Y0320284D02*
X0438756D01*
X0499968Y0322158D02*
X0500748Y0321378D01*
X0381291Y0402000D02*
X0381421Y0401870D01*
Y0391776D02*
Y0401870D01*
X0366252Y0401725D02*
X0366528Y0402000D01*
X0366252Y0391776D02*
Y0401725D01*
X0342468Y0337958D02*
X0344119Y0339609D01*
X0342468Y0330466D02*
Y0337958D01*
X0370835Y0346752D02*
Y0385039D01*
X0367291Y0343209D02*
X0370835Y0346752D01*
X0362661Y0333209D02*
X0363242Y0333790D01*
Y0383471D01*
X0364810Y0385039D01*
X0361942Y0338790D02*
Y0386481D01*
X0361361Y0338209D02*
X0361942Y0338790D01*
Y0386481D02*
X0362961Y0387500D01*
X0381661D01*
X0355480Y0385039D02*
X0359241Y0388800D01*
X0338846Y0378150D02*
X0339868Y0377128D01*
X0336090Y0378150D02*
X0338568Y0375672D01*
Y0328850D02*
Y0375672D01*
X0333335Y0378150D02*
X0337268Y0374217D01*
Y0328312D02*
Y0374217D01*
X0478396Y0387880D02*
X0482293Y0383983D01*
Y0352561D02*
Y0383983D01*
X0477857Y0386580D02*
X0480993Y0383444D01*
Y0353099D02*
Y0383444D01*
X0465465Y0337572D02*
X0480993Y0353099D01*
X0471130Y0341398D02*
X0482293Y0352561D01*
X0450618Y0370459D02*
X0450969Y0370108D01*
Y0370079D02*
Y0370108D01*
X0453527Y0367520D02*
X0477921D01*
X0479693Y0365748D01*
X0474378Y0392028D02*
X0474575Y0391831D01*
X0474378Y0392028D02*
Y0396654D01*
X0467685D02*
X0467783Y0396555D01*
Y0391535D02*
Y0396555D01*
X0464927Y0338872D02*
X0479693Y0353638D01*
Y0365748D01*
X0346125Y0319454D02*
X0426347D01*
X0337268Y0328312D02*
X0346125Y0319454D01*
X0346664Y0320754D02*
X0425809D01*
X0338568Y0328850D02*
X0346664Y0320754D01*
X0347202Y0322054D02*
X0425271D01*
X0339868Y0329388D02*
X0347202Y0322054D01*
X0339868Y0329388D02*
Y0377128D01*
X0347670Y0323425D02*
X0424279D01*
X0341168Y0329927D02*
Y0339702D01*
Y0329927D02*
X0347670Y0323425D01*
X0348208Y0324725D02*
X0423513D01*
X0342468Y0330466D02*
X0348208Y0324725D01*
X0348731Y0326040D02*
X0422777D01*
X0343768Y0331004D02*
X0348731Y0326040D01*
X0343768Y0331004D02*
Y0336140D01*
X0428890Y0334063D02*
X0433252D01*
X0422218Y0327390D02*
X0428890Y0334063D01*
X0428831Y0332095D02*
X0433252D01*
X0422777Y0326040D02*
X0428831Y0332095D01*
X0423513Y0324725D02*
X0428913Y0330126D01*
X0426347Y0319454D02*
X0429145Y0322252D01*
X0425809Y0320754D02*
X0429276Y0324220D01*
X0425271Y0322054D02*
X0429405Y0326189D01*
X0364810Y0385039D02*
X0364831D01*
X0351431Y0333209D02*
X0362661D01*
X0350441Y0338209D02*
X0361361D01*
X0350444Y0343212D02*
X0359815D01*
X0350441Y0343209D02*
X0350444Y0343212D01*
X0350165Y0385039D02*
X0355480D01*
X0381661Y0387500D02*
X0382301Y0386860D01*
X0399922Y0355503D02*
X0400094D01*
X0400966Y0354630D01*
X0404137D01*
X0405559Y0353209D01*
X0391209Y0390846D02*
X0391209Y0390846D01*
X0397311D01*
X0400579Y0348209D02*
X0405559D01*
X0483972Y0391535D02*
X0484020Y0391488D01*
X0467685Y0402559D02*
Y0409410D01*
X0474378Y0402559D02*
Y0409457D01*
X0471130Y0338287D02*
Y0341398D01*
X0441083Y0401209D02*
X0441996Y0400295D01*
X0441083Y0401209D02*
Y0407953D01*
X0441898Y0400197D02*
X0441996Y0400295D01*
X0500748Y0321378D02*
X0506500D01*
X0463422Y0338872D02*
X0464927D01*
X0449000Y0338901D02*
Y0341937D01*
X0346843Y0408685D02*
X0347213Y0409055D01*
X0346843Y0402000D02*
Y0408685D01*
X0361583Y0402024D02*
X0361606Y0402000D01*
X0361583Y0402024D02*
Y0409154D01*
X0462272Y0321949D02*
X0463808Y0320412D01*
X0466587D01*
X0466716Y0320284D01*
X0461878Y0319291D02*
X0462854Y0318315D01*
X0466716D01*
X0351642Y0396555D02*
X0351764Y0396677D01*
Y0402000D01*
X0356465Y0401780D02*
X0356685Y0402000D01*
X0356465Y0396555D02*
Y0401780D01*
X0448303Y0312797D02*
X0448436D01*
X0449000Y0312233D01*
Y0308472D02*
Y0312233D01*
X0450953Y0313295D02*
X0450969Y0313280D01*
Y0308472D02*
Y0313280D01*
X0381421Y0391776D02*
X0382252Y0390945D01*
X0382842D01*
X0376370Y0391413D02*
Y0402000D01*
Y0391413D02*
X0376839Y0390945D01*
X0371449Y0391559D02*
Y0402000D01*
X0370835Y0390945D02*
X0371449Y0391559D01*
X0365421Y0390945D02*
X0366252Y0391776D01*
X0364831Y0390945D02*
X0365421D01*
X0376839Y0351870D02*
Y0385039D01*
X0373492Y0348524D02*
X0376839Y0351870D01*
X0359594Y0348209D02*
X0360008Y0348622D01*
X0350441Y0348209D02*
X0359594D01*
X0382301Y0385581D02*
Y0386860D01*
Y0385581D02*
X0382842Y0385039D01*
X0350441Y0333209D02*
X0351431D01*
X0350441Y0358209D02*
X0356661D01*
X0429358Y0412303D02*
X0430283Y0411378D01*
Y0400295D02*
Y0411378D01*
X0431065Y0398924D02*
X0431655D01*
X0430283Y0399705D02*
X0431065Y0398924D01*
X0430283Y0399705D02*
Y0400295D01*
X0429145Y0322252D02*
X0433252D01*
X0429276Y0324220D02*
X0433252D01*
X0429405Y0326189D02*
X0433252D01*
X0343768Y0345276D02*
X0345477Y0346985D01*
X0349217D01*
X0350441Y0348209D01*
X0344674Y0343209D02*
X0350441D01*
X0343965Y0339764D02*
X0344119Y0339609D01*
X0341168Y0339702D02*
X0344674Y0343209D01*
X0424279Y0323425D02*
X0429012Y0328157D01*
X0433252D01*
X0428913Y0330126D02*
X0433252D01*
X0356259Y0327390D02*
X0422218D01*
X0343768Y0336140D02*
X0345470Y0337843D01*
X0350075D01*
X0350441Y0338209D01*
X0352853Y0330797D02*
X0356259Y0327390D01*
X0352853Y0330797D02*
Y0331787D01*
X0351431Y0333209D02*
X0352853Y0331787D01*
X0444949Y0350689D02*
X0446819D01*
X0450969Y0346539D01*
Y0341937D02*
Y0346539D01*
D87*
X0407547Y0402000D02*
X0409055D01*
X0391134D02*
X0407547D01*
X0455356Y0315336D02*
X0455481Y0315462D01*
X0452552Y0374177D02*
X0456320Y0377945D01*
X0452552Y0371260D02*
Y0374177D01*
X0455121Y0373210D02*
X0457356Y0375445D01*
X0455121Y0371260D02*
Y0373210D01*
X0492685Y0356221D02*
Y0363779D01*
X0492567Y0356102D02*
X0492685Y0356221D01*
X0499299Y0356102D02*
X0507055D01*
Y0354512D02*
Y0356102D01*
Y0354512D02*
X0514831Y0346736D01*
X0483972Y0391535D02*
X0484071Y0391634D01*
X0490421D01*
X0499083D01*
X0501150Y0389567D01*
X0501543D01*
X0491581Y0375295D02*
X0492437Y0374439D01*
X0490952Y0375295D02*
X0491581D01*
X0488590Y0372933D02*
X0490952Y0375295D01*
X0488590Y0380413D02*
X0491080Y0377923D01*
X0487272Y0380413D02*
X0488590D01*
X0487272Y0372933D02*
X0488590D01*
X0500628Y0374439D02*
X0500658Y0374409D01*
X0492437Y0374439D02*
X0500628D01*
X0491080Y0377923D02*
X0492488D01*
X0500628Y0376939D02*
X0500658Y0376969D01*
X0493472Y0376939D02*
X0500628D01*
X0492488Y0377923D02*
X0493472Y0376939D01*
X0493555Y0363906D02*
Y0369397D01*
X0496009Y0371850D01*
X0501543Y0389567D02*
X0507969D01*
X0509248Y0388287D01*
X0511089D01*
Y0381793D02*
Y0388287D01*
Y0381793D02*
X0511878Y0381004D01*
Y0372933D02*
Y0381004D01*
X0511089Y0372144D02*
X0511878Y0372933D01*
X0511089Y0365650D02*
Y0372144D01*
X0509248Y0365650D02*
X0511089D01*
X0507969Y0364370D02*
X0509248Y0365650D01*
X0501543Y0364370D02*
X0507969D01*
X0505874Y0347835D02*
X0506465D01*
X0504693Y0346654D02*
X0505874Y0347835D01*
X0499673Y0346654D02*
X0504693D01*
X0499673Y0339173D02*
X0503709D01*
X0505443Y0340908D01*
Y0341498D01*
X0505874Y0341929D01*
X0506465D01*
X0512173D01*
X0514634Y0344390D01*
X0514831Y0344587D01*
Y0346736D01*
X0496009Y0371850D02*
X0500658D01*
X0452552Y0371260D02*
X0452587Y0371294D01*
X0429496Y0338583D02*
X0430283Y0339370D01*
X0421032Y0338583D02*
X0429496D01*
X0420933Y0338681D02*
X0421032Y0338583D01*
X0415520Y0338681D02*
X0420933D01*
X0415520D02*
X0416211Y0339372D01*
Y0341321D01*
X0418593Y0343703D01*
Y0344254D01*
X0420185Y0345847D01*
X0420736D01*
X0426447Y0352559D02*
X0426642D01*
X0426427Y0352579D02*
X0426447Y0352559D01*
X0420736Y0352579D02*
X0426427D01*
X0405559Y0358209D02*
X0405618Y0358268D01*
X0413535D01*
X0415768Y0360500D01*
X0421673D01*
X0421937Y0360236D02*
X0426346D01*
X0421673Y0360500D02*
X0421937Y0360236D01*
X0409055Y0402000D02*
X0418718Y0411663D01*
X0452965Y0316481D02*
X0454791Y0318307D01*
X0455356Y0315187D02*
Y0315336D01*
X0455305Y0315137D02*
X0455356Y0315187D01*
X0455087Y0371294D02*
X0455121Y0371260D01*
X0459577Y0373876D02*
Y0374466D01*
X0458598Y0375445D02*
X0459577Y0374466D01*
X0457356Y0375445D02*
X0458598D01*
X0456320Y0377945D02*
X0458698D01*
X0459577Y0373876D02*
X0460008Y0373445D01*
X0459577Y0379514D02*
X0460008Y0379945D01*
X0459577Y0378823D02*
Y0379514D01*
X0458698Y0377945D02*
X0459577Y0378823D01*
X0475126Y0372933D02*
X0476445D01*
X0472636Y0375423D02*
X0475126Y0372933D01*
X0475126Y0380413D02*
X0476445D01*
X0472636Y0377923D02*
X0475126Y0380413D01*
X0468935Y0375423D02*
X0472636D01*
X0468913Y0375445D02*
X0468935Y0375423D01*
X0467223Y0375445D02*
X0468913D01*
X0466344Y0374566D02*
X0467223Y0375445D01*
X0466344Y0373876D02*
Y0374566D01*
X0465913Y0373445D02*
X0466344Y0373876D01*
X0469971Y0377923D02*
X0472636D01*
X0469949Y0377945D02*
X0469971Y0377923D01*
X0467223Y0377945D02*
X0469949D01*
X0466344Y0378823D02*
X0467223Y0377945D01*
X0466344Y0378823D02*
Y0379514D01*
X0465913Y0379945D02*
X0466344Y0379514D01*
D88*
X0429358Y0412303D02*
D03*
X0356917Y0289862D02*
D03*
X0456996D02*
D03*
X0416976D02*
D03*
D89*
X0419358Y0412303D02*
D03*
X0366917Y0289862D02*
D03*
X0376917D02*
D03*
X0386917D02*
D03*
X0396917D02*
D03*
X0406917D02*
D03*
X0486996D02*
D03*
X0476996D02*
D03*
X0466996D02*
D03*
X0446976D02*
D03*
X0436976D02*
D03*
X0426976D02*
D03*
D90*
X0505000Y0311378D02*
D03*
X0513000Y0311378D02*
D03*
X0509000Y0331378D02*
D03*
D91*
X0511089Y0365650D02*
D03*
Y0388287D02*
D03*
D92*
X0328610Y0303051D02*
D03*
Y0300787D02*
D03*
Y0298524D02*
D03*
Y0296260D02*
D03*
Y0293996D02*
D03*
Y0291732D02*
D03*
Y0289469D02*
D03*
Y0287205D02*
D03*
Y0284941D02*
D03*
Y0326083D02*
D03*
Y0328346D02*
D03*
Y0330610D02*
D03*
Y0332874D02*
D03*
Y0335138D02*
D03*
Y0337402D02*
D03*
Y0339665D02*
D03*
Y0341929D02*
D03*
Y0344193D02*
D03*
Y0346457D02*
D03*
Y0348721D02*
D03*
Y0350984D02*
D03*
Y0353248D02*
D03*
Y0355512D02*
D03*
Y0357776D02*
D03*
Y0360039D02*
D03*
Y0362303D02*
D03*
Y0364567D02*
D03*
Y0366831D02*
D03*
Y0369094D02*
D03*
Y0371358D02*
D03*
Y0373622D02*
D03*
X0329496Y0323622D02*
D03*
X0332154D02*
D03*
X0334909Y0323524D02*
D03*
X0338158Y0319783D02*
D03*
X0342488Y0311910D02*
D03*
X0343374Y0309252D02*
D03*
X0333502Y0306820D02*
D03*
X0335613Y0304732D02*
D03*
X0338089Y0303095D02*
D03*
X0341016Y0303590D02*
D03*
X0340682Y0309232D02*
D03*
X0338094Y0316782D02*
D03*
X0358335Y0370768D02*
D03*
X0355185Y0374803D02*
D03*
X0347114D02*
D03*
X0421622Y0370374D02*
D03*
X0415717Y0370472D02*
D03*
X0395893Y0367618D02*
D03*
X0393137Y0358563D02*
D03*
X0515748Y0330709D02*
D03*
X0511811Y0307087D02*
D03*
X0503937D02*
D03*
X0496063Y0385827D02*
D03*
Y0338583D02*
D03*
X0492126Y0409449D02*
D03*
X0488189Y0401575D02*
D03*
Y0385827D02*
D03*
Y0370079D02*
D03*
Y0354331D02*
D03*
X0480315Y0401575D02*
D03*
X0484252Y0346457D02*
D03*
X0480315Y0307087D02*
D03*
X0472441Y0370079D02*
D03*
Y0354331D02*
D03*
X0468504Y0362205D02*
D03*
Y0346457D02*
D03*
X0464567Y0307087D02*
D03*
X0460630Y0409449D02*
D03*
X0456693Y0401575D02*
D03*
Y0385827D02*
D03*
X0460630Y0362205D02*
D03*
X0452756Y0409449D02*
D03*
X0444882D02*
D03*
Y0377953D02*
D03*
X0437008Y0409449D02*
D03*
X0433071Y0401575D02*
D03*
X0437008Y0377953D02*
D03*
X0417323Y0401575D02*
D03*
X0413386Y0346457D02*
D03*
X0401575Y0291339D02*
D03*
X0393701Y0307087D02*
D03*
X0389764Y0409449D02*
D03*
Y0362205D02*
D03*
Y0346457D02*
D03*
X0385827Y0338583D02*
D03*
X0389764Y0330709D02*
D03*
X0385827Y0307087D02*
D03*
X0381890Y0409449D02*
D03*
Y0377953D02*
D03*
Y0362205D02*
D03*
Y0346457D02*
D03*
X0377953Y0338583D02*
D03*
X0381890Y0330709D02*
D03*
X0377953Y0307087D02*
D03*
X0374016Y0409449D02*
D03*
Y0377953D02*
D03*
Y0362205D02*
D03*
X0370079Y0338583D02*
D03*
X0374016Y0330709D02*
D03*
X0370079Y0307087D02*
D03*
X0366142Y0409449D02*
D03*
Y0330709D02*
D03*
X0362205Y0307087D02*
D03*
Y0291339D02*
D03*
X0358268Y0330709D02*
D03*
Y0299213D02*
D03*
X0350394Y0409449D02*
D03*
X0346457Y0291339D02*
D03*
X0342520Y0409449D02*
D03*
Y0314961D02*
D03*
Y0299213D02*
D03*
X0338583Y0291339D02*
D03*
X0334646Y0409449D02*
D03*
X0330709Y0370079D02*
D03*
Y0354331D02*
D03*
Y0338583D02*
D03*
X0334646Y0299213D02*
D03*
X0428183Y0317421D02*
D03*
X0472213Y0333563D02*
D03*
X0480677Y0313681D02*
D03*
X0413650Y0317421D02*
D03*
X0460115Y0337601D02*
D03*
X0440126Y0336122D02*
D03*
X0462665Y0346260D02*
D03*
X0410408Y0379729D02*
D03*
X0413059Y0379823D02*
D03*
X0462764Y0332874D02*
D03*
X0462854Y0330020D02*
D03*
X0428217Y0392618D02*
D03*
X0470835Y0322146D02*
D03*
X0433827Y0349114D02*
D03*
X0397409Y0373228D02*
D03*
X0450953Y0376870D02*
D03*
X0420024Y0384024D02*
D03*
Y0388024D02*
D03*
X0423024Y0384024D02*
D03*
Y0388024D02*
D03*
X0475264Y0295021D02*
D03*
X0331268Y0395669D02*
D03*
X0345342Y0395768D02*
D03*
X0341147Y0395830D02*
D03*
X0335697Y0395669D02*
D03*
X0367291Y0343209D02*
D03*
X0485303Y0384055D02*
D03*
X0499968Y0350787D02*
D03*
X0478396Y0369488D02*
D03*
X0474575Y0391831D02*
D03*
X0467783Y0391535D02*
D03*
X0336090Y0378150D02*
D03*
X0338846D02*
D03*
X0333335D02*
D03*
X0330579D02*
D03*
X0493472Y0287303D02*
D03*
Y0292520D02*
D03*
X0515323Y0321058D02*
D03*
X0515421Y0326378D02*
D03*
X0514940Y0316549D02*
D03*
X0489142Y0297736D02*
D03*
X0432653Y0284843D02*
D03*
X0452552Y0371260D02*
D03*
X0430283Y0339370D02*
D03*
X0426642Y0352559D02*
D03*
X0426346Y0360236D02*
D03*
X0398492Y0314272D02*
D03*
X0476543Y0340650D02*
D03*
X0473689Y0322933D02*
D03*
X0479398Y0326673D02*
D03*
X0417882Y0317520D02*
D03*
X0465126Y0297244D02*
D03*
X0477429Y0297539D02*
D03*
X0358728Y0378839D02*
D03*
X0365913Y0378248D02*
D03*
X0359815Y0343212D02*
D03*
X0394561Y0353547D02*
D03*
X0399922Y0355503D02*
D03*
X0444358Y0325886D02*
D03*
X0471130Y0338287D02*
D03*
X0499968Y0322158D02*
D03*
X0347213Y0409055D02*
D03*
X0361583Y0409154D02*
D03*
X0462272Y0321949D02*
D03*
X0461878Y0319291D02*
D03*
X0449189Y0316734D02*
D03*
X0351642Y0396555D02*
D03*
X0356465D02*
D03*
X0448303Y0312797D02*
D03*
X0450953Y0313295D02*
D03*
X0373492Y0348524D02*
D03*
X0360008Y0348622D02*
D03*
X0359909Y0362992D02*
D03*
X0357842Y0358209D02*
D03*
X0445146Y0316634D02*
D03*
X0443965Y0321260D02*
D03*
X0448394Y0321850D02*
D03*
X0343768Y0345276D02*
D03*
X0343965Y0339764D02*
D03*
X0454791Y0318307D02*
D03*
X0455390Y0315553D02*
D03*
X0455121Y0371260D02*
D03*
M02*
