G04*
G04 #@! TF.GenerationSoftware,Altium Limited,Altium Designer,19.0.14 (431)*
G04*
G04 Layer_Color=65535*
%FSAX25Y25*%
%MOIN*%
G70*
G01*
G75*
%ADD10C,0.00984*%
%ADD11C,0.00709*%
%ADD12C,0.01181*%
%ADD13C,0.01968*%
%ADD14C,0.02362*%
%ADD15C,0.00787*%
%ADD16C,0.00394*%
%ADD17C,0.01000*%
%ADD18C,0.00315*%
%ADD19C,0.00591*%
D10*
X0487764Y0369587D02*
G03*
X0487764Y0369587I-0000492J0000000D01*
G01*
X0415913Y0376772D02*
G03*
X0415913Y0376772I-0000492J0000000D01*
G01*
X0500165Y0335827D02*
G03*
X0500165Y0335827I-0000492J0000000D01*
G01*
X0484713Y0321457D02*
G03*
X0484713Y0321457I-0000492J0000000D01*
G01*
X0464059Y0341937D02*
G03*
X0464059Y0341937I-0000492J0000000D01*
G01*
D11*
X0314771Y0375031D02*
G03*
X0309634Y0375134I-0002598J-0001421D01*
G01*
X0313820Y0373610D02*
G03*
X0313820Y0373610I-0001646J0000000D01*
G01*
X0304158Y0376110D02*
G03*
X0304055Y0370973I0001421J-0002598D01*
G01*
X0295775Y0372386D02*
G03*
X0290638Y0372488I-0002598J-0001421D01*
G01*
X0309634Y0375134D02*
X0311029D01*
X0309634D02*
Y0376528D01*
X0302763Y0376110D02*
X0304158D01*
Y0374715D02*
Y0376110D01*
X0294380Y0372386D02*
X0295775D01*
Y0373780D01*
X0311484Y0369881D02*
X0313583D01*
Y0369356D01*
X0311484Y0367257D01*
Y0366732D01*
X0313583D01*
X0301839Y0369684D02*
Y0369159D01*
X0302888Y0368110D01*
X0303938Y0369159D01*
Y0369684D01*
X0302888Y0368110D02*
Y0366535D01*
X0291799Y0369684D02*
X0293898Y0366535D01*
Y0369684D02*
X0291799Y0366535D01*
X0409609Y0407185D02*
X0412758D01*
Y0408759D01*
X0412233Y0409284D01*
X0411708D01*
X0411184Y0408759D01*
Y0407185D01*
Y0408759D01*
X0410659Y0409284D01*
X0410134D01*
X0409609Y0408759D01*
Y0407185D01*
Y0411908D02*
Y0410858D01*
X0410134Y0410334D01*
X0412233D01*
X0412758Y0410858D01*
Y0411908D01*
X0412233Y0412433D01*
X0410134D01*
X0409609Y0411908D01*
Y0415057D02*
Y0414007D01*
X0410134Y0413482D01*
X0412233D01*
X0412758Y0414007D01*
Y0415057D01*
X0412233Y0415581D01*
X0410134D01*
X0409609Y0415057D01*
Y0416631D02*
Y0418730D01*
Y0417680D01*
X0412758D01*
X0288158Y0381987D02*
Y0378839D01*
X0290257D01*
X0292880Y0381987D02*
X0291831D01*
X0291306Y0381462D01*
Y0379363D01*
X0291831Y0378839D01*
X0292880D01*
X0293405Y0379363D01*
Y0381462D01*
X0292880Y0381987D01*
X0294455Y0378839D02*
Y0381987D01*
X0296029D01*
X0296554Y0381462D01*
Y0380413D01*
X0296029Y0379888D01*
X0294455D01*
X0295504D02*
X0296554Y0378839D01*
X0297603D02*
Y0380938D01*
X0298653Y0381987D01*
X0299702Y0380938D01*
Y0378839D01*
Y0380413D01*
X0297603D01*
X0303900Y0381987D02*
Y0378839D01*
X0305475D01*
X0305999Y0379363D01*
Y0379888D01*
X0305475Y0380413D01*
X0303900D01*
X0305475D01*
X0305999Y0380938D01*
Y0381462D01*
X0305475Y0381987D01*
X0303900D01*
X0308623D02*
X0307574D01*
X0307049Y0381462D01*
Y0379363D01*
X0307574Y0378839D01*
X0308623D01*
X0309148Y0379363D01*
Y0381462D01*
X0308623Y0381987D01*
X0310198Y0378839D02*
Y0380938D01*
X0311247Y0381987D01*
X0312297Y0380938D01*
Y0378839D01*
Y0380413D01*
X0310198D01*
X0313346Y0378839D02*
Y0381987D01*
X0314920D01*
X0315445Y0381462D01*
Y0380413D01*
X0314920Y0379888D01*
X0313346D01*
X0314396D02*
X0315445Y0378839D01*
X0316495Y0381987D02*
Y0378839D01*
X0318069D01*
X0318594Y0379363D01*
Y0381462D01*
X0318069Y0381987D01*
X0316495D01*
X0288256Y0386646D02*
X0289305Y0384547D01*
X0290355Y0386646D01*
X0291405Y0387171D02*
X0291929Y0387696D01*
X0292979D01*
X0293503Y0387171D01*
Y0385072D01*
X0292979Y0384547D01*
X0291929D01*
X0291405Y0385072D01*
Y0387171D01*
X0294553Y0384022D02*
X0296652D01*
X0299801Y0384547D02*
X0297702D01*
X0299801Y0386646D01*
Y0387171D01*
X0299276Y0387696D01*
X0298226D01*
X0297702Y0387171D01*
X0300850Y0386122D02*
X0302949D01*
X0306098Y0384547D02*
X0303999D01*
X0306098Y0386646D01*
Y0387171D01*
X0305573Y0387696D01*
X0304524D01*
X0303999Y0387171D01*
X0309246Y0384547D02*
X0307147D01*
X0309246Y0386646D01*
Y0387171D01*
X0308722Y0387696D01*
X0307672D01*
X0307147Y0387171D01*
X0312395D02*
X0311870Y0387696D01*
X0310821D01*
X0310296Y0387171D01*
Y0386646D01*
X0310821Y0386122D01*
X0311870D01*
X0312395Y0385597D01*
Y0385072D01*
X0311870Y0384547D01*
X0310821D01*
X0310296Y0385072D01*
X0288158Y0393208D02*
X0289207D01*
X0288682D01*
Y0390059D01*
X0288158D01*
X0289207D01*
X0290781D02*
Y0393208D01*
X0292356D01*
X0292880Y0392683D01*
Y0391633D01*
X0292356Y0391109D01*
X0290781D01*
X0291831D02*
X0292880Y0390059D01*
X0293930D02*
Y0393208D01*
X0296029Y0390059D01*
Y0393208D01*
X0297078Y0390059D02*
Y0392158D01*
X0298128Y0393208D01*
X0299178Y0392158D01*
Y0390059D01*
Y0391633D01*
X0297078D01*
X0302326Y0392683D02*
X0301801Y0393208D01*
X0300752D01*
X0300227Y0392683D01*
Y0392158D01*
X0300752Y0391633D01*
X0301801D01*
X0302326Y0391109D01*
Y0390584D01*
X0301801Y0390059D01*
X0300752D01*
X0300227Y0390584D01*
X0303376Y0390059D02*
Y0390584D01*
X0303900D01*
Y0390059D01*
X0303376D01*
X0308099Y0393208D02*
X0305999D01*
Y0390059D01*
X0308099D01*
X0305999Y0391633D02*
X0307049D01*
X0309148Y0393208D02*
Y0390584D01*
X0309673Y0390059D01*
X0310722D01*
X0311247Y0390584D01*
Y0393208D01*
X0482941Y0298818D02*
Y0296719D01*
X0483990Y0295669D01*
X0485040Y0296719D01*
Y0298818D01*
X0488189Y0298293D02*
X0487664Y0298818D01*
X0486614D01*
X0486090Y0298293D01*
Y0296194D01*
X0486614Y0295669D01*
X0487664D01*
X0488189Y0296194D01*
X0491337Y0298293D02*
X0490812Y0298818D01*
X0489763D01*
X0489238Y0298293D01*
Y0296194D01*
X0489763Y0295669D01*
X0490812D01*
X0491337Y0296194D01*
X0454135Y0297899D02*
X0453610Y0298424D01*
X0452560D01*
X0452035Y0297899D01*
Y0295800D01*
X0452560Y0295276D01*
X0453610D01*
X0454135Y0295800D01*
Y0296850D01*
X0453085D01*
X0455184Y0295276D02*
Y0298424D01*
X0457283Y0295276D01*
Y0298424D01*
X0458333D02*
Y0295276D01*
X0459907D01*
X0460432Y0295800D01*
Y0297899D01*
X0459907Y0298424D01*
X0458333D01*
X0473787Y0298487D02*
X0475886D01*
X0474837D01*
Y0295339D01*
X0476936Y0298487D02*
X0479035Y0295339D01*
Y0298487D02*
X0476936Y0295339D01*
X0463846Y0295276D02*
Y0298424D01*
X0465421D01*
X0465945Y0297899D01*
Y0296850D01*
X0465421Y0296325D01*
X0463846D01*
X0464896D02*
X0465945Y0295276D01*
X0466995Y0298424D02*
X0469094Y0295276D01*
Y0298424D02*
X0466995Y0295276D01*
X0437108Y0297276D02*
X0436584Y0296751D01*
Y0295702D01*
X0437108Y0295177D01*
X0437633D01*
X0438158Y0295702D01*
Y0296751D01*
X0438683Y0297276D01*
X0439208D01*
X0439732Y0296751D01*
Y0295702D01*
X0439208Y0295177D01*
X0436584Y0298326D02*
X0439732D01*
Y0299900D01*
X0439208Y0300425D01*
X0437108D01*
X0436584Y0299900D01*
Y0298326D01*
X0439732Y0301474D02*
X0437633D01*
X0436584Y0302524D01*
X0437633Y0303573D01*
X0439732D01*
X0438158D01*
Y0301474D01*
X0427069Y0297768D02*
X0426544Y0297244D01*
Y0296194D01*
X0427069Y0295669D01*
X0427594D01*
X0428119Y0296194D01*
Y0297244D01*
X0428643Y0297768D01*
X0429168D01*
X0429693Y0297244D01*
Y0296194D01*
X0429168Y0295669D01*
X0427069Y0300917D02*
X0426544Y0300392D01*
Y0299343D01*
X0427069Y0298818D01*
X0429168D01*
X0429693Y0299343D01*
Y0300392D01*
X0429168Y0300917D01*
X0426544Y0301967D02*
X0429693D01*
Y0304065D01*
X0446360Y0298064D02*
X0445836Y0297539D01*
Y0296489D01*
X0446360Y0295965D01*
X0448459D01*
X0448984Y0296489D01*
Y0297539D01*
X0448459Y0298064D01*
X0447410D01*
Y0297014D01*
X0448984Y0299113D02*
X0445836D01*
X0448984Y0301212D01*
X0445836D01*
Y0302262D02*
X0448984D01*
Y0303836D01*
X0448459Y0304361D01*
X0446360D01*
X0445836Y0303836D01*
Y0302262D01*
X0415619Y0296260D02*
X0417718D01*
X0418768Y0297309D01*
X0417718Y0298359D01*
X0415619D01*
X0416144Y0301507D02*
X0415619Y0300983D01*
Y0299933D01*
X0416144Y0299408D01*
X0418243D01*
X0418768Y0299933D01*
Y0300983D01*
X0418243Y0301507D01*
X0416144Y0304656D02*
X0415619Y0304131D01*
Y0303082D01*
X0416144Y0302557D01*
X0418243D01*
X0418768Y0303082D01*
Y0304131D01*
X0418243Y0304656D01*
X0389438Y0407185D02*
X0391537D01*
X0392587Y0408235D01*
X0391537Y0409284D01*
X0389438D01*
X0389963Y0412433D02*
X0389438Y0411908D01*
Y0410858D01*
X0389963Y0410334D01*
X0392062D01*
X0392587Y0410858D01*
Y0411908D01*
X0392062Y0412433D01*
X0389963Y0415581D02*
X0389438Y0415057D01*
Y0414007D01*
X0389963Y0413482D01*
X0392062D01*
X0392587Y0414007D01*
Y0415057D01*
X0392062Y0415581D01*
X0384943Y0409284D02*
X0384418Y0408759D01*
Y0407710D01*
X0384943Y0407185D01*
X0387042D01*
X0387567Y0407710D01*
Y0408759D01*
X0387042Y0409284D01*
X0385993D01*
Y0408235D01*
X0387567Y0410334D02*
X0384418D01*
X0387567Y0412433D01*
X0384418D01*
Y0413482D02*
X0387567D01*
Y0415057D01*
X0387042Y0415581D01*
X0384943D01*
X0384418Y0415057D01*
Y0413482D01*
X0379825Y0409284D02*
X0379300Y0408759D01*
Y0407710D01*
X0379825Y0407185D01*
X0381924D01*
X0382449Y0407710D01*
Y0408759D01*
X0381924Y0409284D01*
X0379300Y0410334D02*
X0382449D01*
Y0412433D01*
X0379300Y0413482D02*
X0382449D01*
X0381399D01*
X0379300Y0415581D01*
X0380874Y0414007D01*
X0382449Y0415581D01*
X0374904Y0409382D02*
X0374379Y0408858D01*
Y0407808D01*
X0374904Y0407283D01*
X0375429D01*
X0375953Y0407808D01*
Y0408858D01*
X0376478Y0409382D01*
X0377003D01*
X0377528Y0408858D01*
Y0407808D01*
X0377003Y0407283D01*
X0374379Y0412006D02*
Y0410957D01*
X0374904Y0410432D01*
X0377003D01*
X0377528Y0410957D01*
Y0412006D01*
X0377003Y0412531D01*
X0374904D01*
X0374379Y0412006D01*
X0369983Y0409579D02*
X0369458Y0409055D01*
Y0408005D01*
X0369983Y0407480D01*
X0370507D01*
X0371032Y0408005D01*
Y0409055D01*
X0371557Y0409579D01*
X0372081D01*
X0372606Y0409055D01*
Y0408005D01*
X0372081Y0407480D01*
X0369458Y0410629D02*
Y0411678D01*
Y0411154D01*
X0372606D01*
Y0410629D01*
Y0411678D01*
X0365258Y0409678D02*
X0364733Y0409153D01*
Y0408104D01*
X0365258Y0407579D01*
X0367357D01*
X0367882Y0408104D01*
Y0409153D01*
X0367357Y0409678D01*
X0365258Y0412826D02*
X0364733Y0412302D01*
Y0411252D01*
X0365258Y0410727D01*
X0365783D01*
X0366308Y0411252D01*
Y0412302D01*
X0366832Y0412826D01*
X0367357D01*
X0367882Y0412302D01*
Y0411252D01*
X0367357Y0410727D01*
X0357744Y0407579D02*
X0354595D01*
Y0409153D01*
X0355120Y0409678D01*
X0356170D01*
X0356695Y0409153D01*
Y0407579D01*
Y0408628D02*
X0357744Y0409678D01*
X0354595Y0410727D02*
X0357744Y0412826D01*
X0354595D02*
X0357744Y0410727D01*
X0349970Y0407579D02*
Y0409678D01*
Y0408628D01*
X0353118D01*
X0349970Y0410727D02*
X0353118Y0412826D01*
X0349970D02*
X0353118Y0410727D01*
X0363059Y0407579D02*
X0359910D01*
Y0409153D01*
X0360435Y0409678D01*
X0361485D01*
X0362010Y0409153D01*
Y0407579D01*
Y0408628D02*
X0363059Y0409678D01*
X0359910Y0410727D02*
Y0412826D01*
Y0411777D01*
X0363059D01*
X0360435Y0415975D02*
X0359910Y0415450D01*
Y0414401D01*
X0360435Y0413876D01*
X0360960D01*
X0361485Y0414401D01*
Y0415450D01*
X0362010Y0415975D01*
X0362534D01*
X0363059Y0415450D01*
Y0414401D01*
X0362534Y0413876D01*
X0345475Y0409678D02*
X0344950Y0409153D01*
Y0408104D01*
X0345475Y0407579D01*
X0347574D01*
X0348098Y0408104D01*
Y0409153D01*
X0347574Y0409678D01*
X0344950Y0410727D02*
Y0412826D01*
Y0411777D01*
X0348098D01*
X0345475Y0415975D02*
X0344950Y0415450D01*
Y0414401D01*
X0345475Y0413876D01*
X0345999D01*
X0346524Y0414401D01*
Y0415450D01*
X0347049Y0415975D01*
X0347574D01*
X0348098Y0415450D01*
Y0414401D01*
X0347574Y0413876D01*
X0340127Y0407283D02*
Y0408333D01*
Y0407808D01*
X0343276D01*
Y0407283D01*
Y0408333D01*
X0340127Y0411482D02*
Y0410432D01*
X0340652Y0409907D01*
X0342751D01*
X0343276Y0410432D01*
Y0411482D01*
X0342751Y0412006D01*
X0340652D01*
X0340127Y0411482D01*
X0343276Y0413056D02*
Y0414105D01*
Y0413581D01*
X0340127D01*
X0340652Y0413056D01*
X0335434Y0407283D02*
Y0408333D01*
Y0407808D01*
X0338583D01*
Y0407283D01*
Y0408333D01*
X0335434Y0411482D02*
Y0410432D01*
X0335959Y0409907D01*
X0338058D01*
X0338583Y0410432D01*
Y0411482D01*
X0338058Y0412006D01*
X0335959D01*
X0335434Y0411482D01*
X0338583Y0415155D02*
Y0413056D01*
X0336484Y0415155D01*
X0335959D01*
X0335434Y0414630D01*
Y0413581D01*
X0335959Y0413056D01*
X0330580Y0407185D02*
Y0408235D01*
Y0407710D01*
X0333728D01*
Y0407185D01*
Y0408235D01*
X0330580Y0411383D02*
Y0410334D01*
X0331104Y0409809D01*
X0333204D01*
X0333728Y0410334D01*
Y0411383D01*
X0333204Y0411908D01*
X0331104D01*
X0330580Y0411383D01*
X0331104Y0412957D02*
X0330580Y0413482D01*
Y0414532D01*
X0331104Y0415057D01*
X0331629D01*
X0332154Y0414532D01*
Y0414007D01*
Y0414532D01*
X0332679Y0415057D01*
X0333204D01*
X0333728Y0414532D01*
Y0413482D01*
X0333204Y0412957D01*
X0325560Y0407283D02*
Y0408333D01*
Y0407808D01*
X0328709D01*
Y0407283D01*
Y0408333D01*
X0325560Y0411482D02*
Y0410432D01*
X0326085Y0409907D01*
X0328184D01*
X0328709Y0410432D01*
Y0411482D01*
X0328184Y0412006D01*
X0326085D01*
X0325560Y0411482D01*
X0328709Y0414630D02*
X0325560D01*
X0327134Y0413056D01*
Y0415155D01*
X0498001Y0308465D02*
Y0309514D01*
Y0308989D01*
X0501150D01*
Y0308465D01*
Y0309514D01*
X0498526Y0313188D02*
X0498001Y0312663D01*
Y0311613D01*
X0498526Y0311088D01*
X0500625D01*
X0501150Y0311613D01*
Y0312663D01*
X0500625Y0313188D01*
X0498526Y0316336D02*
X0498001Y0315811D01*
Y0314762D01*
X0498526Y0314237D01*
X0499051D01*
X0499575Y0314762D01*
Y0315811D01*
X0500100Y0316336D01*
X0500625D01*
X0501150Y0315811D01*
Y0314762D01*
X0500625Y0314237D01*
X0501150Y0317386D02*
X0498001D01*
Y0318960D01*
X0498526Y0319485D01*
X0499575D01*
X0500100Y0318960D01*
Y0317386D01*
X0334614Y0300000D02*
Y0303149D01*
X0336189D01*
X0336713Y0302624D01*
Y0301574D01*
X0336189Y0301049D01*
X0334614D01*
X0335664D02*
X0336713Y0300000D01*
X0339862D02*
X0337763D01*
X0339862Y0302099D01*
Y0302624D01*
X0339337Y0303149D01*
X0338287D01*
X0337763Y0302624D01*
X0340911D02*
X0341436Y0303149D01*
X0342486D01*
X0343010Y0302624D01*
Y0302099D01*
X0342486Y0301574D01*
X0341961D01*
X0342486D01*
X0343010Y0301049D01*
Y0300525D01*
X0342486Y0300000D01*
X0341436D01*
X0340911Y0300525D01*
X0414437Y0397243D02*
Y0394619D01*
X0414962Y0394094D01*
X0416011D01*
X0416536Y0394619D01*
Y0397243D01*
X0419685D02*
X0418635Y0396718D01*
X0417586Y0395669D01*
Y0394619D01*
X0418110Y0394094D01*
X0419160D01*
X0419685Y0394619D01*
Y0395144D01*
X0419160Y0395669D01*
X0417586D01*
X0437567Y0397244D02*
X0434418D01*
Y0398818D01*
X0434943Y0399343D01*
X0435993D01*
X0436517Y0398818D01*
Y0397244D01*
Y0398294D02*
X0437567Y0399343D01*
Y0402492D02*
Y0400393D01*
X0435468Y0402492D01*
X0434943D01*
X0434418Y0401967D01*
Y0400917D01*
X0434943Y0400393D01*
X0437567Y0405640D02*
Y0403541D01*
X0435468Y0405640D01*
X0434943D01*
X0434418Y0405116D01*
Y0404066D01*
X0434943Y0403541D01*
X0457252Y0389961D02*
Y0393109D01*
X0458826D01*
X0459351Y0392584D01*
Y0391535D01*
X0458826Y0391010D01*
X0457252D01*
X0458301D02*
X0459351Y0389961D01*
X0462500D02*
X0460401D01*
X0462500Y0392060D01*
Y0392584D01*
X0461975Y0393109D01*
X0460925D01*
X0460401Y0392584D01*
X0463549Y0389961D02*
X0464599D01*
X0464074D01*
Y0393109D01*
X0463549Y0392584D01*
X0446917Y0378276D02*
Y0381424D01*
X0448492D01*
X0449016Y0380899D01*
Y0379850D01*
X0448492Y0379325D01*
X0446917D01*
X0447967D02*
X0449016Y0378276D01*
X0450066D02*
X0451115D01*
X0450591D01*
Y0381424D01*
X0450066Y0380899D01*
X0452690D02*
X0453215Y0381424D01*
X0454264D01*
X0454789Y0380899D01*
Y0378800D01*
X0454264Y0378276D01*
X0453215D01*
X0452690Y0378800D01*
Y0380899D01*
X0408664Y0397178D02*
X0408139Y0396653D01*
Y0395603D01*
X0408664Y0395079D01*
X0410763D01*
X0411287Y0395603D01*
Y0396653D01*
X0410763Y0397178D01*
X0411287Y0400326D02*
Y0398227D01*
X0409188Y0400326D01*
X0408664D01*
X0408139Y0399802D01*
Y0398752D01*
X0408664Y0398227D01*
Y0401376D02*
X0408139Y0401901D01*
Y0402950D01*
X0408664Y0403475D01*
X0409188D01*
X0409713Y0402950D01*
Y0402425D01*
Y0402950D01*
X0410238Y0403475D01*
X0410763D01*
X0411287Y0402950D01*
Y0401901D01*
X0410763Y0401376D01*
X0426520Y0371390D02*
X0425995Y0370866D01*
Y0369816D01*
X0426520Y0369291D01*
X0428619D01*
X0429144Y0369816D01*
Y0370866D01*
X0428619Y0371390D01*
X0429144Y0374539D02*
Y0372440D01*
X0427045Y0374539D01*
X0426520D01*
X0425995Y0374014D01*
Y0372965D01*
X0426520Y0372440D01*
X0429144Y0377688D02*
Y0375588D01*
X0427045Y0377688D01*
X0426520D01*
X0425995Y0377163D01*
Y0376113D01*
X0426520Y0375588D01*
X0439174Y0382939D02*
X0438649Y0383464D01*
X0437600D01*
X0437075Y0382939D01*
Y0380840D01*
X0437600Y0380315D01*
X0438649D01*
X0439174Y0380840D01*
X0442322Y0380315D02*
X0440223D01*
X0442322Y0382414D01*
Y0382939D01*
X0441798Y0383464D01*
X0440748D01*
X0440223Y0382939D01*
X0443372Y0380315D02*
X0444421D01*
X0443897D01*
Y0383464D01*
X0443372Y0382939D01*
X0396064Y0397801D02*
X0395539Y0398326D01*
X0394489D01*
X0393965Y0397801D01*
Y0395702D01*
X0394489Y0395177D01*
X0395539D01*
X0396064Y0395702D01*
X0398687Y0398326D02*
X0397638D01*
X0397113Y0397801D01*
Y0395702D01*
X0397638Y0395177D01*
X0398687D01*
X0399212Y0395702D01*
Y0397801D01*
X0398687Y0398326D01*
X0400262Y0395177D02*
Y0398326D01*
X0402361Y0395177D01*
Y0398326D01*
X0403410Y0395177D02*
X0404460D01*
X0403935D01*
Y0398326D01*
X0403410Y0397801D01*
X0347114Y0377953D02*
Y0381101D01*
X0348689D01*
X0349213Y0380577D01*
Y0379527D01*
X0348689Y0379002D01*
X0347114D01*
X0348164D02*
X0349213Y0377953D01*
X0350263D02*
X0351312D01*
X0350787D01*
Y0381101D01*
X0350263Y0380577D01*
X0354986Y0377953D02*
X0352887D01*
X0354986Y0380052D01*
Y0380577D01*
X0354461Y0381101D01*
X0353411D01*
X0352887Y0380577D01*
X0479890Y0326082D02*
Y0323458D01*
X0480414Y0322933D01*
X0481464D01*
X0481989Y0323458D01*
Y0326082D01*
X0483038Y0325557D02*
X0483563Y0326082D01*
X0484613D01*
X0485137Y0325557D01*
Y0325032D01*
X0484613Y0324507D01*
X0484088D01*
X0484613D01*
X0485137Y0323983D01*
Y0323458D01*
X0484613Y0322933D01*
X0483563D01*
X0483038Y0323458D01*
X0479398Y0343897D02*
Y0341273D01*
X0479922Y0340748D01*
X0480972D01*
X0481497Y0341273D01*
Y0343897D01*
X0484645D02*
X0482546D01*
Y0342322D01*
X0483596Y0342847D01*
X0484121D01*
X0484645Y0342322D01*
Y0341273D01*
X0484121Y0340748D01*
X0483071D01*
X0482546Y0341273D01*
X0472311Y0386232D02*
Y0383608D01*
X0472836Y0383083D01*
X0473885D01*
X0474410Y0383608D01*
Y0386232D01*
X0477034Y0383083D02*
Y0386232D01*
X0475460Y0384657D01*
X0477559D01*
X0343079Y0297538D02*
Y0294915D01*
X0343603Y0294390D01*
X0344653D01*
X0345178Y0294915D01*
Y0297538D01*
X0348326Y0294390D02*
X0346227D01*
X0348326Y0296489D01*
Y0297014D01*
X0347802Y0297538D01*
X0346752D01*
X0346227Y0297014D01*
X0431760Y0312105D02*
Y0309482D01*
X0432285Y0308957D01*
X0433334D01*
X0433859Y0309482D01*
Y0312105D01*
X0434908Y0308957D02*
X0435958D01*
X0435433D01*
Y0312105D01*
X0434908Y0311580D01*
X0285992Y0357087D02*
Y0359186D01*
X0287042Y0360235D01*
X0288091Y0359186D01*
Y0357087D01*
Y0358661D01*
X0285992D01*
X0289141Y0357087D02*
X0290190D01*
X0289666D01*
Y0360235D01*
X0289141Y0359710D01*
X0449476Y0353641D02*
Y0353116D01*
X0450526Y0352066D01*
X0451575Y0353116D01*
Y0353641D01*
X0450526Y0352066D02*
Y0350492D01*
X0452625D02*
X0453675D01*
X0453150D01*
Y0353641D01*
X0452625Y0353116D01*
X0462173Y0365255D02*
X0464272Y0362106D01*
Y0365255D02*
X0462173Y0362106D01*
X0465322D02*
X0466371D01*
X0465847D01*
Y0365255D01*
X0465322Y0364730D01*
X0457973Y0403214D02*
X0457448Y0403739D01*
X0456399D01*
X0455874Y0403214D01*
Y0402690D01*
X0456399Y0402165D01*
X0457448D01*
X0457973Y0401640D01*
Y0401115D01*
X0457448Y0400591D01*
X0456399D01*
X0455874Y0401115D01*
X0459023Y0400591D02*
X0460072D01*
X0459547D01*
Y0403739D01*
X0459023Y0403214D01*
X0459024Y0383900D02*
Y0387048D01*
X0460598D01*
X0461123Y0386523D01*
Y0385474D01*
X0460598Y0384949D01*
X0459024D01*
X0460073D02*
X0461123Y0383900D01*
X0464271D02*
X0462172D01*
X0464271Y0385999D01*
Y0386523D01*
X0463747Y0387048D01*
X0462697D01*
X0462172Y0386523D01*
X0467420Y0387048D02*
X0465321D01*
Y0385474D01*
X0466370Y0385999D01*
X0466895D01*
X0467420Y0385474D01*
Y0384424D01*
X0466895Y0383900D01*
X0465846D01*
X0465321Y0384424D01*
X0458728Y0366437D02*
Y0369586D01*
X0460303D01*
X0460827Y0369061D01*
Y0368011D01*
X0460303Y0367487D01*
X0458728D01*
X0459778D02*
X0460827Y0366437D01*
X0463976D02*
X0461877D01*
X0463976Y0368536D01*
Y0369061D01*
X0463451Y0369586D01*
X0462402D01*
X0461877Y0369061D01*
X0466600Y0366437D02*
Y0369586D01*
X0465026Y0368011D01*
X0467125D01*
X0334030Y0372173D02*
X0330882D01*
Y0373747D01*
X0331406Y0374272D01*
X0332456D01*
X0332981Y0373747D01*
Y0372173D01*
Y0373223D02*
X0334030Y0374272D01*
Y0377421D02*
Y0375322D01*
X0331931Y0377421D01*
X0331406D01*
X0330882Y0376896D01*
Y0375847D01*
X0331406Y0375322D01*
Y0378470D02*
X0330882Y0378995D01*
Y0380045D01*
X0331406Y0380570D01*
X0333505D01*
X0334030Y0380045D01*
Y0378995D01*
X0333505Y0378470D01*
X0331406D01*
X0492193Y0401673D02*
X0489044D01*
Y0403247D01*
X0489569Y0403772D01*
X0490619D01*
X0491143Y0403247D01*
Y0401673D01*
Y0402723D02*
X0492193Y0403772D01*
Y0404822D02*
Y0405871D01*
Y0405347D01*
X0489044D01*
X0489569Y0404822D01*
X0491668Y0407446D02*
X0492193Y0407970D01*
Y0409020D01*
X0491668Y0409545D01*
X0489569D01*
X0489044Y0409020D01*
Y0407970D01*
X0489569Y0407446D01*
X0490094D01*
X0490619Y0407970D01*
Y0409545D01*
X0339735Y0372468D02*
X0336587D01*
Y0374043D01*
X0337111Y0374568D01*
X0338161D01*
X0338686Y0374043D01*
Y0372468D01*
Y0373518D02*
X0339735Y0374568D01*
Y0375617D02*
Y0376667D01*
Y0376142D01*
X0336587D01*
X0337111Y0375617D01*
Y0378241D02*
X0336587Y0378766D01*
Y0379815D01*
X0337111Y0380340D01*
X0337636D01*
X0338161Y0379815D01*
X0338686Y0380340D01*
X0339210D01*
X0339735Y0379815D01*
Y0378766D01*
X0339210Y0378241D01*
X0338686D01*
X0338161Y0378766D01*
X0337636Y0378241D01*
X0337111D01*
X0338161Y0378766D02*
Y0379815D01*
X0345781Y0371681D02*
X0342632D01*
Y0373255D01*
X0343157Y0373780D01*
X0344206D01*
X0344731Y0373255D01*
Y0371681D01*
Y0372730D02*
X0345781Y0373780D01*
Y0374830D02*
Y0375879D01*
Y0375354D01*
X0342632D01*
X0343157Y0374830D01*
X0342632Y0377453D02*
Y0379553D01*
X0343157D01*
X0345256Y0377453D01*
X0345781D01*
X0360500Y0384024D02*
X0357351D01*
Y0385598D01*
X0357876Y0386123D01*
X0358926D01*
X0359451Y0385598D01*
Y0384024D01*
Y0385073D02*
X0360500Y0386123D01*
Y0387172D02*
Y0388222D01*
Y0387697D01*
X0357351D01*
X0357876Y0387172D01*
X0357351Y0391895D02*
X0357876Y0390846D01*
X0358926Y0389796D01*
X0359975D01*
X0360500Y0390321D01*
Y0391370D01*
X0359975Y0391895D01*
X0359451D01*
X0358926Y0391370D01*
Y0389796D01*
X0365224Y0377658D02*
Y0380806D01*
X0366799D01*
X0367323Y0380281D01*
Y0379232D01*
X0366799Y0378707D01*
X0365224D01*
X0366274D02*
X0367323Y0377658D01*
X0368373D02*
X0369423D01*
X0368898D01*
Y0380806D01*
X0368373Y0380281D01*
X0373096Y0380806D02*
X0370997D01*
Y0379232D01*
X0372046Y0379756D01*
X0372571D01*
X0373096Y0379232D01*
Y0378182D01*
X0372571Y0377658D01*
X0371522D01*
X0370997Y0378182D01*
X0372508Y0394783D02*
Y0397932D01*
X0374082D01*
X0374607Y0397407D01*
Y0396358D01*
X0374082Y0395833D01*
X0372508D01*
X0373557D02*
X0374607Y0394783D01*
X0375656D02*
X0376706D01*
X0376181D01*
Y0397932D01*
X0375656Y0397407D01*
X0379855Y0394783D02*
Y0397932D01*
X0378280Y0396358D01*
X0380379D01*
X0378906Y0377756D02*
Y0380905D01*
X0380480D01*
X0381005Y0380380D01*
Y0379330D01*
X0380480Y0378805D01*
X0378906D01*
X0379955D02*
X0381005Y0377756D01*
X0382054D02*
X0383104D01*
X0382579D01*
Y0380905D01*
X0382054Y0380380D01*
X0384678D02*
X0385203Y0380905D01*
X0386252D01*
X0386777Y0380380D01*
Y0379855D01*
X0386252Y0379330D01*
X0385727D01*
X0386252D01*
X0386777Y0378805D01*
Y0378281D01*
X0386252Y0377756D01*
X0385203D01*
X0384678Y0378281D01*
X0429890Y0348130D02*
Y0351278D01*
X0431464D01*
X0431989Y0350754D01*
Y0349704D01*
X0431464Y0349180D01*
X0429890D01*
X0430939D02*
X0431989Y0348130D01*
X0433038Y0348655D02*
X0433563Y0348130D01*
X0434613D01*
X0435137Y0348655D01*
Y0350754D01*
X0434613Y0351278D01*
X0433563D01*
X0433038Y0350754D01*
Y0350229D01*
X0433563Y0349704D01*
X0435137D01*
X0503610Y0335335D02*
Y0338483D01*
X0505185D01*
X0505709Y0337959D01*
Y0336909D01*
X0505185Y0336384D01*
X0503610D01*
X0504660D02*
X0505709Y0335335D01*
X0506759Y0337959D02*
X0507284Y0338483D01*
X0508333D01*
X0508858Y0337959D01*
Y0337434D01*
X0508333Y0336909D01*
X0508858Y0336384D01*
Y0335859D01*
X0508333Y0335335D01*
X0507284D01*
X0506759Y0335859D01*
Y0336384D01*
X0507284Y0336909D01*
X0506759Y0337434D01*
Y0337959D01*
X0507284Y0336909D02*
X0508333D01*
X0473197Y0312008D02*
X0470048D01*
Y0313582D01*
X0470573Y0314107D01*
X0471623D01*
X0472147Y0313582D01*
Y0312008D01*
Y0313057D02*
X0473197Y0314107D01*
X0470048Y0315157D02*
Y0317255D01*
X0470573D01*
X0472672Y0315157D01*
X0473197D01*
X0472803Y0300197D02*
X0469655D01*
Y0301771D01*
X0470179Y0302296D01*
X0471229D01*
X0471754Y0301771D01*
Y0300197D01*
Y0301246D02*
X0472803Y0302296D01*
X0469655Y0305445D02*
X0470179Y0304395D01*
X0471229Y0303345D01*
X0472278D01*
X0472803Y0303870D01*
Y0304920D01*
X0472278Y0305445D01*
X0471754D01*
X0471229Y0304920D01*
Y0303345D01*
X0476150Y0388024D02*
X0473001D01*
Y0389598D01*
X0473526Y0390123D01*
X0474575D01*
X0475100Y0389598D01*
Y0388024D01*
Y0389073D02*
X0476150Y0390123D01*
X0473001Y0393271D02*
Y0391172D01*
X0474575D01*
X0474051Y0392222D01*
Y0392746D01*
X0474575Y0393271D01*
X0475625D01*
X0476150Y0392746D01*
Y0391697D01*
X0475625Y0391172D01*
X0469063Y0387992D02*
X0465914D01*
Y0389566D01*
X0466439Y0390091D01*
X0467489D01*
X0468013Y0389566D01*
Y0387992D01*
Y0389042D02*
X0469063Y0390091D01*
Y0392715D02*
X0465914D01*
X0467489Y0391141D01*
Y0393240D01*
X0387961Y0377953D02*
Y0381101D01*
X0389535D01*
X0390060Y0380577D01*
Y0379527D01*
X0389535Y0379002D01*
X0387961D01*
X0389010D02*
X0390060Y0377953D01*
X0391109Y0380577D02*
X0391634Y0381101D01*
X0392684D01*
X0393208Y0380577D01*
Y0380052D01*
X0392684Y0379527D01*
X0392159D01*
X0392684D01*
X0393208Y0379002D01*
Y0378478D01*
X0392684Y0377953D01*
X0391634D01*
X0391109Y0378478D01*
X0394311Y0378051D02*
Y0381200D01*
X0395885D01*
X0396410Y0380675D01*
Y0379626D01*
X0395885Y0379101D01*
X0394311D01*
X0395361D02*
X0396410Y0378051D01*
X0399559D02*
X0397460D01*
X0399559Y0380150D01*
Y0380675D01*
X0399034Y0381200D01*
X0397984D01*
X0397460Y0380675D01*
X0401051Y0378051D02*
Y0381200D01*
X0402626D01*
X0403150Y0380675D01*
Y0379626D01*
X0402626Y0379101D01*
X0401051D01*
X0402101D02*
X0403150Y0378051D01*
X0404200D02*
X0405249D01*
X0404725D01*
Y0381200D01*
X0404200Y0380675D01*
X0414339Y0403045D02*
Y0406194D01*
X0415913D01*
X0416438Y0405669D01*
Y0404620D01*
X0415913Y0404095D01*
X0414339D01*
X0419062Y0403045D02*
Y0406194D01*
X0417487Y0404620D01*
X0419586D01*
X0345358Y0284917D02*
Y0288066D01*
X0346933D01*
X0347457Y0287541D01*
Y0286492D01*
X0346933Y0285967D01*
X0345358D01*
X0348507Y0287541D02*
X0349032Y0288066D01*
X0350081D01*
X0350606Y0287541D01*
Y0287016D01*
X0350081Y0286492D01*
X0349556D01*
X0350081D01*
X0350606Y0285967D01*
Y0285442D01*
X0350081Y0284917D01*
X0349032D01*
X0348507Y0285442D01*
X0414240Y0296063D02*
X0411092D01*
Y0297637D01*
X0411616Y0298162D01*
X0412666D01*
X0413191Y0297637D01*
Y0296063D01*
X0414240Y0301311D02*
Y0299212D01*
X0412141Y0301311D01*
X0411616D01*
X0411092Y0300786D01*
Y0299736D01*
X0411616Y0299212D01*
X0493472Y0285039D02*
Y0288188D01*
X0495047D01*
X0495572Y0287663D01*
Y0286614D01*
X0495047Y0286089D01*
X0493472D01*
X0496621Y0285039D02*
X0497671D01*
X0497146D01*
Y0288188D01*
X0496621Y0287663D01*
X0328611Y0299606D02*
X0331760D01*
Y0301705D01*
X0329136Y0302755D02*
X0328611Y0303280D01*
Y0304329D01*
X0329136Y0304854D01*
X0329661D01*
X0330186Y0304329D01*
Y0303804D01*
Y0304329D01*
X0330710Y0304854D01*
X0331235D01*
X0331760Y0304329D01*
Y0303280D01*
X0331235Y0302755D01*
X0328316Y0323228D02*
X0331465D01*
Y0325327D01*
Y0328476D02*
Y0326377D01*
X0329365Y0328476D01*
X0328841D01*
X0328316Y0327951D01*
Y0326902D01*
X0328841Y0326377D01*
X0338551Y0318897D02*
Y0315748D01*
X0340650D01*
X0341700D02*
X0342749D01*
X0342225D01*
Y0318897D01*
X0341700Y0318372D01*
X0481694Y0355806D02*
X0479595D01*
Y0354232D01*
X0480644D01*
X0479595D01*
Y0352658D01*
X0482743Y0355806D02*
Y0352658D01*
X0484317D01*
X0484842Y0353182D01*
Y0353707D01*
X0484317Y0354232D01*
X0482743D01*
X0484317D01*
X0484842Y0354756D01*
Y0355281D01*
X0484317Y0355806D01*
X0482743D01*
X0487991Y0352658D02*
X0485892D01*
X0487991Y0354756D01*
Y0355281D01*
X0487466Y0355806D01*
X0486416D01*
X0485892Y0355281D01*
X0412568Y0350131D02*
Y0348031D01*
X0414142D01*
Y0349081D01*
Y0348031D01*
X0415717D01*
X0412568Y0351180D02*
X0415717D01*
Y0352754D01*
X0415192Y0353279D01*
X0414667D01*
X0414142Y0352754D01*
Y0351180D01*
Y0352754D01*
X0413618Y0353279D01*
X0413093D01*
X0412568Y0352754D01*
Y0351180D01*
X0415717Y0354329D02*
Y0355378D01*
Y0354854D01*
X0412568D01*
X0413093Y0354329D01*
X0478414Y0413287D02*
X0481563D01*
Y0414862D01*
X0481038Y0415386D01*
X0478939D01*
X0478414Y0414862D01*
Y0413287D01*
X0481563Y0418535D02*
Y0416436D01*
X0479464Y0418535D01*
X0478939D01*
X0478414Y0418010D01*
Y0416961D01*
X0478939Y0416436D01*
X0460895Y0413976D02*
X0464043D01*
Y0415551D01*
X0463518Y0416075D01*
X0461419D01*
X0460895Y0415551D01*
Y0413976D01*
X0464043Y0417125D02*
Y0418175D01*
Y0417650D01*
X0460895D01*
X0461419Y0417125D01*
X0509154Y0396563D02*
X0508629Y0397088D01*
X0507580D01*
X0507055Y0396563D01*
Y0394464D01*
X0507580Y0393939D01*
X0508629D01*
X0509154Y0394464D01*
X0511778Y0397088D02*
X0510729D01*
X0510204Y0396563D01*
Y0394464D01*
X0510729Y0393939D01*
X0511778D01*
X0512303Y0394464D01*
Y0396563D01*
X0511778Y0397088D01*
X0513352Y0393939D02*
Y0397088D01*
X0515451Y0393939D01*
Y0397088D01*
X0518600Y0393939D02*
X0516501D01*
X0518600Y0396038D01*
Y0396563D01*
X0518075Y0397088D01*
X0517026D01*
X0516501Y0396563D01*
X0512501Y0351246D02*
X0511976Y0351771D01*
X0510926D01*
X0510402Y0351246D01*
Y0349147D01*
X0510926Y0348622D01*
X0511976D01*
X0512501Y0349147D01*
X0515649Y0348622D02*
X0513550D01*
X0515649Y0350721D01*
Y0351246D01*
X0515124Y0351771D01*
X0514075D01*
X0513550Y0351246D01*
X0516699D02*
X0517224Y0351771D01*
X0518273D01*
X0518798Y0351246D01*
Y0349147D01*
X0518273Y0348622D01*
X0517224D01*
X0516699Y0349147D01*
Y0351246D01*
X0488977Y0324659D02*
X0488452Y0325184D01*
X0487403D01*
X0486878Y0324659D01*
Y0322560D01*
X0487403Y0322035D01*
X0488452D01*
X0488977Y0322560D01*
X0490027Y0322035D02*
X0491076D01*
X0490551D01*
Y0325184D01*
X0490027Y0324659D01*
X0492650Y0322560D02*
X0493175Y0322035D01*
X0494225D01*
X0494749Y0322560D01*
Y0324659D01*
X0494225Y0325184D01*
X0493175D01*
X0492650Y0324659D01*
Y0324134D01*
X0493175Y0323610D01*
X0494749D01*
X0509646Y0362073D02*
X0509122Y0362597D01*
X0508072D01*
X0507547Y0362073D01*
Y0359974D01*
X0508072Y0359449D01*
X0509122D01*
X0509646Y0359974D01*
X0510696Y0359449D02*
X0511745D01*
X0511221D01*
Y0362597D01*
X0510696Y0362073D01*
X0513320D02*
X0513844Y0362597D01*
X0514894D01*
X0515419Y0362073D01*
Y0361548D01*
X0514894Y0361023D01*
X0515419Y0360498D01*
Y0359974D01*
X0514894Y0359449D01*
X0513844D01*
X0513320Y0359974D01*
Y0360498D01*
X0513844Y0361023D01*
X0513320Y0361548D01*
Y0362073D01*
X0513844Y0361023D02*
X0514894D01*
X0482414Y0359514D02*
X0481889Y0360038D01*
X0480840D01*
X0480315Y0359514D01*
Y0357415D01*
X0480840Y0356890D01*
X0481889D01*
X0482414Y0357415D01*
X0483464Y0356890D02*
X0484513D01*
X0483989D01*
Y0360038D01*
X0483464Y0359514D01*
X0486088Y0360038D02*
X0488187D01*
Y0359514D01*
X0486088Y0357415D01*
Y0356890D01*
X0482581Y0403674D02*
X0482056Y0403149D01*
Y0402100D01*
X0482581Y0401575D01*
X0484680D01*
X0485205Y0402100D01*
Y0403149D01*
X0484680Y0403674D01*
X0485205Y0404723D02*
Y0405773D01*
Y0405248D01*
X0482056D01*
X0482581Y0404723D01*
X0482056Y0409446D02*
X0482581Y0408397D01*
X0483630Y0407347D01*
X0484680D01*
X0485205Y0407872D01*
Y0408921D01*
X0484680Y0409446D01*
X0484155D01*
X0483630Y0408921D01*
Y0407347D01*
X0429633Y0357811D02*
X0429108Y0357287D01*
Y0356237D01*
X0429633Y0355712D01*
X0431732D01*
X0432257Y0356237D01*
Y0357287D01*
X0431732Y0357811D01*
X0432257Y0358861D02*
Y0359910D01*
Y0359386D01*
X0429108D01*
X0429633Y0358861D01*
X0429108Y0363584D02*
Y0361485D01*
X0430682D01*
X0430158Y0362534D01*
Y0363059D01*
X0430682Y0363584D01*
X0431732D01*
X0432257Y0363059D01*
Y0362009D01*
X0431732Y0361485D01*
X0444981Y0374376D02*
X0444456Y0374901D01*
X0443407D01*
X0442882Y0374376D01*
Y0372277D01*
X0443407Y0371752D01*
X0444456D01*
X0444981Y0372277D01*
X0446031Y0371752D02*
X0447080D01*
X0446555D01*
Y0374901D01*
X0446031Y0374376D01*
X0450229Y0371752D02*
Y0374901D01*
X0448654Y0373326D01*
X0450753D01*
X0453839Y0399376D02*
X0453314Y0399901D01*
X0452265D01*
X0451740Y0399376D01*
Y0397277D01*
X0452265Y0396752D01*
X0453314D01*
X0453839Y0397277D01*
X0454889Y0396752D02*
X0455938D01*
X0455413D01*
Y0399901D01*
X0454889Y0399376D01*
X0457513D02*
X0458037Y0399901D01*
X0459087D01*
X0459612Y0399376D01*
Y0398851D01*
X0459087Y0398326D01*
X0458562D01*
X0459087D01*
X0459612Y0397801D01*
Y0397277D01*
X0459087Y0396752D01*
X0458037D01*
X0457513Y0397277D01*
X0455809Y0347079D02*
X0455285Y0346555D01*
Y0345505D01*
X0455809Y0344980D01*
X0457908D01*
X0458433Y0345505D01*
Y0346555D01*
X0457908Y0347079D01*
X0458433Y0348129D02*
Y0349178D01*
Y0348654D01*
X0455285D01*
X0455809Y0348129D01*
X0458433Y0352852D02*
Y0350753D01*
X0456334Y0352852D01*
X0455809D01*
X0455285Y0352327D01*
Y0351277D01*
X0455809Y0350753D01*
X0479727Y0364205D02*
X0479202Y0363681D01*
Y0362631D01*
X0479727Y0362106D01*
X0481826D01*
X0482350Y0362631D01*
Y0363681D01*
X0481826Y0364205D01*
X0482350Y0365255D02*
Y0366304D01*
Y0365780D01*
X0479202D01*
X0479727Y0365255D01*
X0482350Y0367879D02*
Y0368928D01*
Y0368404D01*
X0479202D01*
X0479727Y0367879D01*
X0481006Y0301508D02*
X0480481Y0300984D01*
Y0299934D01*
X0481006Y0299410D01*
X0483105D01*
X0483630Y0299934D01*
Y0300984D01*
X0483105Y0301508D01*
X0483630Y0302558D02*
Y0303608D01*
Y0303083D01*
X0480481D01*
X0481006Y0302558D01*
Y0305182D02*
X0480481Y0305707D01*
Y0306756D01*
X0481006Y0307281D01*
X0483105D01*
X0483630Y0306756D01*
Y0305707D01*
X0483105Y0305182D01*
X0481006D01*
X0465355Y0308431D02*
X0464830Y0308956D01*
X0463781D01*
X0463256Y0308431D01*
Y0306332D01*
X0463781Y0305807D01*
X0464830D01*
X0465355Y0306332D01*
X0466404D02*
X0466929Y0305807D01*
X0467979D01*
X0468504Y0306332D01*
Y0308431D01*
X0467979Y0308956D01*
X0466929D01*
X0466404Y0308431D01*
Y0307906D01*
X0466929Y0307381D01*
X0468504D01*
X0414274Y0325918D02*
X0413749Y0325393D01*
Y0324344D01*
X0414274Y0323819D01*
X0416373D01*
X0416898Y0324344D01*
Y0325393D01*
X0416373Y0325918D01*
X0414274Y0326968D02*
X0413749Y0327492D01*
Y0328542D01*
X0414274Y0329067D01*
X0414799D01*
X0415323Y0328542D01*
X0415848Y0329067D01*
X0416373D01*
X0416898Y0328542D01*
Y0327492D01*
X0416373Y0326968D01*
X0415848D01*
X0415323Y0327492D01*
X0414799Y0326968D01*
X0414274D01*
X0415323Y0327492D02*
Y0328542D01*
X0425493Y0308628D02*
X0424968Y0309153D01*
X0423918D01*
X0423394Y0308628D01*
Y0306529D01*
X0423918Y0306004D01*
X0424968D01*
X0425493Y0306529D01*
X0426542Y0309153D02*
X0428641D01*
Y0308628D01*
X0426542Y0306529D01*
Y0306004D01*
X0468406Y0337663D02*
X0467881Y0338188D01*
X0466832D01*
X0466307Y0337663D01*
Y0335564D01*
X0466832Y0335039D01*
X0467881D01*
X0468406Y0335564D01*
X0471555Y0338188D02*
X0470505Y0337663D01*
X0469456Y0336614D01*
Y0335564D01*
X0469980Y0335039D01*
X0471030D01*
X0471555Y0335564D01*
Y0336089D01*
X0471030Y0336614D01*
X0469456D01*
X0468308Y0331136D02*
X0467783Y0331660D01*
X0466733D01*
X0466209Y0331136D01*
Y0329037D01*
X0466733Y0328512D01*
X0467783D01*
X0468308Y0329037D01*
X0471456Y0331660D02*
X0469357D01*
Y0330086D01*
X0470407Y0330611D01*
X0470931D01*
X0471456Y0330086D01*
Y0329037D01*
X0470931Y0328512D01*
X0469882D01*
X0469357Y0329037D01*
X0419884Y0326016D02*
X0419359Y0325492D01*
Y0324442D01*
X0419884Y0323917D01*
X0421983D01*
X0422508Y0324442D01*
Y0325492D01*
X0421983Y0326016D01*
X0422508Y0328640D02*
X0419359D01*
X0420934Y0327066D01*
Y0329165D01*
X0414766Y0372178D02*
X0414241Y0371653D01*
Y0370603D01*
X0414766Y0370079D01*
X0416865D01*
X0417390Y0370603D01*
Y0371653D01*
X0416865Y0372178D01*
X0414766Y0373227D02*
X0414241Y0373752D01*
Y0374802D01*
X0414766Y0375326D01*
X0415291D01*
X0415815Y0374802D01*
Y0374277D01*
Y0374802D01*
X0416340Y0375326D01*
X0416865D01*
X0417390Y0374802D01*
Y0373752D01*
X0416865Y0373227D01*
X0420475Y0372178D02*
X0419950Y0371653D01*
Y0370603D01*
X0420475Y0370079D01*
X0422574D01*
X0423098Y0370603D01*
Y0371653D01*
X0422574Y0372178D01*
X0423098Y0375326D02*
Y0373227D01*
X0420999Y0375326D01*
X0420475D01*
X0419950Y0374802D01*
Y0373752D01*
X0420475Y0373227D01*
X0333565Y0325327D02*
X0333040Y0324803D01*
Y0323753D01*
X0333565Y0323228D01*
X0335664D01*
X0336189Y0323753D01*
Y0324803D01*
X0335664Y0325327D01*
X0336189Y0326377D02*
Y0327427D01*
Y0326902D01*
X0333040D01*
X0333565Y0326377D01*
D12*
X0312272Y0373610D02*
G03*
X0312272Y0373610I-0000098J0000000D01*
G01*
X0453709Y0364370D02*
G03*
X0453709Y0364370I-0000394J0000000D01*
G01*
D13*
X0325258Y0303740D02*
G03*
X0325258Y0303740I-0000880J0000000D01*
G01*
D14*
X0459433Y0333472D02*
G03*
X0459433Y0333472I-0001181J0000000D01*
G01*
D15*
X0479890Y0370571D02*
X0483827D01*
X0479890Y0382776D02*
X0483827D01*
Y0370571D02*
Y0382776D01*
X0479890Y0370571D02*
Y0382776D01*
X0300165Y0373512D02*
X0305579D01*
X0300165D02*
X0301543Y0374890D01*
X0300165Y0373512D02*
X0301543Y0372134D01*
X0291799Y0375000D02*
X0293177Y0376378D01*
X0294555Y0375000D01*
X0293177Y0370965D02*
Y0376378D01*
X0456453Y0382433D02*
Y0388433D01*
X0445453Y0382433D02*
X0456453D01*
X0445453D02*
Y0388433D01*
X0456453D01*
X0414831Y0379331D02*
X0415618D01*
X0414831D02*
Y0380118D01*
Y0391929D02*
Y0392717D01*
X0415618D01*
X0427429D02*
X0428217D01*
Y0391929D02*
Y0392717D01*
X0427429Y0379331D02*
X0428217D01*
Y0380118D01*
X0456453Y0388488D02*
Y0394488D01*
X0445453Y0388488D02*
X0456453D01*
X0445453D02*
Y0394488D01*
X0456453D01*
X0431325Y0390053D02*
X0442825D01*
Y0384553D02*
Y0390053D01*
X0431325Y0384553D02*
X0442825D01*
X0431325D02*
Y0390053D01*
X0431476Y0390012D02*
Y0396012D01*
X0442476D01*
Y0390012D02*
Y0396012D01*
X0431476Y0390012D02*
X0442476D01*
X0407258Y0382439D02*
Y0393939D01*
X0412758D01*
Y0382439D02*
Y0393939D01*
X0407258Y0382439D02*
X0412758D01*
X0436183Y0372400D02*
Y0383900D01*
X0430683Y0372400D02*
X0436183D01*
X0430683D02*
Y0383900D01*
X0436183D01*
X0283827Y0307677D02*
X0327134D01*
Y0354921D01*
X0283827Y0307677D02*
Y0354921D01*
X0327134D01*
X0350441Y0297342D02*
X0405559D01*
Y0298642D01*
X0350441Y0297342D02*
Y0298642D01*
X0393496Y0399638D02*
X0403732D01*
Y0405150D01*
X0314362Y0399638D02*
Y0405150D01*
Y0399638D02*
X0324598D01*
X0403732Y0418535D02*
Y0420504D01*
X0314362D02*
X0403732D01*
X0314362Y0418535D02*
Y0420504D01*
X0347165Y0393492D02*
X0353165D01*
Y0382492D02*
Y0393492D01*
X0347165Y0382492D02*
X0353165D01*
X0347165D02*
Y0393492D01*
X0500965Y0326118D02*
Y0334118D01*
X0486965Y0326118D02*
X0500965D01*
X0486965D02*
Y0334118D01*
X0500965D01*
X0432831Y0397295D02*
Y0403295D01*
X0421831Y0397295D02*
X0432831D01*
X0421831D02*
Y0403295D01*
X0432831D01*
X0414358Y0407303D02*
Y0417303D01*
X0434358D01*
Y0407303D02*
Y0417303D01*
X0414358Y0407303D02*
X0434358D01*
X0400315Y0382394D02*
X0406315D01*
X0400315D02*
Y0393394D01*
X0406315D01*
Y0382394D02*
Y0393394D01*
X0394311D02*
X0400311D01*
Y0382394D02*
Y0393394D01*
X0394311Y0382394D02*
X0400311D01*
X0394311D02*
Y0393394D01*
X0388209Y0382394D02*
X0394209D01*
X0388209D02*
Y0393394D01*
X0394209D01*
Y0382394D02*
Y0393394D01*
X0464685Y0405106D02*
X0470685D01*
Y0394106D02*
Y0405106D01*
X0464685Y0394106D02*
X0470685D01*
X0464685D02*
Y0405106D01*
X0471378D02*
X0477378D01*
Y0394106D02*
Y0405106D01*
X0471378Y0394106D02*
X0477378D01*
X0471378D02*
Y0405106D01*
X0473543Y0309929D02*
X0479543D01*
Y0298929D02*
Y0309929D01*
X0473543Y0298929D02*
X0479543D01*
X0473543D02*
Y0309929D01*
X0473839Y0311035D02*
X0479839D01*
X0473839D02*
Y0322035D01*
X0479839D01*
Y0311035D02*
Y0322035D01*
X0503465Y0350382D02*
X0509465D01*
Y0339382D02*
Y0350382D01*
X0503465Y0339382D02*
X0509465D01*
X0503465D02*
Y0350382D01*
X0447496Y0347689D02*
Y0353689D01*
X0436496Y0347689D02*
X0447496D01*
X0436496D02*
Y0353689D01*
X0447496D01*
X0379842Y0393492D02*
X0385842D01*
Y0382492D02*
Y0393492D01*
X0379842Y0382492D02*
X0385842D01*
X0379842D02*
Y0393492D01*
X0373839D02*
X0379839D01*
Y0382492D02*
Y0393492D01*
X0373839Y0382492D02*
X0379839D01*
X0373839D02*
Y0393492D01*
X0367835D02*
X0373835D01*
Y0382492D02*
Y0393492D01*
X0367835Y0382492D02*
X0373835D01*
X0367835D02*
Y0393492D01*
X0361831D02*
X0367831D01*
Y0382492D02*
Y0393492D01*
X0361831Y0382492D02*
X0367831D01*
X0361831D02*
Y0393492D01*
X0341161D02*
X0347161D01*
Y0382492D02*
Y0393492D01*
X0341161Y0382492D02*
X0347161D01*
X0341161D02*
Y0393492D01*
X0335157D02*
X0341158D01*
Y0382492D02*
Y0393492D01*
X0335157Y0382492D02*
X0341158D01*
X0335157D02*
Y0393492D01*
X0487421Y0400087D02*
X0493421D01*
Y0389087D02*
Y0400087D01*
X0487421Y0389087D02*
X0493421D01*
X0487421D02*
Y0400087D01*
X0329079Y0393492D02*
X0335079D01*
Y0382492D02*
Y0393492D01*
X0329079Y0382492D02*
X0335079D01*
X0329079D02*
Y0393492D01*
X0468461Y0370445D02*
Y0376445D01*
X0457461Y0370445D02*
X0468461D01*
X0457461D02*
Y0376445D01*
X0468461D01*
Y0376945D02*
Y0382945D01*
X0457461Y0376945D02*
X0468461D01*
X0457461D02*
Y0382945D01*
X0468461D01*
X0416799Y0342520D02*
X0424673D01*
Y0355906D01*
X0416799D02*
X0424673D01*
X0416799Y0342520D02*
Y0355906D01*
X0489240Y0352165D02*
Y0360039D01*
Y0352165D02*
X0502626D01*
Y0360039D01*
X0489240D02*
X0502626D01*
X0418923Y0357703D02*
Y0369203D01*
X0424423D01*
Y0357703D02*
Y0369203D01*
X0418923Y0357703D02*
X0424423D01*
X0413018D02*
Y0369203D01*
X0418518D01*
Y0357703D02*
Y0369203D01*
X0413018Y0357703D02*
X0418518D01*
X0423781Y0329880D02*
Y0341380D01*
X0418282Y0329880D02*
X0423781D01*
X0418282D02*
Y0341380D01*
X0423781D01*
X0474041Y0332770D02*
X0485541D01*
Y0327270D02*
Y0332770D01*
X0474041Y0327270D02*
X0485541D01*
X0474041D02*
Y0332770D01*
X0473943Y0339481D02*
X0485443D01*
Y0333981D02*
Y0339481D01*
X0473943Y0333981D02*
X0485443D01*
X0473943D02*
Y0339481D01*
X0417644Y0310341D02*
X0429144D01*
X0417644D02*
Y0315841D01*
X0429144D01*
Y0310341D02*
Y0315841D01*
X0418270Y0329978D02*
Y0341478D01*
X0412770Y0329978D02*
X0418270D01*
X0412770D02*
Y0341478D01*
X0418270D01*
X0457380Y0298923D02*
X0468880D01*
X0457380D02*
Y0304423D01*
X0468880D01*
Y0298923D02*
Y0304423D01*
X0484573Y0301089D02*
X0496073D01*
X0484573D02*
Y0306589D01*
X0496073D01*
Y0301089D02*
Y0306589D01*
X0472880Y0353661D02*
Y0365161D01*
X0478380D01*
Y0353661D02*
Y0365161D01*
X0472880Y0353661D02*
X0478380D01*
X0453880Y0353661D02*
Y0365161D01*
X0459380D01*
Y0353661D02*
Y0365161D01*
X0453880Y0353661D02*
X0459380D01*
X0439199Y0403045D02*
X0450699D01*
Y0397545D02*
Y0403045D01*
X0439199Y0397545D02*
X0450699D01*
X0439199D02*
Y0403045D01*
X0439986Y0365065D02*
X0451486D01*
X0439986D02*
Y0370565D01*
X0451486D01*
Y0365065D02*
Y0370565D01*
X0433537Y0353896D02*
Y0365396D01*
X0439037D01*
Y0353896D02*
Y0365396D01*
X0433537Y0353896D02*
X0439037D01*
X0486722Y0388738D02*
Y0400238D01*
X0481222Y0388738D02*
X0486722D01*
X0481222D02*
Y0400238D01*
X0486722D01*
X0483687Y0361030D02*
X0495187D01*
X0483687D02*
Y0366529D01*
X0495187D01*
Y0361030D02*
Y0366529D01*
X0504258Y0358852D02*
X0515758D01*
Y0353352D02*
Y0358852D01*
X0504258Y0353352D02*
X0515758D01*
X0504258D02*
Y0358852D01*
X0517384Y0335687D02*
Y0347187D01*
X0511884Y0335687D02*
X0517384D01*
X0511884D02*
Y0347187D01*
X0517384D01*
X0492291Y0336811D02*
X0496228D01*
X0492291Y0349016D02*
X0496228D01*
Y0336811D02*
Y0349016D01*
X0492291Y0336811D02*
Y0349016D01*
X0487665Y0320472D02*
X0491602D01*
X0487665Y0308268D02*
X0491602D01*
X0487665D02*
Y0320472D01*
X0491602Y0308268D02*
Y0320472D01*
X0438216Y0404724D02*
Y0417323D01*
Y0404724D02*
X0460264D01*
Y0417323D01*
X0438216Y0417323D02*
X0460264Y0417323D01*
X0437780Y0337409D02*
X0462189D01*
X0437780Y0313000D02*
X0462189D01*
Y0337409D01*
X0437780Y0313000D02*
Y0337409D01*
X0460472Y0352768D02*
X0471496D01*
Y0360642D01*
X0460472D02*
X0471496D01*
X0460472Y0352768D02*
Y0360642D01*
X0411917Y0284862D02*
Y0294862D01*
X0351917Y0284862D02*
Y0294862D01*
X0411917Y0294862D01*
X0351917Y0284862D02*
X0411917Y0284862D01*
X0470685Y0405795D02*
Y0418795D01*
X0464685Y0418795D02*
X0470685Y0418795D01*
X0464685Y0418795D02*
X0464685Y0405795D01*
Y0406795D02*
X0470685D01*
X0464685Y0405795D02*
X0470685Y0405795D01*
X0477280Y0418795D02*
X0477280Y0405795D01*
X0471279Y0418795D02*
X0477280Y0418795D01*
X0471279Y0418795D02*
X0471279Y0405795D01*
Y0406795D02*
X0477280D01*
X0471279Y0405795D02*
X0477280Y0405795D01*
X0439535Y0354528D02*
X0451346D01*
Y0363976D01*
X0439535D02*
X0451346D01*
X0439535Y0354528D02*
Y0363976D01*
X0451996Y0284862D02*
Y0294862D01*
X0491996Y0294862D01*
X0451996Y0284862D02*
X0491996Y0284862D01*
Y0294862D01*
X0411976Y0284862D02*
Y0294862D01*
X0451976Y0294862D01*
X0411976Y0284862D02*
X0451976Y0284862D01*
Y0294862D01*
X0525362Y0376969D02*
X0526937Y0375394D01*
X0525362Y0376969D02*
X0526937Y0378543D01*
X0525362Y0376969D02*
X0530087D01*
X0523394Y0363189D02*
X0525362D01*
X0523394Y0390748D02*
X0525362D01*
X0499575Y0368701D02*
Y0369882D01*
X0505677Y0392323D02*
X0506465D01*
X0519654Y0361221D02*
Y0392717D01*
X0516898Y0361221D02*
Y0392717D01*
X0515913D02*
X0522016D01*
X0515913Y0361221D02*
X0522016D01*
Y0392717D01*
X0505677Y0361614D02*
X0506465D01*
X0499575Y0384055D02*
Y0385236D01*
X0525362Y0355709D02*
X0530087D01*
X0525362D02*
Y0398228D01*
X0530087D01*
D16*
X0336976Y0304331D02*
X0344457D01*
X0336976D02*
Y0308268D01*
X0344457D01*
Y0304331D02*
Y0308268D01*
X0328217Y0305709D02*
X0332154D01*
Y0313189D01*
X0328217D02*
X0332154D01*
X0328217Y0305709D02*
Y0313189D01*
X0332744Y0314476D02*
Y0322153D01*
X0336878D01*
Y0314476D02*
Y0322153D01*
X0332744Y0314476D02*
X0336878D01*
X0340638Y0309941D02*
Y0313878D01*
X0333157D02*
X0340638D01*
X0333157Y0309941D02*
Y0313878D01*
Y0309941D02*
X0340638D01*
X0328020Y0314665D02*
Y0322146D01*
X0331957D01*
Y0314665D02*
Y0322146D01*
X0328020Y0314665D02*
X0331957D01*
D17*
X0358315Y0301673D02*
X0366189D01*
Y0310335D01*
X0358315D02*
X0366189D01*
X0358315Y0301673D02*
Y0310335D01*
X0350441Y0314075D02*
Y0330217D01*
X0405598Y0314075D02*
Y0330217D01*
X0405559Y0370965D02*
Y0376083D01*
X0350441D02*
X0405559D01*
X0350441Y0370886D02*
Y0376004D01*
X0502500Y0308878D02*
Y0333878D01*
Y0308878D02*
X0515500D01*
Y0333878D01*
X0502500D02*
X0515500D01*
D18*
X0509417Y0376969D02*
X0510205D01*
D19*
X0413748Y0398819D02*
Y0401967D01*
X0415322D01*
X0415847Y0401443D01*
Y0400393D01*
X0415322Y0399868D01*
X0413748D01*
X0414797D02*
X0415847Y0398819D01*
X0416897D02*
X0417946D01*
X0417421D01*
Y0401967D01*
X0416897Y0401443D01*
X0419520Y0398819D02*
X0420570D01*
X0420045D01*
Y0401967D01*
X0419520Y0401443D01*
M02*
