G04*
G04 #@! TF.GenerationSoftware,Altium Limited,Altium Designer,19.0.12 (326)*
G04*
G04 Layer_Color=16711935*
%FSAX25Y25*%
%MOIN*%
G70*
G01*
G75*
%ADD52C,0.22047*%
%ADD53R,0.06706X0.06706*%
%ADD54C,0.06706*%
%ADD55C,0.04343*%
%ADD56O,0.07099X0.04737*%
%ADD57R,0.00800X0.00800*%
%ADD72R,0.02769X0.03162*%
%ADD73R,0.03241X0.03044*%
%ADD74R,0.03162X0.03320*%
%ADD75R,0.07887X0.05918*%
%ADD76R,0.06706X0.12611*%
D52*
X0295835Y0408465D02*
D03*
X0296031Y0295472D02*
D03*
D53*
X0441169Y0387894D02*
D03*
X0356917Y0289862D02*
D03*
X0419004D02*
D03*
X0491032Y0289764D02*
D03*
D54*
X0431169Y0387894D02*
D03*
X0421169D02*
D03*
X0366917Y0289862D02*
D03*
X0376917D02*
D03*
X0386917D02*
D03*
X0396917D02*
D03*
X0406917D02*
D03*
X0449004D02*
D03*
X0439004D02*
D03*
X0429004D02*
D03*
X0461031Y0289764D02*
D03*
X0471032D02*
D03*
X0481032D02*
D03*
D55*
X0505000Y0308610D02*
D03*
X0513000Y0308610D02*
D03*
X0509000Y0328610D02*
D03*
D56*
X0510711Y0372217D02*
D03*
Y0394854D02*
D03*
D57*
X0502246Y0375551D02*
D03*
Y0391496D02*
D03*
D72*
X0374476Y0298622D02*
D03*
X0378413D02*
D03*
D73*
X0343295Y0341110D02*
D03*
Y0344811D02*
D03*
X0330295Y0341110D02*
D03*
Y0344811D02*
D03*
X0330646Y0358311D02*
D03*
Y0354610D02*
D03*
D74*
X0334795Y0344961D02*
D03*
X0338575D02*
D03*
D75*
X0288846Y0326575D02*
D03*
Y0313583D02*
D03*
Y0353346D02*
D03*
X0322705Y0313583D02*
D03*
Y0326575D02*
D03*
Y0343898D02*
D03*
Y0353346D02*
D03*
D76*
X0369154Y0307972D02*
D03*
X0379154D02*
D03*
X0389154D02*
D03*
X0419154D02*
D03*
X0429154D02*
D03*
X0439154D02*
D03*
X0449154D02*
D03*
X0459154D02*
D03*
X0469154D02*
D03*
X0479154D02*
D03*
X0489154D02*
D03*
Y0402461D02*
D03*
X0479154D02*
D03*
X0469154D02*
D03*
X0459154D02*
D03*
X0449154D02*
D03*
X0439154D02*
D03*
X0429154D02*
D03*
X0419154D02*
D03*
X0389154D02*
D03*
X0379154D02*
D03*
X0369154D02*
D03*
M02*
