M48
;Layer_Color=9474304
;FILE_FORMAT=2:5
INCH
;TYPE=PLATED
T1F00S00C0.01181
T3F00S00C0.03543
;TYPE=NON_PLATED
T4F00S00C0.02756
T5F00S00C0.03917
T6F00S00C0.08661
%
T01
X0496063Y0301181
X0501968
X0507055Y0301181
X0516732Y0295275
X0513779Y0289370
X0465815Y0291437
X0454724Y0289370
X0453807Y0306201
X0444366Y0306792
X0440913Y0295079
X0424083Y0302223
X0419000Y0299863
X0413059Y0292028
X0399534Y0295571
X0392716Y0295275
X0395835Y0299311
X0397513Y0302855
X0404299Y0304232
X0380905Y0295275
X0374466Y0295418
X0371594Y0296166
X0372047Y0289370
X0348000Y0289272
X0342520Y0289370
X0336614
X0330709
X0333661Y0295275
X0339567
X0345472
X0348547Y0299182
X0346527Y0301357
X0345105Y0303963
X0344304Y0306821
X0344166Y0309787
X0349078Y0310429
X0349173Y0307462
X0350197Y0304676
X0352217Y0302500
X0357283Y0307086
X0363189
X0339567
X0333661
X0330709Y0301181
X0336614
X0342520
X0463453Y0305170
X0457677Y0330709
X0454724Y0336614
X0448819
X0442913
X0445866Y0330709
X0442913Y0324803
X0441534Y0320640
X0429004Y0318083
X0424279Y0318110
X0425733Y0325066
X0427724Y0329823
X0428217Y0335630
X0421524Y0335138
X0421917Y0338976
X0424680Y0340062
X0430087Y0343529
X0429595Y0346752
X0433039Y0356201
X0445866Y0354331
X0451771
X0457677
X0463583
X0460630Y0360236
X0466535
X0463583Y0366142
X0457677
X0454724Y0360236
Y0348425
X0460630
X0466535
X0463583Y0342520
X0457677
X0448819Y0348425
X0442913
X0439960Y0366142
X0435894Y0372244
X0448819Y0372047
X0445866Y0377953
X0460630Y0372047
X0466535
X0462477Y0414573
X0451937Y0415650
X0444358Y0403100
X0438453Y0394783
X0413386Y0383858
X0416338Y0377953
X0413386Y0372047
X0407480
X0410433Y0366142
X0416338
X0420835Y0373228
X0398394Y0381496
X0398622Y0389764
X0392716
X0395669Y0395669
X0401575
X0404527Y0401575
X0398622
X0391110Y0412992
X0386811Y0413386
X0380905
X0375000
X0369094
X0363189
X0357283
X0351378
X0345472
X0339567
X0333661
X0330709Y0407480
X0336614
X0342520
X0348425
X0354331
X0360236
X0354331Y0395669
X0354299Y0375394
X0357449Y0374803
X0360236Y0372047
X0363189Y0366142
X0368870Y0364768
X0377040
X0377429Y0360728
X0379796Y0358271
X0381273Y0356008
X0374476Y0353937
X0376051Y0339567
X0381169Y0338976
X0389049Y0335042
X0388945Y0329035
X0388432Y0325317
X0388354Y0321260
X0386779Y0318898
X0377823Y0319587
Y0322441
X0377929Y0325591
X0377357Y0328159
X0375561Y0331924
X0373197Y0324114
X0367980Y0329331
X0360236Y0324803
X0354331
X0349078Y0325272
Y0322303
Y0319335
Y0316366
Y0313398
X0344166Y0312755
Y0315724
Y0318692
Y0321661
Y0324629
Y0327598
Y0330566
Y0333535
Y0336503
X0349078Y0337145
Y0334177
Y0331208
Y0328240
Y0340114
X0348827Y0343072
X0351378Y0342520
X0347299Y0345617
X0345290Y0347802
X0342905Y0347956
X0336614Y0348425
X0330709
X0333661Y0354331
X0339567
X0345472
X0342520Y0360236
X0336614
X0333661Y0366142
X0330709Y0372047
X0339567Y0389764
X0353118Y0366831
X0360236Y0360236
X0362961Y0342815
X0366110Y0342913
X0368965
X0363189Y0318898
X0357283
X0354331Y0312992
X0360236
X0336614
X0330709
X0333661Y0318898
X0339567
X0336614Y0324803
X0330709
X0333661Y0330709
X0339567
X0336614Y0336614
X0330709
X0394161Y0337402
X0401654Y0338187
X0401248Y0334520
X0409221Y0332677
X0411779Y0330566
X0406721Y0329331
X0404102Y0316634
X0404102Y0312598
X0408433Y0315354
X0398886Y0317028
X0419365Y0326380
X0381071Y0365650
X0383159Y0368307
X0376839Y0375098
X0367980Y0375591
X0384122Y0382185
X0413386Y0407480
X0469488Y0377953
Y0366142
X0472441Y0360236
X0469488Y0354331
X0472441Y0348425
X0490157
X0496063
X0507874
X0513779
X0516732Y0354331
X0510827
X0504921
X0501968Y0360236
X0507874
X0513779
X0516732Y0366142
X0510827
X0504921
X0499016
X0504921Y0377953
Y0401575
X0516732
X0513779Y0407480
X0499016Y0413386
X0495146Y0414764
X0487205Y0389764
X0478346Y0372047
X0481299Y0366142
X0487205Y0354331
X0484252Y0336614
X0496063
X0499016Y0330709
X0493276Y0322342
X0490157Y0324803
X0484252
X0477724Y0322342
X0472508Y0318701
X0475393Y0330709
X0469488
X0507874Y0336614
X0513779
X0516732Y0342520
X0510827
X0505480Y0344783
X0516732Y0330709
X0501968Y0312992
T03
X0471032Y0289764
X0481032
X0491032
X0461031
X0449004Y0289862
X0439004
X0429004
X0419004
X0406917
X0396917
X0386917
X0376917
X0366917
X0356917
X0431169Y0387894
X0441169
T04
X0502246Y0375551
Y0391496
T05
X0505000Y0308610
X0513000Y0308610
X0509000Y0328610
T06
X0296031Y0295472
X0295836Y0408465
M30
