M48
;Layer_Color=9474304
;FILE_FORMAT=2:5
INCH
;TYPE=PLATED
T1F00S00C0.01181
T3F00S00C0.03543
;TYPE=NON_PLATED
T4F00S00C0.02756
T5F00S00C0.03917
T6F00S00C0.08661
%
T01
X0475264Y0295021
X0477429Y0297539
X0489142Y0297736
X0493472Y0292520
Y0287303
X0503937Y0307087
X0511811
X0480315
X0464567
X0465126Y0297244
X0432653Y0284843
X0401575Y0291339
X0393701Y0307087
X0385827
X0377953
X0370079
X0362205
X0358268Y0299213
X0362205Y0291339
X0346457
X0338583
X0328610Y0291732
Y0293996
Y0296260
Y0298524
Y0300787
Y0303051
X0333502Y0306820
X0335613Y0304732
X0338089Y0303095
X0341016Y0303590
X0342520Y0299213
X0334646
X0328610Y0289469
Y0287205
Y0284941
X0340682Y0309232
X0343374Y0309252
X0342488Y0311910
X0342520Y0314961
X0338094Y0316782
X0338158Y0319783
X0334909Y0323524
X0332154Y0323622
X0329496
X0328610Y0326083
Y0328346
Y0330610
Y0332874
Y0335138
Y0337402
Y0339665
Y0341929
Y0344193
Y0346457
Y0348721
Y0350984
Y0353248
Y0355512
Y0357776
Y0360039
Y0362303
Y0364567
Y0366831
Y0369094
Y0371358
Y0373622
X0330709Y0370079
X0330579Y0378150
X0333335
X0336090
X0338846
X0347114Y0374803
X0355185
X0358335Y0370768
X0358728Y0378839
X0365913Y0378248
X0374016Y0377953
X0381890
Y0362205
X0389764
X0393137Y0358563
X0394561Y0353547
X0399922Y0355503
X0395893Y0367618
X0397409Y0373228
X0410408Y0379729
X0413059Y0379823
X0420024Y0384024
X0423024
Y0388024
X0420024
X0428217Y0392618
X0433071Y0401575
X0437008Y0409449
X0444882
X0452756
X0460630
X0456693Y0401575
Y0385827
X0450953Y0376870
X0444882Y0377953
X0437008
X0452552Y0371260
X0455121
X0460630Y0362205
X0468504
Y0346457
X0462665Y0346260
X0460115Y0337601
X0462764Y0332874
X0462854Y0330020
X0462272Y0321949
X0461878Y0319291
X0454791Y0318307
X0455390Y0315553
X0450953Y0313295
X0448303Y0312797
X0449189Y0316734
X0445146Y0316634
X0443965Y0321260
X0444358Y0325886
X0448394Y0321850
X0440126Y0336122
X0430283Y0339370
X0433827Y0349114
X0426642Y0352559
X0426346Y0360236
X0421622Y0370374
X0415717Y0370472
X0413386Y0346457
X0389764
X0381890
X0373492Y0348524
X0367291Y0343209
X0370079Y0338583
X0377953
X0385827
X0389764Y0330709
X0381890
X0374016
X0366142
X0358268
X0359815Y0343212
X0360008Y0348622
X0357842Y0358209
X0359909Y0362992
X0374016Y0362205
X0343768Y0345276
X0343965Y0339764
X0330709Y0338583
Y0354331
X0331268Y0395669
X0335697Y0395669
X0341147Y0395830
X0345342Y0395768
X0351642Y0396555
X0356465
X0361583Y0409154
X0366142Y0409449
X0374016
X0381890
X0389764
X0417323Y0401575
X0467783Y0391535
X0428183Y0317421
X0417882Y0317520
X0413650Y0317421
X0398492Y0314272
X0350394Y0409449
X0347213Y0409055
X0342520Y0409449
X0334646
X0480315Y0401575
X0488189
X0492126Y0409449
X0496063Y0385827
X0488189
X0485303Y0384055
X0488189Y0370079
X0478396Y0369488
X0472441Y0370079
Y0354331
X0488189
X0484252Y0346457
X0476543Y0340650
X0471130Y0338287
X0472213Y0333563
X0473689Y0322933
X0470835Y0322146
X0479398Y0326673
X0480677Y0313681
X0499968Y0322158
X0515323Y0321058
X0514940Y0316549
X0515421Y0326378
X0515748Y0330709
X0496063Y0338583
X0499968Y0350787
X0474575Y0391831
T03
X0476996Y0289862
X0486996
X0466996
X0456996
X0446976
X0436976
X0426976
X0416976
X0406917
X0396917
X0386917
X0376917
X0366917
X0356917
X0419358Y0412303
X0429358
T04
X0502624Y0368984
Y0384929
T05
X0505000Y0311378
X0513000Y0311378
X0509000Y0331378
T06
X0507252Y0295437
X0295835
Y0408429
X0507252Y0408661
M30
