G04*
G04 #@! TF.GenerationSoftware,Altium Limited,Altium Designer,19.0.12 (326)*
G04*
G04 Layer_Color=128*
%FSAX25Y25*%
%MOIN*%
G70*
G01*
G75*
%ADD68R,0.05906X0.11811*%
%ADD69R,0.01968X0.02362*%
%ADD70R,0.02441X0.02244*%
%ADD71R,0.02362X0.02520*%
%ADD72R,0.07087X0.05118*%
D68*
X0369154Y0307972D02*
D03*
X0379154D02*
D03*
X0389154D02*
D03*
X0419154D02*
D03*
X0429154D02*
D03*
X0439154D02*
D03*
X0449154D02*
D03*
X0459154D02*
D03*
X0469154D02*
D03*
X0479154D02*
D03*
X0489154D02*
D03*
Y0402461D02*
D03*
X0479154D02*
D03*
X0469154D02*
D03*
X0459154D02*
D03*
X0449154D02*
D03*
X0439154D02*
D03*
X0429154D02*
D03*
X0419154D02*
D03*
X0389154D02*
D03*
X0379154D02*
D03*
X0369154D02*
D03*
D69*
X0374476Y0298622D02*
D03*
X0378413D02*
D03*
D70*
X0343295Y0344811D02*
D03*
Y0341110D02*
D03*
X0330295D02*
D03*
Y0344811D02*
D03*
X0330646Y0354610D02*
D03*
Y0358311D02*
D03*
D71*
X0334795Y0344961D02*
D03*
X0338575D02*
D03*
D72*
X0288846Y0326575D02*
D03*
Y0313583D02*
D03*
Y0353346D02*
D03*
X0322705Y0313583D02*
D03*
Y0326575D02*
D03*
Y0343898D02*
D03*
Y0353346D02*
D03*
M02*
