G04*
G04 #@! TF.GenerationSoftware,Altium Limited,Altium Designer,19.0.12 (326)*
G04*
G04 Layer_Color=8388736*
%FSAX25Y25*%
%MOIN*%
G70*
G01*
G75*
%ADD31R,0.03543X0.03150*%
%ADD36R,0.04343X0.03162*%
%ADD37R,0.03162X0.04343*%
%ADD38R,0.06587X0.05485*%
%ADD39R,0.05485X0.06587*%
%ADD40R,0.03950X0.03950*%
%ADD41R,0.03950X0.03950*%
%ADD42R,0.04737X0.03162*%
%ADD43R,0.09068X0.12611*%
%ADD44R,0.03950X0.07099*%
%ADD45R,0.04343X0.04737*%
%ADD46R,0.01981X0.05524*%
%ADD47R,0.05524X0.01981*%
%ADD48R,0.03753X0.06312*%
%ADD49C,0.03910*%
%ADD50R,0.06312X0.05524*%
%ADD51R,0.08280X0.06902*%
%ADD52R,0.05906X0.01968*%
%ADD53C,0.22047*%
%ADD54R,0.06706X0.06706*%
%ADD55C,0.06706*%
%ADD56C,0.04343*%
%ADD57O,0.07099X0.04737*%
%ADD58R,0.00800X0.00800*%
D31*
X0397705Y0362008D02*
D03*
X0391209D02*
D03*
Y0357087D02*
D03*
X0397705D02*
D03*
D36*
X0449545Y0395866D02*
D03*
Y0389961D02*
D03*
X0457547Y0413953D02*
D03*
Y0408047D02*
D03*
X0447500D02*
D03*
Y0413953D02*
D03*
X0437500D02*
D03*
Y0408047D02*
D03*
X0482000Y0396094D02*
D03*
Y0402000D02*
D03*
X0489000Y0396047D02*
D03*
Y0401953D02*
D03*
X0469500Y0343453D02*
D03*
Y0337547D02*
D03*
X0394000Y0379500D02*
D03*
Y0385405D02*
D03*
X0387514Y0379500D02*
D03*
Y0385405D02*
D03*
X0381028Y0379500D02*
D03*
Y0385405D02*
D03*
X0374542Y0379500D02*
D03*
Y0385405D02*
D03*
X0361570Y0379500D02*
D03*
Y0385405D02*
D03*
X0355084Y0379500D02*
D03*
Y0385405D02*
D03*
X0342112Y0379500D02*
D03*
Y0385405D02*
D03*
X0335626Y0379500D02*
D03*
Y0385405D02*
D03*
X0329139Y0379500D02*
D03*
Y0385405D02*
D03*
X0322654Y0379500D02*
D03*
Y0385405D02*
D03*
X0368056Y0379500D02*
D03*
Y0385405D02*
D03*
X0348598Y0379500D02*
D03*
Y0385405D02*
D03*
D37*
X0430579Y0322736D02*
D03*
X0436484D02*
D03*
X0436091Y0314370D02*
D03*
X0430185D02*
D03*
X0388059Y0350984D02*
D03*
X0393965D02*
D03*
X0502500Y0405000D02*
D03*
X0508405D02*
D03*
X0460106Y0379055D02*
D03*
X0466012D02*
D03*
X0460106Y0385555D02*
D03*
X0466012D02*
D03*
D38*
X0355579Y0331968D02*
D03*
Y0338701D02*
D03*
D39*
X0484768Y0361500D02*
D03*
X0491500D02*
D03*
D40*
X0468047Y0408047D02*
D03*
X0473953D02*
D03*
X0468047Y0413953D02*
D03*
X0473953D02*
D03*
X0432055Y0330118D02*
D03*
X0437961D02*
D03*
X0431957Y0336829D02*
D03*
X0437862D02*
D03*
X0415098Y0301969D02*
D03*
X0409193D02*
D03*
X0397705Y0368110D02*
D03*
X0391799D02*
D03*
X0508453Y0411500D02*
D03*
X0502547D02*
D03*
X0492060Y0369500D02*
D03*
X0486154D02*
D03*
X0477547Y0352000D02*
D03*
X0483453D02*
D03*
X0489953Y0330000D02*
D03*
X0484047D02*
D03*
D41*
X0369555Y0338681D02*
D03*
Y0332776D02*
D03*
X0372606Y0313189D02*
D03*
Y0319094D02*
D03*
X0363158Y0338779D02*
D03*
Y0332874D02*
D03*
X0465421Y0316437D02*
D03*
Y0322342D02*
D03*
X0424645Y0356754D02*
D03*
Y0362660D02*
D03*
X0405645Y0356753D02*
D03*
Y0362659D02*
D03*
X0409500Y0379500D02*
D03*
Y0385405D02*
D03*
X0385303Y0356988D02*
D03*
Y0362894D02*
D03*
X0477000Y0362047D02*
D03*
Y0367953D02*
D03*
X0500000Y0343953D02*
D03*
Y0338047D02*
D03*
X0482000Y0408850D02*
D03*
X0482000Y0415150D02*
D03*
X0489000Y0408850D02*
D03*
X0489000Y0415150D02*
D03*
D42*
X0476543Y0378543D02*
D03*
Y0382283D02*
D03*
Y0386024D02*
D03*
X0487370D02*
D03*
Y0382283D02*
D03*
Y0378543D02*
D03*
X0479587Y0344240D02*
D03*
Y0340500D02*
D03*
Y0336760D02*
D03*
X0490413D02*
D03*
Y0344240D02*
D03*
X0446976Y0323917D02*
D03*
Y0320177D02*
D03*
Y0316437D02*
D03*
X0457803D02*
D03*
Y0323917D02*
D03*
D43*
X0317118Y0411842D02*
D03*
X0400976D02*
D03*
D44*
X0327157Y0402000D02*
D03*
X0332079D02*
D03*
X0337000D02*
D03*
X0341921D02*
D03*
X0346843D02*
D03*
X0351764D02*
D03*
X0356685D02*
D03*
X0361606D02*
D03*
X0366528D02*
D03*
X0371449D02*
D03*
X0376370D02*
D03*
X0381291D02*
D03*
X0386213D02*
D03*
X0391134D02*
D03*
D45*
X0424843Y0378524D02*
D03*
X0440984D02*
D03*
Y0372224D02*
D03*
X0424843D02*
D03*
D46*
X0409827Y0342232D02*
D03*
X0407858D02*
D03*
X0405890D02*
D03*
X0403921D02*
D03*
X0401953D02*
D03*
X0399984D02*
D03*
X0398016D02*
D03*
X0396047D02*
D03*
X0394079D02*
D03*
X0392110D02*
D03*
X0390142D02*
D03*
X0388173D02*
D03*
Y0308768D02*
D03*
X0390142D02*
D03*
X0392110D02*
D03*
X0394079D02*
D03*
X0396047D02*
D03*
X0398016D02*
D03*
X0399984D02*
D03*
X0401953D02*
D03*
X0403921D02*
D03*
X0405890D02*
D03*
X0407858D02*
D03*
X0409827D02*
D03*
D47*
X0382268Y0336327D02*
D03*
Y0334358D02*
D03*
Y0332390D02*
D03*
Y0330421D02*
D03*
Y0328453D02*
D03*
Y0326484D02*
D03*
Y0324516D02*
D03*
Y0322547D02*
D03*
Y0320579D02*
D03*
Y0318610D02*
D03*
Y0316642D02*
D03*
Y0314673D02*
D03*
X0415732D02*
D03*
Y0316642D02*
D03*
Y0318610D02*
D03*
Y0320579D02*
D03*
Y0322547D02*
D03*
Y0324516D02*
D03*
Y0326484D02*
D03*
Y0328453D02*
D03*
Y0330421D02*
D03*
Y0332390D02*
D03*
Y0334358D02*
D03*
Y0336327D02*
D03*
D48*
X0412145Y0357000D02*
D03*
X0417854D02*
D03*
D49*
X0511500Y0313610D02*
D03*
X0506500Y0313295D02*
D03*
X0511500Y0318610D02*
D03*
X0506500D02*
D03*
X0511500Y0323610D02*
D03*
X0506500Y0323610D02*
D03*
D50*
X0501165Y0370937D02*
D03*
Y0396134D02*
D03*
D51*
X0511500Y0379500D02*
D03*
Y0387571D02*
D03*
D52*
X0500280Y0378417D02*
D03*
Y0386094D02*
D03*
Y0388653D02*
D03*
Y0383535D02*
D03*
Y0380976D02*
D03*
D53*
X0295836Y0408465D02*
D03*
X0296031Y0295472D02*
D03*
D54*
X0441169Y0387894D02*
D03*
X0356917Y0289862D02*
D03*
X0419004D02*
D03*
X0491032Y0289764D02*
D03*
D55*
X0431169Y0387894D02*
D03*
X0366917Y0289862D02*
D03*
X0376917D02*
D03*
X0386917D02*
D03*
X0396917D02*
D03*
X0406917D02*
D03*
X0449004D02*
D03*
X0439004D02*
D03*
X0429004D02*
D03*
X0461031Y0289764D02*
D03*
X0471032D02*
D03*
X0481032D02*
D03*
D56*
X0505000Y0308610D02*
D03*
X0513000Y0308610D02*
D03*
X0509000Y0328610D02*
D03*
D57*
X0510711Y0372217D02*
D03*
Y0394854D02*
D03*
D58*
X0502246Y0375551D02*
D03*
Y0391496D02*
D03*
M02*
