G04*
G04 #@! TF.GenerationSoftware,Altium Limited,Altium Designer,19.0.12 (326)*
G04*
G04 Layer_Color=65535*
%FSAX25Y25*%
%MOIN*%
G70*
G01*
G75*
%ADD10C,0.00984*%
%ADD11C,0.02362*%
%ADD12C,0.01181*%
%ADD13C,0.00787*%
%ADD14C,0.01000*%
%ADD15C,0.00315*%
%ADD16C,0.00591*%
%ADD17C,0.00709*%
D10*
X0487862Y0375197D02*
G03*
X0487862Y0375197I-0000492J0000000D01*
G01*
X0480079Y0347587D02*
G03*
X0480079Y0347587I-0000492J0000000D01*
G01*
X0447469Y0327264D02*
G03*
X0447469Y0327264I-0000492J0000000D01*
G01*
X0413075Y0342232D02*
G03*
X0413075Y0342232I-0000492J0000000D01*
G01*
D11*
X0408449Y0333768D02*
G03*
X0408449Y0333768I-0001181J0000000D01*
G01*
D12*
X0402724Y0364665D02*
G03*
X0402724Y0364665I-0000394J0000000D01*
G01*
D13*
X0446545Y0387413D02*
X0452545D01*
X0446545D02*
Y0398413D01*
X0452545D01*
Y0387413D02*
Y0398413D01*
X0426169Y0382894D02*
Y0392894D01*
X0446169D01*
Y0382894D02*
Y0392894D01*
X0426169Y0382894D02*
X0446169D01*
X0454547Y0405500D02*
X0460547D01*
X0454547D02*
Y0416500D01*
X0460547D01*
Y0405500D02*
Y0416500D01*
X0444500Y0416500D02*
X0450500D01*
Y0405500D02*
Y0416500D01*
X0444500Y0405500D02*
X0450500D01*
X0444500D02*
Y0416500D01*
X0434500Y0405500D02*
X0440500D01*
X0434500D02*
Y0416500D01*
X0440500D01*
Y0405500D02*
Y0416500D01*
X0479000Y0404547D02*
X0485000D01*
Y0393547D02*
Y0404547D01*
X0479000Y0393547D02*
X0485000D01*
X0479000D02*
Y0404547D01*
X0486000Y0404500D02*
X0492000D01*
Y0393500D02*
Y0404500D01*
X0486000Y0393500D02*
X0492000D01*
X0486000D02*
Y0404500D01*
X0439032Y0319736D02*
Y0325736D01*
X0428031Y0319736D02*
X0439032D01*
X0428031D02*
Y0325736D01*
X0439032D01*
X0427638Y0311370D02*
Y0317370D01*
X0438638D01*
Y0311370D02*
Y0317370D01*
X0427638Y0311370D02*
X0438638D01*
X0466500Y0335000D02*
X0472500D01*
X0466500D02*
Y0346000D01*
X0472500D01*
Y0335000D02*
Y0346000D01*
X0396512Y0347984D02*
Y0353984D01*
X0385512Y0347984D02*
X0396512D01*
X0385512D02*
Y0353984D01*
X0396512D01*
X0391000Y0387953D02*
X0397000D01*
Y0376953D02*
Y0387953D01*
X0391000Y0376953D02*
X0397000D01*
X0391000D02*
Y0387953D01*
X0384514D02*
X0390514D01*
Y0376953D02*
Y0387953D01*
X0384514Y0376953D02*
X0390514D01*
X0384514D02*
Y0387953D01*
X0378028D02*
X0384028D01*
Y0376953D02*
Y0387953D01*
X0378028Y0376953D02*
X0384028D01*
X0378028D02*
Y0387953D01*
X0371542D02*
X0377542D01*
Y0376953D02*
Y0387953D01*
X0371542Y0376953D02*
X0377542D01*
X0371542D02*
Y0387953D01*
X0358570D02*
X0364570D01*
Y0376953D02*
Y0387953D01*
X0358570Y0376953D02*
X0364570D01*
X0358570D02*
Y0387953D01*
X0352084D02*
X0358084D01*
Y0376953D02*
Y0387953D01*
X0352084Y0376953D02*
X0358084D01*
X0352084D02*
Y0387953D01*
X0510953Y0402000D02*
Y0408000D01*
X0499953Y0402000D02*
X0510953D01*
X0499953D02*
Y0408000D01*
X0510953D01*
X0339112Y0387953D02*
X0345112D01*
Y0376953D02*
Y0387953D01*
X0339112Y0376953D02*
X0345112D01*
X0339112D02*
Y0387953D01*
X0332626Y0387953D02*
X0338626D01*
Y0376953D02*
Y0387953D01*
X0332626Y0376953D02*
X0338626D01*
X0332626D02*
Y0387953D01*
X0326139D02*
X0332139D01*
Y0376953D02*
Y0387953D01*
X0326139Y0376953D02*
X0332139D01*
X0326139D02*
Y0387953D01*
X0319654D02*
X0325654D01*
Y0376953D02*
Y0387953D01*
X0319654Y0376953D02*
X0325654D01*
X0319654D02*
Y0387953D01*
X0468559Y0376055D02*
Y0382055D01*
X0457559Y0376055D02*
X0468559D01*
X0457559D02*
Y0382055D01*
X0468559D01*
Y0382555D02*
Y0388555D01*
X0457559Y0382555D02*
X0468559D01*
X0457559D02*
Y0388555D01*
X0468559D01*
X0365056Y0387953D02*
X0371056D01*
Y0376953D02*
Y0387953D01*
X0365056Y0376953D02*
X0371056D01*
X0365056D02*
Y0387953D01*
X0345598Y0387953D02*
X0351598D01*
Y0376953D02*
Y0387953D01*
X0345598Y0376953D02*
X0351598D01*
X0345598D02*
Y0387953D01*
X0351642Y0342028D02*
X0359516D01*
X0351642Y0328642D02*
Y0342028D01*
Y0328642D02*
X0359516D01*
Y0342028D01*
X0494827Y0357563D02*
Y0365437D01*
X0481441D02*
X0494827D01*
X0481441Y0357563D02*
Y0365437D01*
Y0357563D02*
X0494827D01*
X0465250Y0410797D02*
X0476750D01*
Y0405297D02*
Y0410797D01*
X0465250Y0405297D02*
X0476750D01*
X0465250D02*
Y0410797D01*
Y0416703D02*
X0476750D01*
Y0411203D02*
Y0416703D01*
X0465250Y0411203D02*
X0476750D01*
X0465250D02*
Y0416703D01*
X0372305Y0329978D02*
Y0341478D01*
X0366805Y0329978D02*
X0372305D01*
X0366805D02*
Y0341478D01*
X0372305D01*
X0429258Y0332868D02*
X0440758D01*
Y0327368D02*
Y0332868D01*
X0429258Y0327368D02*
X0440758D01*
X0429258D02*
Y0332868D01*
X0429159Y0339579D02*
X0440659D01*
Y0334079D02*
Y0339579D01*
X0429159Y0334079D02*
X0440659D01*
X0429159D02*
Y0339579D01*
X0369856Y0310392D02*
Y0321892D01*
X0375356D01*
Y0310392D02*
Y0321892D01*
X0369856Y0310392D02*
X0375356D01*
X0365908Y0330077D02*
Y0341577D01*
X0360407Y0330077D02*
X0365908D01*
X0360407D02*
Y0341577D01*
X0365908D01*
X0406395Y0299219D02*
X0417895D01*
X0406395D02*
Y0304718D01*
X0417895D01*
Y0299219D02*
Y0304718D01*
X0462671Y0313640D02*
Y0325140D01*
X0468171D01*
Y0313640D02*
Y0325140D01*
X0462671Y0313640D02*
X0468171D01*
X0421895Y0353957D02*
Y0365457D01*
X0427395D01*
Y0353957D02*
Y0365457D01*
X0421895Y0353957D02*
X0427395D01*
X0402895Y0353956D02*
Y0365456D01*
X0408395D01*
Y0353956D02*
Y0365456D01*
X0402895Y0353956D02*
X0408395D01*
X0406750Y0376703D02*
Y0388203D01*
X0412250D01*
Y0376703D02*
Y0388203D01*
X0406750Y0376703D02*
X0412250D01*
X0389002Y0365360D02*
X0400502D01*
X0389002D02*
Y0370860D01*
X0400502D01*
Y0365360D02*
Y0370860D01*
X0382553Y0354191D02*
Y0365691D01*
X0388053D01*
Y0354191D02*
Y0365691D01*
X0382553Y0354191D02*
X0388053D01*
X0499750Y0408750D02*
X0511250D01*
X0499750D02*
Y0414250D01*
X0511250D01*
Y0408750D02*
Y0414250D01*
X0483357Y0366750D02*
X0494857D01*
X0483357D02*
Y0372250D01*
X0494857D01*
Y0366750D02*
Y0372250D01*
X0474250Y0359250D02*
Y0370750D01*
X0479750D01*
Y0359250D02*
Y0370750D01*
X0474250Y0359250D02*
X0479750D01*
X0474750Y0354750D02*
X0486250D01*
Y0349250D02*
Y0354750D01*
X0474750Y0349250D02*
X0486250D01*
X0474750D02*
Y0354750D01*
X0502750Y0335250D02*
Y0346750D01*
X0497250Y0335250D02*
X0502750D01*
X0497250D02*
Y0346750D01*
X0502750D01*
X0481250Y0327250D02*
X0492750D01*
X0481250D02*
Y0332750D01*
X0492750D01*
Y0327250D02*
Y0332750D01*
X0479988Y0376181D02*
Y0388386D01*
X0483925Y0376181D02*
Y0388386D01*
X0479988D02*
X0483925D01*
X0479988Y0376181D02*
X0483925D01*
X0483032Y0346602D02*
X0486969D01*
X0483032Y0334398D02*
X0486969D01*
X0483032D02*
Y0346602D01*
X0486969Y0334398D02*
Y0346602D01*
X0450421Y0326279D02*
X0454358D01*
X0450421Y0314075D02*
X0454358D01*
X0450421D02*
Y0326279D01*
X0454358Y0314075D02*
Y0326279D01*
X0314362Y0418535D02*
Y0420504D01*
X0403732D01*
Y0418535D02*
Y0420504D01*
X0314362Y0399638D02*
X0324598D01*
X0314362D02*
Y0405150D01*
X0403732Y0399638D02*
Y0405150D01*
X0393496Y0399638D02*
X0403732D01*
X0421976Y0368996D02*
Y0381594D01*
Y0368996D02*
X0444024D01*
Y0381594D01*
X0421976Y0381594D02*
X0444024Y0381594D01*
X0386795Y0337705D02*
X0411205D01*
X0386795Y0313295D02*
X0411205D01*
Y0337705D01*
X0386795Y0313295D02*
Y0337705D01*
X0409488Y0353063D02*
X0420511D01*
Y0360937D01*
X0409488D02*
X0420511D01*
X0409488Y0353063D02*
Y0360937D01*
X0411917Y0284862D02*
Y0294862D01*
X0351917Y0284862D02*
Y0294862D01*
X0411917Y0294862D01*
X0351917Y0284862D02*
X0411917Y0284862D01*
X0485000Y0405000D02*
Y0418000D01*
X0479000Y0418000D02*
X0485000Y0418000D01*
X0479000Y0418000D02*
X0479000Y0405000D01*
Y0406000D02*
X0485000D01*
X0479000Y0405000D02*
X0485000Y0405000D01*
X0492000Y0418000D02*
X0492000Y0405000D01*
X0486000Y0418000D02*
X0492000Y0418000D01*
X0486000Y0418000D02*
X0486000Y0405000D01*
Y0406000D02*
X0492000D01*
X0486000Y0405000D02*
X0492000Y0405000D01*
X0388551Y0354823D02*
X0400362D01*
Y0364272D01*
X0388551D02*
X0400362D01*
X0388551Y0354823D02*
Y0364272D01*
X0414004Y0284862D02*
Y0294862D01*
X0454004Y0294862D01*
X0414004Y0284862D02*
X0454004Y0284862D01*
Y0294862D01*
X0496032Y0284764D02*
Y0294764D01*
X0456032Y0284764D02*
X0496032Y0284764D01*
X0456032Y0294764D02*
X0496032Y0294764D01*
X0456032Y0284764D02*
Y0294764D01*
X0524984Y0383535D02*
X0526559Y0381961D01*
X0524984Y0383535D02*
X0526559Y0385110D01*
X0524984Y0383535D02*
X0529709D01*
X0523016Y0369756D02*
X0524984D01*
X0523016Y0397315D02*
X0524984D01*
X0499197Y0375268D02*
Y0376449D01*
X0505299Y0398890D02*
X0506087D01*
X0519276Y0367787D02*
Y0399284D01*
X0516520Y0367787D02*
Y0399284D01*
X0515535D02*
X0521638D01*
X0515535Y0367787D02*
X0521638D01*
Y0399284D01*
X0505299Y0368181D02*
X0506087D01*
X0499197Y0390622D02*
Y0391803D01*
X0524984Y0362276D02*
X0529709D01*
X0524984D02*
Y0404795D01*
X0529709D01*
D14*
X0502500Y0306110D02*
Y0331110D01*
Y0306110D02*
X0515500D01*
Y0331110D01*
X0502500D02*
X0515500D01*
D15*
X0509039Y0383535D02*
X0509827D01*
D16*
X0451346Y0378346D02*
X0448198D01*
Y0379921D01*
X0448723Y0380446D01*
X0449772D01*
X0450297Y0379921D01*
Y0378346D01*
Y0379396D02*
X0451346Y0380446D01*
Y0381495D02*
Y0382545D01*
Y0382020D01*
X0448198D01*
X0448723Y0381495D01*
X0451346Y0384119D02*
Y0385168D01*
Y0384644D01*
X0448198D01*
X0448723Y0384119D01*
D17*
X0421328Y0384055D02*
X0424476D01*
Y0385629D01*
X0423952Y0386154D01*
X0423427D01*
X0422902Y0385629D01*
Y0384055D01*
Y0385629D01*
X0422377Y0386154D01*
X0421852D01*
X0421328Y0385629D01*
Y0384055D01*
Y0388778D02*
Y0387729D01*
X0421852Y0387204D01*
X0423952D01*
X0424476Y0387729D01*
Y0388778D01*
X0423952Y0389303D01*
X0421852D01*
X0421328Y0388778D01*
Y0391927D02*
Y0390877D01*
X0421852Y0390352D01*
X0423952D01*
X0424476Y0390877D01*
Y0391927D01*
X0423952Y0392451D01*
X0421852D01*
X0421328Y0391927D01*
Y0393501D02*
Y0395600D01*
Y0394550D01*
X0424476D01*
X0287075Y0377361D02*
Y0374213D01*
X0289174D01*
X0291798Y0377361D02*
X0290748D01*
X0290223Y0376836D01*
Y0374737D01*
X0290748Y0374213D01*
X0291798D01*
X0292322Y0374737D01*
Y0376836D01*
X0291798Y0377361D01*
X0293372Y0374213D02*
Y0377361D01*
X0294946D01*
X0295471Y0376836D01*
Y0375787D01*
X0294946Y0375262D01*
X0293372D01*
X0294422D02*
X0295471Y0374213D01*
X0296521D02*
Y0376312D01*
X0297570Y0377361D01*
X0298620Y0376312D01*
Y0374213D01*
Y0375787D01*
X0296521D01*
X0302818Y0377361D02*
Y0374213D01*
X0304392D01*
X0304917Y0374737D01*
Y0375262D01*
X0304392Y0375787D01*
X0302818D01*
X0304392D01*
X0304917Y0376312D01*
Y0376836D01*
X0304392Y0377361D01*
X0302818D01*
X0307541D02*
X0306491D01*
X0305966Y0376836D01*
Y0374737D01*
X0306491Y0374213D01*
X0307541D01*
X0308065Y0374737D01*
Y0376836D01*
X0307541Y0377361D01*
X0309115Y0374213D02*
Y0376312D01*
X0310164Y0377361D01*
X0311214Y0376312D01*
Y0374213D01*
Y0375787D01*
X0309115D01*
X0312263Y0374213D02*
Y0377361D01*
X0313838D01*
X0314363Y0376836D01*
Y0375787D01*
X0313838Y0375262D01*
X0312263D01*
X0313313D02*
X0314363Y0374213D01*
X0315412Y0377361D02*
Y0374213D01*
X0316986D01*
X0317511Y0374737D01*
Y0376836D01*
X0316986Y0377361D01*
X0315412D01*
X0287173Y0382020D02*
X0288223Y0379921D01*
X0289272Y0382020D01*
X0290322Y0382545D02*
X0290847Y0383070D01*
X0291896D01*
X0292421Y0382545D01*
Y0380446D01*
X0291896Y0379921D01*
X0290847D01*
X0290322Y0380446D01*
Y0382545D01*
X0293470Y0379397D02*
X0295569D01*
X0298718Y0379921D02*
X0296619D01*
X0298718Y0382020D01*
Y0382545D01*
X0298193Y0383070D01*
X0297144D01*
X0296619Y0382545D01*
X0287075Y0388582D02*
X0288124D01*
X0287600D01*
Y0385433D01*
X0287075D01*
X0288124D01*
X0289699D02*
Y0388582D01*
X0291273D01*
X0291798Y0388057D01*
Y0387007D01*
X0291273Y0386483D01*
X0289699D01*
X0290748D02*
X0291798Y0385433D01*
X0292847D02*
Y0388582D01*
X0294946Y0385433D01*
Y0388582D01*
X0295996Y0385433D02*
Y0387532D01*
X0297045Y0388582D01*
X0298095Y0387532D01*
Y0385433D01*
Y0387007D01*
X0295996D01*
X0301243Y0388057D02*
X0300719Y0388582D01*
X0299669D01*
X0299144Y0388057D01*
Y0387532D01*
X0299669Y0387007D01*
X0300719D01*
X0301243Y0386483D01*
Y0385958D01*
X0300719Y0385433D01*
X0299669D01*
X0299144Y0385958D01*
X0302293Y0385433D02*
Y0385958D01*
X0302818D01*
Y0385433D01*
X0302293D01*
X0307016Y0388582D02*
X0304917D01*
Y0385433D01*
X0307016D01*
X0304917Y0387007D02*
X0305966D01*
X0308065Y0388582D02*
Y0385958D01*
X0308590Y0385433D01*
X0309640D01*
X0310164Y0385958D01*
Y0388582D01*
X0482481Y0315222D02*
X0481956Y0315747D01*
X0480907D01*
X0480382Y0315222D01*
Y0313123D01*
X0480907Y0312598D01*
X0481956D01*
X0482481Y0313123D01*
Y0314173D01*
X0481431D01*
X0483531Y0312598D02*
Y0315747D01*
X0485630Y0312598D01*
Y0315747D01*
X0486679D02*
Y0312598D01*
X0488253D01*
X0488778Y0313123D01*
Y0315222D01*
X0488253Y0315747D01*
X0486679D01*
X0492976D02*
X0495075D01*
X0494026D01*
Y0312598D01*
X0496125Y0315747D02*
X0498224Y0312598D01*
Y0315747D02*
X0496125Y0312598D01*
X0480677Y0317323D02*
Y0320471D01*
X0482252D01*
X0482776Y0319947D01*
Y0318897D01*
X0482252Y0318372D01*
X0480677D01*
X0481727D02*
X0482776Y0317323D01*
X0485925Y0319947D02*
X0485400Y0320471D01*
X0484350D01*
X0483826Y0319947D01*
Y0319422D01*
X0484350Y0318897D01*
X0485400D01*
X0485925Y0318372D01*
Y0317848D01*
X0485400Y0317323D01*
X0484350D01*
X0483826Y0317848D01*
X0486974Y0320471D02*
X0489073D01*
X0488024D01*
Y0317323D01*
X0495371Y0319947D02*
X0494846Y0320471D01*
X0493796D01*
X0493271Y0319947D01*
Y0317848D01*
X0493796Y0317323D01*
X0494846D01*
X0495371Y0317848D01*
X0496420Y0320471D02*
Y0317323D01*
X0498519D01*
X0499569Y0320471D02*
Y0317323D01*
Y0318372D01*
X0501668Y0320471D01*
X0500094Y0318897D01*
X0501668Y0317323D01*
X0480677Y0324802D02*
Y0322703D01*
X0481727Y0321654D01*
X0482776Y0322703D01*
Y0324802D01*
X0485925Y0324277D02*
X0485400Y0324802D01*
X0484350D01*
X0483826Y0324277D01*
Y0322178D01*
X0484350Y0321654D01*
X0485400D01*
X0485925Y0322178D01*
X0489073Y0324277D02*
X0488549Y0324802D01*
X0487499D01*
X0486974Y0324277D01*
Y0322178D01*
X0487499Y0321654D01*
X0488549D01*
X0489073Y0322178D01*
X0493271Y0324802D02*
X0494321D01*
X0493796D01*
Y0321654D01*
X0493271D01*
X0494321D01*
X0497470Y0324802D02*
X0496420D01*
X0495895Y0324277D01*
Y0322178D01*
X0496420Y0321654D01*
X0497470D01*
X0497994Y0322178D01*
Y0324277D01*
X0497470Y0324802D01*
X0486811Y0298621D02*
Y0296522D01*
X0487860Y0295472D01*
X0488910Y0296522D01*
Y0298621D01*
X0492059Y0298096D02*
X0491534Y0298621D01*
X0490484D01*
X0489959Y0298096D01*
Y0295997D01*
X0490484Y0295472D01*
X0491534D01*
X0492059Y0295997D01*
X0495207Y0298096D02*
X0494682Y0298621D01*
X0493633D01*
X0493108Y0298096D01*
Y0295997D01*
X0493633Y0295472D01*
X0494682D01*
X0495207Y0295997D01*
X0459056Y0298293D02*
X0458531Y0298818D01*
X0457481D01*
X0456957Y0298293D01*
Y0296194D01*
X0457481Y0295669D01*
X0458531D01*
X0459056Y0296194D01*
Y0297244D01*
X0458006D01*
X0460105Y0295669D02*
Y0298818D01*
X0462204Y0295669D01*
Y0298818D01*
X0463254D02*
Y0295669D01*
X0464828D01*
X0465353Y0296194D01*
Y0298293D01*
X0464828Y0298818D01*
X0463254D01*
X0478611Y0295276D02*
Y0297375D01*
Y0296325D01*
X0481760D01*
X0478611Y0298424D02*
X0481760Y0300523D01*
X0478611D02*
X0481760Y0298424D01*
X0472606Y0295374D02*
X0469458D01*
Y0296948D01*
X0469982Y0297473D01*
X0471032D01*
X0471557Y0296948D01*
Y0295374D01*
Y0296424D02*
X0472606Y0297473D01*
X0469458Y0298523D02*
X0472606Y0300622D01*
X0469458D02*
X0472606Y0298523D01*
X0437108Y0297276D02*
X0436584Y0296751D01*
Y0295702D01*
X0437108Y0295177D01*
X0437633D01*
X0438158Y0295702D01*
Y0296751D01*
X0438683Y0297276D01*
X0439208D01*
X0439732Y0296751D01*
Y0295702D01*
X0439208Y0295177D01*
X0436584Y0298326D02*
X0439732D01*
Y0299900D01*
X0439208Y0300425D01*
X0437108D01*
X0436584Y0299900D01*
Y0298326D01*
X0439732Y0301474D02*
X0437633D01*
X0436584Y0302524D01*
X0437633Y0303573D01*
X0439732D01*
X0438158D01*
Y0301474D01*
X0427069Y0297768D02*
X0426544Y0297244D01*
Y0296194D01*
X0427069Y0295669D01*
X0427594D01*
X0428119Y0296194D01*
Y0297244D01*
X0428643Y0297768D01*
X0429168D01*
X0429693Y0297244D01*
Y0296194D01*
X0429168Y0295669D01*
X0427069Y0300917D02*
X0426544Y0300392D01*
Y0299343D01*
X0427069Y0298818D01*
X0429168D01*
X0429693Y0299343D01*
Y0300392D01*
X0429168Y0300917D01*
X0426544Y0301967D02*
X0429693D01*
Y0304065D01*
X0445473Y0297703D02*
X0444948Y0298227D01*
X0443899D01*
X0443374Y0297703D01*
Y0295603D01*
X0443899Y0295079D01*
X0444948D01*
X0445473Y0295603D01*
Y0296653D01*
X0444423D01*
X0446523Y0295079D02*
Y0298227D01*
X0448622Y0295079D01*
Y0298227D01*
X0449671D02*
Y0295079D01*
X0451245D01*
X0451770Y0295603D01*
Y0297703D01*
X0451245Y0298227D01*
X0449671D01*
X0414173Y0298326D02*
Y0296227D01*
X0415223Y0295177D01*
X0416272Y0296227D01*
Y0298326D01*
X0419421Y0297801D02*
X0418896Y0298326D01*
X0417846D01*
X0417322Y0297801D01*
Y0295702D01*
X0417846Y0295177D01*
X0418896D01*
X0419421Y0295702D01*
X0422569Y0297801D02*
X0422045Y0298326D01*
X0420995D01*
X0420470Y0297801D01*
Y0295702D01*
X0420995Y0295177D01*
X0422045D01*
X0422569Y0295702D01*
X0352657Y0298621D02*
Y0296522D01*
X0353707Y0295472D01*
X0354756Y0296522D01*
Y0298621D01*
X0357905Y0298096D02*
X0357380Y0298621D01*
X0356331D01*
X0355806Y0298096D01*
Y0295997D01*
X0356331Y0295472D01*
X0357380D01*
X0357905Y0295997D01*
X0361054Y0298096D02*
X0360529Y0298621D01*
X0359479D01*
X0358955Y0298096D01*
Y0295997D01*
X0359479Y0295472D01*
X0360529D01*
X0361054Y0295997D01*
X0403249Y0297604D02*
X0402724Y0298129D01*
X0401674D01*
X0401150Y0297604D01*
Y0295505D01*
X0401674Y0294980D01*
X0402724D01*
X0403249Y0295505D01*
Y0296555D01*
X0402199D01*
X0404298Y0294980D02*
Y0298129D01*
X0406397Y0294980D01*
Y0298129D01*
X0407447D02*
Y0294980D01*
X0409021D01*
X0409546Y0295505D01*
Y0297604D01*
X0409021Y0298129D01*
X0407447D01*
X0395376Y0298457D02*
X0394851Y0297933D01*
Y0296883D01*
X0395376Y0296358D01*
X0395901D01*
X0396426Y0296883D01*
Y0297933D01*
X0396951Y0298457D01*
X0397475D01*
X0398000Y0297933D01*
Y0296883D01*
X0397475Y0296358D01*
X0394851Y0299507D02*
Y0300556D01*
Y0300032D01*
X0398000D01*
Y0299507D01*
Y0300556D01*
X0386124Y0298359D02*
X0385599Y0297834D01*
Y0296785D01*
X0386124Y0296260D01*
X0386649D01*
X0387174Y0296785D01*
Y0297834D01*
X0387699Y0298359D01*
X0388223D01*
X0388748Y0297834D01*
Y0296785D01*
X0388223Y0296260D01*
X0385599Y0300983D02*
Y0299933D01*
X0386124Y0299408D01*
X0388223D01*
X0388748Y0299933D01*
Y0300983D01*
X0388223Y0301507D01*
X0386124D01*
X0385599Y0300983D01*
X0375789Y0297670D02*
X0375265Y0297145D01*
Y0296096D01*
X0375789Y0295571D01*
X0377889D01*
X0378413Y0296096D01*
Y0297145D01*
X0377889Y0297670D01*
X0375265Y0298720D02*
X0378413D01*
Y0300818D01*
X0375265Y0301868D02*
X0378413D01*
X0377364D01*
X0375265Y0303967D01*
X0376839Y0302393D01*
X0378413Y0303967D01*
X0366144Y0297079D02*
X0365619Y0296555D01*
Y0295505D01*
X0366144Y0294980D01*
X0368243D01*
X0368768Y0295505D01*
Y0296555D01*
X0368243Y0297079D01*
X0366144Y0300228D02*
X0365619Y0299703D01*
Y0298654D01*
X0366144Y0298129D01*
X0366669D01*
X0367193Y0298654D01*
Y0299703D01*
X0367718Y0300228D01*
X0368243D01*
X0368768Y0299703D01*
Y0298654D01*
X0368243Y0298129D01*
X0389635Y0388976D02*
X0391734D01*
X0392783Y0390026D01*
X0391734Y0391075D01*
X0389635D01*
X0390160Y0394224D02*
X0389635Y0393699D01*
Y0392650D01*
X0390160Y0392125D01*
X0392259D01*
X0392783Y0392650D01*
Y0393699D01*
X0392259Y0394224D01*
X0390160Y0397373D02*
X0389635Y0396848D01*
Y0395798D01*
X0390160Y0395274D01*
X0392259D01*
X0392783Y0395798D01*
Y0396848D01*
X0392259Y0397373D01*
X0384845Y0391272D02*
X0384320Y0390747D01*
Y0389698D01*
X0384845Y0389173D01*
X0386944D01*
X0387469Y0389698D01*
Y0390747D01*
X0386944Y0391272D01*
X0385894D01*
Y0390223D01*
X0387469Y0392322D02*
X0384320D01*
X0387469Y0394421D01*
X0384320D01*
Y0395470D02*
X0387469D01*
Y0397045D01*
X0386944Y0397569D01*
X0384845D01*
X0384320Y0397045D01*
Y0395470D01*
X0380022Y0391272D02*
X0379497Y0390747D01*
Y0389698D01*
X0380022Y0389173D01*
X0382121D01*
X0382646Y0389698D01*
Y0390747D01*
X0382121Y0391272D01*
X0379497Y0392322D02*
X0382646D01*
Y0394421D01*
X0379497Y0395470D02*
X0382646D01*
X0381596D01*
X0379497Y0397569D01*
X0381071Y0395995D01*
X0382646Y0397569D01*
X0375101Y0391272D02*
X0374576Y0390747D01*
Y0389698D01*
X0375101Y0389173D01*
X0375625D01*
X0376150Y0389698D01*
Y0390747D01*
X0376675Y0391272D01*
X0377200D01*
X0377724Y0390747D01*
Y0389698D01*
X0377200Y0389173D01*
X0374576Y0393896D02*
Y0392847D01*
X0375101Y0392322D01*
X0377200D01*
X0377724Y0392847D01*
Y0393896D01*
X0377200Y0394421D01*
X0375101D01*
X0374576Y0393896D01*
X0370376Y0391568D02*
X0369851Y0391043D01*
Y0389993D01*
X0370376Y0389469D01*
X0370901D01*
X0371426Y0389993D01*
Y0391043D01*
X0371951Y0391568D01*
X0372475D01*
X0373000Y0391043D01*
Y0389993D01*
X0372475Y0389469D01*
X0369851Y0392617D02*
Y0393667D01*
Y0393142D01*
X0373000D01*
Y0392617D01*
Y0393667D01*
X0365258Y0391272D02*
X0364733Y0390747D01*
Y0389698D01*
X0365258Y0389173D01*
X0367357D01*
X0367882Y0389698D01*
Y0390747D01*
X0367357Y0391272D01*
X0365258Y0394421D02*
X0364733Y0393896D01*
Y0392847D01*
X0365258Y0392322D01*
X0365783D01*
X0366308Y0392847D01*
Y0393896D01*
X0366832Y0394421D01*
X0367357D01*
X0367882Y0393896D01*
Y0392847D01*
X0367357Y0392322D01*
X0363189Y0389272D02*
X0360040D01*
Y0390846D01*
X0360565Y0391371D01*
X0361615D01*
X0362139Y0390846D01*
Y0389272D01*
Y0390321D02*
X0363189Y0391371D01*
X0360040Y0392420D02*
X0363189Y0394519D01*
X0360040D02*
X0363189Y0392420D01*
X0354935Y0389075D02*
Y0391174D01*
Y0390124D01*
X0358084D01*
X0354935Y0392223D02*
X0358084Y0394322D01*
X0354935D02*
X0358084Y0392223D01*
X0353118Y0388976D02*
X0349970D01*
Y0390551D01*
X0350494Y0391075D01*
X0351544D01*
X0352069Y0390551D01*
Y0388976D01*
Y0390026D02*
X0353118Y0391075D01*
X0349970Y0392125D02*
Y0394224D01*
Y0393175D01*
X0353118D01*
X0350494Y0397373D02*
X0349970Y0396848D01*
Y0395798D01*
X0350494Y0395274D01*
X0351019D01*
X0351544Y0395798D01*
Y0396848D01*
X0352069Y0397373D01*
X0352593D01*
X0353118Y0396848D01*
Y0395798D01*
X0352593Y0395274D01*
X0345868Y0391174D02*
X0345343Y0390649D01*
Y0389600D01*
X0345868Y0389075D01*
X0347967D01*
X0348492Y0389600D01*
Y0390649D01*
X0347967Y0391174D01*
X0345343Y0392223D02*
Y0394322D01*
Y0393273D01*
X0348492D01*
X0345868Y0397471D02*
X0345343Y0396946D01*
Y0395897D01*
X0345868Y0395372D01*
X0346393D01*
X0346918Y0395897D01*
Y0396946D01*
X0347443Y0397471D01*
X0347967D01*
X0348492Y0396946D01*
Y0395897D01*
X0347967Y0395372D01*
X0340324Y0388976D02*
Y0390026D01*
Y0389501D01*
X0343472D01*
Y0388976D01*
Y0390026D01*
X0340324Y0393175D02*
Y0392125D01*
X0340849Y0391600D01*
X0342948D01*
X0343472Y0392125D01*
Y0393175D01*
X0342948Y0393699D01*
X0340849D01*
X0340324Y0393175D01*
X0343472Y0394749D02*
Y0395798D01*
Y0395274D01*
X0340324D01*
X0340849Y0394749D01*
X0335403Y0389075D02*
Y0390124D01*
Y0389600D01*
X0338551D01*
Y0389075D01*
Y0390124D01*
X0335403Y0393273D02*
Y0392223D01*
X0335927Y0391699D01*
X0338026D01*
X0338551Y0392223D01*
Y0393273D01*
X0338026Y0393798D01*
X0335927D01*
X0335403Y0393273D01*
X0338551Y0396946D02*
Y0394847D01*
X0336452Y0396946D01*
X0335927D01*
X0335403Y0396422D01*
Y0395372D01*
X0335927Y0394847D01*
X0330186Y0389272D02*
Y0390321D01*
Y0389796D01*
X0333335D01*
Y0389272D01*
Y0390321D01*
X0330186Y0393470D02*
Y0392420D01*
X0330711Y0391896D01*
X0332810D01*
X0333335Y0392420D01*
Y0393470D01*
X0332810Y0393994D01*
X0330711D01*
X0330186Y0393470D01*
X0330711Y0395044D02*
X0330186Y0395569D01*
Y0396618D01*
X0330711Y0397143D01*
X0331236D01*
X0331760Y0396618D01*
Y0396094D01*
Y0396618D01*
X0332285Y0397143D01*
X0332810D01*
X0333335Y0396618D01*
Y0395569D01*
X0332810Y0395044D01*
X0325068Y0389272D02*
Y0390321D01*
Y0389796D01*
X0328217D01*
Y0389272D01*
Y0390321D01*
X0325068Y0393470D02*
Y0392420D01*
X0325593Y0391896D01*
X0327692D01*
X0328217Y0392420D01*
Y0393470D01*
X0327692Y0393994D01*
X0325593D01*
X0325068Y0393470D01*
X0328217Y0396618D02*
X0325068D01*
X0326642Y0395044D01*
Y0397143D01*
X0503905Y0304920D02*
X0504955D01*
X0504430D01*
Y0301772D01*
X0503905D01*
X0504955D01*
X0508628Y0304396D02*
X0508104Y0304920D01*
X0507054D01*
X0506529Y0304396D01*
Y0302296D01*
X0507054Y0301772D01*
X0508104D01*
X0508628Y0302296D01*
X0511777Y0304396D02*
X0511252Y0304920D01*
X0510203D01*
X0509678Y0304396D01*
Y0303871D01*
X0510203Y0303346D01*
X0511252D01*
X0511777Y0302821D01*
Y0302296D01*
X0511252Y0301772D01*
X0510203D01*
X0509678Y0302296D01*
X0512826Y0301772D02*
Y0304920D01*
X0514401D01*
X0514926Y0304396D01*
Y0303346D01*
X0514401Y0302821D01*
X0512826D01*
X0450461Y0331397D02*
Y0328773D01*
X0450985Y0328248D01*
X0452035D01*
X0452560Y0328773D01*
Y0331397D01*
X0453609Y0330872D02*
X0454134Y0331397D01*
X0455184D01*
X0455708Y0330872D01*
Y0330347D01*
X0455184Y0329822D01*
X0454659D01*
X0455184D01*
X0455708Y0329298D01*
Y0328773D01*
X0455184Y0328248D01*
X0454134D01*
X0453609Y0328773D01*
X0410335Y0418273D02*
X0409810Y0418798D01*
X0408761D01*
X0408236Y0418273D01*
Y0416174D01*
X0408761Y0415650D01*
X0409810D01*
X0410335Y0416174D01*
X0412959Y0418798D02*
X0411910D01*
X0411385Y0418273D01*
Y0416174D01*
X0411910Y0415650D01*
X0412959D01*
X0413484Y0416174D01*
Y0418273D01*
X0412959Y0418798D01*
X0414533Y0415650D02*
Y0418798D01*
X0416632Y0415650D01*
Y0418798D01*
X0417682Y0415650D02*
X0418731D01*
X0418207D01*
Y0418798D01*
X0417682Y0418273D01*
X0493768Y0333267D02*
Y0330643D01*
X0494292Y0330118D01*
X0495342D01*
X0495867Y0330643D01*
Y0333267D01*
X0499015D02*
X0496916D01*
Y0331692D01*
X0497966Y0332217D01*
X0498491D01*
X0499015Y0331692D01*
Y0330643D01*
X0498491Y0330118D01*
X0497441D01*
X0496916Y0330643D01*
X0473591Y0391338D02*
Y0388714D01*
X0474115Y0388189D01*
X0475165D01*
X0475690Y0388714D01*
Y0391338D01*
X0478313Y0388189D02*
Y0391338D01*
X0476739Y0389763D01*
X0478838D01*
X0380776Y0312401D02*
Y0309777D01*
X0381300Y0309252D01*
X0382350D01*
X0382875Y0309777D01*
Y0312401D01*
X0383924Y0309252D02*
X0384974D01*
X0384449D01*
Y0312401D01*
X0383924Y0311876D01*
X0398492Y0353936D02*
Y0353411D01*
X0399542Y0352362D01*
X0400591Y0353411D01*
Y0353936D01*
X0399542Y0352362D02*
Y0350787D01*
X0401641D02*
X0402690D01*
X0402166D01*
Y0353936D01*
X0401641Y0353411D01*
X0411189Y0365550D02*
X0413288Y0362402D01*
Y0365550D02*
X0411189Y0362402D01*
X0414338D02*
X0415387D01*
X0414862D01*
Y0365550D01*
X0414338Y0365025D01*
X0418209Y0371325D02*
X0417685Y0371849D01*
X0416635D01*
X0416110Y0371325D01*
Y0370800D01*
X0416635Y0370275D01*
X0417685D01*
X0418209Y0369750D01*
Y0369226D01*
X0417685Y0368701D01*
X0416635D01*
X0416110Y0369226D01*
X0419259Y0368701D02*
X0420308D01*
X0419784D01*
Y0371849D01*
X0419259Y0371325D01*
X0349772Y0366634D02*
X0346623D01*
Y0368208D01*
X0347148Y0368733D01*
X0348197D01*
X0348722Y0368208D01*
Y0366634D01*
Y0367683D02*
X0349772Y0368733D01*
Y0371882D02*
Y0369782D01*
X0347673Y0371882D01*
X0347148D01*
X0346623Y0371357D01*
Y0370307D01*
X0347148Y0369782D01*
X0346623Y0372931D02*
Y0375030D01*
X0347148D01*
X0349247Y0372931D01*
X0349772D01*
X0369850Y0366437D02*
X0366702D01*
Y0368011D01*
X0367227Y0368536D01*
X0368276D01*
X0368801Y0368011D01*
Y0366437D01*
Y0367487D02*
X0369850Y0368536D01*
Y0371685D02*
Y0369586D01*
X0367751Y0371685D01*
X0367227D01*
X0366702Y0371160D01*
Y0370110D01*
X0367227Y0369586D01*
X0366702Y0374833D02*
X0367227Y0373784D01*
X0368276Y0372734D01*
X0369326D01*
X0369850Y0373259D01*
Y0374308D01*
X0369326Y0374833D01*
X0368801D01*
X0368276Y0374308D01*
Y0372734D01*
X0457449Y0389961D02*
Y0393109D01*
X0459023D01*
X0459548Y0392584D01*
Y0391535D01*
X0459023Y0391010D01*
X0457449D01*
X0458498D02*
X0459548Y0389961D01*
X0462697D02*
X0460597D01*
X0462697Y0392060D01*
Y0392584D01*
X0462172Y0393109D01*
X0461122D01*
X0460597Y0392584D01*
X0465845Y0393109D02*
X0463746D01*
Y0391535D01*
X0464795Y0392060D01*
X0465320D01*
X0465845Y0391535D01*
Y0390485D01*
X0465320Y0389961D01*
X0464271D01*
X0463746Y0390485D01*
X0457646Y0371161D02*
Y0374310D01*
X0459220D01*
X0459745Y0373785D01*
Y0372736D01*
X0459220Y0372211D01*
X0457646D01*
X0458695D02*
X0459745Y0371161D01*
X0462893D02*
X0460794D01*
X0462893Y0373260D01*
Y0373785D01*
X0462368Y0374310D01*
X0461319D01*
X0460794Y0373785D01*
X0465517Y0371161D02*
Y0374310D01*
X0463943Y0372736D01*
X0466042D01*
X0323689Y0367224D02*
X0320540D01*
Y0368799D01*
X0321065Y0369323D01*
X0322115D01*
X0322639Y0368799D01*
Y0367224D01*
Y0368274D02*
X0323689Y0369323D01*
Y0372472D02*
Y0370373D01*
X0321590Y0372472D01*
X0321065D01*
X0320540Y0371947D01*
Y0370898D01*
X0321065Y0370373D01*
Y0373522D02*
X0320540Y0374046D01*
Y0375096D01*
X0321065Y0375621D01*
X0321590D01*
X0322115Y0375096D01*
Y0374571D01*
Y0375096D01*
X0322639Y0375621D01*
X0323164D01*
X0323689Y0375096D01*
Y0374046D01*
X0323164Y0373522D01*
X0330972Y0366929D02*
X0327824D01*
Y0368503D01*
X0328349Y0369028D01*
X0329398D01*
X0329923Y0368503D01*
Y0366929D01*
Y0367979D02*
X0330972Y0369028D01*
Y0372177D02*
Y0370078D01*
X0328873Y0372177D01*
X0328349D01*
X0327824Y0371652D01*
Y0370602D01*
X0328349Y0370078D01*
X0330972Y0375325D02*
Y0373226D01*
X0328873Y0375325D01*
X0328349D01*
X0327824Y0374801D01*
Y0373751D01*
X0328349Y0373226D01*
X0337862Y0367520D02*
X0334714D01*
Y0369094D01*
X0335238Y0369619D01*
X0336288D01*
X0336813Y0369094D01*
Y0367520D01*
Y0368569D02*
X0337862Y0369619D01*
Y0372767D02*
Y0370668D01*
X0335763Y0372767D01*
X0335238D01*
X0334714Y0372243D01*
Y0371193D01*
X0335238Y0370668D01*
X0337862Y0373817D02*
Y0374866D01*
Y0374342D01*
X0334714D01*
X0335238Y0373817D01*
X0344063Y0366634D02*
X0340914D01*
Y0368208D01*
X0341439Y0368733D01*
X0342489D01*
X0343014Y0368208D01*
Y0366634D01*
Y0367683D02*
X0344063Y0368733D01*
Y0371882D02*
Y0369782D01*
X0341964Y0371882D01*
X0341439D01*
X0340914Y0371357D01*
Y0370307D01*
X0341439Y0369782D01*
Y0372931D02*
X0340914Y0373456D01*
Y0374505D01*
X0341439Y0375030D01*
X0343538D01*
X0344063Y0374505D01*
Y0373456D01*
X0343538Y0372931D01*
X0341439D01*
X0498689Y0399508D02*
X0495540D01*
Y0401082D01*
X0496065Y0401607D01*
X0497115D01*
X0497639Y0401082D01*
Y0399508D01*
Y0400557D02*
X0498689Y0401607D01*
Y0402657D02*
Y0403706D01*
Y0403181D01*
X0495540D01*
X0496065Y0402657D01*
X0498164Y0405280D02*
X0498689Y0405805D01*
Y0406855D01*
X0498164Y0407379D01*
X0496065D01*
X0495540Y0406855D01*
Y0405805D01*
X0496065Y0405280D01*
X0496590D01*
X0497115Y0405805D01*
Y0407379D01*
X0356661Y0366929D02*
X0353513D01*
Y0368503D01*
X0354038Y0369028D01*
X0355087D01*
X0355612Y0368503D01*
Y0366929D01*
Y0367979D02*
X0356661Y0369028D01*
Y0370078D02*
Y0371127D01*
Y0370602D01*
X0353513D01*
X0354038Y0370078D01*
Y0372702D02*
X0353513Y0373226D01*
Y0374276D01*
X0354038Y0374801D01*
X0354562D01*
X0355087Y0374276D01*
X0355612Y0374801D01*
X0356137D01*
X0356661Y0374276D01*
Y0373226D01*
X0356137Y0372702D01*
X0355612D01*
X0355087Y0373226D01*
X0354562Y0372702D01*
X0354038D01*
X0355087Y0373226D02*
Y0374276D01*
X0363189Y0366142D02*
X0360040D01*
Y0367716D01*
X0360565Y0368241D01*
X0361615D01*
X0362139Y0367716D01*
Y0366142D01*
Y0367191D02*
X0363189Y0368241D01*
Y0369290D02*
Y0370340D01*
Y0369815D01*
X0360040D01*
X0360565Y0369290D01*
X0360040Y0371914D02*
Y0374013D01*
X0360565D01*
X0362664Y0371914D01*
X0363189D01*
X0376150Y0366634D02*
X0373001D01*
Y0368208D01*
X0373526Y0368733D01*
X0374575D01*
X0375100Y0368208D01*
Y0366634D01*
Y0367683D02*
X0376150Y0368733D01*
Y0369782D02*
Y0370832D01*
Y0370307D01*
X0373001D01*
X0373526Y0369782D01*
X0373001Y0374505D02*
X0373526Y0373456D01*
X0374575Y0372406D01*
X0375625D01*
X0376150Y0372931D01*
Y0373981D01*
X0375625Y0374505D01*
X0375100D01*
X0374575Y0373981D01*
Y0372406D01*
X0382154Y0367224D02*
X0379005D01*
Y0368799D01*
X0379530Y0369323D01*
X0380579D01*
X0381104Y0368799D01*
Y0367224D01*
Y0368274D02*
X0382154Y0369323D01*
Y0370373D02*
Y0371423D01*
Y0370898D01*
X0379005D01*
X0379530Y0370373D01*
X0379005Y0375096D02*
Y0372997D01*
X0380579D01*
X0380054Y0374046D01*
Y0374571D01*
X0380579Y0375096D01*
X0381629D01*
X0382154Y0374571D01*
Y0373522D01*
X0381629Y0372997D01*
X0387469Y0367421D02*
X0384320D01*
Y0368996D01*
X0384845Y0369520D01*
X0385894D01*
X0386419Y0368996D01*
Y0367421D01*
Y0368471D02*
X0387469Y0369520D01*
Y0370570D02*
Y0371619D01*
Y0371095D01*
X0384320D01*
X0384845Y0370570D01*
X0387469Y0374768D02*
X0384320D01*
X0385894Y0373194D01*
Y0375293D01*
X0391996Y0372736D02*
Y0375885D01*
X0393570D01*
X0394095Y0375360D01*
Y0374310D01*
X0393570Y0373786D01*
X0391996D01*
X0393046D02*
X0394095Y0372736D01*
X0395145D02*
X0396194D01*
X0395669D01*
Y0375885D01*
X0395145Y0375360D01*
X0397768D02*
X0398293Y0375885D01*
X0399343D01*
X0399868Y0375360D01*
Y0374835D01*
X0399343Y0374310D01*
X0398818D01*
X0399343D01*
X0399868Y0373786D01*
Y0373261D01*
X0399343Y0372736D01*
X0398293D01*
X0397768Y0373261D01*
X0378906Y0348425D02*
Y0351574D01*
X0380480D01*
X0381005Y0351049D01*
Y0349999D01*
X0380480Y0349475D01*
X0378906D01*
X0379955D02*
X0381005Y0348425D01*
X0382054Y0348950D02*
X0382579Y0348425D01*
X0383628D01*
X0384153Y0348950D01*
Y0351049D01*
X0383628Y0351574D01*
X0382579D01*
X0382054Y0351049D01*
Y0350524D01*
X0382579Y0349999D01*
X0384153D01*
X0464634Y0336319D02*
X0461485D01*
Y0337893D01*
X0462010Y0338418D01*
X0463060D01*
X0463584Y0337893D01*
Y0336319D01*
Y0337368D02*
X0464634Y0338418D01*
X0462010Y0339468D02*
X0461485Y0339992D01*
Y0341042D01*
X0462010Y0341567D01*
X0462535D01*
X0463060Y0341042D01*
X0463584Y0341567D01*
X0464109D01*
X0464634Y0341042D01*
Y0339992D01*
X0464109Y0339468D01*
X0463584D01*
X0463060Y0339992D01*
X0462535Y0339468D01*
X0462010D01*
X0463060Y0339992D02*
Y0341042D01*
X0421228Y0312500D02*
Y0315649D01*
X0422803D01*
X0423327Y0315124D01*
Y0314074D01*
X0422803Y0313549D01*
X0421228D01*
X0422278D02*
X0423327Y0312500D01*
X0424377Y0315649D02*
X0426476D01*
Y0315124D01*
X0424377Y0313025D01*
Y0312500D01*
X0421524Y0320640D02*
Y0323789D01*
X0423098D01*
X0423623Y0323264D01*
Y0322215D01*
X0423098Y0321690D01*
X0421524D01*
X0422573D02*
X0423623Y0320640D01*
X0426771Y0323789D02*
X0425722Y0323264D01*
X0424672Y0322215D01*
Y0321165D01*
X0425197Y0320640D01*
X0426247D01*
X0426771Y0321165D01*
Y0321690D01*
X0426247Y0322215D01*
X0424672D01*
X0476642Y0392618D02*
X0473493D01*
Y0394192D01*
X0474018Y0394717D01*
X0475067D01*
X0475592Y0394192D01*
Y0392618D01*
Y0393668D02*
X0476642Y0394717D01*
X0473493Y0397866D02*
Y0395767D01*
X0475067D01*
X0474543Y0396816D01*
Y0397341D01*
X0475067Y0397866D01*
X0476117D01*
X0476642Y0397341D01*
Y0396291D01*
X0476117Y0395767D01*
X0470539Y0392913D02*
X0467391D01*
Y0394488D01*
X0467915Y0395012D01*
X0468965D01*
X0469490Y0394488D01*
Y0392913D01*
Y0393963D02*
X0470539Y0395012D01*
Y0397636D02*
X0467391D01*
X0468965Y0396062D01*
Y0398161D01*
X0432744Y0406004D02*
X0429596D01*
Y0407578D01*
X0430120Y0408103D01*
X0431170D01*
X0431695Y0407578D01*
Y0406004D01*
Y0407054D02*
X0432744Y0408103D01*
X0430120Y0409153D02*
X0429596Y0409677D01*
Y0410727D01*
X0430120Y0411252D01*
X0430645D01*
X0431170Y0410727D01*
Y0410202D01*
Y0410727D01*
X0431695Y0411252D01*
X0432219D01*
X0432744Y0410727D01*
Y0409677D01*
X0432219Y0409153D01*
X0460205Y0399410D02*
X0457056D01*
Y0400984D01*
X0457581Y0401509D01*
X0458630D01*
X0459155Y0400984D01*
Y0399410D01*
Y0400459D02*
X0460205Y0401509D01*
Y0404657D02*
Y0402558D01*
X0458106Y0404657D01*
X0457581D01*
X0457056Y0404132D01*
Y0403083D01*
X0457581Y0402558D01*
X0451445Y0400098D02*
X0448296D01*
Y0401673D01*
X0448821Y0402198D01*
X0449871D01*
X0450395Y0401673D01*
Y0400098D01*
Y0401148D02*
X0451445Y0402198D01*
Y0403247D02*
Y0404296D01*
Y0403772D01*
X0448296D01*
X0448821Y0403247D01*
X0409122Y0389862D02*
Y0393011D01*
X0410696D01*
X0411221Y0392486D01*
Y0391437D01*
X0410696Y0390912D01*
X0409122D01*
X0413845Y0389862D02*
Y0393011D01*
X0412271Y0391437D01*
X0414370D01*
X0345358Y0284917D02*
Y0288066D01*
X0346933D01*
X0347457Y0287541D01*
Y0286492D01*
X0346933Y0285967D01*
X0345358D01*
X0348507Y0287541D02*
X0349032Y0288066D01*
X0350081D01*
X0350606Y0287541D01*
Y0287016D01*
X0350081Y0286492D01*
X0349556D01*
X0350081D01*
X0350606Y0285967D01*
Y0285442D01*
X0350081Y0284917D01*
X0349032D01*
X0348507Y0285442D01*
X0455413Y0296433D02*
X0452265D01*
Y0298007D01*
X0452789Y0298532D01*
X0453839D01*
X0454364Y0298007D01*
Y0296433D01*
X0455413Y0301681D02*
Y0299582D01*
X0453314Y0301681D01*
X0452789D01*
X0452265Y0301156D01*
Y0300106D01*
X0452789Y0299582D01*
X0497512Y0290626D02*
Y0293775D01*
X0499086D01*
X0499611Y0293250D01*
Y0292200D01*
X0499086Y0291675D01*
X0497512D01*
X0500660Y0290626D02*
X0501710D01*
X0501185D01*
Y0293775D01*
X0500660Y0293250D01*
X0498229Y0362399D02*
X0496130D01*
Y0360824D01*
X0497179D01*
X0496130D01*
Y0359250D01*
X0499278Y0362399D02*
Y0359250D01*
X0500853D01*
X0501378Y0359775D01*
Y0360299D01*
X0500853Y0360824D01*
X0499278D01*
X0500853D01*
X0501378Y0361349D01*
Y0361874D01*
X0500853Y0362399D01*
X0499278D01*
X0504526Y0359250D02*
X0502427D01*
X0504526Y0361349D01*
Y0361874D01*
X0504001Y0362399D01*
X0502952D01*
X0502427Y0361874D01*
X0354300Y0346194D02*
Y0344094D01*
X0355874D01*
Y0345144D01*
Y0344094D01*
X0357449D01*
X0354300Y0347243D02*
X0357449D01*
Y0348817D01*
X0356924Y0349342D01*
X0356399D01*
X0355874Y0348817D01*
Y0347243D01*
Y0348817D01*
X0355350Y0349342D01*
X0354825D01*
X0354300Y0348817D01*
Y0347243D01*
X0357449Y0350392D02*
Y0351441D01*
Y0350916D01*
X0354300D01*
X0354825Y0350392D01*
X0473296Y0398917D02*
X0476445D01*
Y0400492D01*
X0475920Y0401016D01*
X0473821D01*
X0473296Y0400492D01*
Y0398917D01*
X0476445Y0404165D02*
Y0402066D01*
X0474346Y0404165D01*
X0473821D01*
X0473296Y0403640D01*
Y0402591D01*
X0473821Y0402066D01*
X0467096Y0399803D02*
X0470244D01*
Y0401377D01*
X0469719Y0401902D01*
X0467620D01*
X0467096Y0401377D01*
Y0399803D01*
X0470244Y0402952D02*
Y0404001D01*
Y0403476D01*
X0467096D01*
X0467620Y0402952D01*
X0505020Y0334710D02*
X0504496Y0335235D01*
X0503446D01*
X0502921Y0334710D01*
Y0332611D01*
X0503446Y0332087D01*
X0504496D01*
X0505020Y0332611D01*
X0507644Y0335235D02*
X0506595D01*
X0506070Y0334710D01*
Y0332611D01*
X0506595Y0332087D01*
X0507644D01*
X0508169Y0332611D01*
Y0334710D01*
X0507644Y0335235D01*
X0509218Y0332087D02*
Y0335235D01*
X0511317Y0332087D01*
Y0335235D01*
X0512367Y0334710D02*
X0512892Y0335235D01*
X0513941D01*
X0514466Y0334710D01*
Y0334186D01*
X0513941Y0333661D01*
X0513417D01*
X0513941D01*
X0514466Y0333136D01*
Y0332611D01*
X0513941Y0332087D01*
X0512892D01*
X0512367Y0332611D01*
X0507776Y0365517D02*
X0507252Y0366042D01*
X0506202D01*
X0505677Y0365517D01*
Y0363419D01*
X0506202Y0362894D01*
X0507252D01*
X0507776Y0363419D01*
X0510400Y0366042D02*
X0509350D01*
X0508826Y0365517D01*
Y0363419D01*
X0509350Y0362894D01*
X0510400D01*
X0510925Y0363419D01*
Y0365517D01*
X0510400Y0366042D01*
X0511974Y0362894D02*
Y0366042D01*
X0514073Y0362894D01*
Y0366042D01*
X0517222Y0362894D02*
X0515123D01*
X0517222Y0364993D01*
Y0365517D01*
X0516697Y0366042D01*
X0515648D01*
X0515123Y0365517D01*
X0474410Y0330675D02*
X0473885Y0331200D01*
X0472836D01*
X0472311Y0330675D01*
Y0328576D01*
X0472836Y0328051D01*
X0473885D01*
X0474410Y0328576D01*
X0477559Y0328051D02*
X0475460D01*
X0477559Y0330150D01*
Y0330675D01*
X0477034Y0331200D01*
X0475984D01*
X0475460Y0330675D01*
X0478608Y0328051D02*
X0479658D01*
X0479133D01*
Y0331200D01*
X0478608Y0330675D01*
X0505250Y0338713D02*
X0504725Y0338188D01*
Y0337139D01*
X0505250Y0336614D01*
X0507349D01*
X0507874Y0337139D01*
Y0338188D01*
X0507349Y0338713D01*
X0507874Y0341862D02*
Y0339763D01*
X0505775Y0341862D01*
X0505250D01*
X0504725Y0341337D01*
Y0340287D01*
X0505250Y0339763D01*
Y0342911D02*
X0504725Y0343436D01*
Y0344486D01*
X0505250Y0345010D01*
X0507349D01*
X0507874Y0344486D01*
Y0343436D01*
X0507349Y0342911D01*
X0505250D01*
X0489764Y0352919D02*
X0489240Y0353444D01*
X0488190D01*
X0487665Y0352919D01*
Y0350820D01*
X0488190Y0350295D01*
X0489240D01*
X0489764Y0350820D01*
X0490814Y0350295D02*
X0491863D01*
X0491339D01*
Y0353444D01*
X0490814Y0352919D01*
X0493438Y0350820D02*
X0493962Y0350295D01*
X0495012D01*
X0495537Y0350820D01*
Y0352919D01*
X0495012Y0353444D01*
X0493962D01*
X0493438Y0352919D01*
Y0352394D01*
X0493962Y0351870D01*
X0495537D01*
X0469786Y0364107D02*
X0469261Y0363582D01*
Y0362533D01*
X0469786Y0362008D01*
X0471885D01*
X0472409Y0362533D01*
Y0363582D01*
X0471885Y0364107D01*
X0472409Y0365157D02*
Y0366206D01*
Y0365681D01*
X0469261D01*
X0469786Y0365157D01*
Y0367780D02*
X0469261Y0368305D01*
Y0369355D01*
X0469786Y0369879D01*
X0470310D01*
X0470835Y0369355D01*
X0471360Y0369879D01*
X0471885D01*
X0472409Y0369355D01*
Y0368305D01*
X0471885Y0367780D01*
X0471360D01*
X0470835Y0368305D01*
X0470310Y0367780D01*
X0469786D01*
X0470835Y0368305D02*
Y0369355D01*
X0491536Y0375754D02*
X0491011Y0376278D01*
X0489962D01*
X0489437Y0375754D01*
Y0373655D01*
X0489962Y0373130D01*
X0491011D01*
X0491536Y0373655D01*
X0492586Y0373130D02*
X0493635D01*
X0493110D01*
Y0376278D01*
X0492586Y0375754D01*
X0495209Y0376278D02*
X0497308D01*
Y0375754D01*
X0495209Y0373655D01*
Y0373130D01*
X0495633Y0411351D02*
X0495108Y0410826D01*
Y0409777D01*
X0495633Y0409252D01*
X0497732D01*
X0498257Y0409777D01*
Y0410826D01*
X0497732Y0411351D01*
X0498257Y0412401D02*
Y0413450D01*
Y0412925D01*
X0495108D01*
X0495633Y0412401D01*
X0495108Y0417123D02*
X0495633Y0416074D01*
X0496683Y0415024D01*
X0497732D01*
X0498257Y0415549D01*
Y0416599D01*
X0497732Y0417123D01*
X0497207D01*
X0496683Y0416599D01*
Y0415024D01*
X0378649Y0358107D02*
X0378124Y0357582D01*
Y0356532D01*
X0378649Y0356008D01*
X0380748D01*
X0381273Y0356532D01*
Y0357582D01*
X0380748Y0358107D01*
X0381273Y0359156D02*
Y0360206D01*
Y0359681D01*
X0378124D01*
X0378649Y0359156D01*
X0378124Y0363879D02*
Y0361780D01*
X0379698D01*
X0379173Y0362829D01*
Y0363354D01*
X0379698Y0363879D01*
X0380748D01*
X0381273Y0363354D01*
Y0362305D01*
X0380748Y0361780D01*
X0404331Y0370636D02*
X0403807Y0371160D01*
X0402757D01*
X0402232Y0370636D01*
Y0368537D01*
X0402757Y0368012D01*
X0403807D01*
X0404331Y0368537D01*
X0405381Y0368012D02*
X0406430D01*
X0405906D01*
Y0371160D01*
X0405381Y0370636D01*
X0409579Y0368012D02*
Y0371160D01*
X0408005Y0369586D01*
X0410104D01*
X0402168Y0381528D02*
X0401643Y0381003D01*
Y0379954D01*
X0402168Y0379429D01*
X0404267D01*
X0404791Y0379954D01*
Y0381003D01*
X0404267Y0381528D01*
X0404791Y0382578D02*
Y0383627D01*
Y0383102D01*
X0401643D01*
X0402168Y0382578D01*
Y0385202D02*
X0401643Y0385726D01*
Y0386776D01*
X0402168Y0387301D01*
X0402692D01*
X0403217Y0386776D01*
Y0386251D01*
Y0386776D01*
X0403742Y0387301D01*
X0404267D01*
X0404791Y0386776D01*
Y0385726D01*
X0404267Y0385202D01*
X0404825Y0347768D02*
X0404300Y0347244D01*
Y0346194D01*
X0404825Y0345669D01*
X0406924D01*
X0407449Y0346194D01*
Y0347244D01*
X0406924Y0347768D01*
X0407449Y0348818D02*
Y0349867D01*
Y0349343D01*
X0404300D01*
X0404825Y0348818D01*
X0407449Y0353541D02*
Y0351442D01*
X0405350Y0353541D01*
X0404825D01*
X0404300Y0353016D01*
Y0351967D01*
X0404825Y0351442D01*
X0429431Y0360170D02*
X0428906Y0359645D01*
Y0358596D01*
X0429431Y0358071D01*
X0431530D01*
X0432055Y0358596D01*
Y0359645D01*
X0431530Y0360170D01*
X0432055Y0361220D02*
Y0362269D01*
Y0361744D01*
X0428906D01*
X0429431Y0361220D01*
X0432055Y0363843D02*
Y0364893D01*
Y0364368D01*
X0428906D01*
X0429431Y0363843D01*
X0470770Y0316174D02*
X0470245Y0315649D01*
Y0314600D01*
X0470770Y0314075D01*
X0472869D01*
X0473394Y0314600D01*
Y0315649D01*
X0472869Y0316174D01*
X0473394Y0317223D02*
Y0318273D01*
Y0317748D01*
X0470245D01*
X0470770Y0317223D01*
Y0319847D02*
X0470245Y0320372D01*
Y0321422D01*
X0470770Y0321946D01*
X0472869D01*
X0473394Y0321422D01*
Y0320372D01*
X0472869Y0319847D01*
X0470770D01*
X0420965Y0304494D02*
X0420440Y0305019D01*
X0419391D01*
X0418866Y0304494D01*
Y0302395D01*
X0419391Y0301870D01*
X0420440D01*
X0420965Y0302395D01*
X0422015D02*
X0422540Y0301870D01*
X0423589D01*
X0424114Y0302395D01*
Y0304494D01*
X0423589Y0305019D01*
X0422540D01*
X0422015Y0304494D01*
Y0303969D01*
X0422540Y0303444D01*
X0424114D01*
X0361912Y0345406D02*
X0361387Y0344881D01*
Y0343832D01*
X0361912Y0343307D01*
X0364011D01*
X0364535Y0343832D01*
Y0344881D01*
X0364011Y0345406D01*
X0361912Y0346456D02*
X0361387Y0346981D01*
Y0348030D01*
X0361912Y0348555D01*
X0362436D01*
X0362961Y0348030D01*
X0363486Y0348555D01*
X0364011D01*
X0364535Y0348030D01*
Y0346981D01*
X0364011Y0346456D01*
X0363486D01*
X0362961Y0346981D01*
X0362436Y0346456D01*
X0361912D01*
X0362961Y0346981D02*
Y0348030D01*
X0365947Y0313910D02*
X0365422Y0313385D01*
Y0312336D01*
X0365947Y0311811D01*
X0368046D01*
X0368571Y0312336D01*
Y0313385D01*
X0368046Y0313910D01*
X0365422Y0314960D02*
Y0317059D01*
X0365947D01*
X0368046Y0314960D01*
X0368571D01*
X0423623Y0337762D02*
X0423098Y0338286D01*
X0422048D01*
X0421524Y0337762D01*
Y0335663D01*
X0422048Y0335138D01*
X0423098D01*
X0423623Y0335663D01*
X0426771Y0338286D02*
X0425722Y0337762D01*
X0424672Y0336712D01*
Y0335663D01*
X0425197Y0335138D01*
X0426247D01*
X0426771Y0335663D01*
Y0336187D01*
X0426247Y0336712D01*
X0424672D01*
X0423524Y0331234D02*
X0422999Y0331759D01*
X0421950D01*
X0421425Y0331234D01*
Y0329135D01*
X0421950Y0328610D01*
X0422999D01*
X0423524Y0329135D01*
X0426673Y0331759D02*
X0424574D01*
Y0330185D01*
X0425623Y0330709D01*
X0426148D01*
X0426673Y0330185D01*
Y0329135D01*
X0426148Y0328610D01*
X0425099D01*
X0424574Y0329135D01*
X0368604Y0345997D02*
X0368080Y0345472D01*
Y0344422D01*
X0368604Y0343898D01*
X0370704D01*
X0371228Y0344422D01*
Y0345472D01*
X0370704Y0345997D01*
X0371228Y0348621D02*
X0368080D01*
X0369654Y0347046D01*
Y0349145D01*
X0461912Y0413615D02*
X0461387Y0413090D01*
Y0412041D01*
X0461912Y0411516D01*
X0464011D01*
X0464535Y0412041D01*
Y0413090D01*
X0464011Y0413615D01*
X0461912Y0414664D02*
X0461387Y0415189D01*
Y0416239D01*
X0461912Y0416763D01*
X0462436D01*
X0462961Y0416239D01*
Y0415714D01*
Y0416239D01*
X0463486Y0416763D01*
X0464011D01*
X0464535Y0416239D01*
Y0415189D01*
X0464011Y0414664D01*
X0461813Y0406646D02*
X0461288Y0406121D01*
Y0405072D01*
X0461813Y0404547D01*
X0463912D01*
X0464437Y0405072D01*
Y0406121D01*
X0463912Y0406646D01*
X0464437Y0409795D02*
Y0407696D01*
X0462338Y0409795D01*
X0461813D01*
X0461288Y0409270D01*
Y0408221D01*
X0461813Y0407696D01*
M02*
