G04*
G04 #@! TF.GenerationSoftware,Altium Limited,Altium Designer,19.0.12 (326)*
G04*
G04 Layer_Color=16711935*
%FSAX25Y25*%
%MOIN*%
G70*
G01*
G75*
%ADD12C,0.01181*%
%ADD13C,0.00787*%
%ADD14C,0.01000*%
%ADD78C,0.01968*%
%ADD79C,0.00394*%
%ADD80C,0.00472*%
D12*
X0479882Y0347587D02*
G03*
X0479882Y0347587I-0000394J0000000D01*
G01*
X0447272Y0327264D02*
G03*
X0447272Y0327264I-0000394J0000000D01*
G01*
X0396809Y0402394D02*
G03*
X0396809Y0402394I-0000557J0000000D01*
G01*
X0338551Y0447736D02*
Y0455608D01*
X0342487Y0459543D01*
X0346423Y0455608D01*
Y0447736D01*
Y0453640D01*
X0338551D01*
X0350358Y0447736D02*
X0356262D01*
X0358230Y0449704D01*
X0356262Y0451672D01*
X0352326D01*
X0350358Y0453640D01*
X0352326Y0455608D01*
X0358230D01*
X0362166Y0447736D02*
X0368069D01*
X0370037Y0449704D01*
X0368069Y0451672D01*
X0364133D01*
X0362166Y0453640D01*
X0364133Y0455608D01*
X0370037D01*
X0379876Y0447736D02*
X0375941D01*
X0373973Y0449704D01*
Y0453640D01*
X0375941Y0455608D01*
X0379876D01*
X0381844Y0453640D01*
Y0451672D01*
X0373973D01*
X0385780Y0447736D02*
Y0455608D01*
X0387748D01*
X0389716Y0453640D01*
Y0447736D01*
Y0453640D01*
X0391684Y0455608D01*
X0393651Y0453640D01*
Y0447736D01*
X0397587Y0459543D02*
Y0447736D01*
X0403491D01*
X0405459Y0449704D01*
Y0451672D01*
Y0453640D01*
X0403491Y0455608D01*
X0397587D01*
X0409394Y0447736D02*
X0413330D01*
X0411362D01*
Y0459543D01*
X0409394D01*
X0419234Y0455608D02*
Y0449704D01*
X0421202Y0447736D01*
X0427105D01*
Y0445768D01*
X0425137Y0443800D01*
X0423169D01*
X0427105Y0447736D02*
Y0455608D01*
X0442848Y0459543D02*
X0450720D01*
X0446784D01*
Y0447736D01*
X0460559Y0459543D02*
X0456623D01*
X0454655Y0457576D01*
Y0449704D01*
X0456623Y0447736D01*
X0460559D01*
X0462527Y0449704D01*
Y0457576D01*
X0460559Y0459543D01*
X0466463Y0447736D02*
Y0459543D01*
X0472366D01*
X0474334Y0457576D01*
Y0453640D01*
X0472366Y0451672D01*
X0466463D01*
D13*
X0521047Y0368575D02*
Y0398496D01*
X0499591Y0368575D02*
Y0398496D01*
Y0368575D02*
X0521047D01*
X0499591Y0398496D02*
X0521047D01*
D14*
X0508848Y0377227D02*
X0507848Y0376227D01*
Y0374228D01*
X0508848Y0373228D01*
X0512847D01*
X0513846Y0374228D01*
Y0376227D01*
X0512847Y0377227D01*
X0507848Y0382225D02*
Y0380226D01*
X0508848Y0379226D01*
X0512847D01*
X0513846Y0380226D01*
Y0382225D01*
X0512847Y0383225D01*
X0508848D01*
X0507848Y0382225D01*
X0513846Y0385225D02*
X0507848D01*
X0513846Y0389223D01*
X0507848D01*
X0513846Y0395221D02*
Y0391223D01*
X0509848Y0395221D01*
X0508848D01*
X0507848Y0394222D01*
Y0392222D01*
X0508848Y0391223D01*
D78*
X0487957Y0374783D02*
G03*
X0487957Y0374783I-0000500J0000000D01*
G01*
D79*
X0411205Y0335736D02*
G03*
X0411205Y0335736I-0001969J0000000D01*
G01*
X0446592Y0387402D02*
X0452498D01*
Y0398425D01*
X0446592D02*
X0452498D01*
X0446592Y0387402D02*
Y0398425D01*
X0454595Y0405488D02*
X0460500D01*
Y0416512D01*
X0454595D02*
X0460500D01*
X0454595Y0405488D02*
Y0416512D01*
X0444547Y0416512D02*
X0450453D01*
X0444547Y0405488D02*
Y0416512D01*
Y0405488D02*
X0450453D01*
Y0416512D01*
X0434547Y0405488D02*
X0440453D01*
Y0416512D01*
X0434547D02*
X0440453D01*
X0434547Y0405488D02*
Y0416512D01*
X0479047Y0404559D02*
X0484953D01*
X0479047Y0393535D02*
Y0404559D01*
Y0393535D02*
X0484953D01*
Y0404559D01*
X0486047Y0404512D02*
X0491953D01*
X0486047Y0393488D02*
Y0404512D01*
Y0393488D02*
X0491953D01*
Y0404512D01*
X0439043Y0319783D02*
Y0325689D01*
X0428020D02*
X0439043D01*
X0428020Y0319783D02*
Y0325689D01*
Y0319783D02*
X0439043D01*
X0427626Y0311417D02*
Y0317323D01*
Y0311417D02*
X0438650D01*
Y0317323D01*
X0427626D02*
X0438650D01*
X0466547Y0334988D02*
X0472453D01*
Y0346012D01*
X0466547D02*
X0472453D01*
X0466547Y0334988D02*
Y0346012D01*
X0396524Y0348031D02*
Y0353937D01*
X0385500D02*
X0396524D01*
X0385500Y0348031D02*
Y0353937D01*
Y0348031D02*
X0396524D01*
X0391047Y0387965D02*
X0396953D01*
X0391047Y0376941D02*
Y0387965D01*
Y0376941D02*
X0396953D01*
Y0387965D01*
X0384561D02*
X0390467D01*
X0384561Y0376941D02*
Y0387965D01*
Y0376941D02*
X0390467D01*
Y0387965D01*
X0378075D02*
X0383981D01*
X0378075Y0376941D02*
Y0387965D01*
Y0376941D02*
X0383981D01*
Y0387965D01*
X0371589D02*
X0377495D01*
X0371589Y0376941D02*
Y0387965D01*
Y0376941D02*
X0377495D01*
Y0387965D01*
X0358617D02*
X0364523D01*
X0358617Y0376941D02*
Y0387965D01*
Y0376941D02*
X0364523D01*
Y0387965D01*
X0352131D02*
X0358036D01*
X0352131Y0376941D02*
Y0387965D01*
Y0376941D02*
X0358036D01*
Y0387965D01*
X0510965Y0402047D02*
Y0407953D01*
X0499941D02*
X0510965D01*
X0499941Y0402047D02*
Y0407953D01*
Y0402047D02*
X0510965D01*
X0339159Y0387965D02*
X0345064D01*
X0339159Y0376941D02*
Y0387965D01*
Y0376941D02*
X0345064D01*
Y0387965D01*
X0332673Y0387965D02*
X0338578D01*
X0332673Y0376941D02*
Y0387965D01*
Y0376941D02*
X0338578D01*
Y0387965D01*
X0326187D02*
X0332092D01*
X0326187Y0376941D02*
Y0387965D01*
Y0376941D02*
X0332092D01*
Y0387965D01*
X0319701D02*
X0325606D01*
X0319701Y0376941D02*
Y0387965D01*
Y0376941D02*
X0325606D01*
Y0387965D01*
X0468571Y0376102D02*
Y0382008D01*
X0457547D02*
X0468571D01*
X0457547Y0376102D02*
Y0382008D01*
Y0376102D02*
X0468571D01*
Y0382602D02*
Y0388508D01*
X0457547D02*
X0468571D01*
X0457547Y0382602D02*
Y0388508D01*
Y0382602D02*
X0468571D01*
X0365103Y0387965D02*
X0371008D01*
X0365103Y0376941D02*
Y0387965D01*
Y0376941D02*
X0371008D01*
Y0387965D01*
X0345645Y0387965D02*
X0351550D01*
X0345645Y0376941D02*
Y0387965D01*
Y0376941D02*
X0351550D01*
Y0387965D01*
X0351642Y0328642D02*
Y0342028D01*
X0359516Y0328642D02*
Y0342028D01*
X0351642Y0328642D02*
X0359516D01*
X0351642Y0342028D02*
X0359516D01*
X0481441Y0365437D02*
X0494827D01*
X0481441Y0357563D02*
X0494827D01*
X0481441D02*
Y0365437D01*
X0494827Y0357563D02*
Y0365437D01*
X0476750Y0405297D02*
Y0410797D01*
X0465250D02*
X0476750D01*
X0465250Y0405297D02*
Y0410797D01*
Y0405297D02*
X0476750D01*
Y0411203D02*
Y0416703D01*
X0465250D02*
X0476750D01*
X0465250Y0411203D02*
Y0416703D01*
Y0411203D02*
X0476750D01*
X0366805Y0329978D02*
X0372305D01*
Y0341478D01*
X0366805D02*
X0372305D01*
X0366805Y0329978D02*
Y0341478D01*
X0440758Y0327368D02*
Y0332868D01*
X0429258D02*
X0440758D01*
X0429258Y0327368D02*
Y0332868D01*
Y0327368D02*
X0440758D01*
X0440659Y0334079D02*
Y0339579D01*
X0429159D02*
X0440659D01*
X0429159Y0334079D02*
Y0339579D01*
Y0334079D02*
X0440659D01*
X0369856Y0321892D02*
X0375356D01*
X0369856Y0310392D02*
Y0321892D01*
Y0310392D02*
X0375356D01*
Y0321892D01*
X0360407Y0330077D02*
X0365908D01*
Y0341577D01*
X0360407D02*
X0365908D01*
X0360407Y0330077D02*
Y0341577D01*
X0406395Y0299219D02*
Y0304718D01*
Y0299219D02*
X0417895D01*
Y0304718D01*
X0406395D02*
X0417895D01*
X0462671Y0325140D02*
X0468171D01*
X0462671Y0313640D02*
Y0325140D01*
Y0313640D02*
X0468171D01*
Y0325140D01*
X0421895Y0365457D02*
X0427395D01*
X0421895Y0353957D02*
Y0365457D01*
Y0353957D02*
X0427395D01*
Y0365457D01*
X0402895Y0365456D02*
X0408395D01*
X0402895Y0353956D02*
Y0365456D01*
Y0353956D02*
X0408395D01*
Y0365456D01*
X0406750Y0388203D02*
X0412250D01*
X0406750Y0376703D02*
Y0388203D01*
Y0376703D02*
X0412250D01*
Y0388203D01*
X0389002Y0365360D02*
Y0370860D01*
Y0365360D02*
X0400502D01*
Y0370860D01*
X0389002D02*
X0400502D01*
X0382553Y0365691D02*
X0388053D01*
X0382553Y0354191D02*
Y0365691D01*
Y0354191D02*
X0388053D01*
Y0365691D01*
X0499750Y0408750D02*
Y0414250D01*
Y0408750D02*
X0511250D01*
Y0414250D01*
X0499750D02*
X0511250D01*
X0483357Y0366750D02*
Y0372250D01*
Y0366750D02*
X0494857D01*
Y0372250D01*
X0483357D02*
X0494857D01*
X0474250Y0370750D02*
X0479750D01*
X0474250Y0359250D02*
Y0370750D01*
Y0359250D02*
X0479750D01*
Y0370750D01*
X0486250Y0349250D02*
Y0354750D01*
X0474750D02*
X0486250D01*
X0474750Y0349250D02*
Y0354750D01*
Y0349250D02*
X0486250D01*
X0497250Y0335250D02*
X0502750D01*
Y0346750D01*
X0497250D02*
X0502750D01*
X0497250Y0335250D02*
Y0346750D01*
X0481250Y0327250D02*
Y0332750D01*
Y0327250D02*
X0492750D01*
Y0332750D01*
X0481250D02*
X0492750D01*
X0478512Y0388287D02*
X0485402D01*
X0478512Y0376279D02*
X0485402D01*
X0478512D02*
Y0388287D01*
X0485402Y0376279D02*
Y0388287D01*
X0479095Y0334594D02*
Y0346406D01*
Y0334594D02*
X0490906D01*
Y0346406D01*
X0479095D02*
X0490906D01*
X0446484Y0314272D02*
Y0326083D01*
Y0314272D02*
X0458295D01*
Y0326083D01*
X0446484D02*
X0458295D01*
X0403732Y0399638D02*
Y0420504D01*
X0314362D02*
X0403732D01*
X0314362Y0399638D02*
Y0420504D01*
Y0399638D02*
X0403732D01*
X0421976Y0368996D02*
Y0381594D01*
Y0368996D02*
X0444024D01*
Y0381594D01*
X0421976Y0381594D02*
X0444024Y0381594D01*
X0385221Y0339280D02*
X0412780D01*
X0385221Y0311720D02*
X0412780D01*
X0385221D02*
Y0339280D01*
X0412780Y0311720D02*
Y0339280D01*
X0478850Y0406095D02*
X0485150D01*
X0478850Y0404913D02*
X0485150D01*
Y0417906D01*
X0478850D02*
X0485150D01*
X0478850Y0404913D02*
Y0417906D01*
X0485850Y0406095D02*
X0492150D01*
X0485850Y0404913D02*
X0492150D01*
Y0417906D01*
X0485850D02*
X0492150D01*
X0485850Y0404913D02*
Y0417906D01*
X0388551Y0354823D02*
X0400362D01*
X0388551D02*
Y0364272D01*
X0400362D01*
Y0354823D02*
Y0364272D01*
X0451120Y0388583D02*
X0448758D01*
Y0389763D01*
X0449152Y0390157D01*
X0449939D01*
X0450332Y0389763D01*
Y0388583D01*
Y0389370D02*
X0451120Y0390157D01*
Y0390944D02*
Y0391731D01*
Y0391338D01*
X0448758D01*
X0449152Y0390944D01*
X0451120Y0392912D02*
Y0393699D01*
Y0393305D01*
X0448758D01*
X0449152Y0392912D01*
X0458925Y0409547D02*
X0456564D01*
Y0410728D01*
X0456957Y0411122D01*
X0457745D01*
X0458138Y0410728D01*
Y0409547D01*
Y0410334D02*
X0458925Y0411122D01*
Y0411909D02*
Y0412696D01*
Y0412302D01*
X0456564D01*
X0456957Y0411909D01*
X0448787Y0409154D02*
X0446426D01*
Y0410334D01*
X0446819Y0410728D01*
X0447607D01*
X0448000Y0410334D01*
Y0409154D01*
Y0409941D02*
X0448787Y0410728D01*
Y0413089D02*
Y0411515D01*
X0447213Y0413089D01*
X0446819D01*
X0446426Y0412696D01*
Y0411909D01*
X0446819Y0411515D01*
X0438551Y0409154D02*
X0436190D01*
Y0410334D01*
X0436583Y0410728D01*
X0437370D01*
X0437764Y0410334D01*
Y0409154D01*
Y0409941D02*
X0438551Y0410728D01*
X0436583Y0411515D02*
X0436190Y0411909D01*
Y0412696D01*
X0436583Y0413089D01*
X0436977D01*
X0437370Y0412696D01*
Y0412302D01*
Y0412696D01*
X0437764Y0413089D01*
X0438158D01*
X0438551Y0412696D01*
Y0411909D01*
X0438158Y0411515D01*
X0483138Y0397146D02*
X0480776D01*
Y0398326D01*
X0481170Y0398720D01*
X0481957D01*
X0482351Y0398326D01*
Y0397146D01*
Y0397933D02*
X0483138Y0398720D01*
Y0400688D02*
X0480776D01*
X0481957Y0399507D01*
Y0401081D01*
X0490126Y0397244D02*
X0487765D01*
Y0398425D01*
X0488158Y0398818D01*
X0488945D01*
X0489339Y0398425D01*
Y0397244D01*
Y0398031D02*
X0490126Y0398818D01*
X0487765Y0401180D02*
Y0399605D01*
X0488945D01*
X0488552Y0400393D01*
Y0400786D01*
X0488945Y0401180D01*
X0489732D01*
X0490126Y0400786D01*
Y0399999D01*
X0489732Y0399605D01*
X0431563Y0321358D02*
Y0323720D01*
X0432744D01*
X0433137Y0323326D01*
Y0322539D01*
X0432744Y0322145D01*
X0431563D01*
X0432350D02*
X0433137Y0321358D01*
X0435499Y0323720D02*
X0434712Y0323326D01*
X0433924Y0322539D01*
Y0321752D01*
X0434318Y0321358D01*
X0435105D01*
X0435499Y0321752D01*
Y0322145D01*
X0435105Y0322539D01*
X0433924D01*
X0431268Y0313583D02*
Y0315944D01*
X0432448D01*
X0432842Y0315550D01*
Y0314763D01*
X0432448Y0314370D01*
X0431268D01*
X0432055D02*
X0432842Y0313583D01*
X0433629Y0315944D02*
X0435203D01*
Y0315550D01*
X0433629Y0313976D01*
Y0313583D01*
X0470835Y0338287D02*
X0468473D01*
Y0339468D01*
X0468867Y0339862D01*
X0469654D01*
X0470048Y0339468D01*
Y0338287D01*
Y0339075D02*
X0470835Y0339862D01*
X0468867Y0340649D02*
X0468473Y0341042D01*
Y0341830D01*
X0468867Y0342223D01*
X0469260D01*
X0469654Y0341830D01*
X0470048Y0342223D01*
X0470441D01*
X0470835Y0341830D01*
Y0341042D01*
X0470441Y0340649D01*
X0470048D01*
X0469654Y0341042D01*
X0469260Y0340649D01*
X0468867D01*
X0469654Y0341042D02*
Y0341830D01*
X0388453Y0349902D02*
Y0352263D01*
X0389633D01*
X0390027Y0351869D01*
Y0351082D01*
X0389633Y0350689D01*
X0388453D01*
X0389240D02*
X0390027Y0349902D01*
X0390814Y0350295D02*
X0391208Y0349902D01*
X0391995D01*
X0392389Y0350295D01*
Y0351869D01*
X0391995Y0352263D01*
X0391208D01*
X0390814Y0351869D01*
Y0351476D01*
X0391208Y0351082D01*
X0392389D01*
X0395146Y0379626D02*
X0392784D01*
Y0380807D01*
X0393178Y0381200D01*
X0393965D01*
X0394358Y0380807D01*
Y0379626D01*
Y0380413D02*
X0395146Y0381200D01*
Y0381987D02*
Y0382775D01*
Y0382381D01*
X0392784D01*
X0393178Y0381987D01*
Y0383955D02*
X0392784Y0384349D01*
Y0385136D01*
X0393178Y0385530D01*
X0393571D01*
X0393965Y0385136D01*
Y0384742D01*
Y0385136D01*
X0394358Y0385530D01*
X0394752D01*
X0395146Y0385136D01*
Y0384349D01*
X0394752Y0383955D01*
X0388551Y0379626D02*
X0386190D01*
Y0380807D01*
X0386583Y0381200D01*
X0387370D01*
X0387764Y0380807D01*
Y0379626D01*
Y0380413D02*
X0388551Y0381200D01*
Y0381987D02*
Y0382775D01*
Y0382381D01*
X0386190D01*
X0386583Y0381987D01*
X0388551Y0385136D02*
X0386190D01*
X0387370Y0383955D01*
Y0385530D01*
X0382252Y0379626D02*
X0379890D01*
Y0380807D01*
X0380284Y0381200D01*
X0381071D01*
X0381465Y0380807D01*
Y0379626D01*
Y0380413D02*
X0382252Y0381200D01*
Y0381987D02*
Y0382775D01*
Y0382381D01*
X0379890D01*
X0380284Y0381987D01*
X0379890Y0385530D02*
Y0383955D01*
X0381071D01*
X0380678Y0384742D01*
Y0385136D01*
X0381071Y0385530D01*
X0381858D01*
X0382252Y0385136D01*
Y0384349D01*
X0381858Y0383955D01*
X0375854Y0379626D02*
X0373493D01*
Y0380807D01*
X0373886Y0381200D01*
X0374674D01*
X0375067Y0380807D01*
Y0379626D01*
Y0380413D02*
X0375854Y0381200D01*
Y0381987D02*
Y0382775D01*
Y0382381D01*
X0373493D01*
X0373886Y0381987D01*
X0373493Y0385530D02*
X0373886Y0384742D01*
X0374674Y0383955D01*
X0375461D01*
X0375854Y0384349D01*
Y0385136D01*
X0375461Y0385530D01*
X0375067D01*
X0374674Y0385136D01*
Y0383955D01*
X0362764Y0379823D02*
X0360402D01*
Y0381004D01*
X0360796Y0381397D01*
X0361583D01*
X0361977Y0381004D01*
Y0379823D01*
Y0380610D02*
X0362764Y0381397D01*
Y0382184D02*
Y0382971D01*
Y0382578D01*
X0360402D01*
X0360796Y0382184D01*
X0360402Y0384152D02*
Y0385726D01*
X0360796D01*
X0362370Y0384152D01*
X0362764D01*
X0356366Y0379724D02*
X0354005D01*
Y0380905D01*
X0354398Y0381299D01*
X0355185D01*
X0355579Y0380905D01*
Y0379724D01*
Y0380512D02*
X0356366Y0381299D01*
Y0382086D02*
Y0382873D01*
Y0382479D01*
X0354005D01*
X0354398Y0382086D01*
Y0384054D02*
X0354005Y0384447D01*
Y0385234D01*
X0354398Y0385628D01*
X0354792D01*
X0355185Y0385234D01*
X0355579Y0385628D01*
X0355973D01*
X0356366Y0385234D01*
Y0384447D01*
X0355973Y0384054D01*
X0355579D01*
X0355185Y0384447D01*
X0354792Y0384054D01*
X0354398D01*
X0355185Y0384447D02*
Y0385234D01*
X0502626Y0403740D02*
Y0406102D01*
X0503807D01*
X0504200Y0405708D01*
Y0404921D01*
X0503807Y0404527D01*
X0502626D01*
X0503413D02*
X0504200Y0403740D01*
X0504987D02*
X0505775D01*
X0505381D01*
Y0406102D01*
X0504987Y0405708D01*
X0506955Y0404134D02*
X0507349Y0403740D01*
X0508136D01*
X0508530Y0404134D01*
Y0405708D01*
X0508136Y0406102D01*
X0507349D01*
X0506955Y0405708D01*
Y0405314D01*
X0507349Y0404921D01*
X0508530D01*
X0343079Y0379823D02*
X0340717D01*
Y0381004D01*
X0341111Y0381397D01*
X0341898D01*
X0342292Y0381004D01*
Y0379823D01*
Y0380610D02*
X0343079Y0381397D01*
Y0383759D02*
Y0382184D01*
X0341504Y0383759D01*
X0341111D01*
X0340717Y0383365D01*
Y0382578D01*
X0341111Y0382184D01*
Y0384546D02*
X0340717Y0384939D01*
Y0385726D01*
X0341111Y0386120D01*
X0342685D01*
X0343079Y0385726D01*
Y0384939D01*
X0342685Y0384546D01*
X0341111D01*
X0336976Y0379724D02*
X0334615D01*
Y0380905D01*
X0335009Y0381299D01*
X0335796D01*
X0336189Y0380905D01*
Y0379724D01*
Y0380512D02*
X0336976Y0381299D01*
Y0383660D02*
Y0382086D01*
X0335402Y0383660D01*
X0335009D01*
X0334615Y0383267D01*
Y0382479D01*
X0335009Y0382086D01*
X0336976Y0384447D02*
Y0385234D01*
Y0384841D01*
X0334615D01*
X0335009Y0384447D01*
X0330382Y0379823D02*
X0328020D01*
Y0381004D01*
X0328414Y0381397D01*
X0329201D01*
X0329595Y0381004D01*
Y0379823D01*
Y0380610D02*
X0330382Y0381397D01*
Y0383759D02*
Y0382184D01*
X0328808Y0383759D01*
X0328414D01*
X0328020Y0383365D01*
Y0382578D01*
X0328414Y0382184D01*
X0330382Y0386120D02*
Y0384546D01*
X0328808Y0386120D01*
X0328414D01*
X0328020Y0385726D01*
Y0384939D01*
X0328414Y0384546D01*
X0324083Y0379823D02*
X0321721D01*
Y0381004D01*
X0322115Y0381397D01*
X0322902D01*
X0323295Y0381004D01*
Y0379823D01*
Y0380610D02*
X0324083Y0381397D01*
Y0383759D02*
Y0382184D01*
X0322508Y0383759D01*
X0322115D01*
X0321721Y0383365D01*
Y0382578D01*
X0322115Y0382184D01*
Y0384546D02*
X0321721Y0384939D01*
Y0385726D01*
X0322115Y0386120D01*
X0322508D01*
X0322902Y0385726D01*
Y0385333D01*
Y0385726D01*
X0323295Y0386120D01*
X0323689D01*
X0324083Y0385726D01*
Y0384939D01*
X0323689Y0384546D01*
X0459811Y0378051D02*
Y0380413D01*
X0460992D01*
X0461385Y0380019D01*
Y0379232D01*
X0460992Y0378838D01*
X0459811D01*
X0460598D02*
X0461385Y0378051D01*
X0463747D02*
X0462173D01*
X0463747Y0379626D01*
Y0380019D01*
X0463353Y0380413D01*
X0462566D01*
X0462173Y0380019D01*
X0465715Y0378051D02*
Y0380413D01*
X0464534Y0379232D01*
X0466108D01*
X0459811Y0384252D02*
Y0386613D01*
X0460992D01*
X0461385Y0386220D01*
Y0385433D01*
X0460992Y0385039D01*
X0459811D01*
X0460598D02*
X0461385Y0384252D01*
X0463747D02*
X0462173D01*
X0463747Y0385826D01*
Y0386220D01*
X0463353Y0386613D01*
X0462566D01*
X0462173Y0386220D01*
X0466108Y0386613D02*
X0464534D01*
Y0385433D01*
X0465321Y0385826D01*
X0465715D01*
X0466108Y0385433D01*
Y0384646D01*
X0465715Y0384252D01*
X0464927D01*
X0464534Y0384646D01*
X0369457Y0379626D02*
X0367095D01*
Y0380807D01*
X0367489Y0381200D01*
X0368276D01*
X0368670Y0380807D01*
Y0379626D01*
Y0380413D02*
X0369457Y0381200D01*
Y0383562D02*
Y0381987D01*
X0367882Y0383562D01*
X0367489D01*
X0367095Y0383168D01*
Y0382381D01*
X0367489Y0381987D01*
X0367095Y0385923D02*
X0367489Y0385136D01*
X0368276Y0384349D01*
X0369063D01*
X0369457Y0384742D01*
Y0385530D01*
X0369063Y0385923D01*
X0368670D01*
X0368276Y0385530D01*
Y0384349D01*
X0350067Y0379823D02*
X0347706D01*
Y0381004D01*
X0348099Y0381397D01*
X0348886D01*
X0349280Y0381004D01*
Y0379823D01*
Y0380610D02*
X0350067Y0381397D01*
Y0383759D02*
Y0382184D01*
X0348493Y0383759D01*
X0348099D01*
X0347706Y0383365D01*
Y0382578D01*
X0348099Y0382184D01*
X0347706Y0384546D02*
Y0386120D01*
X0348099D01*
X0349673Y0384546D01*
X0350067D01*
X0470637Y0408956D02*
X0470244Y0409350D01*
X0469456D01*
X0469063Y0408956D01*
Y0407382D01*
X0469456Y0406988D01*
X0470244D01*
X0470637Y0407382D01*
X0472999Y0406988D02*
X0471424D01*
X0472999Y0408563D01*
Y0408956D01*
X0472605Y0409350D01*
X0471818D01*
X0471424Y0408956D01*
X0471130Y0412796D02*
X0471524Y0412402D01*
X0472311D01*
X0472705Y0412796D01*
Y0414370D01*
X0472311Y0414764D01*
X0471524D01*
X0471130Y0414370D01*
X0470343Y0412796D02*
X0469950Y0412402D01*
X0469163D01*
X0468769Y0412796D01*
Y0413190D01*
X0469163Y0413583D01*
X0469556D01*
X0469163D01*
X0468769Y0413977D01*
Y0414370D01*
X0469163Y0414764D01*
X0469950D01*
X0470343Y0414370D01*
X0368768Y0335137D02*
X0368375Y0334744D01*
Y0333957D01*
X0368768Y0333563D01*
X0370343D01*
X0370736Y0333957D01*
Y0334744D01*
X0370343Y0335137D01*
X0370736Y0337105D02*
X0368375D01*
X0369555Y0335924D01*
Y0337499D01*
X0434220Y0330968D02*
X0433826Y0331361D01*
X0433039D01*
X0432646Y0330968D01*
Y0329394D01*
X0433039Y0329000D01*
X0433826D01*
X0434220Y0329394D01*
X0436581Y0331361D02*
X0435007D01*
Y0330181D01*
X0435794Y0330574D01*
X0436188D01*
X0436581Y0330181D01*
Y0329394D01*
X0436188Y0329000D01*
X0435401D01*
X0435007Y0329394D01*
X0434220Y0337795D02*
X0433826Y0338188D01*
X0433039D01*
X0432646Y0337795D01*
Y0336220D01*
X0433039Y0335827D01*
X0433826D01*
X0434220Y0336220D01*
X0436581Y0338188D02*
X0435794Y0337795D01*
X0435007Y0337007D01*
Y0336220D01*
X0435401Y0335827D01*
X0436188D01*
X0436581Y0336220D01*
Y0336614D01*
X0436188Y0337007D01*
X0435007D01*
X0371721Y0316633D02*
X0371327Y0316240D01*
Y0315453D01*
X0371721Y0315059D01*
X0373295D01*
X0373689Y0315453D01*
Y0316240D01*
X0373295Y0316633D01*
X0371327Y0317421D02*
Y0318995D01*
X0371721D01*
X0373295Y0317421D01*
X0373689D01*
X0362174Y0335925D02*
X0361780Y0335531D01*
Y0334744D01*
X0362174Y0334350D01*
X0363748D01*
X0364142Y0334744D01*
Y0335531D01*
X0363748Y0335925D01*
X0362174Y0336712D02*
X0361780Y0337105D01*
Y0337893D01*
X0362174Y0338286D01*
X0362567D01*
X0362961Y0337893D01*
X0363355Y0338286D01*
X0363748D01*
X0364142Y0337893D01*
Y0337105D01*
X0363748Y0336712D01*
X0363355D01*
X0362961Y0337105D01*
X0362567Y0336712D01*
X0362174D01*
X0362961Y0337105D02*
Y0337893D01*
X0411287Y0302755D02*
X0410893Y0303149D01*
X0410106D01*
X0409713Y0302755D01*
Y0301181D01*
X0410106Y0300787D01*
X0410893D01*
X0411287Y0301181D01*
X0412074D02*
X0412468Y0300787D01*
X0413255D01*
X0413648Y0301181D01*
Y0302755D01*
X0413255Y0303149D01*
X0412468D01*
X0412074Y0302755D01*
Y0302362D01*
X0412468Y0301968D01*
X0413648D01*
X0466389Y0321566D02*
X0466783Y0321959D01*
Y0322746D01*
X0466389Y0323140D01*
X0464815D01*
X0464421Y0322746D01*
Y0321959D01*
X0464815Y0321566D01*
X0464421Y0320778D02*
Y0319991D01*
Y0320385D01*
X0466783D01*
X0466389Y0320778D01*
Y0318811D02*
X0466783Y0318417D01*
Y0317630D01*
X0466389Y0317236D01*
X0464815D01*
X0464421Y0317630D01*
Y0318417D01*
X0464815Y0318811D01*
X0466389D01*
X0423985Y0359744D02*
X0423591Y0359350D01*
Y0358563D01*
X0423985Y0358169D01*
X0425559D01*
X0425953Y0358563D01*
Y0359350D01*
X0425559Y0359744D01*
X0425953Y0360531D02*
Y0361318D01*
Y0360924D01*
X0423591D01*
X0423985Y0360531D01*
X0425953Y0362499D02*
Y0363286D01*
Y0362892D01*
X0423591D01*
X0423985Y0362499D01*
X0404989Y0358169D02*
X0404595Y0357775D01*
Y0356988D01*
X0404989Y0356594D01*
X0406563D01*
X0406957Y0356988D01*
Y0357775D01*
X0406563Y0358169D01*
X0406957Y0358956D02*
Y0359743D01*
Y0359349D01*
X0404595D01*
X0404989Y0358956D01*
X0406957Y0362498D02*
Y0360924D01*
X0405382Y0362498D01*
X0404989D01*
X0404595Y0362105D01*
Y0361317D01*
X0404989Y0360924D01*
X0409237Y0381200D02*
X0408843Y0380807D01*
Y0380020D01*
X0409237Y0379626D01*
X0410811D01*
X0411205Y0380020D01*
Y0380807D01*
X0410811Y0381200D01*
X0411205Y0381987D02*
Y0382775D01*
Y0382381D01*
X0408843D01*
X0409237Y0381987D01*
Y0383955D02*
X0408843Y0384349D01*
Y0385136D01*
X0409237Y0385530D01*
X0409630D01*
X0410024Y0385136D01*
Y0384742D01*
Y0385136D01*
X0410418Y0385530D01*
X0410811D01*
X0411205Y0385136D01*
Y0384349D01*
X0410811Y0383955D01*
X0392576Y0369078D02*
X0392183Y0369472D01*
X0391395D01*
X0391002Y0369078D01*
Y0367504D01*
X0391395Y0367110D01*
X0392183D01*
X0392576Y0367504D01*
X0393363Y0367110D02*
X0394151D01*
X0393757D01*
Y0369472D01*
X0393363Y0369078D01*
X0396512Y0367110D02*
Y0369472D01*
X0395331Y0368291D01*
X0396905D01*
X0384713Y0358562D02*
X0384320Y0358169D01*
Y0357382D01*
X0384713Y0356988D01*
X0386287D01*
X0386681Y0357382D01*
Y0358169D01*
X0386287Y0358562D01*
X0386681Y0359350D02*
Y0360137D01*
Y0359743D01*
X0384320D01*
X0384713Y0359350D01*
X0384320Y0362892D02*
Y0361317D01*
X0385500D01*
X0385107Y0362105D01*
Y0362498D01*
X0385500Y0362892D01*
X0386287D01*
X0386681Y0362498D01*
Y0361711D01*
X0386287Y0361317D01*
X0504003Y0411909D02*
X0503610Y0412302D01*
X0502823D01*
X0502429Y0411909D01*
Y0410334D01*
X0502823Y0409941D01*
X0503610D01*
X0504003Y0410334D01*
X0504791Y0409941D02*
X0505578D01*
X0505184D01*
Y0412302D01*
X0504791Y0411909D01*
X0508333Y0412302D02*
X0507546Y0411909D01*
X0506758Y0411122D01*
Y0410334D01*
X0507152Y0409941D01*
X0507939D01*
X0508333Y0410334D01*
Y0410728D01*
X0507939Y0411122D01*
X0506758D01*
X0486931Y0370468D02*
X0486538Y0370861D01*
X0485750D01*
X0485357Y0370468D01*
Y0368894D01*
X0485750Y0368500D01*
X0486538D01*
X0486931Y0368894D01*
X0487718Y0368500D02*
X0488506D01*
X0488112D01*
Y0370861D01*
X0487718Y0370468D01*
X0489686Y0370861D02*
X0491260D01*
Y0370468D01*
X0489686Y0368894D01*
Y0368500D01*
X0476544Y0363484D02*
X0476150Y0363090D01*
Y0362303D01*
X0476544Y0361910D01*
X0478118D01*
X0478512Y0362303D01*
Y0363090D01*
X0478118Y0363484D01*
X0478512Y0364271D02*
Y0365058D01*
Y0364665D01*
X0476150D01*
X0476544Y0364271D01*
Y0366239D02*
X0476150Y0366632D01*
Y0367420D01*
X0476544Y0367813D01*
X0476937D01*
X0477331Y0367420D01*
X0477725Y0367813D01*
X0478118D01*
X0478512Y0367420D01*
Y0366632D01*
X0478118Y0366239D01*
X0477725D01*
X0477331Y0366632D01*
X0476937Y0366239D01*
X0476544D01*
X0477331Y0366632D02*
Y0367420D01*
X0479200Y0352854D02*
X0478807Y0353247D01*
X0478020D01*
X0477626Y0352854D01*
Y0351279D01*
X0478020Y0350886D01*
X0478807D01*
X0479200Y0351279D01*
X0479987Y0350886D02*
X0480775D01*
X0480381D01*
Y0353247D01*
X0479987Y0352854D01*
X0481955Y0351279D02*
X0482349Y0350886D01*
X0483136D01*
X0483530Y0351279D01*
Y0352854D01*
X0483136Y0353247D01*
X0482349D01*
X0481955Y0352854D01*
Y0352460D01*
X0482349Y0352067D01*
X0483530D01*
X0499032Y0338824D02*
X0498639Y0338431D01*
Y0337644D01*
X0499032Y0337250D01*
X0500606D01*
X0501000Y0337644D01*
Y0338431D01*
X0500606Y0338824D01*
X0501000Y0341186D02*
Y0339611D01*
X0499426Y0341186D01*
X0499032D01*
X0498639Y0340792D01*
Y0340005D01*
X0499032Y0339611D01*
Y0341973D02*
X0498639Y0342366D01*
Y0343154D01*
X0499032Y0343547D01*
X0500606D01*
X0501000Y0343154D01*
Y0342366D01*
X0500606Y0341973D01*
X0499032D01*
X0484824Y0330968D02*
X0484431Y0331361D01*
X0483644D01*
X0483250Y0330968D01*
Y0329394D01*
X0483644Y0329000D01*
X0484431D01*
X0484824Y0329394D01*
X0487186Y0329000D02*
X0485611D01*
X0487186Y0330574D01*
Y0330968D01*
X0486792Y0331361D01*
X0486005D01*
X0485611Y0330968D01*
X0487973Y0329000D02*
X0488760D01*
X0488366D01*
Y0331361D01*
X0487973Y0330968D01*
X0433891Y0376803D02*
X0433236Y0377459D01*
X0431924D01*
X0431268Y0376803D01*
Y0376147D01*
X0431924Y0375491D01*
X0433236D01*
X0433891Y0374835D01*
Y0374180D01*
X0433236Y0373524D01*
X0431924D01*
X0431268Y0374180D01*
X0435203Y0373524D02*
X0436515D01*
X0435859D01*
Y0377459D01*
X0435203Y0376803D01*
X0480776Y0410039D02*
X0483138D01*
Y0411220D01*
X0482744Y0411614D01*
X0481170D01*
X0480776Y0411220D01*
Y0410039D01*
X0483138Y0412401D02*
Y0413188D01*
Y0412794D01*
X0480776D01*
X0481170Y0412401D01*
X0487469Y0409842D02*
X0489831D01*
Y0411023D01*
X0489437Y0411417D01*
X0487863D01*
X0487469Y0411023D01*
Y0409842D01*
X0489831Y0413778D02*
Y0412204D01*
X0488256Y0413778D01*
X0487863D01*
X0487469Y0413385D01*
Y0412598D01*
X0487863Y0412204D01*
D80*
X0354300Y0334448D02*
Y0332874D01*
X0355481D01*
Y0333661D01*
Y0332874D01*
X0356661D01*
X0354300Y0335236D02*
X0356661D01*
Y0336416D01*
X0356268Y0336810D01*
X0355874D01*
X0355481Y0336416D01*
Y0335236D01*
Y0336416D01*
X0355087Y0336810D01*
X0354694D01*
X0354300Y0336416D01*
Y0335236D01*
X0356661Y0337597D02*
Y0338384D01*
Y0337990D01*
X0354300D01*
X0354694Y0337597D01*
X0486724Y0362696D02*
X0485150D01*
Y0361515D01*
X0485937D01*
X0485150D01*
Y0360335D01*
X0487511Y0362696D02*
Y0360335D01*
X0488692D01*
X0489085Y0360728D01*
Y0361122D01*
X0488692Y0361515D01*
X0487511D01*
X0488692D01*
X0489085Y0361909D01*
Y0362302D01*
X0488692Y0362696D01*
X0487511D01*
X0491447Y0360335D02*
X0489873D01*
X0491447Y0361909D01*
Y0362302D01*
X0491053Y0362696D01*
X0490266D01*
X0489873Y0362302D01*
X0479595Y0383857D02*
Y0381890D01*
X0479988Y0381496D01*
X0480775D01*
X0481169Y0381890D01*
Y0383857D01*
X0483137Y0381496D02*
Y0383857D01*
X0481956Y0382677D01*
X0483530D01*
X0483130Y0341385D02*
Y0339417D01*
X0483524Y0339024D01*
X0484311D01*
X0484704Y0339417D01*
Y0341385D01*
X0487066D02*
X0485491D01*
Y0340204D01*
X0486278Y0340598D01*
X0486672D01*
X0487066Y0340204D01*
Y0339417D01*
X0486672Y0339024D01*
X0485885D01*
X0485491Y0339417D01*
X0450520Y0321062D02*
Y0319094D01*
X0450913Y0318701D01*
X0451700D01*
X0452094Y0319094D01*
Y0321062D01*
X0452881Y0320669D02*
X0453275Y0321062D01*
X0454062D01*
X0454455Y0320669D01*
Y0320275D01*
X0454062Y0319882D01*
X0453668D01*
X0454062D01*
X0454455Y0319488D01*
Y0319094D01*
X0454062Y0318701D01*
X0453275D01*
X0452881Y0319094D01*
X0354200Y0412007D02*
X0353807Y0412401D01*
X0353019D01*
X0352626Y0412007D01*
Y0410433D01*
X0353019Y0410039D01*
X0353807D01*
X0354200Y0410433D01*
X0356168Y0412401D02*
X0355381D01*
X0354987Y0412007D01*
Y0410433D01*
X0355381Y0410039D01*
X0356168D01*
X0356562Y0410433D01*
Y0412007D01*
X0356168Y0412401D01*
X0357349Y0410039D02*
Y0412401D01*
X0358923Y0410039D01*
Y0412401D01*
X0359710Y0410039D02*
X0360497D01*
X0360104D01*
Y0412401D01*
X0359710Y0412007D01*
X0397803Y0327165D02*
Y0325197D01*
X0398197Y0324803D01*
X0398984D01*
X0399377Y0325197D01*
Y0327165D01*
X0400165Y0324803D02*
X0400952D01*
X0400558D01*
Y0327165D01*
X0400165Y0326771D01*
X0392882Y0360728D02*
Y0360334D01*
X0393669Y0359547D01*
X0394456Y0360334D01*
Y0360728D01*
X0393669Y0359547D02*
Y0358366D01*
X0395243D02*
X0396030D01*
X0395637D01*
Y0360728D01*
X0395243Y0360334D01*
M02*
