G04*
G04 #@! TF.GenerationSoftware,Altium Limited,Altium Designer,19.0.12 (326)*
G04*
G04 Layer_Color=32896*
%FSAX25Y25*%
%MOIN*%
G70*
G01*
G75*
%ADD13C,0.00787*%
%ADD14C,0.01000*%
%ADD17C,0.00709*%
%ADD78C,0.01968*%
%ADD79C,0.00394*%
D13*
X0347500Y0307972D02*
X0365217D01*
X0347500D02*
Y0402461D01*
X0365217D01*
X0284122Y0309842D02*
X0327429D01*
X0284122D02*
Y0357087D01*
X0327429Y0309842D02*
Y0357087D01*
X0284122D02*
X0327429D01*
D14*
X0351437Y0313484D02*
Y0323721D01*
X0362461D01*
Y0313484D02*
Y0323721D01*
X0351437Y0313484D02*
X0362461D01*
X0393169Y0307972D02*
X0415217D01*
X0393169Y0402461D02*
X0415217D01*
X0493169D02*
X0499862D01*
Y0307972D02*
Y0402461D01*
X0493563Y0307972D02*
X0499862D01*
X0323000Y0300886D02*
Y0304885D01*
X0321001Y0306884D01*
X0319001Y0304885D01*
Y0300886D01*
Y0303885D01*
X0323000D01*
X0317002Y0300886D02*
X0315003D01*
X0316002D01*
Y0306884D01*
X0317002Y0305884D01*
D17*
X0389240Y0296850D02*
Y0299999D01*
X0387666D01*
X0387141Y0299474D01*
Y0298425D01*
X0387666Y0297900D01*
X0389240D01*
X0388191D02*
X0387141Y0296850D01*
X0386092D02*
X0385042D01*
X0385567D01*
Y0299999D01*
X0386092Y0299474D01*
X0383468D02*
X0382943Y0299999D01*
X0381893D01*
X0381369Y0299474D01*
Y0297375D01*
X0381893Y0296850D01*
X0382943D01*
X0383468Y0297375D01*
Y0299474D01*
X0496819Y0305511D02*
Y0302887D01*
X0496294Y0302362D01*
X0495245D01*
X0494720Y0302887D01*
Y0305511D01*
X0491571Y0302362D02*
X0493670D01*
X0491571Y0304461D01*
Y0304986D01*
X0492096Y0305511D01*
X0493146D01*
X0493670Y0304986D01*
X0329103Y0366831D02*
X0332252D01*
Y0364732D01*
X0329628Y0363682D02*
X0329103Y0363157D01*
Y0362108D01*
X0329628Y0361583D01*
X0330153D01*
X0330678Y0362108D01*
Y0362633D01*
Y0362108D01*
X0331202Y0361583D01*
X0331727D01*
X0332252Y0362108D01*
Y0363157D01*
X0331727Y0363682D01*
X0328808Y0337598D02*
X0331957D01*
Y0335499D01*
Y0332351D02*
Y0334450D01*
X0329858Y0332351D01*
X0329333D01*
X0328808Y0332875D01*
Y0333925D01*
X0329333Y0334450D01*
X0341406Y0352559D02*
X0344555D01*
Y0350460D01*
Y0349411D02*
Y0348361D01*
Y0348886D01*
X0341406D01*
X0341931Y0349411D01*
X0337732Y0351344D02*
X0338256Y0351869D01*
X0339306D01*
X0339831Y0351344D01*
Y0349245D01*
X0339306Y0348721D01*
X0338256D01*
X0337732Y0349245D01*
X0336682Y0348721D02*
X0335633D01*
X0336157D01*
Y0351869D01*
X0336682Y0351344D01*
D78*
X0325554Y0361024D02*
G03*
X0325554Y0361024I-0000880J0000000D01*
G01*
D79*
X0372705Y0300590D02*
X0380185D01*
X0372705Y0296654D02*
Y0300590D01*
Y0296654D02*
X0380185D01*
Y0300590D01*
X0345264Y0339220D02*
Y0346701D01*
X0341327D02*
X0345264D01*
X0341327Y0339220D02*
Y0346701D01*
Y0339220D02*
X0345264D01*
X0328327D02*
X0332264D01*
X0328327D02*
Y0346701D01*
X0332264D01*
Y0339220D02*
Y0346701D01*
X0328677Y0352720D02*
Y0360201D01*
Y0352720D02*
X0332614D01*
Y0360201D01*
X0328677D02*
X0332614D01*
X0340524Y0342894D02*
Y0347028D01*
X0332846Y0342894D02*
X0340524D01*
X0332846D02*
Y0347028D01*
X0340524D01*
M02*
